<?xml version="1.0" encoding="UTF-8" standalone="no"?>
<!-- This is a Stata 16.1 generated SVG file (http://www.stata.com) -->

<svg version="1.1" width="5.50in" height="4.00in" viewBox="0 0 3960 2880" xmlns="http://www.w3.org/2000/svg" xmlns:xlink="http://www.w3.org/1999/xlink">
	<desc>Stata Graph - Graph</desc>
	<rect x="0" y="0" width="3960" height="2880" style="fill:#EAF2F3;stroke:none"/>
	<rect x="0.00" y="0.00" width="3959.88" height="2880.00" style="fill:#EAF2F3"/>
	<rect x="2.88" y="2.88" width="3954.12" height="2874.24" style="fill:none;stroke:#EAF2F3;stroke-width:5.76"/>
	<rect x="527.30" y="407.27" width="1614.07" height="1728.10" style="fill:#FFFFFF"/>
	<rect x="529.75" y="409.72" width="1609.18" height="1723.20" style="fill:none;stroke:#FFFFFF;stroke-width:4.90"/>
	<line x1="527.30" y1="2081.54" x2="2141.37" y2="2081.54" style="stroke:#EAF2F3;stroke-width:7.34"/>
	<line x1="527.30" y1="1618.58" x2="2141.37" y2="1618.58" style="stroke:#EAF2F3;stroke-width:7.34"/>
	<line x1="527.30" y1="1155.61" x2="2141.37" y2="1155.61" style="stroke:#EAF2F3;stroke-width:7.34"/>
	<line x1="527.30" y1="692.65" x2="2141.37" y2="692.65" style="stroke:#EAF2F3;stroke-width:7.34"/>
	<rect x="2210.42" y="407.27" width="1614.07" height="1728.10" style="fill:#FFFFFF"/>
	<rect x="2212.87" y="409.72" width="1609.18" height="1723.20" style="fill:none;stroke:#FFFFFF;stroke-width:4.90"/>
	<line x1="2210.42" y1="2081.54" x2="3824.49" y2="2081.54" style="stroke:#EAF2F3;stroke-width:7.34"/>
	<line x1="2210.42" y1="1618.58" x2="3824.49" y2="1618.58" style="stroke:#EAF2F3;stroke-width:7.34"/>
	<line x1="2210.42" y1="1155.61" x2="3824.49" y2="1155.61" style="stroke:#EAF2F3;stroke-width:7.34"/>
	<line x1="2210.42" y1="692.65" x2="3824.49" y2="692.65" style="stroke:#EAF2F3;stroke-width:7.34"/>
	<circle cx="621.23" cy="2080.55" r="22.36" style="fill:#1A476F"/>
	<circle cx="621.23" cy="2080.55" r="18.69" style="fill:none;stroke:#1A476F;stroke-width:7.34"/>
	<circle cx="631.25" cy="2080.80" r="22.36" style="fill:#1A476F"/>
	<circle cx="631.25" cy="2080.80" r="18.69" style="fill:none;stroke:#1A476F;stroke-width:7.34"/>
	<circle cx="641.40" cy="2080.18" r="22.36" style="fill:#1A476F"/>
	<circle cx="641.40" cy="2080.18" r="18.69" style="fill:none;stroke:#1A476F;stroke-width:7.34"/>
	<circle cx="651.42" cy="2080.55" r="22.36" style="fill:#1A476F"/>
	<circle cx="651.42" cy="2080.55" r="18.69" style="fill:none;stroke:#1A476F;stroke-width:7.34"/>
	<circle cx="661.44" cy="2080.55" r="22.36" style="fill:#1A476F"/>
	<circle cx="661.44" cy="2080.55" r="18.69" style="fill:none;stroke:#1A476F;stroke-width:7.34"/>
	<circle cx="671.47" cy="2080.18" r="22.36" style="fill:#1A476F"/>
	<circle cx="671.47" cy="2080.18" r="18.69" style="fill:none;stroke:#1A476F;stroke-width:7.34"/>
	<circle cx="681.49" cy="2079.81" r="22.36" style="fill:#1A476F"/>
	<circle cx="681.49" cy="2079.81" r="18.69" style="fill:none;stroke:#1A476F;stroke-width:7.34"/>
	<circle cx="691.51" cy="2079.06" r="22.36" style="fill:#1A476F"/>
	<circle cx="691.51" cy="2079.06" r="18.69" style="fill:none;stroke:#1A476F;stroke-width:7.34"/>
	<circle cx="701.54" cy="2078.45" r="22.36" style="fill:#1A476F"/>
	<circle cx="701.54" cy="2078.45" r="18.69" style="fill:none;stroke:#1A476F;stroke-width:7.34"/>
	<circle cx="711.69" cy="2078.82" r="22.36" style="fill:#1A476F"/>
	<circle cx="711.69" cy="2078.82" r="18.69" style="fill:none;stroke:#1A476F;stroke-width:7.34"/>
	<circle cx="721.71" cy="2079.06" r="22.36" style="fill:#1A476F"/>
	<circle cx="721.71" cy="2079.06" r="18.69" style="fill:none;stroke:#1A476F;stroke-width:7.34"/>
	<circle cx="731.73" cy="2078.45" r="22.36" style="fill:#1A476F"/>
	<circle cx="731.73" cy="2078.45" r="18.69" style="fill:none;stroke:#1A476F;stroke-width:7.34"/>
	<circle cx="741.76" cy="2078.82" r="22.36" style="fill:#1A476F"/>
	<circle cx="741.76" cy="2078.82" r="18.69" style="fill:none;stroke:#1A476F;stroke-width:7.34"/>
	<circle cx="751.78" cy="2078.82" r="22.36" style="fill:#1A476F"/>
	<circle cx="751.78" cy="2078.82" r="18.69" style="fill:none;stroke:#1A476F;stroke-width:7.34"/>
	<circle cx="761.80" cy="2079.44" r="22.36" style="fill:#1A476F"/>
	<circle cx="761.80" cy="2079.44" r="18.69" style="fill:none;stroke:#1A476F;stroke-width:7.34"/>
	<circle cx="771.95" cy="2080.18" r="22.36" style="fill:#1A476F"/>
	<circle cx="771.95" cy="2080.18" r="18.69" style="fill:none;stroke:#1A476F;stroke-width:7.34"/>
	<circle cx="781.98" cy="2080.55" r="22.36" style="fill:#1A476F"/>
	<circle cx="781.98" cy="2080.55" r="18.69" style="fill:none;stroke:#1A476F;stroke-width:7.34"/>
	<circle cx="792.00" cy="2080.18" r="22.36" style="fill:#1A476F"/>
	<circle cx="792.00" cy="2080.18" r="18.69" style="fill:none;stroke:#1A476F;stroke-width:7.34"/>
	<circle cx="802.02" cy="2080.92" r="22.36" style="fill:#1A476F"/>
	<circle cx="802.02" cy="2080.92" r="18.69" style="fill:none;stroke:#1A476F;stroke-width:7.34"/>
	<circle cx="812.05" cy="2080.92" r="22.36" style="fill:#1A476F"/>
	<circle cx="812.05" cy="2080.92" r="18.69" style="fill:none;stroke:#1A476F;stroke-width:7.34"/>
	<circle cx="822.07" cy="2079.81" r="22.36" style="fill:#1A476F"/>
	<circle cx="822.07" cy="2079.81" r="18.69" style="fill:none;stroke:#1A476F;stroke-width:7.34"/>
	<circle cx="832.10" cy="2078.07" r="22.36" style="fill:#1A476F"/>
	<circle cx="832.10" cy="2078.07" r="18.69" style="fill:none;stroke:#1A476F;stroke-width:7.34"/>
	<circle cx="842.24" cy="2073.87" r="22.36" style="fill:#1A476F"/>
	<circle cx="842.24" cy="2073.87" r="18.69" style="fill:none;stroke:#1A476F;stroke-width:7.34"/>
	<circle cx="852.27" cy="2072.75" r="22.36" style="fill:#1A476F"/>
	<circle cx="852.27" cy="2072.75" r="18.69" style="fill:none;stroke:#1A476F;stroke-width:7.34"/>
	<circle cx="862.29" cy="2072.75" r="22.36" style="fill:#1A476F"/>
	<circle cx="862.29" cy="2072.75" r="18.69" style="fill:none;stroke:#1A476F;stroke-width:7.34"/>
	<circle cx="872.31" cy="2072.13" r="22.36" style="fill:#1A476F"/>
	<circle cx="872.31" cy="2072.13" r="18.69" style="fill:none;stroke:#1A476F;stroke-width:7.34"/>
	<circle cx="882.34" cy="2071.39" r="22.36" style="fill:#1A476F"/>
	<circle cx="882.34" cy="2071.39" r="18.69" style="fill:none;stroke:#1A476F;stroke-width:7.34"/>
	<circle cx="892.36" cy="2072.75" r="22.36" style="fill:#1A476F"/>
	<circle cx="892.36" cy="2072.75" r="18.69" style="fill:none;stroke:#1A476F;stroke-width:7.34"/>
	<circle cx="902.38" cy="2074.24" r="22.36" style="fill:#1A476F"/>
	<circle cx="902.38" cy="2074.24" r="18.69" style="fill:none;stroke:#1A476F;stroke-width:7.34"/>
	<circle cx="912.53" cy="2078.45" r="22.36" style="fill:#1A476F"/>
	<circle cx="912.53" cy="2078.45" r="18.69" style="fill:none;stroke:#1A476F;stroke-width:7.34"/>
	<circle cx="922.56" cy="2078.82" r="22.36" style="fill:#1A476F"/>
	<circle cx="922.56" cy="2078.82" r="18.69" style="fill:none;stroke:#1A476F;stroke-width:7.34"/>
	<circle cx="932.58" cy="2078.82" r="22.36" style="fill:#1A476F"/>
	<circle cx="932.58" cy="2078.82" r="18.69" style="fill:none;stroke:#1A476F;stroke-width:7.34"/>
	<circle cx="942.60" cy="2079.06" r="22.36" style="fill:#1A476F"/>
	<circle cx="942.60" cy="2079.06" r="18.69" style="fill:none;stroke:#1A476F;stroke-width:7.34"/>
	<circle cx="952.63" cy="2077.33" r="22.36" style="fill:#1A476F"/>
	<circle cx="952.63" cy="2077.33" r="18.69" style="fill:none;stroke:#1A476F;stroke-width:7.34"/>
	<circle cx="962.65" cy="2074.24" r="22.36" style="fill:#1A476F"/>
	<circle cx="962.65" cy="2074.24" r="18.69" style="fill:none;stroke:#1A476F;stroke-width:7.34"/>
	<circle cx="972.80" cy="2068.30" r="22.36" style="fill:#1A476F"/>
	<circle cx="972.80" cy="2068.30" r="18.69" style="fill:none;stroke:#1A476F;stroke-width:7.34"/>
	<circle cx="982.82" cy="2061.62" r="22.36" style="fill:#1A476F"/>
	<circle cx="982.82" cy="2061.62" r="18.69" style="fill:none;stroke:#1A476F;stroke-width:7.34"/>
	<circle cx="992.85" cy="2054.19" r="22.36" style="fill:#1A476F"/>
	<circle cx="992.85" cy="2054.19" r="18.69" style="fill:none;stroke:#1A476F;stroke-width:7.34"/>
	<circle cx="1002.87" cy="2053.20" r="22.36" style="fill:#1A476F"/>
	<circle cx="1002.87" cy="2053.20" r="18.69" style="fill:none;stroke:#1A476F;stroke-width:7.34"/>
	<circle cx="1012.89" cy="2051.10" r="22.36" style="fill:#1A476F"/>
	<circle cx="1012.89" cy="2051.10" r="18.69" style="fill:none;stroke:#1A476F;stroke-width:7.34"/>
	<circle cx="1022.92" cy="2021.02" r="22.36" style="fill:#1A476F"/>
	<circle cx="1022.92" cy="2021.02" r="18.69" style="fill:none;stroke:#1A476F;stroke-width:7.34"/>
	<circle cx="1032.94" cy="1995.41" r="22.36" style="fill:#1A476F"/>
	<circle cx="1032.94" cy="1995.41" r="18.69" style="fill:none;stroke:#1A476F;stroke-width:7.34"/>
	<circle cx="1043.09" cy="1957.29" r="22.36" style="fill:#1A476F"/>
	<circle cx="1043.09" cy="1957.29" r="18.69" style="fill:none;stroke:#1A476F;stroke-width:7.34"/>
	<circle cx="1053.11" cy="1927.84" r="22.36" style="fill:#1A476F"/>
	<circle cx="1053.11" cy="1927.84" r="18.69" style="fill:none;stroke:#1A476F;stroke-width:7.34"/>
	<circle cx="1063.14" cy="1873.63" r="22.36" style="fill:#1A476F"/>
	<circle cx="1063.14" cy="1873.63" r="18.69" style="fill:none;stroke:#1A476F;stroke-width:7.34"/>
	<circle cx="1073.16" cy="1870.04" r="22.36" style="fill:#1A476F"/>
	<circle cx="1073.16" cy="1870.04" r="18.69" style="fill:none;stroke:#1A476F;stroke-width:7.34"/>
	<circle cx="1083.18" cy="1866.58" r="22.36" style="fill:#1A476F"/>
	<circle cx="1083.18" cy="1866.58" r="18.69" style="fill:none;stroke:#1A476F;stroke-width:7.34"/>
	<circle cx="1093.21" cy="1834.03" r="22.36" style="fill:#1A476F"/>
	<circle cx="1093.21" cy="1834.03" r="18.69" style="fill:none;stroke:#1A476F;stroke-width:7.34"/>
	<circle cx="1103.23" cy="1825.62" r="22.36" style="fill:#1A476F"/>
	<circle cx="1103.23" cy="1825.62" r="18.69" style="fill:none;stroke:#1A476F;stroke-width:7.34"/>
	<circle cx="1113.38" cy="1825.62" r="22.36" style="fill:#1A476F"/>
	<circle cx="1113.38" cy="1825.62" r="18.69" style="fill:none;stroke:#1A476F;stroke-width:7.34"/>
	<circle cx="1123.40" cy="1828.46" r="22.36" style="fill:#1A476F"/>
	<circle cx="1123.40" cy="1828.46" r="18.69" style="fill:none;stroke:#1A476F;stroke-width:7.34"/>
	<circle cx="1133.43" cy="1851.11" r="22.36" style="fill:#1A476F"/>
	<circle cx="1133.43" cy="1851.11" r="18.69" style="fill:none;stroke:#1A476F;stroke-width:7.34"/>
	<circle cx="1143.45" cy="1846.28" r="22.36" style="fill:#1A476F"/>
	<circle cx="1143.45" cy="1846.28" r="18.69" style="fill:none;stroke:#1A476F;stroke-width:7.34"/>
	<circle cx="1153.47" cy="1845.54" r="22.36" style="fill:#1A476F"/>
	<circle cx="1153.47" cy="1845.54" r="18.69" style="fill:none;stroke:#1A476F;stroke-width:7.34"/>
	<circle cx="1163.50" cy="1860.27" r="22.36" style="fill:#1A476F"/>
	<circle cx="1163.50" cy="1860.27" r="18.69" style="fill:none;stroke:#1A476F;stroke-width:7.34"/>
	<circle cx="1173.64" cy="1835.76" r="22.36" style="fill:#1A476F"/>
	<circle cx="1173.64" cy="1835.76" r="18.69" style="fill:none;stroke:#1A476F;stroke-width:7.34"/>
	<circle cx="1183.67" cy="1500.27" r="22.36" style="fill:#1A476F"/>
	<circle cx="1183.67" cy="1500.27" r="18.69" style="fill:none;stroke:#1A476F;stroke-width:7.34"/>
	<circle cx="1193.69" cy="1270.21" r="22.36" style="fill:#1A476F"/>
	<circle cx="1193.69" cy="1270.21" r="18.69" style="fill:none;stroke:#1A476F;stroke-width:7.34"/>
	<circle cx="1203.72" cy="1094.11" r="22.36" style="fill:#1A476F"/>
	<circle cx="1203.72" cy="1094.11" r="18.69" style="fill:none;stroke:#1A476F;stroke-width:7.34"/>
	<circle cx="1213.74" cy="1092.38" r="22.36" style="fill:#1A476F"/>
	<circle cx="1213.74" cy="1092.38" r="18.69" style="fill:none;stroke:#1A476F;stroke-width:7.34"/>
	<circle cx="1223.76" cy="1085.45" r="22.36" style="fill:#1A476F"/>
	<circle cx="1223.76" cy="1085.45" r="18.69" style="fill:none;stroke:#1A476F;stroke-width:7.34"/>
	<circle cx="1233.79" cy="888.55" r="22.36" style="fill:#1A476F"/>
	<circle cx="1233.79" cy="888.55" r="18.69" style="fill:none;stroke:#1A476F;stroke-width:7.34"/>
	<circle cx="1243.93" cy="797.22" r="22.36" style="fill:#1A476F"/>
	<circle cx="1243.93" cy="797.22" r="18.69" style="fill:none;stroke:#1A476F;stroke-width:7.34"/>
	<circle cx="1253.96" cy="1009.09" r="22.36" style="fill:#1A476F"/>
	<circle cx="1253.96" cy="1009.09" r="18.69" style="fill:none;stroke:#1A476F;stroke-width:7.34"/>
	<circle cx="1263.98" cy="1170.84" r="22.36" style="fill:#1A476F"/>
	<circle cx="1263.98" cy="1170.84" r="18.69" style="fill:none;stroke:#1A476F;stroke-width:7.34"/>
	<circle cx="1274.01" cy="1310.92" r="22.36" style="fill:#1A476F"/>
	<circle cx="1274.01" cy="1310.92" r="18.69" style="fill:none;stroke:#1A476F;stroke-width:7.34"/>
	<circle cx="1284.03" cy="1307.09" r="22.36" style="fill:#1A476F"/>
	<circle cx="1284.03" cy="1307.09" r="18.69" style="fill:none;stroke:#1A476F;stroke-width:7.34"/>
	<circle cx="1294.05" cy="1307.34" r="22.36" style="fill:#1A476F"/>
	<circle cx="1294.05" cy="1307.34" r="18.69" style="fill:none;stroke:#1A476F;stroke-width:7.34"/>
	<circle cx="1304.08" cy="1470.57" r="22.36" style="fill:#1A476F"/>
	<circle cx="1304.08" cy="1470.57" r="18.69" style="fill:none;stroke:#1A476F;stroke-width:7.34"/>
	<circle cx="1314.22" cy="1470.94" r="22.36" style="fill:#1A476F"/>
	<circle cx="1314.22" cy="1470.94" r="18.69" style="fill:none;stroke:#1A476F;stroke-width:7.34"/>
	<circle cx="1324.25" cy="1511.16" r="22.36" style="fill:#1A476F"/>
	<circle cx="1324.25" cy="1511.16" r="18.69" style="fill:none;stroke:#1A476F;stroke-width:7.34"/>
	<circle cx="1334.27" cy="1510.17" r="22.36" style="fill:#1A476F"/>
	<circle cx="1334.27" cy="1510.17" r="18.69" style="fill:none;stroke:#1A476F;stroke-width:7.34"/>
	<circle cx="1344.30" cy="1495.07" r="22.36" style="fill:#1A476F"/>
	<circle cx="1344.30" cy="1495.07" r="18.69" style="fill:none;stroke:#1A476F;stroke-width:7.34"/>
	<circle cx="1354.32" cy="1497.55" r="22.36" style="fill:#1A476F"/>
	<circle cx="1354.32" cy="1497.55" r="18.69" style="fill:none;stroke:#1A476F;stroke-width:7.34"/>
	<circle cx="1364.34" cy="1498.54" r="22.36" style="fill:#1A476F"/>
	<circle cx="1364.34" cy="1498.54" r="18.69" style="fill:none;stroke:#1A476F;stroke-width:7.34"/>
	<circle cx="1374.49" cy="1443.59" r="22.36" style="fill:#1A476F"/>
	<circle cx="1374.49" cy="1443.59" r="18.69" style="fill:none;stroke:#1A476F;stroke-width:7.34"/>
	<circle cx="1384.52" cy="1477.87" r="22.36" style="fill:#1A476F"/>
	<circle cx="1384.52" cy="1477.87" r="18.69" style="fill:none;stroke:#1A476F;stroke-width:7.34"/>
	<circle cx="1394.54" cy="1516.48" r="22.36" style="fill:#1A476F"/>
	<circle cx="1394.54" cy="1516.48" r="18.69" style="fill:none;stroke:#1A476F;stroke-width:7.34"/>
	<circle cx="1404.56" cy="1539.13" r="22.36" style="fill:#1A476F"/>
	<circle cx="1404.56" cy="1539.13" r="18.69" style="fill:none;stroke:#1A476F;stroke-width:7.34"/>
	<circle cx="1414.59" cy="1527.62" r="22.36" style="fill:#1A476F"/>
	<circle cx="1414.59" cy="1527.62" r="18.69" style="fill:none;stroke:#1A476F;stroke-width:7.34"/>
	<circle cx="1424.61" cy="1527.25" r="22.36" style="fill:#1A476F"/>
	<circle cx="1424.61" cy="1527.25" r="18.69" style="fill:none;stroke:#1A476F;stroke-width:7.34"/>
	<circle cx="1434.63" cy="1531.83" r="22.36" style="fill:#1A476F"/>
	<circle cx="1434.63" cy="1531.83" r="18.69" style="fill:none;stroke:#1A476F;stroke-width:7.34"/>
	<circle cx="1444.78" cy="1555.34" r="22.36" style="fill:#1A476F"/>
	<circle cx="1444.78" cy="1555.34" r="18.69" style="fill:none;stroke:#1A476F;stroke-width:7.34"/>
	<circle cx="1454.81" cy="1585.78" r="22.36" style="fill:#1A476F"/>
	<circle cx="1454.81" cy="1585.78" r="18.69" style="fill:none;stroke:#1A476F;stroke-width:7.34"/>
	<circle cx="1464.83" cy="1590.36" r="22.36" style="fill:#1A476F"/>
	<circle cx="1464.83" cy="1590.36" r="18.69" style="fill:none;stroke:#1A476F;stroke-width:7.34"/>
	<circle cx="1474.85" cy="1585.78" r="22.36" style="fill:#1A476F"/>
	<circle cx="1474.85" cy="1585.78" r="18.69" style="fill:none;stroke:#1A476F;stroke-width:7.34"/>
	<circle cx="1484.88" cy="1597.66" r="22.36" style="fill:#1A476F"/>
	<circle cx="1484.88" cy="1597.66" r="18.69" style="fill:none;stroke:#1A476F;stroke-width:7.34"/>
	<circle cx="1494.90" cy="1603.23" r="22.36" style="fill:#1A476F"/>
	<circle cx="1494.90" cy="1603.23" r="18.69" style="fill:none;stroke:#1A476F;stroke-width:7.34"/>
	<circle cx="1504.92" cy="1598.03" r="22.36" style="fill:#1A476F"/>
	<circle cx="1504.92" cy="1598.03" r="18.69" style="fill:none;stroke:#1A476F;stroke-width:7.34"/>
	<circle cx="1515.07" cy="1611.28" r="22.36" style="fill:#1A476F"/>
	<circle cx="1515.07" cy="1611.28" r="18.69" style="fill:none;stroke:#1A476F;stroke-width:7.34"/>
	<circle cx="1525.10" cy="1601.13" r="22.36" style="fill:#1A476F"/>
	<circle cx="1525.10" cy="1601.13" r="18.69" style="fill:none;stroke:#1A476F;stroke-width:7.34"/>
	<circle cx="1535.12" cy="1603.23" r="22.36" style="fill:#1A476F"/>
	<circle cx="1535.12" cy="1603.23" r="18.69" style="fill:none;stroke:#1A476F;stroke-width:7.34"/>
	<circle cx="1545.14" cy="1617.96" r="22.36" style="fill:#1A476F"/>
	<circle cx="1545.14" cy="1617.96" r="18.69" style="fill:none;stroke:#1A476F;stroke-width:7.34"/>
	<circle cx="1555.17" cy="1673.28" r="22.36" style="fill:#1A476F"/>
	<circle cx="1555.17" cy="1673.28" r="18.69" style="fill:none;stroke:#1A476F;stroke-width:7.34"/>
	<circle cx="1565.19" cy="1663.87" r="22.36" style="fill:#1A476F"/>
	<circle cx="1565.19" cy="1663.87" r="18.69" style="fill:none;stroke:#1A476F;stroke-width:7.34"/>
	<circle cx="1575.21" cy="1665.60" r="22.36" style="fill:#1A476F"/>
	<circle cx="1575.21" cy="1665.60" r="18.69" style="fill:none;stroke:#1A476F;stroke-width:7.34"/>
	<circle cx="1585.36" cy="1674.02" r="22.36" style="fill:#1A476F"/>
	<circle cx="1585.36" cy="1674.02" r="18.69" style="fill:none;stroke:#1A476F;stroke-width:7.34"/>
	<circle cx="1595.38" cy="1689.74" r="22.36" style="fill:#1A476F"/>
	<circle cx="1595.38" cy="1689.74" r="18.69" style="fill:none;stroke:#1A476F;stroke-width:7.34"/>
	<circle cx="1605.41" cy="1710.77" r="22.36" style="fill:#1A476F"/>
	<circle cx="1605.41" cy="1710.77" r="18.69" style="fill:none;stroke:#1A476F;stroke-width:7.34"/>
	<circle cx="1615.43" cy="1714.61" r="22.36" style="fill:#1A476F"/>
	<circle cx="1615.43" cy="1714.61" r="18.69" style="fill:none;stroke:#1A476F;stroke-width:7.34"/>
	<circle cx="1625.46" cy="1688.75" r="22.36" style="fill:#1A476F"/>
	<circle cx="1625.46" cy="1688.75" r="18.69" style="fill:none;stroke:#1A476F;stroke-width:7.34"/>
	<circle cx="1635.48" cy="1697.41" r="22.36" style="fill:#1A476F"/>
	<circle cx="1635.48" cy="1697.41" r="18.69" style="fill:none;stroke:#1A476F;stroke-width:7.34"/>
	<circle cx="1645.63" cy="1701.62" r="22.36" style="fill:#1A476F"/>
	<circle cx="1645.63" cy="1701.62" r="18.69" style="fill:none;stroke:#1A476F;stroke-width:7.34"/>
	<circle cx="1655.65" cy="1728.59" r="22.36" style="fill:#1A476F"/>
	<circle cx="1655.65" cy="1728.59" r="18.69" style="fill:none;stroke:#1A476F;stroke-width:7.34"/>
	<circle cx="1665.67" cy="1740.23" r="22.36" style="fill:#1A476F"/>
	<circle cx="1665.67" cy="1740.23" r="18.69" style="fill:none;stroke:#1A476F;stroke-width:7.34"/>
	<circle cx="1675.70" cy="1757.30" r="22.36" style="fill:#1A476F"/>
	<circle cx="1675.70" cy="1757.30" r="18.69" style="fill:none;stroke:#1A476F;stroke-width:7.34"/>
	<circle cx="1685.72" cy="1776.61" r="22.36" style="fill:#1A476F"/>
	<circle cx="1685.72" cy="1776.61" r="18.69" style="fill:none;stroke:#1A476F;stroke-width:7.34"/>
	<circle cx="1695.75" cy="1795.54" r="22.36" style="fill:#1A476F"/>
	<circle cx="1695.75" cy="1795.54" r="18.69" style="fill:none;stroke:#1A476F;stroke-width:7.34"/>
	<circle cx="1705.77" cy="1799.01" r="22.36" style="fill:#1A476F"/>
	<circle cx="1705.77" cy="1799.01" r="18.69" style="fill:none;stroke:#1A476F;stroke-width:7.34"/>
	<circle cx="1715.92" cy="1802.48" r="22.36" style="fill:#1A476F"/>
	<circle cx="1715.92" cy="1802.48" r="18.69" style="fill:none;stroke:#1A476F;stroke-width:7.34"/>
	<circle cx="1725.94" cy="1863.11" r="22.36" style="fill:#1A476F"/>
	<circle cx="1725.94" cy="1863.11" r="18.69" style="fill:none;stroke:#1A476F;stroke-width:7.34"/>
	<circle cx="1735.96" cy="1864.48" r="22.36" style="fill:#1A476F"/>
	<circle cx="1735.96" cy="1864.48" r="18.69" style="fill:none;stroke:#1A476F;stroke-width:7.34"/>
	<circle cx="1745.99" cy="1864.48" r="22.36" style="fill:#1A476F"/>
	<circle cx="1745.99" cy="1864.48" r="18.69" style="fill:none;stroke:#1A476F;stroke-width:7.34"/>
	<circle cx="1756.01" cy="1861.63" r="22.36" style="fill:#1A476F"/>
	<circle cx="1756.01" cy="1861.63" r="18.69" style="fill:none;stroke:#1A476F;stroke-width:7.34"/>
	<circle cx="1766.04" cy="1850.49" r="22.36" style="fill:#1A476F"/>
	<circle cx="1766.04" cy="1850.49" r="18.69" style="fill:none;stroke:#1A476F;stroke-width:7.34"/>
	<circle cx="1776.06" cy="1850.49" r="22.36" style="fill:#1A476F"/>
	<circle cx="1776.06" cy="1850.49" r="18.69" style="fill:none;stroke:#1A476F;stroke-width:7.34"/>
	<circle cx="1786.21" cy="1852.22" r="22.36" style="fill:#1A476F"/>
	<circle cx="1786.21" cy="1852.22" r="18.69" style="fill:none;stroke:#1A476F;stroke-width:7.34"/>
	<circle cx="1796.23" cy="1799.38" r="22.36" style="fill:#1A476F"/>
	<circle cx="1796.23" cy="1799.38" r="18.69" style="fill:none;stroke:#1A476F;stroke-width:7.34"/>
	<circle cx="1806.26" cy="1812.25" r="22.36" style="fill:#1A476F"/>
	<circle cx="1806.26" cy="1812.25" r="18.69" style="fill:none;stroke:#1A476F;stroke-width:7.34"/>
	<circle cx="1816.28" cy="1817.57" r="22.36" style="fill:#1A476F"/>
	<circle cx="1816.28" cy="1817.57" r="18.69" style="fill:none;stroke:#1A476F;stroke-width:7.34"/>
	<circle cx="1826.30" cy="1825.62" r="22.36" style="fill:#1A476F"/>
	<circle cx="1826.30" cy="1825.62" r="18.69" style="fill:none;stroke:#1A476F;stroke-width:7.34"/>
	<circle cx="1836.33" cy="1837.13" r="22.36" style="fill:#1A476F"/>
	<circle cx="1836.33" cy="1837.13" r="18.69" style="fill:none;stroke:#1A476F;stroke-width:7.34"/>
	<circle cx="1846.47" cy="1837.13" r="22.36" style="fill:#1A476F"/>
	<circle cx="1846.47" cy="1837.13" r="18.69" style="fill:none;stroke:#1A476F;stroke-width:7.34"/>
	<circle cx="1856.50" cy="1834.65" r="22.36" style="fill:#1A476F"/>
	<circle cx="1856.50" cy="1834.65" r="18.69" style="fill:none;stroke:#1A476F;stroke-width:7.34"/>
	<circle cx="581.13" cy="2076.71" r="22.36" style="fill:#1A476F"/>
	<circle cx="581.13" cy="2076.71" r="18.69" style="fill:none;stroke:#1A476F;stroke-width:7.34"/>
	<circle cx="591.15" cy="2079.06" r="22.36" style="fill:#1A476F"/>
	<circle cx="591.15" cy="2079.06" r="18.69" style="fill:none;stroke:#1A476F;stroke-width:7.34"/>
	<circle cx="601.18" cy="2079.93" r="22.36" style="fill:#1A476F"/>
	<circle cx="601.18" cy="2079.93" r="18.69" style="fill:none;stroke:#1A476F;stroke-width:7.34"/>
	<circle cx="611.20" cy="2080.30" r="22.36" style="fill:#1A476F"/>
	<circle cx="611.20" cy="2080.30" r="18.69" style="fill:none;stroke:#1A476F;stroke-width:7.34"/>
	<circle cx="2304.47" cy="2081.29" r="22.36" style="fill:#1A476F"/>
	<circle cx="2304.47" cy="2081.29" r="18.69" style="fill:none;stroke:#1A476F;stroke-width:7.34"/>
	<circle cx="2314.50" cy="2081.29" r="22.36" style="fill:#1A476F"/>
	<circle cx="2314.50" cy="2081.29" r="18.69" style="fill:none;stroke:#1A476F;stroke-width:7.34"/>
	<circle cx="2324.52" cy="2081.05" r="22.36" style="fill:#1A476F"/>
	<circle cx="2324.52" cy="2081.05" r="18.69" style="fill:none;stroke:#1A476F;stroke-width:7.34"/>
	<circle cx="2334.54" cy="2081.29" r="22.36" style="fill:#1A476F"/>
	<circle cx="2334.54" cy="2081.29" r="18.69" style="fill:none;stroke:#1A476F;stroke-width:7.34"/>
	<circle cx="2344.57" cy="2081.29" r="22.36" style="fill:#1A476F"/>
	<circle cx="2344.57" cy="2081.29" r="18.69" style="fill:none;stroke:#1A476F;stroke-width:7.34"/>
	<circle cx="2354.59" cy="2081.29" r="22.36" style="fill:#1A476F"/>
	<circle cx="2354.59" cy="2081.29" r="18.69" style="fill:none;stroke:#1A476F;stroke-width:7.34"/>
	<circle cx="2364.74" cy="2080.18" r="22.36" style="fill:#1A476F"/>
	<circle cx="2364.74" cy="2080.18" r="18.69" style="fill:none;stroke:#1A476F;stroke-width:7.34"/>
	<circle cx="2374.76" cy="2078.82" r="22.36" style="fill:#1A476F"/>
	<circle cx="2374.76" cy="2078.82" r="18.69" style="fill:none;stroke:#1A476F;stroke-width:7.34"/>
	<circle cx="2384.79" cy="2078.32" r="22.36" style="fill:#1A476F"/>
	<circle cx="2384.79" cy="2078.32" r="18.69" style="fill:none;stroke:#1A476F;stroke-width:7.34"/>
	<circle cx="2394.81" cy="2078.32" r="22.36" style="fill:#1A476F"/>
	<circle cx="2394.81" cy="2078.32" r="18.69" style="fill:none;stroke:#1A476F;stroke-width:7.34"/>
	<circle cx="2404.83" cy="2078.32" r="22.36" style="fill:#1A476F"/>
	<circle cx="2404.83" cy="2078.32" r="18.69" style="fill:none;stroke:#1A476F;stroke-width:7.34"/>
	<circle cx="2414.86" cy="2078.32" r="22.36" style="fill:#1A476F"/>
	<circle cx="2414.86" cy="2078.32" r="18.69" style="fill:none;stroke:#1A476F;stroke-width:7.34"/>
	<circle cx="2424.88" cy="2077.83" r="22.36" style="fill:#1A476F"/>
	<circle cx="2424.88" cy="2077.83" r="18.69" style="fill:none;stroke:#1A476F;stroke-width:7.34"/>
	<circle cx="2435.03" cy="2078.94" r="22.36" style="fill:#1A476F"/>
	<circle cx="2435.03" cy="2078.94" r="18.69" style="fill:none;stroke:#1A476F;stroke-width:7.34"/>
	<circle cx="2445.05" cy="2080.18" r="22.36" style="fill:#1A476F"/>
	<circle cx="2445.05" cy="2080.18" r="18.69" style="fill:none;stroke:#1A476F;stroke-width:7.34"/>
	<circle cx="2455.08" cy="2080.67" r="22.36" style="fill:#1A476F"/>
	<circle cx="2455.08" cy="2080.67" r="18.69" style="fill:none;stroke:#1A476F;stroke-width:7.34"/>
	<circle cx="2465.10" cy="2080.43" r="22.36" style="fill:#1A476F"/>
	<circle cx="2465.10" cy="2080.43" r="18.69" style="fill:none;stroke:#1A476F;stroke-width:7.34"/>
	<circle cx="2475.12" cy="2080.43" r="22.36" style="fill:#1A476F"/>
	<circle cx="2475.12" cy="2080.43" r="18.69" style="fill:none;stroke:#1A476F;stroke-width:7.34"/>
	<circle cx="2485.15" cy="2080.43" r="22.36" style="fill:#1A476F"/>
	<circle cx="2485.15" cy="2080.43" r="18.69" style="fill:none;stroke:#1A476F;stroke-width:7.34"/>
	<circle cx="2495.17" cy="2080.18" r="22.36" style="fill:#1A476F"/>
	<circle cx="2495.17" cy="2080.18" r="18.69" style="fill:none;stroke:#1A476F;stroke-width:7.34"/>
	<circle cx="2505.32" cy="2079.68" r="22.36" style="fill:#1A476F"/>
	<circle cx="2505.32" cy="2079.68" r="18.69" style="fill:none;stroke:#1A476F;stroke-width:7.34"/>
	<circle cx="2515.34" cy="2079.19" r="22.36" style="fill:#1A476F"/>
	<circle cx="2515.34" cy="2079.19" r="18.69" style="fill:none;stroke:#1A476F;stroke-width:7.34"/>
	<circle cx="2525.37" cy="2078.32" r="22.36" style="fill:#1A476F"/>
	<circle cx="2525.37" cy="2078.32" r="18.69" style="fill:none;stroke:#1A476F;stroke-width:7.34"/>
	<circle cx="2535.39" cy="2078.82" r="22.36" style="fill:#1A476F"/>
	<circle cx="2535.39" cy="2078.82" r="18.69" style="fill:none;stroke:#1A476F;stroke-width:7.34"/>
	<circle cx="2545.41" cy="2078.57" r="22.36" style="fill:#1A476F"/>
	<circle cx="2545.41" cy="2078.57" r="18.69" style="fill:none;stroke:#1A476F;stroke-width:7.34"/>
	<circle cx="2555.44" cy="2073.37" r="22.36" style="fill:#1A476F"/>
	<circle cx="2555.44" cy="2073.37" r="18.69" style="fill:none;stroke:#1A476F;stroke-width:7.34"/>
	<circle cx="2565.59" cy="2072.75" r="22.36" style="fill:#1A476F"/>
	<circle cx="2565.59" cy="2072.75" r="18.69" style="fill:none;stroke:#1A476F;stroke-width:7.34"/>
	<circle cx="2575.61" cy="2072.75" r="22.36" style="fill:#1A476F"/>
	<circle cx="2575.61" cy="2072.75" r="18.69" style="fill:none;stroke:#1A476F;stroke-width:7.34"/>
	<circle cx="2585.63" cy="2073.37" r="22.36" style="fill:#1A476F"/>
	<circle cx="2585.63" cy="2073.37" r="18.69" style="fill:none;stroke:#1A476F;stroke-width:7.34"/>
	<circle cx="2595.66" cy="2073.12" r="22.36" style="fill:#1A476F"/>
	<circle cx="2595.66" cy="2073.12" r="18.69" style="fill:none;stroke:#1A476F;stroke-width:7.34"/>
	<circle cx="2605.68" cy="2073.00" r="22.36" style="fill:#1A476F"/>
	<circle cx="2605.68" cy="2073.00" r="18.69" style="fill:none;stroke:#1A476F;stroke-width:7.34"/>
	<circle cx="2615.70" cy="2072.75" r="22.36" style="fill:#1A476F"/>
	<circle cx="2615.70" cy="2072.75" r="18.69" style="fill:none;stroke:#1A476F;stroke-width:7.34"/>
	<circle cx="2625.73" cy="2077.83" r="22.36" style="fill:#1A476F"/>
	<circle cx="2625.73" cy="2077.83" r="18.69" style="fill:none;stroke:#1A476F;stroke-width:7.34"/>
	<circle cx="2635.88" cy="2078.32" r="22.36" style="fill:#1A476F"/>
	<circle cx="2635.88" cy="2078.32" r="18.69" style="fill:none;stroke:#1A476F;stroke-width:7.34"/>
	<circle cx="2645.90" cy="2073.62" r="22.36" style="fill:#1A476F"/>
	<circle cx="2645.90" cy="2073.62" r="18.69" style="fill:none;stroke:#1A476F;stroke-width:7.34"/>
	<circle cx="2655.92" cy="2066.19" r="22.36" style="fill:#1A476F"/>
	<circle cx="2655.92" cy="2066.19" r="18.69" style="fill:none;stroke:#1A476F;stroke-width:7.34"/>
	<circle cx="2665.95" cy="2060.38" r="22.36" style="fill:#1A476F"/>
	<circle cx="2665.95" cy="2060.38" r="18.69" style="fill:none;stroke:#1A476F;stroke-width:7.34"/>
	<circle cx="2675.97" cy="2034.51" r="22.36" style="fill:#1A476F"/>
	<circle cx="2675.97" cy="2034.51" r="18.69" style="fill:none;stroke:#1A476F;stroke-width:7.34"/>
	<circle cx="2685.99" cy="2033.77" r="22.36" style="fill:#1A476F"/>
	<circle cx="2685.99" cy="2033.77" r="18.69" style="fill:none;stroke:#1A476F;stroke-width:7.34"/>
	<circle cx="2696.02" cy="2032.16" r="22.36" style="fill:#1A476F"/>
	<circle cx="2696.02" cy="2032.16" r="18.69" style="fill:none;stroke:#1A476F;stroke-width:7.34"/>
	<circle cx="2706.16" cy="1998.87" r="22.36" style="fill:#1A476F"/>
	<circle cx="2706.16" cy="1998.87" r="18.69" style="fill:none;stroke:#1A476F;stroke-width:7.34"/>
	<circle cx="2716.19" cy="1964.22" r="22.36" style="fill:#1A476F"/>
	<circle cx="2716.19" cy="1964.22" r="18.69" style="fill:none;stroke:#1A476F;stroke-width:7.34"/>
	<circle cx="2726.21" cy="1941.82" r="22.36" style="fill:#1A476F"/>
	<circle cx="2726.21" cy="1941.82" r="18.69" style="fill:none;stroke:#1A476F;stroke-width:7.34"/>
	<circle cx="2736.24" cy="1920.66" r="22.36" style="fill:#1A476F"/>
	<circle cx="2736.24" cy="1920.66" r="18.69" style="fill:none;stroke:#1A476F;stroke-width:7.34"/>
	<circle cx="2746.26" cy="1900.24" r="22.36" style="fill:#1A476F"/>
	<circle cx="2746.26" cy="1900.24" r="18.69" style="fill:none;stroke:#1A476F;stroke-width:7.34"/>
	<circle cx="2756.28" cy="1897.64" r="22.36" style="fill:#1A476F"/>
	<circle cx="2756.28" cy="1897.64" r="18.69" style="fill:none;stroke:#1A476F;stroke-width:7.34"/>
	<circle cx="2766.43" cy="1897.15" r="22.36" style="fill:#1A476F"/>
	<circle cx="2766.43" cy="1897.15" r="18.69" style="fill:none;stroke:#1A476F;stroke-width:7.34"/>
	<circle cx="2776.45" cy="1868.06" r="22.36" style="fill:#1A476F"/>
	<circle cx="2776.45" cy="1868.06" r="18.69" style="fill:none;stroke:#1A476F;stroke-width:7.34"/>
	<circle cx="2786.48" cy="1864.10" r="22.36" style="fill:#1A476F"/>
	<circle cx="2786.48" cy="1864.10" r="18.69" style="fill:none;stroke:#1A476F;stroke-width:7.34"/>
	<circle cx="2796.50" cy="1845.17" r="22.36" style="fill:#1A476F"/>
	<circle cx="2796.50" cy="1845.17" r="18.69" style="fill:none;stroke:#1A476F;stroke-width:7.34"/>
	<circle cx="2806.53" cy="1822.15" r="22.36" style="fill:#1A476F"/>
	<circle cx="2806.53" cy="1822.15" r="18.69" style="fill:none;stroke:#1A476F;stroke-width:7.34"/>
	<circle cx="2816.55" cy="1811.76" r="22.36" style="fill:#1A476F"/>
	<circle cx="2816.55" cy="1811.76" r="18.69" style="fill:none;stroke:#1A476F;stroke-width:7.34"/>
	<circle cx="2826.57" cy="1790.97" r="22.36" style="fill:#1A476F"/>
	<circle cx="2826.57" cy="1790.97" r="18.69" style="fill:none;stroke:#1A476F;stroke-width:7.34"/>
	<circle cx="2836.72" cy="1768.57" r="22.36" style="fill:#1A476F"/>
	<circle cx="2836.72" cy="1768.57" r="18.69" style="fill:none;stroke:#1A476F;stroke-width:7.34"/>
	<circle cx="2846.74" cy="1769.56" r="22.36" style="fill:#1A476F"/>
	<circle cx="2846.74" cy="1769.56" r="18.69" style="fill:none;stroke:#1A476F;stroke-width:7.34"/>
	<circle cx="2856.77" cy="1768.44" r="22.36" style="fill:#1A476F"/>
	<circle cx="2856.77" cy="1768.44" r="18.69" style="fill:none;stroke:#1A476F;stroke-width:7.34"/>
	<circle cx="2866.79" cy="1629.59" r="22.36" style="fill:#1A476F"/>
	<circle cx="2866.79" cy="1629.59" r="18.69" style="fill:none;stroke:#1A476F;stroke-width:7.34"/>
	<circle cx="2876.82" cy="1523.91" r="22.36" style="fill:#1A476F"/>
	<circle cx="2876.82" cy="1523.91" r="18.69" style="fill:none;stroke:#1A476F;stroke-width:7.34"/>
	<circle cx="2886.84" cy="1471.56" r="22.36" style="fill:#1A476F"/>
	<circle cx="2886.84" cy="1471.56" r="18.69" style="fill:none;stroke:#1A476F;stroke-width:7.34"/>
	<circle cx="2896.86" cy="1482.20" r="22.36" style="fill:#1A476F"/>
	<circle cx="2896.86" cy="1482.20" r="18.69" style="fill:none;stroke:#1A476F;stroke-width:7.34"/>
	<circle cx="2907.01" cy="1492.72" r="22.36" style="fill:#1A476F"/>
	<circle cx="2907.01" cy="1492.72" r="18.69" style="fill:none;stroke:#1A476F;stroke-width:7.34"/>
	<circle cx="2917.03" cy="1406.59" r="22.36" style="fill:#1A476F"/>
	<circle cx="2917.03" cy="1406.59" r="18.69" style="fill:none;stroke:#1A476F;stroke-width:7.34"/>
	<circle cx="2927.06" cy="1357.70" r="22.36" style="fill:#1A476F"/>
	<circle cx="2927.06" cy="1357.70" r="18.69" style="fill:none;stroke:#1A476F;stroke-width:7.34"/>
	<circle cx="2937.08" cy="1450.52" r="22.36" style="fill:#1A476F"/>
	<circle cx="2937.08" cy="1450.52" r="18.69" style="fill:none;stroke:#1A476F;stroke-width:7.34"/>
	<circle cx="2947.11" cy="1534.67" r="22.36" style="fill:#1A476F"/>
	<circle cx="2947.11" cy="1534.67" r="18.69" style="fill:none;stroke:#1A476F;stroke-width:7.34"/>
	<circle cx="2957.13" cy="1608.43" r="22.36" style="fill:#1A476F"/>
	<circle cx="2957.13" cy="1608.43" r="18.69" style="fill:none;stroke:#1A476F;stroke-width:7.34"/>
	<circle cx="2967.28" cy="1611.40" r="22.36" style="fill:#1A476F"/>
	<circle cx="2967.28" cy="1611.40" r="18.69" style="fill:none;stroke:#1A476F;stroke-width:7.34"/>
	<circle cx="2977.30" cy="1616.84" r="22.36" style="fill:#1A476F"/>
	<circle cx="2977.30" cy="1616.84" r="18.69" style="fill:none;stroke:#1A476F;stroke-width:7.34"/>
	<circle cx="2987.32" cy="1708.55" r="22.36" style="fill:#1A476F"/>
	<circle cx="2987.32" cy="1708.55" r="18.69" style="fill:none;stroke:#1A476F;stroke-width:7.34"/>
	<circle cx="2997.35" cy="1713.87" r="22.36" style="fill:#1A476F"/>
	<circle cx="2997.35" cy="1713.87" r="18.69" style="fill:none;stroke:#1A476F;stroke-width:7.34"/>
	<circle cx="3007.37" cy="1743.07" r="22.36" style="fill:#1A476F"/>
	<circle cx="3007.37" cy="1743.07" r="18.69" style="fill:none;stroke:#1A476F;stroke-width:7.34"/>
	<circle cx="3017.40" cy="1743.07" r="22.36" style="fill:#1A476F"/>
	<circle cx="3017.40" cy="1743.07" r="18.69" style="fill:none;stroke:#1A476F;stroke-width:7.34"/>
	<circle cx="3027.42" cy="1724.39" r="22.36" style="fill:#1A476F"/>
	<circle cx="3027.42" cy="1724.39" r="18.69" style="fill:none;stroke:#1A476F;stroke-width:7.34"/>
	<circle cx="3037.57" cy="1719.93" r="22.36" style="fill:#1A476F"/>
	<circle cx="3037.57" cy="1719.93" r="18.69" style="fill:none;stroke:#1A476F;stroke-width:7.34"/>
	<circle cx="3047.59" cy="1712.75" r="22.36" style="fill:#1A476F"/>
	<circle cx="3047.59" cy="1712.75" r="18.69" style="fill:none;stroke:#1A476F;stroke-width:7.34"/>
	<circle cx="3057.61" cy="1677.36" r="22.36" style="fill:#1A476F"/>
	<circle cx="3057.61" cy="1677.36" r="18.69" style="fill:none;stroke:#1A476F;stroke-width:7.34"/>
	<circle cx="3067.64" cy="1698.52" r="22.36" style="fill:#1A476F"/>
	<circle cx="3067.64" cy="1698.52" r="18.69" style="fill:none;stroke:#1A476F;stroke-width:7.34"/>
	<circle cx="3077.66" cy="1694.31" r="22.36" style="fill:#1A476F"/>
	<circle cx="3077.66" cy="1694.31" r="18.69" style="fill:none;stroke:#1A476F;stroke-width:7.34"/>
	<circle cx="3087.69" cy="1724.39" r="22.36" style="fill:#1A476F"/>
	<circle cx="3087.69" cy="1724.39" r="18.69" style="fill:none;stroke:#1A476F;stroke-width:7.34"/>
	<circle cx="3097.71" cy="1730.95" r="22.36" style="fill:#1A476F"/>
	<circle cx="3097.71" cy="1730.95" r="18.69" style="fill:none;stroke:#1A476F;stroke-width:7.34"/>
	<circle cx="3107.86" cy="1733.92" r="22.36" style="fill:#1A476F"/>
	<circle cx="3107.86" cy="1733.92" r="18.69" style="fill:none;stroke:#1A476F;stroke-width:7.34"/>
	<circle cx="3117.88" cy="1736.51" r="22.36" style="fill:#1A476F"/>
	<circle cx="3117.88" cy="1736.51" r="18.69" style="fill:none;stroke:#1A476F;stroke-width:7.34"/>
	<circle cx="3127.91" cy="1753.72" r="22.36" style="fill:#1A476F"/>
	<circle cx="3127.91" cy="1753.72" r="18.69" style="fill:none;stroke:#1A476F;stroke-width:7.34"/>
	<circle cx="3137.93" cy="1766.09" r="22.36" style="fill:#1A476F"/>
	<circle cx="3137.93" cy="1766.09" r="18.69" style="fill:none;stroke:#1A476F;stroke-width:7.34"/>
	<circle cx="3147.95" cy="1777.48" r="22.36" style="fill:#1A476F"/>
	<circle cx="3147.95" cy="1777.48" r="18.69" style="fill:none;stroke:#1A476F;stroke-width:7.34"/>
	<circle cx="3157.98" cy="1768.81" r="22.36" style="fill:#1A476F"/>
	<circle cx="3157.98" cy="1768.81" r="18.69" style="fill:none;stroke:#1A476F;stroke-width:7.34"/>
	<circle cx="3168.12" cy="1773.52" r="22.36" style="fill:#1A476F"/>
	<circle cx="3168.12" cy="1773.52" r="18.69" style="fill:none;stroke:#1A476F;stroke-width:7.34"/>
	<circle cx="3178.15" cy="1772.53" r="22.36" style="fill:#1A476F"/>
	<circle cx="3178.15" cy="1772.53" r="18.69" style="fill:none;stroke:#1A476F;stroke-width:7.34"/>
	<circle cx="3188.17" cy="1768.81" r="22.36" style="fill:#1A476F"/>
	<circle cx="3188.17" cy="1768.81" r="18.69" style="fill:none;stroke:#1A476F;stroke-width:7.34"/>
	<circle cx="3198.20" cy="1778.84" r="22.36" style="fill:#1A476F"/>
	<circle cx="3198.20" cy="1778.84" r="18.69" style="fill:none;stroke:#1A476F;stroke-width:7.34"/>
	<circle cx="3208.22" cy="1787.50" r="22.36" style="fill:#1A476F"/>
	<circle cx="3208.22" cy="1787.50" r="18.69" style="fill:none;stroke:#1A476F;stroke-width:7.34"/>
	<circle cx="3218.24" cy="1801.24" r="22.36" style="fill:#1A476F"/>
	<circle cx="3218.24" cy="1801.24" r="18.69" style="fill:none;stroke:#1A476F;stroke-width:7.34"/>
	<circle cx="3228.27" cy="1819.80" r="22.36" style="fill:#1A476F"/>
	<circle cx="3228.27" cy="1819.80" r="18.69" style="fill:none;stroke:#1A476F;stroke-width:7.34"/>
	<circle cx="3238.41" cy="1830.81" r="22.36" style="fill:#1A476F"/>
	<circle cx="3238.41" cy="1830.81" r="18.69" style="fill:none;stroke:#1A476F;stroke-width:7.34"/>
	<circle cx="3248.44" cy="1831.31" r="22.36" style="fill:#1A476F"/>
	<circle cx="3248.44" cy="1831.31" r="18.69" style="fill:none;stroke:#1A476F;stroke-width:7.34"/>
	<circle cx="3258.46" cy="1837.13" r="22.36" style="fill:#1A476F"/>
	<circle cx="3258.46" cy="1837.13" r="18.69" style="fill:none;stroke:#1A476F;stroke-width:7.34"/>
	<circle cx="3268.49" cy="1848.26" r="22.36" style="fill:#1A476F"/>
	<circle cx="3268.49" cy="1848.26" r="18.69" style="fill:none;stroke:#1A476F;stroke-width:7.34"/>
	<circle cx="3278.51" cy="1852.97" r="22.36" style="fill:#1A476F"/>
	<circle cx="3278.51" cy="1852.97" r="18.69" style="fill:none;stroke:#1A476F;stroke-width:7.34"/>
	<circle cx="3288.53" cy="1845.42" r="22.36" style="fill:#1A476F"/>
	<circle cx="3288.53" cy="1845.42" r="18.69" style="fill:none;stroke:#1A476F;stroke-width:7.34"/>
	<circle cx="3298.56" cy="1845.05" r="22.36" style="fill:#1A476F"/>
	<circle cx="3298.56" cy="1845.05" r="18.69" style="fill:none;stroke:#1A476F;stroke-width:7.34"/>
	<circle cx="3308.70" cy="1848.76" r="22.36" style="fill:#1A476F"/>
	<circle cx="3308.70" cy="1848.76" r="18.69" style="fill:none;stroke:#1A476F;stroke-width:7.34"/>
	<circle cx="3318.73" cy="1851.98" r="22.36" style="fill:#1A476F"/>
	<circle cx="3318.73" cy="1851.98" r="18.69" style="fill:none;stroke:#1A476F;stroke-width:7.34"/>
	<circle cx="3328.75" cy="1850.62" r="22.36" style="fill:#1A476F"/>
	<circle cx="3328.75" cy="1850.62" r="18.69" style="fill:none;stroke:#1A476F;stroke-width:7.34"/>
	<circle cx="3338.78" cy="1860.39" r="22.36" style="fill:#1A476F"/>
	<circle cx="3338.78" cy="1860.39" r="18.69" style="fill:none;stroke:#1A476F;stroke-width:7.34"/>
	<circle cx="3348.80" cy="1867.07" r="22.36" style="fill:#1A476F"/>
	<circle cx="3348.80" cy="1867.07" r="18.69" style="fill:none;stroke:#1A476F;stroke-width:7.34"/>
	<circle cx="3358.82" cy="1886.88" r="22.36" style="fill:#1A476F"/>
	<circle cx="3358.82" cy="1886.88" r="18.69" style="fill:none;stroke:#1A476F;stroke-width:7.34"/>
	<circle cx="3368.97" cy="1887.62" r="22.36" style="fill:#1A476F"/>
	<circle cx="3368.97" cy="1887.62" r="18.69" style="fill:none;stroke:#1A476F;stroke-width:7.34"/>
	<circle cx="3378.99" cy="1891.58" r="22.36" style="fill:#1A476F"/>
	<circle cx="3378.99" cy="1891.58" r="18.69" style="fill:none;stroke:#1A476F;stroke-width:7.34"/>
	<circle cx="3389.02" cy="1896.65" r="22.36" style="fill:#1A476F"/>
	<circle cx="3389.02" cy="1896.65" r="18.69" style="fill:none;stroke:#1A476F;stroke-width:7.34"/>
	<circle cx="3399.04" cy="1905.56" r="22.36" style="fill:#1A476F"/>
	<circle cx="3399.04" cy="1905.56" r="18.69" style="fill:none;stroke:#1A476F;stroke-width:7.34"/>
	<circle cx="3409.07" cy="1945.78" r="22.36" style="fill:#1A476F"/>
	<circle cx="3409.07" cy="1945.78" r="18.69" style="fill:none;stroke:#1A476F;stroke-width:7.34"/>
	<circle cx="3419.09" cy="1950.73" r="22.36" style="fill:#1A476F"/>
	<circle cx="3419.09" cy="1950.73" r="18.69" style="fill:none;stroke:#1A476F;stroke-width:7.34"/>
	<circle cx="3429.11" cy="1955.81" r="22.36" style="fill:#1A476F"/>
	<circle cx="3429.11" cy="1955.81" r="18.69" style="fill:none;stroke:#1A476F;stroke-width:7.34"/>
	<circle cx="3439.26" cy="1965.09" r="22.36" style="fill:#1A476F"/>
	<circle cx="3439.26" cy="1965.09" r="18.69" style="fill:none;stroke:#1A476F;stroke-width:7.34"/>
	<circle cx="3449.28" cy="1974.25" r="22.36" style="fill:#1A476F"/>
	<circle cx="3449.28" cy="1974.25" r="18.69" style="fill:none;stroke:#1A476F;stroke-width:7.34"/>
	<circle cx="3459.31" cy="1974.86" r="22.36" style="fill:#1A476F"/>
	<circle cx="3459.31" cy="1974.86" r="18.69" style="fill:none;stroke:#1A476F;stroke-width:7.34"/>
	<circle cx="3469.33" cy="1974.86" r="22.36" style="fill:#1A476F"/>
	<circle cx="3469.33" cy="1974.86" r="18.69" style="fill:none;stroke:#1A476F;stroke-width:7.34"/>
	<circle cx="3479.36" cy="1940.21" r="22.36" style="fill:#1A476F"/>
	<circle cx="3479.36" cy="1940.21" r="18.69" style="fill:none;stroke:#1A476F;stroke-width:7.34"/>
	<circle cx="3489.38" cy="1943.31" r="22.36" style="fill:#1A476F"/>
	<circle cx="3489.38" cy="1943.31" r="18.69" style="fill:none;stroke:#1A476F;stroke-width:7.34"/>
	<circle cx="3499.40" cy="1929.08" r="22.36" style="fill:#1A476F"/>
	<circle cx="3499.40" cy="1929.08" r="18.69" style="fill:none;stroke:#1A476F;stroke-width:7.34"/>
	<circle cx="3509.55" cy="1921.77" r="22.36" style="fill:#1A476F"/>
	<circle cx="3509.55" cy="1921.77" r="18.69" style="fill:none;stroke:#1A476F;stroke-width:7.34"/>
	<circle cx="3519.57" cy="1923.26" r="22.36" style="fill:#1A476F"/>
	<circle cx="3519.57" cy="1923.26" r="18.69" style="fill:none;stroke:#1A476F;stroke-width:7.34"/>
	<circle cx="3529.60" cy="1921.40" r="22.36" style="fill:#1A476F"/>
	<circle cx="3529.60" cy="1921.40" r="18.69" style="fill:none;stroke:#1A476F;stroke-width:7.34"/>
	<circle cx="3539.62" cy="1922.27" r="22.36" style="fill:#1A476F"/>
	<circle cx="3539.62" cy="1922.27" r="18.69" style="fill:none;stroke:#1A476F;stroke-width:7.34"/>
	<circle cx="2264.25" cy="2079.93" r="22.36" style="fill:#1A476F"/>
	<circle cx="2264.25" cy="2079.93" r="18.69" style="fill:none;stroke:#1A476F;stroke-width:7.34"/>
	<circle cx="2274.28" cy="2080.80" r="22.36" style="fill:#1A476F"/>
	<circle cx="2274.28" cy="2080.80" r="18.69" style="fill:none;stroke:#1A476F;stroke-width:7.34"/>
	<circle cx="2284.30" cy="2081.05" r="22.36" style="fill:#1A476F"/>
	<circle cx="2284.30" cy="2081.05" r="18.69" style="fill:none;stroke:#1A476F;stroke-width:7.34"/>
	<circle cx="2294.32" cy="2081.17" r="22.36" style="fill:#1A476F"/>
	<circle cx="2294.32" cy="2081.17" r="18.69" style="fill:none;stroke:#1A476F;stroke-width:7.34"/>
	<line x1="527.30" y1="2135.37" x2="527.30" y2="407.27" style="stroke:#000000;stroke-width:4.90"/>
	<line x1="527.30" y1="2081.54" x2="493.27" y2="2081.54" style="stroke:#000000;stroke-width:4.90"/>
	<text x="476.31" y="2111.33" style="font-family:'Helvetica';font-size:85.02px;fill:#000000" text-anchor="end">0</text>
	<line x1="527.30" y1="1618.58" x2="493.27" y2="1618.58" style="stroke:#000000;stroke-width:4.90"/>
	<text x="476.31" y="1648.36" style="font-family:'Helvetica';font-size:85.02px;fill:#000000" text-anchor="end">20</text>
	<line x1="527.30" y1="1155.61" x2="493.27" y2="1155.61" style="stroke:#000000;stroke-width:4.90"/>
	<text x="476.31" y="1185.40" style="font-family:'Helvetica';font-size:85.02px;fill:#000000" text-anchor="end">40</text>
	<line x1="527.30" y1="692.65" x2="493.27" y2="692.65" style="stroke:#000000;stroke-width:4.90"/>
	<text x="476.31" y="722.44" style="font-family:'Helvetica';font-size:85.02px;fill:#000000" text-anchor="end">60</text>
	<line x1="527.30" y1="2135.37" x2="2141.37" y2="2135.37" style="stroke:#000000;stroke-width:4.90"/>
	<line x1="581.13" y1="2135.37" x2="581.13" y2="2169.41" style="stroke:#000000;stroke-width:4.90"/>
	<text x="610.92" y="2186.36" style="font-family:'Helvetica';font-size:85.02px;fill:#000000" transform="rotate(-90 610.92,2186.36)" text-anchor="end">1feb2020</text>
	<line x1="872.44" y1="2135.37" x2="872.44" y2="2169.41" style="stroke:#000000;stroke-width:4.90"/>
	<text x="902.22" y="2186.36" style="font-family:'Helvetica';font-size:85.02px;fill:#000000" transform="rotate(-90 902.22,2186.36)" text-anchor="end">1mar2020</text>
	<line x1="1183.67" y1="2135.37" x2="1183.67" y2="2169.41" style="stroke:#000000;stroke-width:4.90"/>
	<text x="1213.46" y="2186.36" style="font-family:'Helvetica';font-size:85.02px;fill:#000000" transform="rotate(-90 1213.46,2186.36)" text-anchor="end">1apr2020</text>
	<line x1="1485.00" y1="2135.37" x2="1485.00" y2="2169.41" style="stroke:#000000;stroke-width:4.90"/>
	<text x="1514.79" y="2186.36" style="font-family:'Helvetica';font-size:85.02px;fill:#000000" transform="rotate(-90 1514.79,2186.36)" text-anchor="end">1may2020</text>
	<line x1="1796.23" y1="2135.37" x2="1796.23" y2="2169.41" style="stroke:#000000;stroke-width:4.90"/>
	<text x="1826.02" y="2186.36" style="font-family:'Helvetica';font-size:85.02px;fill:#000000" transform="rotate(-90 1826.02,2186.36)" text-anchor="end">1jun2020</text>
	<line x1="2210.42" y1="2135.37" x2="3824.49" y2="2135.37" style="stroke:#000000;stroke-width:4.90"/>
	<line x1="2264.38" y1="2135.37" x2="2264.38" y2="2169.41" style="stroke:#000000;stroke-width:4.90"/>
	<text x="2294.16" y="2186.36" style="font-family:'Helvetica';font-size:85.02px;fill:#000000" transform="rotate(-90 2294.16,2186.36)" text-anchor="end">1feb2020</text>
	<line x1="2555.56" y1="2135.37" x2="2555.56" y2="2169.41" style="stroke:#000000;stroke-width:4.90"/>
	<text x="2585.35" y="2186.36" style="font-family:'Helvetica';font-size:85.02px;fill:#000000" transform="rotate(-90 2585.35,2186.36)" text-anchor="end">1mar2020</text>
	<line x1="2866.92" y1="2135.37" x2="2866.92" y2="2169.41" style="stroke:#000000;stroke-width:4.90"/>
	<text x="2896.70" y="2186.36" style="font-family:'Helvetica';font-size:85.02px;fill:#000000" transform="rotate(-90 2896.70,2186.36)" text-anchor="end">1apr2020</text>
	<line x1="3168.12" y1="2135.37" x2="3168.12" y2="2169.41" style="stroke:#000000;stroke-width:4.90"/>
	<text x="3197.91" y="2186.36" style="font-family:'Helvetica';font-size:85.02px;fill:#000000" transform="rotate(-90 3197.91,2186.36)" text-anchor="end">1may2020</text>
	<line x1="3479.48" y1="2135.37" x2="3479.48" y2="2169.41" style="stroke:#000000;stroke-width:4.90"/>
	<text x="3509.27" y="2186.36" style="font-family:'Helvetica';font-size:85.02px;fill:#000000" transform="rotate(-90 3509.27,2186.36)" text-anchor="end">1jun2020</text>
	<rect x="527.30" y="309.88" width="1614.07" height="97.39" style="fill:#D9E6EB"/>
	<rect x="529.75" y="312.33" width="1609.18" height="92.50" style="fill:none;stroke:#D9E6EB;stroke-width:4.90"/>
	<text x="1334.27" y="372.10" style="font-family:'Helvetica';font-size:67.94px;fill:#000000" text-anchor="middle">Buckinghams., Oxfords., Berks., Hamps., IoW</text>
	<rect x="2210.42" y="309.88" width="1614.07" height="97.39" style="fill:#D9E6EB"/>
	<rect x="2212.87" y="312.33" width="1609.18" height="92.50" style="fill:none;stroke:#D9E6EB;stroke-width:4.90"/>
	<text x="3017.52" y="372.10" style="font-family:'Helvetica';font-size:67.94px;fill:#000000" text-anchor="middle">Sussex and Surrey</text>
	<text x="170.79" y="1477.25" style="font-family:'Helvetica';font-size:99.99px;fill:#000000" transform="rotate(-90 170.79,1477.25)" text-anchor="middle">Suspected case rate</text>
	<text x="270.78" y="1477.25" style="font-family:'Helvetica';font-size:99.99px;fill:#000000" transform="rotate(-90 270.78,1477.25)" text-anchor="middle">(per 100,000)</text>
	<text x="2079.99" y="2749.08" style="font-family:'Helvetica';font-size:99.99px;fill:#000000" text-anchor="middle"> </text>
	<text x="2079.99" y="215.98" style="font-family:'Helvetica';font-size:139.96px;fill:#1E2D53" text-anchor="middle">South East</text>
</svg>
