<?xml version="1.0" encoding="UTF-8" standalone="no"?>
<!-- This is a Stata 16.1 generated SVG file (http://www.stata.com) -->

<svg version="1.1" width="5.50in" height="4.00in" viewBox="0 0 3960 2880" xmlns="http://www.w3.org/2000/svg" xmlns:xlink="http://www.w3.org/1999/xlink">
	<desc>Stata Graph - Graph</desc>
	<rect x="0" y="0" width="3960" height="2880" style="fill:#EAF2F3;stroke:none"/>
	<rect x="0.00" y="0.00" width="3959.88" height="2880.00" style="fill:#EAF2F3"/>
	<rect x="2.88" y="2.88" width="3954.12" height="2874.24" style="fill:none;stroke:#EAF2F3;stroke-width:5.76"/>
	<rect x="561.21" y="424.48" width="3263.29" height="1621.05" style="fill:#FFFFFF"/>
	<rect x="564.09" y="427.36" width="3257.53" height="1615.29" style="fill:none;stroke:#FFFFFF;stroke-width:5.76"/>
	<line x1="561.21" y1="1982.17" x2="3824.49" y2="1982.17" style="stroke:#EAF2F3;stroke-width:8.64"/>
	<line x1="561.21" y1="1555.21" x2="3824.49" y2="1555.21" style="stroke:#EAF2F3;stroke-width:8.64"/>
	<line x1="561.21" y1="1128.26" x2="3824.49" y2="1128.26" style="stroke:#EAF2F3;stroke-width:8.64"/>
	<line x1="561.21" y1="701.31" x2="3824.49" y2="701.31" style="stroke:#EAF2F3;stroke-width:8.64"/>
	<circle cx="708.10" cy="1981.05" r="26.35" style="fill:#1A476F"/>
	<circle cx="708.10" cy="1981.05" r="22.03" style="fill:none;stroke:#1A476F;stroke-width:8.64"/>
	<circle cx="729.01" cy="1981.18" r="26.35" style="fill:#1A476F"/>
	<circle cx="729.01" cy="1981.18" r="22.03" style="fill:none;stroke:#1A476F;stroke-width:8.64"/>
	<circle cx="749.92" cy="1981.05" r="26.35" style="fill:#1A476F"/>
	<circle cx="749.92" cy="1981.05" r="22.03" style="fill:none;stroke:#1A476F;stroke-width:8.64"/>
	<circle cx="770.84" cy="1981.42" r="26.35" style="fill:#1A476F"/>
	<circle cx="770.84" cy="1981.42" r="22.03" style="fill:none;stroke:#1A476F;stroke-width:8.64"/>
	<circle cx="791.75" cy="1981.30" r="26.35" style="fill:#1A476F"/>
	<circle cx="791.75" cy="1981.30" r="22.03" style="fill:none;stroke:#1A476F;stroke-width:8.64"/>
	<circle cx="812.67" cy="1980.80" r="26.35" style="fill:#1A476F"/>
	<circle cx="812.67" cy="1980.80" r="22.03" style="fill:none;stroke:#1A476F;stroke-width:8.64"/>
	<circle cx="833.58" cy="1980.31" r="26.35" style="fill:#1A476F"/>
	<circle cx="833.58" cy="1980.31" r="22.03" style="fill:none;stroke:#1A476F;stroke-width:8.64"/>
	<circle cx="854.49" cy="1979.69" r="26.35" style="fill:#1A476F"/>
	<circle cx="854.49" cy="1979.69" r="22.03" style="fill:none;stroke:#1A476F;stroke-width:8.64"/>
	<circle cx="875.41" cy="1979.32" r="26.35" style="fill:#1A476F"/>
	<circle cx="875.41" cy="1979.32" r="22.03" style="fill:none;stroke:#1A476F;stroke-width:8.64"/>
	<circle cx="896.32" cy="1979.07" r="26.35" style="fill:#1A476F"/>
	<circle cx="896.32" cy="1979.07" r="22.03" style="fill:none;stroke:#1A476F;stroke-width:8.64"/>
	<circle cx="917.24" cy="1979.32" r="26.35" style="fill:#1A476F"/>
	<circle cx="917.24" cy="1979.32" r="22.03" style="fill:none;stroke:#1A476F;stroke-width:8.64"/>
	<circle cx="938.15" cy="1979.32" r="26.35" style="fill:#1A476F"/>
	<circle cx="938.15" cy="1979.32" r="22.03" style="fill:none;stroke:#1A476F;stroke-width:8.64"/>
	<circle cx="959.06" cy="1979.69" r="26.35" style="fill:#1A476F"/>
	<circle cx="959.06" cy="1979.69" r="22.03" style="fill:none;stroke:#1A476F;stroke-width:8.64"/>
	<circle cx="979.98" cy="1980.19" r="26.35" style="fill:#1A476F"/>
	<circle cx="979.98" cy="1980.19" r="22.03" style="fill:none;stroke:#1A476F;stroke-width:8.64"/>
	<circle cx="1000.89" cy="1980.56" r="26.35" style="fill:#1A476F"/>
	<circle cx="1000.89" cy="1980.56" r="22.03" style="fill:none;stroke:#1A476F;stroke-width:8.64"/>
	<circle cx="1021.80" cy="1980.93" r="26.35" style="fill:#1A476F"/>
	<circle cx="1021.80" cy="1980.93" r="22.03" style="fill:none;stroke:#1A476F;stroke-width:8.64"/>
	<circle cx="1042.72" cy="1981.18" r="26.35" style="fill:#1A476F"/>
	<circle cx="1042.72" cy="1981.18" r="22.03" style="fill:none;stroke:#1A476F;stroke-width:8.64"/>
	<circle cx="1063.63" cy="1981.18" r="26.35" style="fill:#1A476F"/>
	<circle cx="1063.63" cy="1981.18" r="22.03" style="fill:none;stroke:#1A476F;stroke-width:8.64"/>
	<circle cx="1084.55" cy="1981.30" r="26.35" style="fill:#1A476F"/>
	<circle cx="1084.55" cy="1981.30" r="22.03" style="fill:none;stroke:#1A476F;stroke-width:8.64"/>
	<circle cx="1105.46" cy="1980.93" r="26.35" style="fill:#1A476F"/>
	<circle cx="1105.46" cy="1980.93" r="22.03" style="fill:none;stroke:#1A476F;stroke-width:8.64"/>
	<circle cx="1126.37" cy="1980.19" r="26.35" style="fill:#1A476F"/>
	<circle cx="1126.37" cy="1980.19" r="22.03" style="fill:none;stroke:#1A476F;stroke-width:8.64"/>
	<circle cx="1147.29" cy="1979.69" r="26.35" style="fill:#1A476F"/>
	<circle cx="1147.29" cy="1979.69" r="22.03" style="fill:none;stroke:#1A476F;stroke-width:8.64"/>
	<circle cx="1168.20" cy="1978.95" r="26.35" style="fill:#1A476F"/>
	<circle cx="1168.20" cy="1978.95" r="22.03" style="fill:none;stroke:#1A476F;stroke-width:8.64"/>
	<circle cx="1189.11" cy="1978.45" r="26.35" style="fill:#1A476F"/>
	<circle cx="1189.11" cy="1978.45" r="22.03" style="fill:none;stroke:#1A476F;stroke-width:8.64"/>
	<circle cx="1210.03" cy="1977.96" r="26.35" style="fill:#1A476F"/>
	<circle cx="1210.03" cy="1977.96" r="22.03" style="fill:none;stroke:#1A476F;stroke-width:8.64"/>
	<circle cx="1230.94" cy="1974.99" r="26.35" style="fill:#1A476F"/>
	<circle cx="1230.94" cy="1974.99" r="22.03" style="fill:none;stroke:#1A476F;stroke-width:8.64"/>
	<circle cx="1251.73" cy="1974.00" r="26.35" style="fill:#1A476F"/>
	<circle cx="1251.73" cy="1974.00" r="22.03" style="fill:none;stroke:#1A476F;stroke-width:8.64"/>
	<circle cx="1272.64" cy="1973.63" r="26.35" style="fill:#1A476F"/>
	<circle cx="1272.64" cy="1973.63" r="22.03" style="fill:none;stroke:#1A476F;stroke-width:8.64"/>
	<circle cx="1293.56" cy="1973.01" r="26.35" style="fill:#1A476F"/>
	<circle cx="1293.56" cy="1973.01" r="22.03" style="fill:none;stroke:#1A476F;stroke-width:8.64"/>
	<circle cx="1314.47" cy="1972.27" r="26.35" style="fill:#1A476F"/>
	<circle cx="1314.47" cy="1972.27" r="22.03" style="fill:none;stroke:#1A476F;stroke-width:8.64"/>
	<circle cx="1335.39" cy="1972.02" r="26.35" style="fill:#1A476F"/>
	<circle cx="1335.39" cy="1972.02" r="22.03" style="fill:none;stroke:#1A476F;stroke-width:8.64"/>
	<circle cx="1356.30" cy="1972.27" r="26.35" style="fill:#1A476F"/>
	<circle cx="1356.30" cy="1972.27" r="22.03" style="fill:none;stroke:#1A476F;stroke-width:8.64"/>
	<circle cx="1377.21" cy="1974.49" r="26.35" style="fill:#1A476F"/>
	<circle cx="1377.21" cy="1974.49" r="22.03" style="fill:none;stroke:#1A476F;stroke-width:8.64"/>
	<circle cx="1398.13" cy="1972.64" r="26.35" style="fill:#1A476F"/>
	<circle cx="1398.13" cy="1972.64" r="22.03" style="fill:none;stroke:#1A476F;stroke-width:8.64"/>
	<circle cx="1419.04" cy="1969.30" r="26.35" style="fill:#1A476F"/>
	<circle cx="1419.04" cy="1969.30" r="22.03" style="fill:none;stroke:#1A476F;stroke-width:8.64"/>
	<circle cx="1439.95" cy="1966.94" r="26.35" style="fill:#1A476F"/>
	<circle cx="1439.95" cy="1966.94" r="22.03" style="fill:none;stroke:#1A476F;stroke-width:8.64"/>
	<circle cx="1460.87" cy="1962.49" r="26.35" style="fill:#1A476F"/>
	<circle cx="1460.87" cy="1962.49" r="22.03" style="fill:none;stroke:#1A476F;stroke-width:8.64"/>
	<circle cx="1481.78" cy="1949.49" r="26.35" style="fill:#1A476F"/>
	<circle cx="1481.78" cy="1949.49" r="22.03" style="fill:none;stroke:#1A476F;stroke-width:8.64"/>
	<circle cx="1502.70" cy="1946.52" r="26.35" style="fill:#1A476F"/>
	<circle cx="1502.70" cy="1946.52" r="22.03" style="fill:none;stroke:#1A476F;stroke-width:8.64"/>
	<circle cx="1523.61" cy="1942.94" r="26.35" style="fill:#1A476F"/>
	<circle cx="1523.61" cy="1942.94" r="22.03" style="fill:none;stroke:#1A476F;stroke-width:8.64"/>
	<circle cx="1544.52" cy="1907.91" r="26.35" style="fill:#1A476F"/>
	<circle cx="1544.52" cy="1907.91" r="22.03" style="fill:none;stroke:#1A476F;stroke-width:8.64"/>
	<circle cx="1565.44" cy="1870.17" r="26.35" style="fill:#1A476F"/>
	<circle cx="1565.44" cy="1870.17" r="22.03" style="fill:none;stroke:#1A476F;stroke-width:8.64"/>
	<circle cx="1586.35" cy="1830.32" r="26.35" style="fill:#1A476F"/>
	<circle cx="1586.35" cy="1830.32" r="22.03" style="fill:none;stroke:#1A476F;stroke-width:8.64"/>
	<circle cx="1607.27" cy="1791.71" r="26.35" style="fill:#1A476F"/>
	<circle cx="1607.27" cy="1791.71" r="22.03" style="fill:none;stroke:#1A476F;stroke-width:8.64"/>
	<circle cx="1628.18" cy="1750.62" r="26.35" style="fill:#1A476F"/>
	<circle cx="1628.18" cy="1750.62" r="22.03" style="fill:none;stroke:#1A476F;stroke-width:8.64"/>
	<circle cx="1649.09" cy="1746.17" r="26.35" style="fill:#1A476F"/>
	<circle cx="1649.09" cy="1746.17" r="22.03" style="fill:none;stroke:#1A476F;stroke-width:8.64"/>
	<circle cx="1670.01" cy="1745.30" r="26.35" style="fill:#1A476F"/>
	<circle cx="1670.01" cy="1745.30" r="22.03" style="fill:none;stroke:#1A476F;stroke-width:8.64"/>
	<circle cx="1690.92" cy="1720.18" r="26.35" style="fill:#1A476F"/>
	<circle cx="1690.92" cy="1720.18" r="22.03" style="fill:none;stroke:#1A476F;stroke-width:8.64"/>
	<circle cx="1711.83" cy="1708.05" r="26.35" style="fill:#1A476F"/>
	<circle cx="1711.83" cy="1708.05" r="22.03" style="fill:none;stroke:#1A476F;stroke-width:8.64"/>
	<circle cx="1732.75" cy="1699.26" r="26.35" style="fill:#1A476F"/>
	<circle cx="1732.75" cy="1699.26" r="22.03" style="fill:none;stroke:#1A476F;stroke-width:8.64"/>
	<circle cx="1753.66" cy="1678.23" r="26.35" style="fill:#1A476F"/>
	<circle cx="1753.66" cy="1678.23" r="22.03" style="fill:none;stroke:#1A476F;stroke-width:8.64"/>
	<circle cx="1774.58" cy="1654.47" r="26.35" style="fill:#1A476F"/>
	<circle cx="1774.58" cy="1654.47" r="22.03" style="fill:none;stroke:#1A476F;stroke-width:8.64"/>
	<circle cx="1795.49" cy="1629.96" r="26.35" style="fill:#1A476F"/>
	<circle cx="1795.49" cy="1629.96" r="22.03" style="fill:none;stroke:#1A476F;stroke-width:8.64"/>
	<circle cx="1816.40" cy="1606.82" r="26.35" style="fill:#1A476F"/>
	<circle cx="1816.40" cy="1606.82" r="22.03" style="fill:none;stroke:#1A476F;stroke-width:8.64"/>
	<circle cx="1837.32" cy="1572.79" r="26.35" style="fill:#1A476F"/>
	<circle cx="1837.32" cy="1572.79" r="22.03" style="fill:none;stroke:#1A476F;stroke-width:8.64"/>
	<circle cx="1858.23" cy="1545.31" r="26.35" style="fill:#1A476F"/>
	<circle cx="1858.23" cy="1545.31" r="22.03" style="fill:none;stroke:#1A476F;stroke-width:8.64"/>
	<circle cx="1879.14" cy="1509.30" r="26.35" style="fill:#1A476F"/>
	<circle cx="1879.14" cy="1509.30" r="22.03" style="fill:none;stroke:#1A476F;stroke-width:8.64"/>
	<circle cx="1900.06" cy="1486.28" r="26.35" style="fill:#1A476F"/>
	<circle cx="1900.06" cy="1486.28" r="22.03" style="fill:none;stroke:#1A476F;stroke-width:8.64"/>
	<circle cx="1920.97" cy="1480.10" r="26.35" style="fill:#1A476F"/>
	<circle cx="1920.97" cy="1480.10" r="22.03" style="fill:none;stroke:#1A476F;stroke-width:8.64"/>
	<circle cx="1941.88" cy="1491.73" r="26.35" style="fill:#1A476F"/>
	<circle cx="1941.88" cy="1491.73" r="22.03" style="fill:none;stroke:#1A476F;stroke-width:8.64"/>
	<circle cx="1962.80" cy="1503.11" r="26.35" style="fill:#1A476F"/>
	<circle cx="1962.80" cy="1503.11" r="22.03" style="fill:none;stroke:#1A476F;stroke-width:8.64"/>
	<circle cx="1983.71" cy="1508.56" r="26.35" style="fill:#1A476F"/>
	<circle cx="1983.71" cy="1508.56" r="22.03" style="fill:none;stroke:#1A476F;stroke-width:8.64"/>
	<circle cx="2004.63" cy="1519.70" r="26.35" style="fill:#1A476F"/>
	<circle cx="2004.63" cy="1519.70" r="22.03" style="fill:none;stroke:#1A476F;stroke-width:8.64"/>
	<circle cx="2025.54" cy="1542.72" r="26.35" style="fill:#1A476F"/>
	<circle cx="2025.54" cy="1542.72" r="22.03" style="fill:none;stroke:#1A476F;stroke-width:8.64"/>
	<circle cx="2046.45" cy="1564.87" r="26.35" style="fill:#1A476F"/>
	<circle cx="2046.45" cy="1564.87" r="22.03" style="fill:none;stroke:#1A476F;stroke-width:8.64"/>
	<circle cx="2067.37" cy="1596.05" r="26.35" style="fill:#1A476F"/>
	<circle cx="2067.37" cy="1596.05" r="22.03" style="fill:none;stroke:#1A476F;stroke-width:8.64"/>
	<circle cx="2088.28" cy="1604.47" r="26.35" style="fill:#1A476F"/>
	<circle cx="2088.28" cy="1604.47" r="22.03" style="fill:none;stroke:#1A476F;stroke-width:8.64"/>
	<circle cx="2109.20" cy="1609.67" r="26.35" style="fill:#1A476F"/>
	<circle cx="2109.20" cy="1609.67" r="22.03" style="fill:none;stroke:#1A476F;stroke-width:8.64"/>
	<circle cx="2130.11" cy="1653.97" r="26.35" style="fill:#1A476F"/>
	<circle cx="2130.11" cy="1653.97" r="22.03" style="fill:none;stroke:#1A476F;stroke-width:8.64"/>
	<circle cx="2151.02" cy="1669.07" r="26.35" style="fill:#1A476F"/>
	<circle cx="2151.02" cy="1669.07" r="22.03" style="fill:none;stroke:#1A476F;stroke-width:8.64"/>
	<circle cx="2171.81" cy="1690.11" r="26.35" style="fill:#1A476F"/>
	<circle cx="2171.81" cy="1690.11" r="22.03" style="fill:none;stroke:#1A476F;stroke-width:8.64"/>
	<circle cx="2192.73" cy="1708.42" r="26.35" style="fill:#1A476F"/>
	<circle cx="2192.73" cy="1708.42" r="22.03" style="fill:none;stroke:#1A476F;stroke-width:8.64"/>
	<circle cx="2213.64" cy="1722.16" r="26.35" style="fill:#1A476F"/>
	<circle cx="2213.64" cy="1722.16" r="22.03" style="fill:none;stroke:#1A476F;stroke-width:8.64"/>
	<circle cx="2234.55" cy="1722.04" r="26.35" style="fill:#1A476F"/>
	<circle cx="2234.55" cy="1722.04" r="22.03" style="fill:none;stroke:#1A476F;stroke-width:8.64"/>
	<circle cx="2255.47" cy="1723.64" r="26.35" style="fill:#1A476F"/>
	<circle cx="2255.47" cy="1723.64" r="22.03" style="fill:none;stroke:#1A476F;stroke-width:8.64"/>
	<circle cx="2276.38" cy="1722.04" r="26.35" style="fill:#1A476F"/>
	<circle cx="2276.38" cy="1722.04" r="22.03" style="fill:none;stroke:#1A476F;stroke-width:8.64"/>
	<circle cx="2297.30" cy="1743.94" r="26.35" style="fill:#1A476F"/>
	<circle cx="2297.30" cy="1743.94" r="22.03" style="fill:none;stroke:#1A476F;stroke-width:8.64"/>
	<circle cx="2318.21" cy="1757.30" r="26.35" style="fill:#1A476F"/>
	<circle cx="2318.21" cy="1757.30" r="22.03" style="fill:none;stroke:#1A476F;stroke-width:8.64"/>
	<circle cx="2339.12" cy="1773.39" r="26.35" style="fill:#1A476F"/>
	<circle cx="2339.12" cy="1773.39" r="22.03" style="fill:none;stroke:#1A476F;stroke-width:8.64"/>
	<circle cx="2360.04" cy="1783.91" r="26.35" style="fill:#1A476F"/>
	<circle cx="2360.04" cy="1783.91" r="22.03" style="fill:none;stroke:#1A476F;stroke-width:8.64"/>
	<circle cx="2380.95" cy="1787.38" r="26.35" style="fill:#1A476F"/>
	<circle cx="2380.95" cy="1787.38" r="22.03" style="fill:none;stroke:#1A476F;stroke-width:8.64"/>
	<circle cx="2401.86" cy="1789.73" r="26.35" style="fill:#1A476F"/>
	<circle cx="2401.86" cy="1789.73" r="22.03" style="fill:none;stroke:#1A476F;stroke-width:8.64"/>
	<circle cx="2422.78" cy="1803.47" r="26.35" style="fill:#1A476F"/>
	<circle cx="2422.78" cy="1803.47" r="22.03" style="fill:none;stroke:#1A476F;stroke-width:8.64"/>
	<circle cx="2443.69" cy="1806.56" r="26.35" style="fill:#1A476F"/>
	<circle cx="2443.69" cy="1806.56" r="22.03" style="fill:none;stroke:#1A476F;stroke-width:8.64"/>
	<circle cx="2464.61" cy="1812.00" r="26.35" style="fill:#1A476F"/>
	<circle cx="2464.61" cy="1812.00" r="22.03" style="fill:none;stroke:#1A476F;stroke-width:8.64"/>
	<circle cx="2485.52" cy="1816.58" r="26.35" style="fill:#1A476F"/>
	<circle cx="2485.52" cy="1816.58" r="22.03" style="fill:none;stroke:#1A476F;stroke-width:8.64"/>
	<circle cx="2506.43" cy="1819.18" r="26.35" style="fill:#1A476F"/>
	<circle cx="2506.43" cy="1819.18" r="22.03" style="fill:none;stroke:#1A476F;stroke-width:8.64"/>
	<circle cx="2527.35" cy="1822.28" r="26.35" style="fill:#1A476F"/>
	<circle cx="2527.35" cy="1822.28" r="22.03" style="fill:none;stroke:#1A476F;stroke-width:8.64"/>
	<circle cx="2548.26" cy="1821.16" r="26.35" style="fill:#1A476F"/>
	<circle cx="2548.26" cy="1821.16" r="22.03" style="fill:none;stroke:#1A476F;stroke-width:8.64"/>
	<circle cx="2569.17" cy="1827.23" r="26.35" style="fill:#1A476F"/>
	<circle cx="2569.17" cy="1827.23" r="22.03" style="fill:none;stroke:#1A476F;stroke-width:8.64"/>
	<circle cx="2590.09" cy="1834.65" r="26.35" style="fill:#1A476F"/>
	<circle cx="2590.09" cy="1834.65" r="22.03" style="fill:none;stroke:#1A476F;stroke-width:8.64"/>
	<circle cx="2611.00" cy="1837.25" r="26.35" style="fill:#1A476F"/>
	<circle cx="2611.00" cy="1837.25" r="22.03" style="fill:none;stroke:#1A476F;stroke-width:8.64"/>
	<circle cx="2631.91" cy="1843.19" r="26.35" style="fill:#1A476F"/>
	<circle cx="2631.91" cy="1843.19" r="22.03" style="fill:none;stroke:#1A476F;stroke-width:8.64"/>
	<circle cx="2652.83" cy="1854.82" r="26.35" style="fill:#1A476F"/>
	<circle cx="2652.83" cy="1854.82" r="22.03" style="fill:none;stroke:#1A476F;stroke-width:8.64"/>
	<circle cx="2673.74" cy="1853.21" r="26.35" style="fill:#1A476F"/>
	<circle cx="2673.74" cy="1853.21" r="22.03" style="fill:none;stroke:#1A476F;stroke-width:8.64"/>
	<circle cx="2694.66" cy="1856.18" r="26.35" style="fill:#1A476F"/>
	<circle cx="2694.66" cy="1856.18" r="22.03" style="fill:none;stroke:#1A476F;stroke-width:8.64"/>
	<circle cx="2715.57" cy="1867.32" r="26.35" style="fill:#1A476F"/>
	<circle cx="2715.57" cy="1867.32" r="22.03" style="fill:none;stroke:#1A476F;stroke-width:8.64"/>
	<circle cx="2736.48" cy="1875.61" r="26.35" style="fill:#1A476F"/>
	<circle cx="2736.48" cy="1875.61" r="22.03" style="fill:none;stroke:#1A476F;stroke-width:8.64"/>
	<circle cx="2757.40" cy="1884.15" r="26.35" style="fill:#1A476F"/>
	<circle cx="2757.40" cy="1884.15" r="22.03" style="fill:none;stroke:#1A476F;stroke-width:8.64"/>
	<circle cx="2778.31" cy="1894.05" r="26.35" style="fill:#1A476F"/>
	<circle cx="2778.31" cy="1894.05" r="22.03" style="fill:none;stroke:#1A476F;stroke-width:8.64"/>
	<circle cx="2799.22" cy="1896.90" r="26.35" style="fill:#1A476F"/>
	<circle cx="2799.22" cy="1896.90" r="22.03" style="fill:none;stroke:#1A476F;stroke-width:8.64"/>
	<circle cx="2820.14" cy="1898.88" r="26.35" style="fill:#1A476F"/>
	<circle cx="2820.14" cy="1898.88" r="22.03" style="fill:none;stroke:#1A476F;stroke-width:8.64"/>
	<circle cx="2841.05" cy="1899.50" r="26.35" style="fill:#1A476F"/>
	<circle cx="2841.05" cy="1899.50" r="22.03" style="fill:none;stroke:#1A476F;stroke-width:8.64"/>
	<circle cx="2861.97" cy="1900.98" r="26.35" style="fill:#1A476F"/>
	<circle cx="2861.97" cy="1900.98" r="22.03" style="fill:none;stroke:#1A476F;stroke-width:8.64"/>
	<circle cx="2882.88" cy="1900.98" r="26.35" style="fill:#1A476F"/>
	<circle cx="2882.88" cy="1900.98" r="22.03" style="fill:none;stroke:#1A476F;stroke-width:8.64"/>
	<circle cx="2903.79" cy="1904.08" r="26.35" style="fill:#1A476F"/>
	<circle cx="2903.79" cy="1904.08" r="22.03" style="fill:none;stroke:#1A476F;stroke-width:8.64"/>
	<circle cx="2924.71" cy="1906.30" r="26.35" style="fill:#1A476F"/>
	<circle cx="2924.71" cy="1906.30" r="22.03" style="fill:none;stroke:#1A476F;stroke-width:8.64"/>
	<circle cx="2945.62" cy="1911.87" r="26.35" style="fill:#1A476F"/>
	<circle cx="2945.62" cy="1911.87" r="22.03" style="fill:none;stroke:#1A476F;stroke-width:8.64"/>
	<circle cx="2966.53" cy="1915.59" r="26.35" style="fill:#1A476F"/>
	<circle cx="2966.53" cy="1915.59" r="22.03" style="fill:none;stroke:#1A476F;stroke-width:8.64"/>
	<circle cx="2987.45" cy="1918.18" r="26.35" style="fill:#1A476F"/>
	<circle cx="2987.45" cy="1918.18" r="22.03" style="fill:none;stroke:#1A476F;stroke-width:8.64"/>
	<circle cx="3008.36" cy="1932.66" r="26.35" style="fill:#1A476F"/>
	<circle cx="3008.36" cy="1932.66" r="22.03" style="fill:none;stroke:#1A476F;stroke-width:8.64"/>
	<circle cx="3029.28" cy="1940.21" r="26.35" style="fill:#1A476F"/>
	<circle cx="3029.28" cy="1940.21" r="22.03" style="fill:none;stroke:#1A476F;stroke-width:8.64"/>
	<circle cx="3050.19" cy="1944.30" r="26.35" style="fill:#1A476F"/>
	<circle cx="3050.19" cy="1944.30" r="22.03" style="fill:none;stroke:#1A476F;stroke-width:8.64"/>
	<circle cx="3070.98" cy="1949.49" r="26.35" style="fill:#1A476F"/>
	<circle cx="3070.98" cy="1949.49" r="22.03" style="fill:none;stroke:#1A476F;stroke-width:8.64"/>
	<circle cx="3091.89" cy="1951.47" r="26.35" style="fill:#1A476F"/>
	<circle cx="3091.89" cy="1951.47" r="22.03" style="fill:none;stroke:#1A476F;stroke-width:8.64"/>
	<circle cx="3112.81" cy="1951.72" r="26.35" style="fill:#1A476F"/>
	<circle cx="3112.81" cy="1951.72" r="22.03" style="fill:none;stroke:#1A476F;stroke-width:8.64"/>
	<circle cx="3133.72" cy="1952.22" r="26.35" style="fill:#1A476F"/>
	<circle cx="3133.72" cy="1952.22" r="22.03" style="fill:none;stroke:#1A476F;stroke-width:8.64"/>
	<circle cx="3154.64" cy="1944.54" r="26.35" style="fill:#1A476F"/>
	<circle cx="3154.64" cy="1944.54" r="22.03" style="fill:none;stroke:#1A476F;stroke-width:8.64"/>
	<circle cx="3175.55" cy="1945.29" r="26.35" style="fill:#1A476F"/>
	<circle cx="3175.55" cy="1945.29" r="22.03" style="fill:none;stroke:#1A476F;stroke-width:8.64"/>
	<circle cx="3196.46" cy="1944.54" r="26.35" style="fill:#1A476F"/>
	<circle cx="3196.46" cy="1944.54" r="22.03" style="fill:none;stroke:#1A476F;stroke-width:8.64"/>
	<circle cx="3217.38" cy="1939.84" r="26.35" style="fill:#1A476F"/>
	<circle cx="3217.38" cy="1939.84" r="22.03" style="fill:none;stroke:#1A476F;stroke-width:8.64"/>
	<circle cx="3238.29" cy="1938.48" r="26.35" style="fill:#1A476F"/>
	<circle cx="3238.29" cy="1938.48" r="22.03" style="fill:none;stroke:#1A476F;stroke-width:8.64"/>
	<circle cx="3259.20" cy="1938.23" r="26.35" style="fill:#1A476F"/>
	<circle cx="3259.20" cy="1938.23" r="22.03" style="fill:none;stroke:#1A476F;stroke-width:8.64"/>
	<circle cx="3280.12" cy="1938.36" r="26.35" style="fill:#1A476F"/>
	<circle cx="3280.12" cy="1938.36" r="22.03" style="fill:none;stroke:#1A476F;stroke-width:8.64"/>
	<circle cx="624.44" cy="1977.96" r="26.35" style="fill:#1A476F"/>
	<circle cx="624.44" cy="1977.96" r="22.03" style="fill:none;stroke:#1A476F;stroke-width:8.64"/>
	<circle cx="645.36" cy="1980.06" r="26.35" style="fill:#1A476F"/>
	<circle cx="645.36" cy="1980.06" r="22.03" style="fill:none;stroke:#1A476F;stroke-width:8.64"/>
	<circle cx="666.27" cy="1980.43" r="26.35" style="fill:#1A476F"/>
	<circle cx="666.27" cy="1980.43" r="22.03" style="fill:none;stroke:#1A476F;stroke-width:8.64"/>
	<circle cx="687.18" cy="1980.93" r="26.35" style="fill:#1A476F"/>
	<circle cx="687.18" cy="1980.93" r="22.03" style="fill:none;stroke:#1A476F;stroke-width:8.64"/>
	<line x1="561.21" y1="2045.53" x2="561.21" y2="424.48" style="stroke:#000000;stroke-width:5.76"/>
	<line x1="561.21" y1="1982.17" x2="521.11" y2="1982.17" style="stroke:#000000;stroke-width:5.76"/>
	<text x="501.19" y="2017.19" style="font-family:'Helvetica';font-size:99.99px;fill:#000000" text-anchor="end">0</text>
	<line x1="561.21" y1="1555.21" x2="521.11" y2="1555.21" style="stroke:#000000;stroke-width:5.76"/>
	<text x="501.19" y="1590.24" style="font-family:'Helvetica';font-size:99.99px;fill:#000000" text-anchor="end">20</text>
	<line x1="561.21" y1="1128.26" x2="521.11" y2="1128.26" style="stroke:#000000;stroke-width:5.76"/>
	<text x="501.19" y="1163.29" style="font-family:'Helvetica';font-size:99.99px;fill:#000000" text-anchor="end">40</text>
	<line x1="561.21" y1="701.31" x2="521.11" y2="701.31" style="stroke:#000000;stroke-width:5.76"/>
	<text x="501.19" y="736.34" style="font-family:'Helvetica';font-size:99.99px;fill:#000000" text-anchor="end">60</text>
	<line x1="561.21" y1="2045.53" x2="3824.49" y2="2045.53" style="stroke:#000000;stroke-width:5.76"/>
	<line x1="624.57" y1="2045.53" x2="624.57" y2="2085.50" style="stroke:#000000;stroke-width:5.76"/>
	<text x="659.59" y="2105.42" style="font-family:'Helvetica';font-size:99.99px;fill:#000000" transform="rotate(-90 659.59,2105.42)" text-anchor="end">1feb2020</text>
	<line x1="1230.94" y1="2045.53" x2="1230.94" y2="2085.50" style="stroke:#000000;stroke-width:5.76"/>
	<text x="1265.97" y="2105.42" style="font-family:'Helvetica';font-size:99.99px;fill:#000000" transform="rotate(-90 1265.97,2105.42)" text-anchor="end">1mar2020</text>
	<line x1="1879.14" y1="2045.53" x2="1879.14" y2="2085.50" style="stroke:#000000;stroke-width:5.76"/>
	<text x="1914.17" y="2105.42" style="font-family:'Helvetica';font-size:99.99px;fill:#000000" transform="rotate(-90 1914.17,2105.42)" text-anchor="end">1apr2020</text>
	<line x1="2506.56" y1="2045.53" x2="2506.56" y2="2085.50" style="stroke:#000000;stroke-width:5.76"/>
	<text x="2541.58" y="2105.42" style="font-family:'Helvetica';font-size:99.99px;fill:#000000" transform="rotate(-90 2541.58,2105.42)" text-anchor="end">1may2020</text>
	<line x1="3154.76" y1="2045.53" x2="3154.76" y2="2085.50" style="stroke:#000000;stroke-width:5.76"/>
	<text x="3189.79" y="2105.42" style="font-family:'Helvetica';font-size:99.99px;fill:#000000" transform="rotate(-90 3189.79,2105.42)" text-anchor="end">1jun2020</text>
	<rect x="561.21" y="309.88" width="3263.29" height="114.60" style="fill:#D9E6EB"/>
	<rect x="564.09" y="312.76" width="3257.53" height="108.84" style="fill:none;stroke:#D9E6EB;stroke-width:5.76"/>
	<text x="2192.85" y="383.10" style="font-family:'Helvetica';font-size:79.94px;fill:#000000" text-anchor="middle">London</text>
	<text x="170.79" y="1477.25" style="font-family:'Helvetica';font-size:99.99px;fill:#000000" transform="rotate(-90 170.79,1477.25)" text-anchor="middle">Suspected case rate</text>
	<text x="270.78" y="1477.25" style="font-family:'Helvetica';font-size:99.99px;fill:#000000" transform="rotate(-90 270.78,1477.25)" text-anchor="middle">(per 100,000)</text>
	<text x="2079.99" y="2749.08" style="font-family:'Helvetica';font-size:99.99px;fill:#000000" text-anchor="middle"> </text>
	<text x="2079.99" y="215.98" style="font-family:'Helvetica';font-size:139.96px;fill:#1E2D53" text-anchor="middle">London</text>
</svg>
