<?xml version="1.0" encoding="UTF-8" standalone="no"?>
<!-- This is a Stata 16.1 generated SVG file (http://www.stata.com) -->

<svg version="1.1" width="5.50in" height="4.00in" viewBox="0 0 3960 2880" xmlns="http://www.w3.org/2000/svg" xmlns:xlink="http://www.w3.org/1999/xlink">
	<desc>Stata Graph - Graph</desc>
	<rect x="0" y="0" width="3960" height="2880" style="fill:#EAF2F3;stroke:none"/>
	<rect x="0.00" y="0.00" width="3959.88" height="2880.00" style="fill:#EAF2F3"/>
	<rect x="2.88" y="2.88" width="3954.12" height="2874.24" style="fill:none;stroke:#EAF2F3;stroke-width:5.76"/>
	<rect x="427.31" y="407.27" width="1664.07" height="684.73" style="fill:#FFFFFF"/>
	<rect x="429.76" y="409.72" width="1659.17" height="679.83" style="fill:none;stroke:#FFFFFF;stroke-width:4.90"/>
	<line x1="427.31" y1="1038.17" x2="2091.38" y2="1038.17" style="stroke:#EAF2F3;stroke-width:7.34"/>
	<line x1="427.31" y1="949.32" x2="2091.38" y2="949.32" style="stroke:#EAF2F3;stroke-width:7.34"/>
	<line x1="427.31" y1="860.58" x2="2091.38" y2="860.58" style="stroke:#EAF2F3;stroke-width:7.34"/>
	<line x1="427.31" y1="771.85" x2="2091.38" y2="771.85" style="stroke:#EAF2F3;stroke-width:7.34"/>
	<line x1="427.31" y1="683.00" x2="2091.38" y2="683.00" style="stroke:#EAF2F3;stroke-width:7.34"/>
	<line x1="427.31" y1="594.27" x2="2091.38" y2="594.27" style="stroke:#EAF2F3;stroke-width:7.34"/>
	<line x1="427.31" y1="505.53" x2="2091.38" y2="505.53" style="stroke:#EAF2F3;stroke-width:7.34"/>
	<rect x="2160.43" y="407.27" width="1664.07" height="684.73" style="fill:#FFFFFF"/>
	<rect x="2162.88" y="409.72" width="1659.17" height="679.83" style="fill:none;stroke:#FFFFFF;stroke-width:4.90"/>
	<line x1="2160.43" y1="1038.17" x2="3824.49" y2="1038.17" style="stroke:#EAF2F3;stroke-width:7.34"/>
	<line x1="2160.43" y1="949.32" x2="3824.49" y2="949.32" style="stroke:#EAF2F3;stroke-width:7.34"/>
	<line x1="2160.43" y1="860.58" x2="3824.49" y2="860.58" style="stroke:#EAF2F3;stroke-width:7.34"/>
	<line x1="2160.43" y1="771.85" x2="3824.49" y2="771.85" style="stroke:#EAF2F3;stroke-width:7.34"/>
	<line x1="2160.43" y1="683.00" x2="3824.49" y2="683.00" style="stroke:#EAF2F3;stroke-width:7.34"/>
	<line x1="2160.43" y1="594.27" x2="3824.49" y2="594.27" style="stroke:#EAF2F3;stroke-width:7.34"/>
	<line x1="2160.43" y1="505.53" x2="3824.49" y2="505.53" style="stroke:#EAF2F3;stroke-width:7.34"/>
	<rect x="427.31" y="1411.41" width="1664.07" height="684.73" style="fill:#FFFFFF"/>
	<rect x="429.76" y="1413.86" width="1659.17" height="679.83" style="fill:none;stroke:#FFFFFF;stroke-width:4.90"/>
	<line x1="427.31" y1="2042.31" x2="2091.38" y2="2042.31" style="stroke:#EAF2F3;stroke-width:7.34"/>
	<line x1="427.31" y1="1953.45" x2="2091.38" y2="1953.45" style="stroke:#EAF2F3;stroke-width:7.34"/>
	<line x1="427.31" y1="1864.72" x2="2091.38" y2="1864.72" style="stroke:#EAF2F3;stroke-width:7.34"/>
	<line x1="427.31" y1="1775.99" x2="2091.38" y2="1775.99" style="stroke:#EAF2F3;stroke-width:7.34"/>
	<line x1="427.31" y1="1687.26" x2="2091.38" y2="1687.26" style="stroke:#EAF2F3;stroke-width:7.34"/>
	<line x1="427.31" y1="1598.40" x2="2091.38" y2="1598.40" style="stroke:#EAF2F3;stroke-width:7.34"/>
	<line x1="427.31" y1="1509.67" x2="2091.38" y2="1509.67" style="stroke:#EAF2F3;stroke-width:7.34"/>
	<path d=" M500.57 1026.79 L520.00 1024.81 L539.43 1022.83 L558.86 1020.47 L578.41 1017.50 L597.84 1014.16 L617.26 1009.83 L636.69 1005.25 L656.12 999.68 L675.67 995.35 L695.10 988.79 L714.53 981.49 L733.96 972.83 L753.39 963.18 L772.94 954.64 L792.37 941.77 L811.80 930.13 L831.23 923.33 L850.78 916.27 L870.21 901.18 L889.64 891.52 L909.07 888.80 L928.50 879.02 L948.05 873.45 L967.48 890.29 L986.91 880.63 L1006.34 870.98 L1025.76 867.14 L1045.32 871.85 L1064.74 867.14 L1084.17 853.65 L1103.60 854.40 L1123.03 862.44 L1142.58 870.36 L1162.01 877.66 L1181.44 886.70 L1200.87 891.65 L1220.30 903.53 L1239.85 906.74 L1259.28 916.64 L1278.71 924.07 L1298.14 945.23 L1317.57 933.97 L1337.12 949.44 L1356.55 959.22 L1375.98 933.35 L1395.40 939.29 L1414.96 943.62 L1434.39 948.82 L1453.82 949.93 L1473.24 944.61 L1492.67 949.81 L1512.22 949.93 L1531.65 951.05 L1551.08 951.54 L1570.51 952.41 L1589.94 951.79 L1609.49 951.79 L1628.92 952.16 L1648.35 956.25 L1667.78 958.84 L1687.21 955.01 L1706.76 956.25 L1726.19 955.13 L1745.62 958.60 L1765.05 966.27 L1784.47 968.25 L1804.03 968.13 L1823.46 968.62 L1842.88 983.84 L1862.31 976.17 L1881.74 984.59 L1901.30 982.61" stroke-linejoin="round" style="fill:none;stroke:#1A476F;stroke-width:19.58"/>
	<path d=" M500.57 975.30 L520.00 975.30 L539.43 975.30 L558.86 975.30 L578.41 975.30 L597.84 975.30 L617.26 975.30 L636.69 975.30 L656.12 975.30 L675.67 975.30 L695.10 975.30 L714.53 975.30 L733.96 975.30 L753.39 975.30 L772.94 975.30 L792.37 975.30 L811.80 975.30 L831.23 975.30 L850.78 975.30 L870.21 975.30 L889.64 975.30 L909.07 956.25 L928.50 946.72 L948.05 946.35 L967.48 940.03 L986.91 934.34 L1006.34 927.54 L1025.76 920.85 L1045.32 916.52 L1064.74 913.18 L1084.17 905.51 L1103.60 899.44 L1123.03 892.88 L1142.58 889.17 L1162.01 884.35 L1181.44 881.25 L1200.87 878.03 L1220.30 877.29 L1239.85 878.78 L1259.28 881.87 L1278.71 884.96 L1298.14 891.52 L1317.57 897.09 L1337.12 901.67 L1356.55 907.49 L1375.98 911.69 L1395.40 915.04 L1414.96 916.15 L1434.39 917.26 L1453.82 918.01 L1473.24 919.86 L1492.67 919.86 L1512.22 920.23 L1531.65 921.60 L1551.08 921.72 L1570.51 920.73 L1589.94 917.76 L1609.49 914.42 L1628.92 913.80 L1648.35 913.06 L1667.78 911.57 L1687.21 913.18 L1706.76 914.91 L1726.19 918.62 L1745.62 921.97 L1765.05 922.59 L1784.47 923.70 L1804.03 925.93 L1823.46 925.68 L1842.88 925.31 L1862.31 925.68 L1881.74 927.66 L1901.30 929.39" stroke-linejoin="round" style="fill:none;stroke:#90353B;stroke-width:19.58"/>
	<path d=" M500.57 989.29 L520.00 990.28 L539.43 990.53 L558.86 987.93 L578.41 986.94 L597.84 985.95 L617.26 985.08 L636.69 983.47 L656.12 979.39 L675.67 973.20 L695.10 968.00 L714.53 959.96 L733.96 956.37 L753.39 949.19 L772.94 951.30 L792.37 952.29 L811.80 938.55 L831.23 930.01 L850.78 923.58 L870.21 918.25 L889.64 907.36 L909.07 904.76 L928.50 901.79 L948.05 886.82 L967.48 879.52 L986.91 874.20 L1006.34 870.24 L1025.76 867.89 L1045.32 868.38 L1064.74 867.76 L1084.17 866.90 L1103.60 865.78 L1123.03 857.12 L1142.58 855.63 L1162.01 859.22 L1181.44 863.93 L1200.87 868.50 L1220.30 870.48 L1239.85 872.96 L1259.28 881.00 L1278.71 884.84 L1298.14 889.67 L1317.57 889.79 L1337.12 891.52 L1356.55 902.78 L1375.98 907.98 L1395.40 915.90 L1414.96 927.29 L1434.39 932.98 L1453.82 940.65 L1473.24 946.72 L1492.67 947.95 L1512.22 954.27 L1531.65 959.22 L1551.08 959.96 L1570.51 961.07 L1589.94 959.59 L1609.49 957.48 L1628.92 955.01 L1648.35 952.04 L1667.78 947.46 L1687.21 944.61 L1706.76 942.88 L1726.19 941.40 L1745.62 940.16 L1765.05 940.28 L1784.47 941.52 L1804.03 942.14 L1823.46 942.14 L1842.88 947.58 L1862.31 948.57 L1881.74 948.70 L1901.30 948.94" stroke-linejoin="round" style="fill:none;stroke:#55752F;stroke-width:19.58"/>
	<path d=" M500.57 1038.17 L520.00 1038.17 L539.43 1038.17 L558.86 1038.17 L578.41 1038.17 L597.84 1038.17 L617.26 1038.17 L636.69 1038.17 L656.12 993.74 L675.67 993.74 L695.10 993.74 L714.53 993.74 L733.96 993.74 L753.39 993.74 L772.94 993.74 L792.37 993.74 L811.80 993.74 L831.23 993.74 L850.78 993.74 L870.21 993.74 L889.64 993.74 L909.07 993.74 L928.50 993.74 L948.05 993.74 L967.48 993.74 L986.91 993.74 L1006.34 993.74 L1025.76 993.74 L1045.32 993.74 L1064.74 993.74 L1084.17 949.44 L1103.60 949.44 L1123.03 949.44 L1142.58 949.44 L1162.01 949.44 L1181.44 949.44 L1200.87 993.74 L1220.30 993.74 L1239.85 993.74 L1259.28 993.74 L1278.71 993.74 L1298.14 993.74 L1317.57 993.74 L1337.12 993.74 L1356.55 993.74 L1375.98 993.74 L1395.40 993.74 L1414.96 993.74 L1434.39 993.74 L1453.82 993.74 L1473.24 993.74 L1492.67 993.74 L1512.22 993.74 L1531.65 993.74 L1551.08 993.74 L1570.51 993.74 L1589.94 993.74 L1609.49 993.74 L1628.92 1038.17 L1648.35 1038.17 L1667.78 1038.17 L1687.21 1038.17 L1706.76 1038.17 L1726.19 1038.17 L1745.62 1038.17 L1765.05 1038.17 L1784.47 1038.17 L1804.03 1038.17 L1823.46 1038.17 L1842.88 1038.17 L1862.31 1038.17 L1881.74 1038.17 L1901.30 1038.17" stroke-linejoin="round" style="fill:none;stroke:#E37E00;stroke-width:19.58"/>
	<path d=" M2233.69 1024.56 L2253.12 1022.21 L2272.67 1019.73 L2292.10 1016.89 L2311.53 1013.30 L2330.95 1009.34 L2350.38 1004.14 L2369.94 998.82 L2389.36 992.01 L2408.79 986.81 L2428.22 978.89 L2447.65 970.23 L2467.20 959.83 L2486.63 948.20 L2506.06 938.05 L2525.49 922.46 L2545.04 908.60 L2564.47 900.56 L2583.90 892.02 L2603.33 873.95 L2622.76 862.44 L2642.31 858.98 L2661.74 847.34 L2681.17 840.78 L2700.60 860.83 L2720.03 849.32 L2739.58 837.69 L2759.01 833.11 L2778.43 838.80 L2797.86 833.23 L2817.29 817.02 L2836.84 817.89 L2856.27 827.42 L2875.70 836.95 L2895.13 845.73 L2914.56 856.50 L2934.11 862.44 L2953.54 876.67 L2972.97 880.63 L2992.40 892.39 L3011.83 901.42 L3031.38 926.67 L3050.81 913.18 L3070.24 931.74 L3089.67 943.50 L3109.22 912.56 L3128.65 919.61 L3148.08 924.81 L3167.51 931.12 L3186.93 932.36 L3206.49 925.93 L3225.91 932.24 L3245.34 932.36 L3264.77 933.72 L3284.20 934.34 L3303.75 935.33 L3323.18 934.59 L3342.61 934.59 L3362.04 935.08 L3381.47 939.91 L3401.02 943.00 L3420.45 938.43 L3439.88 940.03 L3459.31 938.55 L3478.74 942.76 L3498.29 952.04 L3517.72 954.39 L3537.15 954.14 L3556.57 954.76 L3576.00 972.95 L3595.56 963.80 L3614.99 973.94 L3634.41 971.59" stroke-linejoin="round" style="fill:none;stroke:#1A476F;stroke-width:19.58"/>
	<path d=" M2233.69 962.81 L2253.12 962.81 L2272.67 962.81 L2292.10 962.81 L2311.53 962.81 L2330.95 962.81 L2350.38 962.81 L2369.94 962.81 L2389.36 962.81 L2408.79 962.81 L2428.22 962.81 L2447.65 962.81 L2467.20 962.81 L2486.63 962.81 L2506.06 962.81 L2525.49 962.81 L2545.04 962.81 L2564.47 962.81 L2583.90 962.81 L2603.33 962.81 L2622.76 962.81 L2642.31 962.81 L2661.74 962.81 L2681.17 940.16 L2700.60 931.12 L2720.03 930.75 L2739.58 920.36 L2759.01 919.61 L2778.43 911.32 L2797.86 903.53 L2817.29 901.42 L2836.84 894.99 L2856.27 887.44 L2875.70 881.00 L2895.13 872.46 L2914.56 870.73 L2934.11 866.65 L2953.54 859.47 L2972.97 857.00 L2992.40 855.39 L3011.83 858.85 L3031.38 861.95 L3050.81 863.31 L3070.24 868.75 L3089.67 876.92 L3109.22 884.22 L3128.65 892.14 L3148.08 896.72 L3167.51 902.91 L3186.93 907.73 L3206.49 909.96 L3225.91 908.85 L3245.34 910.09 L3264.77 910.83 L3284.20 912.44 L3303.75 913.18 L3323.18 913.67 L3342.61 914.66 L3362.04 920.11 L3381.47 919.99 L3401.02 921.35 L3420.45 922.09 L3439.88 923.08 L3459.31 924.57 L3478.74 927.54 L3498.29 928.15 L3517.72 931.00 L3537.15 929.52 L3556.57 929.76 L3576.00 928.28 L3595.56 926.17 L3614.99 926.92 L3634.41 925.43" stroke-linejoin="round" style="fill:none;stroke:#90353B;stroke-width:19.58"/>
	<path d=" M2233.69 1014.91 L2253.12 1005.62 L2272.67 1000.55 L2292.10 997.83 L2311.53 990.90 L2330.95 986.07 L2350.38 978.03 L2369.94 973.08 L2389.36 973.45 L2408.79 963.18 L2428.22 951.54 L2447.65 950.92 L2467.20 949.07 L2486.63 940.28 L2506.06 942.01 L2525.49 941.15 L2545.04 925.18 L2564.47 906.74 L2583.90 894.62 L2603.33 886.45 L2622.76 874.94 L2642.31 872.09 L2661.74 868.38 L2681.17 858.23 L2700.60 854.64 L2720.03 849.08 L2739.58 842.52 L2759.01 836.58 L2778.43 832.62 L2797.86 828.78 L2817.29 824.70 L2836.84 822.96 L2856.27 813.81 L2875.70 815.91 L2895.13 822.34 L2914.56 831.01 L2934.11 837.81 L2953.54 839.05 L2972.97 842.15 L2992.40 850.44 L3011.83 856.13 L3031.38 861.33 L3050.81 859.10 L3070.24 857.86 L3089.67 864.05 L3109.22 863.43 L3128.65 870.48 L3148.08 880.01 L3167.51 891.03 L3186.93 904.27 L3206.49 917.51 L3225.91 926.92 L3245.34 938.80 L3264.77 946.47 L3284.20 950.43 L3303.75 952.29 L3323.18 951.54 L3342.61 949.81 L3362.04 948.70 L3381.47 948.20 L3401.02 945.85 L3420.45 944.49 L3439.88 941.52 L3459.31 939.91 L3478.74 937.19 L3498.29 935.46 L3517.72 934.22 L3537.15 934.22 L3556.57 934.47 L3576.00 942.26 L3595.56 944.98 L3614.99 947.21 L3634.41 948.82" stroke-linejoin="round" style="fill:none;stroke:#55752F;stroke-width:19.58"/>
	<path d=" M2233.69 993.74 L2253.12 993.74 L2272.67 993.74 L2292.10 993.74 L2311.53 993.74 L2330.95 993.74 L2350.38 949.44 L2369.94 949.44 L2389.36 949.44 L2408.79 949.44 L2428.22 949.44 L2447.65 949.44 L2467.20 949.44 L2486.63 905.01 L2506.06 860.58 L2525.49 860.58 L2545.04 860.58 L2564.47 860.58 L2583.90 860.58 L2603.33 860.58 L2622.76 816.28 L2642.31 816.28 L2661.74 816.28 L2681.17 816.28 L2700.60 771.85 L2720.03 816.28 L2739.58 816.28 L2759.01 816.28 L2778.43 816.28 L2797.86 816.28 L2817.29 771.85 L2836.84 771.85 L2856.27 771.85 L2875.70 771.85 L2895.13 816.28 L2914.56 816.28 L2934.11 816.28 L2953.54 816.28 L2972.97 816.28 L2992.40 816.28 L3011.83 816.28 L3031.38 860.58 L3050.81 905.01 L3070.24 905.01 L3089.67 905.01 L3109.22 905.01 L3128.65 905.01 L3148.08 905.01 L3167.51 949.44 L3186.93 905.01 L3206.49 905.01 L3225.91 905.01 L3245.34 949.44 L3264.77 949.44 L3284.20 949.44 L3303.75 949.44 L3323.18 949.44 L3342.61 949.44 L3362.04 993.74 L3381.47 993.74 L3401.02 993.74 L3420.45 993.74 L3439.88 993.74 L3459.31 993.74 L3478.74 993.74 L3498.29 993.74 L3517.72 993.74 L3537.15 993.74 L3556.57 993.74 L3576.00 949.44 L3595.56 949.44 L3614.99 949.44 L3634.41 949.44" stroke-linejoin="round" style="fill:none;stroke:#E37E00;stroke-width:19.58"/>
	<path d=" M500.57 2014.84 L520.00 2010.01 L539.43 2005.06 L558.86 1999.24 L578.41 1992.07 L597.84 1984.02 L617.26 1973.50 L636.69 1962.61 L656.12 1948.75 L675.67 1938.48 L695.10 1922.39 L714.53 1904.70 L733.96 1883.66 L753.39 1860.27 L772.94 1839.48 L792.37 1808.17 L811.80 1780.08 L831.23 1763.62 L850.78 1746.41 L870.21 1709.91 L889.64 1686.39 L909.07 1679.59 L928.50 1656.07 L948.05 1642.59 L967.48 1683.30 L986.91 1659.79 L1006.34 1636.27 L1025.76 1627.12 L1045.32 1638.50 L1064.74 1627.24 L1084.17 1594.44 L1103.60 1596.18 L1123.03 1615.73 L1142.58 1634.91 L1162.01 1652.73 L1181.44 1674.64 L1200.87 1686.52 L1220.30 1715.35 L1239.85 1723.27 L1259.28 1747.28 L1278.71 1765.47 L1298.14 1816.58 L1317.57 1789.23 L1337.12 1826.85 L1356.55 1850.49 L1375.98 1788.00 L1395.40 1802.35 L1414.96 1812.75 L1434.39 1825.49 L1453.82 1828.09 L1473.24 1815.10 L1492.67 1827.84 L1512.22 1828.09 L1531.65 1830.94 L1551.08 1832.18 L1570.51 1834.03 L1589.94 1832.55 L1609.49 1832.67 L1628.92 1833.54 L1648.35 1843.31 L1667.78 1849.75 L1687.21 1840.34 L1706.76 1843.56 L1726.19 1840.59 L1745.62 1849.25 L1765.05 1867.82 L1784.47 1872.64 L1804.03 1872.15 L1823.46 1873.39 L1842.88 1910.39 L1862.31 1891.83 L1881.74 1912.37 L1901.30 1907.54" stroke-linejoin="round" style="fill:none;stroke:#1A476F;stroke-width:19.58"/>
	<path d=" M500.57 1889.72 L520.00 1889.72 L539.43 1889.72 L558.86 1889.72 L578.41 1889.72 L597.84 1889.72 L617.26 1889.72 L636.69 1889.72 L656.12 1889.72 L675.67 1889.72 L695.10 1889.72 L714.53 1889.72 L733.96 1889.72 L753.39 1889.72 L772.94 1889.72 L792.37 1889.72 L811.80 1863.98 L831.23 1844.18 L850.78 1834.40 L870.21 1825.37 L889.64 1814.11 L909.07 1802.35 L928.50 1793.94 L948.05 1783.42 L967.48 1773.64 L986.91 1763.86 L1006.34 1749.01 L1025.76 1737.26 L1045.32 1724.88 L1064.74 1710.53 L1084.17 1699.88 L1103.60 1689.49 L1123.03 1676.99 L1142.58 1670.92 L1162.01 1662.01 L1181.44 1656.57 L1200.87 1650.01 L1220.30 1645.56 L1239.85 1640.73 L1259.28 1639.61 L1278.71 1641.97 L1298.14 1649.89 L1317.57 1660.78 L1337.12 1676.74 L1356.55 1698.65 L1375.98 1721.79 L1395.40 1744.56 L1414.96 1760.65 L1434.39 1776.12 L1453.82 1788.37 L1473.24 1798.02 L1492.67 1799.88 L1512.22 1803.34 L1531.65 1805.57 L1551.08 1809.41 L1570.51 1810.64 L1589.94 1811.14 L1609.49 1811.01 L1628.92 1809.03 L1648.35 1804.08 L1667.78 1801.24 L1687.21 1797.65 L1706.76 1794.93 L1726.19 1792.82 L1745.62 1793.32 L1765.05 1796.78 L1784.47 1802.35 L1804.03 1807.30 L1823.46 1812.87 L1842.88 1816.09 L1862.31 1819.31 L1881.74 1821.04 L1901.30 1822.65" stroke-linejoin="round" style="fill:none;stroke:#90353B;stroke-width:19.58"/>
	<path d=" M500.57 1940.96 L520.00 1948.26 L539.43 1949.99 L558.86 1948.75 L578.41 1951.72 L597.84 1949.87 L617.26 1946.65 L636.69 1941.45 L656.12 1937.86 L675.67 1927.22 L695.10 1911.75 L714.53 1893.06 L733.96 1875.74 L753.39 1849.75 L772.94 1848.02 L792.37 1841.95 L811.80 1802.97 L831.23 1766.71 L850.78 1738.00 L870.21 1714.86 L889.64 1694.31 L909.07 1689.12 L928.50 1682.19 L948.05 1658.80 L967.48 1651.99 L986.91 1645.56 L1006.34 1638.62 L1025.76 1627.36 L1045.32 1618.70 L1064.74 1610.29 L1084.17 1603.11 L1103.60 1595.06 L1123.03 1578.73 L1142.58 1585.29 L1162.01 1600.76 L1181.44 1620.93 L1200.87 1636.27 L1220.30 1638.38 L1239.85 1645.93 L1259.28 1663.25 L1278.71 1676.12 L1298.14 1687.76 L1317.57 1684.66 L1337.12 1683.05 L1356.55 1703.22 L1375.98 1708.17 L1395.40 1724.14 L1414.96 1748.64 L1434.39 1781.68 L1453.82 1823.27 L1473.24 1860.27 L1492.67 1879.20 L1512.22 1900.86 L1531.65 1912.86 L1551.08 1920.17 L1570.51 1924.37 L1589.94 1921.65 L1609.49 1916.70 L1628.92 1912.24 L1648.35 1906.68 L1667.78 1896.53 L1687.21 1888.86 L1706.76 1879.94 L1726.19 1872.15 L1745.62 1862.74 L1765.05 1852.97 L1784.47 1848.64 L1804.03 1849.13 L1823.46 1850.86 L1842.88 1860.02 L1862.31 1862.37 L1881.74 1862.99 L1901.30 1867.20" stroke-linejoin="round" style="fill:none;stroke:#55752F;stroke-width:19.58"/>
	<path d=" M500.57 2042.31 L520.00 2042.31 L539.43 1998.01 L558.86 1998.01 L578.41 1998.01 L597.84 1998.01 L617.26 1998.01 L636.69 1953.58 L656.12 1909.15 L675.67 1909.15 L695.10 1909.15 L714.53 1909.15 L733.96 1909.15 L753.39 1820.42 L772.94 1820.42 L792.37 1820.42 L811.80 1820.42 L831.23 1820.42 L850.78 1820.42 L870.21 1820.42 L889.64 1775.99 L909.07 1731.69 L928.50 1731.69 L948.05 1554.10 L967.48 1554.10 L986.91 1554.10 L1006.34 1554.10 L1025.76 1509.80 L1045.32 1465.37 L1064.74 1465.37 L1084.17 1509.80 L1103.60 1509.80 L1123.03 1465.37 L1142.58 1465.37 L1162.01 1465.37 L1181.44 1509.80 L1200.87 1554.10 L1220.30 1554.10 L1239.85 1554.10 L1259.28 1554.10 L1278.71 1554.10 L1298.14 1642.83 L1317.57 1642.83 L1337.12 1642.83 L1356.55 1642.83 L1375.98 1598.53 L1395.40 1598.53 L1414.96 1598.53 L1434.39 1642.83 L1453.82 1687.26 L1473.24 1687.26 L1492.67 1864.85 L1512.22 1864.85 L1531.65 1864.85 L1551.08 1864.85 L1570.51 1909.15 L1589.94 1953.58 L1609.49 1953.58 L1628.92 1953.58 L1648.35 1909.15 L1667.78 1953.58 L1687.21 1953.58 L1706.76 1953.58 L1726.19 1953.58 L1745.62 1953.58 L1765.05 1953.58 L1784.47 1953.58 L1804.03 1953.58 L1823.46 1953.58 L1842.88 1953.58 L1862.31 1953.58 L1881.74 1953.58 L1901.30 1953.58" stroke-linejoin="round" style="fill:none;stroke:#E37E00;stroke-width:19.58"/>
	<line x1="427.31" y1="1092.00" x2="427.31" y2="407.27" style="stroke:#000000;stroke-width:4.90"/>
	<line x1="427.31" y1="1038.17" x2="393.28" y2="1038.17" style="stroke:#000000;stroke-width:4.90"/>
	<text x="376.32" y="1067.96" style="font-family:'Helvetica';font-size:85.02px;fill:#000000" text-anchor="end">0</text>
	<line x1="427.31" y1="949.32" x2="393.28" y2="949.32" style="stroke:#000000;stroke-width:4.90"/>
	<text x="376.32" y="979.10" style="font-family:'Helvetica';font-size:85.02px;fill:#000000" text-anchor="end">2</text>
	<line x1="427.31" y1="860.58" x2="393.28" y2="860.58" style="stroke:#000000;stroke-width:4.90"/>
	<text x="376.32" y="890.37" style="font-family:'Helvetica';font-size:85.02px;fill:#000000" text-anchor="end">4</text>
	<line x1="427.31" y1="771.85" x2="393.28" y2="771.85" style="stroke:#000000;stroke-width:4.90"/>
	<text x="376.32" y="801.64" style="font-family:'Helvetica';font-size:85.02px;fill:#000000" text-anchor="end">6</text>
	<line x1="427.31" y1="683.00" x2="393.28" y2="683.00" style="stroke:#000000;stroke-width:4.90"/>
	<text x="376.32" y="712.79" style="font-family:'Helvetica';font-size:85.02px;fill:#000000" text-anchor="end">8</text>
	<line x1="427.31" y1="594.27" x2="393.28" y2="594.27" style="stroke:#000000;stroke-width:4.90"/>
	<text x="376.32" y="624.05" style="font-family:'Helvetica';font-size:85.02px;fill:#000000" text-anchor="end">10</text>
	<line x1="427.31" y1="505.53" x2="393.28" y2="505.53" style="stroke:#000000;stroke-width:4.90"/>
	<text x="376.32" y="535.32" style="font-family:'Helvetica';font-size:85.02px;fill:#000000" text-anchor="end">12</text>
	<line x1="427.31" y1="2096.14" x2="427.31" y2="1411.41" style="stroke:#000000;stroke-width:4.90"/>
	<line x1="427.31" y1="2042.31" x2="393.28" y2="2042.31" style="stroke:#000000;stroke-width:4.90"/>
	<text x="376.32" y="2072.10" style="font-family:'Helvetica';font-size:85.02px;fill:#000000" text-anchor="end">0</text>
	<line x1="427.31" y1="1953.45" x2="393.28" y2="1953.45" style="stroke:#000000;stroke-width:4.90"/>
	<text x="376.32" y="1983.24" style="font-family:'Helvetica';font-size:85.02px;fill:#000000" text-anchor="end">2</text>
	<line x1="427.31" y1="1864.72" x2="393.28" y2="1864.72" style="stroke:#000000;stroke-width:4.90"/>
	<text x="376.32" y="1894.51" style="font-family:'Helvetica';font-size:85.02px;fill:#000000" text-anchor="end">4</text>
	<line x1="427.31" y1="1775.99" x2="393.28" y2="1775.99" style="stroke:#000000;stroke-width:4.90"/>
	<text x="376.32" y="1805.78" style="font-family:'Helvetica';font-size:85.02px;fill:#000000" text-anchor="end">6</text>
	<line x1="427.31" y1="1687.26" x2="393.28" y2="1687.26" style="stroke:#000000;stroke-width:4.90"/>
	<text x="376.32" y="1717.05" style="font-family:'Helvetica';font-size:85.02px;fill:#000000" text-anchor="end">8</text>
	<line x1="427.31" y1="1598.40" x2="393.28" y2="1598.40" style="stroke:#000000;stroke-width:4.90"/>
	<text x="376.32" y="1628.19" style="font-family:'Helvetica';font-size:85.02px;fill:#000000" text-anchor="end">10</text>
	<line x1="427.31" y1="1509.67" x2="393.28" y2="1509.67" style="stroke:#000000;stroke-width:4.90"/>
	<text x="376.32" y="1539.46" style="font-family:'Helvetica';font-size:85.02px;fill:#000000" text-anchor="end">12</text>
	<line x1="2160.43" y1="1092.00" x2="3824.49" y2="1092.00" style="stroke:#000000;stroke-width:4.90"/>
	<line x1="2214.38" y1="1092.00" x2="2214.38" y2="1125.91" style="stroke:#000000;stroke-width:4.90"/>
	<text x="2214.38" y="1202.44" style="font-family:'Helvetica';font-size:85.02px;fill:#000000" text-anchor="middle">0</text>
	<line x1="2603.45" y1="1092.00" x2="2603.45" y2="1125.91" style="stroke:#000000;stroke-width:4.90"/>
	<text x="2603.45" y="1202.44" style="font-family:'Helvetica';font-size:85.02px;fill:#000000" text-anchor="middle">20</text>
	<line x1="2992.52" y1="1092.00" x2="2992.52" y2="1125.91" style="stroke:#000000;stroke-width:4.90"/>
	<text x="2992.52" y="1202.44" style="font-family:'Helvetica';font-size:85.02px;fill:#000000" text-anchor="middle">40</text>
	<line x1="3381.59" y1="1092.00" x2="3381.59" y2="1125.91" style="stroke:#000000;stroke-width:4.90"/>
	<text x="3381.59" y="1202.44" style="font-family:'Helvetica';font-size:85.02px;fill:#000000" text-anchor="middle">60</text>
	<line x1="3770.66" y1="1092.00" x2="3770.66" y2="1125.91" style="stroke:#000000;stroke-width:4.90"/>
	<text x="3770.66" y="1202.44" style="font-family:'Helvetica';font-size:85.02px;fill:#000000" text-anchor="middle">80</text>
	<line x1="427.31" y1="2096.14" x2="2091.38" y2="2096.14" style="stroke:#000000;stroke-width:4.90"/>
	<line x1="481.14" y1="2096.14" x2="481.14" y2="2130.18" style="stroke:#000000;stroke-width:4.90"/>
	<text x="481.14" y="2206.58" style="font-family:'Helvetica';font-size:85.02px;fill:#000000" text-anchor="middle">0</text>
	<line x1="870.21" y1="2096.14" x2="870.21" y2="2130.18" style="stroke:#000000;stroke-width:4.90"/>
	<text x="870.21" y="2206.58" style="font-family:'Helvetica';font-size:85.02px;fill:#000000" text-anchor="middle">20</text>
	<line x1="1259.28" y1="2096.14" x2="1259.28" y2="2130.18" style="stroke:#000000;stroke-width:4.90"/>
	<text x="1259.28" y="2206.58" style="font-family:'Helvetica';font-size:85.02px;fill:#000000" text-anchor="middle">40</text>
	<line x1="1648.35" y1="2096.14" x2="1648.35" y2="2130.18" style="stroke:#000000;stroke-width:4.90"/>
	<text x="1648.35" y="2206.58" style="font-family:'Helvetica';font-size:85.02px;fill:#000000" text-anchor="middle">60</text>
	<line x1="2037.54" y1="2096.14" x2="2037.54" y2="2130.18" style="stroke:#000000;stroke-width:4.90"/>
	<text x="2037.54" y="2206.58" style="font-family:'Helvetica';font-size:85.02px;fill:#000000" text-anchor="middle">80</text>
	<rect x="427.31" y="309.88" width="1664.07" height="97.39" style="fill:#D9E6EB"/>
	<rect x="429.76" y="312.33" width="1659.17" height="92.50" style="fill:none;stroke:#D9E6EB;stroke-width:4.90"/>
	<text x="1259.28" y="372.10" style="font-family:'Helvetica';font-size:67.94px;fill:#000000" text-anchor="middle">Humber, Coast and Vale</text>
	<rect x="2160.43" y="309.88" width="1664.07" height="97.39" style="fill:#D9E6EB"/>
	<rect x="2162.88" y="312.33" width="1659.17" height="92.50" style="fill:none;stroke:#D9E6EB;stroke-width:4.90"/>
	<text x="2992.52" y="372.10" style="font-family:'Helvetica';font-size:67.94px;fill:#000000" text-anchor="middle">South Yorkshire and Bassetlaw</text>
	<rect x="427.31" y="1314.14" width="1664.07" height="97.27" style="fill:#D9E6EB"/>
	<rect x="429.76" y="1316.59" width="1659.17" height="92.37" style="fill:none;stroke:#D9E6EB;stroke-width:4.90"/>
	<text x="1259.28" y="1376.37" style="font-family:'Helvetica';font-size:67.94px;fill:#000000" text-anchor="middle">West Yorkshire</text>
	<rect x="432.38" y="2418.27" width="3195.10" height="326.34" style="fill:#FFFFFF"/>
	<rect x="435.26" y="2421.15" width="3189.34" height="320.58" style="fill:none;stroke:#000000;stroke-width:5.76"/>
	<line x1="475.57" y1="2511.46" x2="850.04" y2="2511.46" style="stroke:#1A476F;stroke-width:23.04"/>
	<line x1="2166.99" y1="2511.46" x2="2541.45" y2="2511.46" style="stroke:#90353B;stroke-width:23.04"/>
	<line x1="475.57" y1="2651.43" x2="850.04" y2="2651.43" style="stroke:#55752F;stroke-width:23.04"/>
	<line x1="2166.99" y1="2651.43" x2="2541.45" y2="2651.43" style="stroke:#E37E00;stroke-width:23.04"/>
	<text x="909.93" y="2546.49" style="font-family:'Helvetica';font-size:99.99px;fill:#000000">Force of infection</text>
	<text x="2601.35" y="2546.49" style="font-family:'Helvetica';font-size:99.99px;fill:#000000">Smoothed A &amp; E rate</text>
	<text x="909.93" y="2686.46" style="font-family:'Helvetica';font-size:99.99px;fill:#000000">GP suspected case rate</text>
	<text x="2601.35" y="2686.46" style="font-family:'Helvetica';font-size:99.99px;fill:#000000">Crude numbers</text>
	<text x="170.79" y="1279.49" style="font-family:'Helvetica';font-size:99.99px;fill:#000000" transform="rotate(-90 170.79,1279.49)" text-anchor="middle">Expected number of cases</text>
	<text x="2029.99" y="2353.56" style="font-family:'Helvetica';font-size:99.99px;fill:#000000" text-anchor="middle"> </text>
	<text x="2029.99" y="215.98" style="font-family:'Helvetica';font-size:139.96px;fill:#1E2D53" text-anchor="middle">North East/Yorkshire</text>
</svg>
