<?xml version="1.0" encoding="UTF-8" standalone="no"?>
<!-- This is a Stata 16.1 generated SVG file (http://www.stata.com) -->

<svg version="1.1" width="5.50in" height="4.00in" viewBox="0 0 3960 2880" xmlns="http://www.w3.org/2000/svg" xmlns:xlink="http://www.w3.org/1999/xlink">
	<desc>Stata Graph - Graph</desc>
	<rect x="0" y="0" width="3960" height="2880" style="fill:#EAF2F3;stroke:none"/>
	<rect x="0.00" y="0.00" width="3959.88" height="2880.00" style="fill:#EAF2F3"/>
	<rect x="2.88" y="2.88" width="3954.12" height="2874.24" style="fill:none;stroke:#EAF2F3;stroke-width:5.76"/>
	<rect x="377.69" y="407.27" width="1688.82" height="1688.87" style="fill:#FFFFFF"/>
	<rect x="380.13" y="409.72" width="1683.92" height="1683.97" style="fill:none;stroke:#FFFFFF;stroke-width:4.90"/>
	<line x1="377.69" y1="2042.31" x2="2066.50" y2="2042.31" style="stroke:#EAF2F3;stroke-width:7.34"/>
	<line x1="377.69" y1="1515.24" x2="2066.50" y2="1515.24" style="stroke:#EAF2F3;stroke-width:7.34"/>
	<line x1="377.69" y1="988.17" x2="2066.50" y2="988.17" style="stroke:#EAF2F3;stroke-width:7.34"/>
	<line x1="377.69" y1="461.11" x2="2066.50" y2="461.11" style="stroke:#EAF2F3;stroke-width:7.34"/>
	<rect x="2135.68" y="407.27" width="1688.82" height="1688.87" style="fill:#FFFFFF"/>
	<rect x="2138.13" y="409.72" width="1683.92" height="1683.97" style="fill:none;stroke:#FFFFFF;stroke-width:4.90"/>
	<line x1="2135.68" y1="2042.31" x2="3824.49" y2="2042.31" style="stroke:#EAF2F3;stroke-width:7.34"/>
	<line x1="2135.68" y1="1515.24" x2="3824.49" y2="1515.24" style="stroke:#EAF2F3;stroke-width:7.34"/>
	<line x1="2135.68" y1="988.17" x2="3824.49" y2="988.17" style="stroke:#EAF2F3;stroke-width:7.34"/>
	<line x1="2135.68" y1="461.11" x2="3824.49" y2="461.11" style="stroke:#EAF2F3;stroke-width:7.34"/>
	<path d=" M451.32 1976.72 L470.99 1963.85 L490.79 1954.57 L510.59 1943.18 L530.39 1930.93 L550.07 1917.69 L569.87 1892.82 L589.67 1874.75 L609.35 1852.97 L629.14 1829.08 L648.95 1803.84 L668.62 1773.02 L688.42 1739.98 L708.22 1706.69 L728.02 1676.25 L747.70 1638.75 L767.50 1583.43 L787.30 1571.67 L806.97 1545.44 L826.77 1507.69 L846.57 1475.02 L866.37 1444.95 L886.05 1432.08 L905.85 1399.16 L925.65 1448.79 L945.33 1414.51 L965.13 1381.09 L984.93 1359.56 L1004.73 1354.24 L1024.40 1359.19 L1044.20 1330.73 L1064.00 1336.54 L1083.68 1367.60 L1103.48 1395.70 L1123.28 1423.54 L1143.08 1452.25 L1162.76 1489.38 L1182.56 1538.38 L1202.36 1559.55 L1222.03 1589.99 L1241.83 1603.97 L1261.63 1681.57 L1281.43 1651.12 L1301.11 1688.13 L1320.91 1733.42 L1340.71 1671.05 L1360.38 1685.28 L1380.18 1702.36 L1399.98 1731.07 L1419.66 1721.79 L1439.46 1715.10 L1459.26 1735.28 L1479.06 1741.09 L1498.74 1745.55 L1518.54 1748.02 L1538.34 1754.95 L1558.01 1751.86 L1577.81 1747.53 L1597.61 1762.26 L1617.41 1792.33 L1637.09 1780.08 L1656.89 1785.40 L1676.69 1780.69 L1696.37 1771.41 L1716.16 1787.38 L1735.96 1799.26 L1755.77 1823.51 L1775.44 1828.83 L1795.24 1831.31 L1815.04 1866.33 L1834.72 1849.13 L1854.52 1868.68 L1874.32 1875.49" stroke-linejoin="round" style="fill:none;stroke:#1A476F;stroke-width:19.58"/>
	<path d=" M451.32 1819.55 L470.99 1819.55 L490.79 1819.55 L510.59 1819.55 L530.39 1819.55 L550.07 1819.55 L569.87 1819.55 L589.67 1819.55 L609.35 1819.55 L629.14 1819.55 L648.95 1819.55 L668.62 1819.55 L688.42 1819.55 L708.22 1819.55 L728.02 1819.55 L747.70 1819.55 L767.50 1819.55 L787.30 1819.55 L806.97 1819.55 L826.77 1819.55 L846.57 1731.56 L866.37 1693.70 L886.05 1661.52 L905.85 1656.20 L925.65 1652.24 L945.33 1635.28 L965.13 1609.05 L984.93 1602.61 L1004.73 1589.25 L1024.40 1583.55 L1044.20 1562.64 L1064.00 1545.19 L1083.68 1526.01 L1103.48 1518.46 L1123.28 1499.53 L1143.08 1505.47 L1162.76 1488.51 L1182.56 1483.56 L1202.36 1470.07 L1222.03 1462.89 L1241.83 1461.16 L1261.63 1476.88 L1281.43 1477.25 L1301.11 1506.33 L1320.91 1530.22 L1340.71 1563.14 L1360.38 1599.39 L1380.18 1618.21 L1399.98 1633.06 L1419.66 1649.39 L1439.46 1660.90 L1459.26 1672.53 L1479.06 1678.84 L1498.74 1676.49 L1518.54 1680.45 L1538.34 1685.65 L1558.01 1700.01 L1577.81 1698.89 L1597.61 1693.20 L1617.41 1687.14 L1637.09 1699.88 L1656.89 1707.93 L1676.69 1719.68 L1696.37 1710.15 L1716.16 1718.45 L1735.96 1716.84 L1755.77 1734.41 L1775.44 1737.50 L1795.24 1752.23 L1815.04 1753.84 L1834.72 1775.00 L1854.52 1796.91 L1874.32 1887.37" stroke-linejoin="round" style="fill:none;stroke:#90353B;stroke-width:19.58"/>
	<path d=" M451.32 1853.59 L470.99 1847.77 L490.79 1841.83 L510.59 1846.28 L530.39 1850.24 L550.07 1882.67 L569.87 1872.52 L589.67 1855.44 L609.35 1847.77 L629.14 1798.89 L648.95 1758.17 L668.62 1732.55 L688.42 1733.67 L708.22 1732.31 L728.02 1740.23 L747.70 1738.12 L767.50 1684.17 L787.30 1652.49 L806.97 1611.15 L826.77 1581.33 L846.57 1535.91 L866.37 1526.01 L886.05 1514.00 L905.85 1485.67 L925.65 1472.05 L945.33 1461.78 L965.13 1450.89 L984.93 1448.17 L1004.73 1427.13 L1024.40 1410.55 L1044.20 1404.73 L1064.00 1384.19 L1083.68 1323.80 L1103.48 1353.50 L1123.28 1384.43 L1143.08 1427.25 L1162.76 1458.32 L1182.56 1466.24 L1202.36 1491.73 L1222.03 1539.87 L1241.83 1571.43 L1261.63 1591.23 L1281.43 1585.16 L1301.11 1576.01 L1320.91 1583.55 L1340.71 1560.66 L1360.38 1554.47 L1380.18 1567.71 L1399.98 1616.72 L1419.66 1691.47 L1439.46 1752.60 L1459.26 1756.81 L1479.06 1768.44 L1498.74 1775.13 L1518.54 1772.65 L1538.34 1754.83 L1558.01 1736.14 L1577.81 1717.46 L1597.61 1706.44 L1617.41 1706.19 L1637.09 1701.99 L1656.89 1693.94 L1676.69 1692.09 L1696.37 1691.34 L1716.16 1685.65 L1735.96 1684.54 L1755.77 1681.94 L1775.44 1681.20 L1795.24 1686.27 L1815.04 1708.67 L1834.72 1711.52 L1854.52 1715.23 L1874.32 1720.06" stroke-linejoin="round" style="fill:none;stroke:#55752F;stroke-width:19.58"/>
	<path d=" M451.32 1778.84 L470.99 1778.84 L490.79 1778.84 L510.59 1778.84 L530.39 1778.84 L550.07 1778.84 L569.87 1778.84 L589.67 1778.84 L609.35 1778.84 L629.14 1778.84 L648.95 1778.84 L668.62 1778.84 L688.42 1778.84 L708.22 1778.84 L728.02 1778.84 L747.70 1778.84 L767.50 1778.84 L787.30 1778.84 L806.97 1778.84 L826.77 1778.84 L846.57 1778.84 L866.37 1778.84 L886.05 1778.84 L905.85 2042.31 L925.65 2042.31 L945.33 2042.31 L965.13 2042.31 L984.93 2042.31 L1004.73 2042.31 L1024.40 2042.31 L1044.20 2042.31 L1064.00 2042.31 L1083.68 2042.31 L1103.48 1778.84 L1123.28 1778.84 L1143.08 1778.84 L1162.76 1778.84 L1182.56 1778.84 L1202.36 1778.84 L1222.03 1778.84 L1241.83 1778.84 L1261.63 1778.84 L1281.43 1778.84 L1301.11 1778.84 L1320.91 1778.84 L1340.71 1778.84 L1360.38 1778.84 L1380.18 1778.84 L1399.98 1778.84 L1419.66 1778.84 L1439.46 1778.84 L1459.26 1778.84 L1479.06 1778.84 L1498.74 1778.84 L1518.54 1778.84 L1538.34 1778.84 L1558.01 1778.84 L1577.81 1778.84 L1597.61 1778.84 L1617.41 1778.84 L1637.09 1778.84 L1656.89 2042.31 L1676.69 2042.31 L1696.37 2042.31 L1716.16 2042.31 L1735.96 2042.31 L1755.77 2042.31 L1775.44 2042.31 L1795.24 2042.31 L1815.04 2042.31 L1834.72 2042.31 L1854.52 2042.31 L1874.32 2042.31" stroke-linejoin="round" style="fill:none;stroke:#E37E00;stroke-width:19.58"/>
	<path d=" M2209.18 1942.19 L2228.99 1922.64 L2248.78 1908.41 L2268.59 1890.96 L2288.26 1872.27 L2308.06 1852.10 L2327.86 1814.23 L2347.54 1786.63 L2367.34 1753.34 L2387.14 1716.96 L2406.94 1678.35 L2426.61 1631.32 L2446.41 1580.96 L2466.21 1530.22 L2485.89 1483.69 L2505.69 1426.39 L2525.49 1342.11 L2545.17 1324.04 L2564.97 1284.07 L2584.77 1226.40 L2604.57 1176.53 L2624.24 1130.62 L2644.04 1111.06 L2663.84 1060.94 L2683.52 1136.56 L2703.32 1084.21 L2723.12 1033.22 L2742.92 1000.43 L2762.59 992.26 L2782.39 999.81 L2802.20 956.49 L2821.87 965.28 L2841.67 1012.55 L2861.47 1055.50 L2881.27 1097.94 L2900.95 1141.88 L2920.75 1198.56 L2940.55 1273.30 L2960.22 1305.60 L2980.02 1352.13 L2999.82 1373.30 L3019.62 1491.85 L3039.30 1445.32 L3059.10 1501.88 L3078.90 1570.93 L3098.58 1475.64 L3118.38 1497.42 L3138.18 1523.53 L3157.98 1567.22 L3177.65 1553.11 L3197.45 1542.96 L3217.25 1573.78 L3236.93 1582.69 L3256.73 1589.49 L3276.53 1593.21 L3296.20 1603.73 L3316.01 1599.02 L3335.80 1592.46 L3355.61 1614.86 L3375.28 1660.78 L3395.08 1642.09 L3414.88 1650.26 L3434.56 1643.08 L3454.36 1628.85 L3474.16 1653.35 L3493.96 1671.42 L3513.63 1708.42 L3533.43 1716.47 L3553.23 1720.30 L3572.91 1773.89 L3592.71 1747.40 L3612.51 1777.35 L3632.31 1787.75" stroke-linejoin="round" style="fill:none;stroke:#1A476F;stroke-width:19.58"/>
	<path d=" M2209.18 1702.23 L2228.99 1702.23 L2248.78 1702.23 L2268.59 1702.23 L2288.26 1702.23 L2308.06 1702.23 L2327.86 1702.23 L2347.54 1702.23 L2367.34 1702.23 L2387.14 1702.23 L2406.94 1702.23 L2426.61 1702.23 L2446.41 1702.23 L2466.21 1702.23 L2485.89 1702.23 L2505.69 1702.23 L2525.49 1702.23 L2545.17 1594.69 L2564.97 1547.42 L2584.77 1545.56 L2604.57 1544.57 L2624.24 1509.18 L2644.04 1479.97 L2663.84 1476.01 L2683.52 1470.81 L2703.32 1469.82 L2723.12 1445.69 L2742.92 1424.78 L2762.59 1426.39 L2782.39 1417.48 L2802.20 1394.71 L2821.87 1388.39 L2841.67 1385.92 L2861.47 1405.97 L2881.27 1416.36 L2900.95 1439.50 L2920.75 1482.94 L2940.55 1536.40 L2960.22 1603.73 L2980.02 1698.89 L2999.82 1828.83 L3019.62 1287.04 L3039.30 1604.59 L3059.10 1551.50 L3078.90 1577.74 L3098.58 1527.25 L3118.38 1412.03 L3138.18 1576.38 L3157.98 1539.25 L3177.65 1506.46 L3197.45 1510.91 L3217.25 1485.42 L3236.93 1476.51 L3256.73 1487.40 L3276.53 1484.92 L3296.20 1468.34 L3316.01 1471.06 L3335.80 1475.02 L3355.61 1502.25 L3375.28 1521.80 L3395.08 1537.15 L3414.88 1554.72 L3434.56 1565.36 L3454.36 1600.26 L3474.16 1608.55 L3493.96 1612.76 L3513.63 1638.25 L3533.43 1638.25 L3553.23 1687.14 L3572.91 1810.02 L3592.71 1849.63 L3612.51 1605.58 L3632.31 1663.00" stroke-linejoin="round" style="fill:none;stroke:#90353B;stroke-width:19.58"/>
	<path d=" M2209.18 1826.61 L2228.99 1775.74 L2248.78 1779.46 L2268.59 1785.64 L2288.26 1787.87 L2308.06 1771.17 L2327.86 1750.13 L2347.54 1727.23 L2367.34 1772.65 L2387.14 1749.51 L2406.94 1623.65 L2426.61 1553.73 L2446.41 1545.81 L2466.21 1485.67 L2485.89 1495.32 L2505.69 1489.25 L2525.49 1412.53 L2545.17 1356.59 L2564.97 1323.92 L2584.77 1292.61 L2604.57 1262.17 L2624.24 1250.29 L2644.04 1236.92 L2663.84 1191.25 L2683.52 1172.44 L2703.32 1141.13 L2723.12 1113.17 L2742.92 1099.68 L2762.59 1082.60 L2782.39 1072.33 L2802.20 1084.70 L2821.87 1097.45 L2841.67 1055.62 L2861.47 1064.53 L2881.27 1094.36 L2900.95 1130.49 L2920.75 1157.84 L2940.55 1152.64 L2960.22 1161.31 L2980.02 1204.00 L2999.82 1234.20 L3019.62 1254.25 L3039.30 1242.37 L3059.10 1236.42 L3078.90 1279.99 L3098.58 1294.71 L3118.38 1356.84 L3138.18 1436.41 L3157.98 1516.60 L3177.65 1594.69 L3197.45 1646.17 L3217.25 1649.14 L3236.93 1671.54 L3256.73 1674.27 L3276.53 1683.55 L3296.20 1677.48 L3316.01 1665.23 L3335.80 1651.50 L3355.61 1647.29 L3375.28 1637.76 L3395.08 1623.40 L3414.88 1599.89 L3434.56 1588.01 L3454.36 1579.84 L3474.16 1566.35 L3493.96 1559.67 L3513.63 1569.82 L3533.43 1586.15 L3553.23 1614.74 L3572.91 1640.48 L3592.71 1654.47 L3612.51 1668.57 L3632.31 1684.66" stroke-linejoin="round" style="fill:none;stroke:#55752F;stroke-width:19.58"/>
	<path d=" M2209.18 2042.31 L2228.99 2042.31 L2248.78 2042.31 L2268.59 2042.31 L2288.26 2042.31 L2308.06 2042.31 L2327.86 2042.31 L2347.54 2042.31 L2367.34 2042.31 L2387.14 2042.31 L2406.94 2042.31 L2426.61 1778.84 L2446.41 1778.84 L2466.21 1778.84 L2485.89 1778.84 L2505.69 1778.84 L2525.49 1515.24 L2545.17 1515.24 L2564.97 1515.24 L2584.77 1515.24 L2604.57 1515.24 L2624.24 1515.24 L2644.04 1515.24 L2663.84 1251.77 L2683.52 988.30 L2703.32 988.30 L2723.12 988.30 L2742.92 988.30 L2762.59 988.30 L2782.39 988.30 L2802.20 988.30 L2821.87 988.30 L2841.67 988.30 L2861.47 988.30 L2881.27 988.30 L2900.95 988.30 L2920.75 988.30 L2940.55 988.30 L2960.22 988.30 L2980.02 1251.77 L2999.82 1251.77 L3019.62 1251.77 L3039.30 1251.77 L3059.10 1251.77 L3078.90 1515.24 L3098.58 1515.24 L3118.38 1515.24 L3138.18 1515.24 L3157.98 1515.24 L3177.65 1515.24 L3197.45 1515.24 L3217.25 1778.84 L3236.93 2042.31 L3256.73 2042.31 L3276.53 2042.31 L3296.20 2042.31 L3316.01 2042.31 L3335.80 2042.31 L3355.61 2042.31 L3375.28 2042.31 L3395.08 2042.31 L3414.88 2042.31 L3434.56 2042.31 L3454.36 2042.31 L3474.16 2042.31 L3493.96 2042.31 L3513.63 2042.31 L3533.43 2042.31 L3553.23 2042.31 L3572.91 2042.31 L3592.71 2042.31 L3612.51 2042.31 L3632.31 2042.31" stroke-linejoin="round" style="fill:none;stroke:#E37E00;stroke-width:19.58"/>
	<line x1="377.69" y1="2096.14" x2="377.69" y2="407.27" style="stroke:#000000;stroke-width:4.90"/>
	<line x1="377.69" y1="2042.31" x2="343.78" y2="2042.31" style="stroke:#000000;stroke-width:4.90"/>
	<text x="326.70" y="2072.10" style="font-family:'Helvetica';font-size:85.02px;fill:#000000" text-anchor="end">0</text>
	<line x1="377.69" y1="1515.24" x2="343.78" y2="1515.24" style="stroke:#000000;stroke-width:4.90"/>
	<text x="326.70" y="1545.03" style="font-family:'Helvetica';font-size:85.02px;fill:#000000" text-anchor="end">2</text>
	<line x1="377.69" y1="988.17" x2="343.78" y2="988.17" style="stroke:#000000;stroke-width:4.90"/>
	<text x="326.70" y="1017.96" style="font-family:'Helvetica';font-size:85.02px;fill:#000000" text-anchor="end">4</text>
	<line x1="377.69" y1="461.11" x2="343.78" y2="461.11" style="stroke:#000000;stroke-width:4.90"/>
	<text x="326.70" y="490.89" style="font-family:'Helvetica';font-size:85.02px;fill:#000000" text-anchor="end">6</text>
	<line x1="377.69" y1="2096.14" x2="2066.50" y2="2096.14" style="stroke:#000000;stroke-width:4.90"/>
	<line x1="431.52" y1="2096.14" x2="431.52" y2="2130.18" style="stroke:#000000;stroke-width:4.90"/>
	<text x="431.52" y="2206.58" style="font-family:'Helvetica';font-size:85.02px;fill:#000000" text-anchor="middle">0</text>
	<line x1="826.90" y1="2096.14" x2="826.90" y2="2130.18" style="stroke:#000000;stroke-width:4.90"/>
	<text x="826.90" y="2206.58" style="font-family:'Helvetica';font-size:85.02px;fill:#000000" text-anchor="middle">20</text>
	<line x1="1222.15" y1="2096.14" x2="1222.15" y2="2130.18" style="stroke:#000000;stroke-width:4.90"/>
	<text x="1222.15" y="2206.58" style="font-family:'Helvetica';font-size:85.02px;fill:#000000" text-anchor="middle">40</text>
	<line x1="1617.41" y1="2096.14" x2="1617.41" y2="2130.18" style="stroke:#000000;stroke-width:4.90"/>
	<text x="1617.41" y="2206.58" style="font-family:'Helvetica';font-size:85.02px;fill:#000000" text-anchor="middle">60</text>
	<line x1="2012.67" y1="2096.14" x2="2012.67" y2="2130.18" style="stroke:#000000;stroke-width:4.90"/>
	<text x="2012.67" y="2206.58" style="font-family:'Helvetica';font-size:85.02px;fill:#000000" text-anchor="middle">80</text>
	<line x1="2135.68" y1="2096.14" x2="3824.49" y2="2096.14" style="stroke:#000000;stroke-width:4.90"/>
	<line x1="2189.51" y1="2096.14" x2="2189.51" y2="2130.18" style="stroke:#000000;stroke-width:4.90"/>
	<text x="2189.51" y="2206.58" style="font-family:'Helvetica';font-size:85.02px;fill:#000000" text-anchor="middle">0</text>
	<line x1="2584.77" y1="2096.14" x2="2584.77" y2="2130.18" style="stroke:#000000;stroke-width:4.90"/>
	<text x="2584.77" y="2206.58" style="font-family:'Helvetica';font-size:85.02px;fill:#000000" text-anchor="middle">20</text>
	<line x1="2980.15" y1="2096.14" x2="2980.15" y2="2130.18" style="stroke:#000000;stroke-width:4.90"/>
	<text x="2980.15" y="2206.58" style="font-family:'Helvetica';font-size:85.02px;fill:#000000" text-anchor="middle">40</text>
	<line x1="3375.41" y1="2096.14" x2="3375.41" y2="2130.18" style="stroke:#000000;stroke-width:4.90"/>
	<text x="3375.41" y="2206.58" style="font-family:'Helvetica';font-size:85.02px;fill:#000000" text-anchor="middle">60</text>
	<line x1="3770.66" y1="2096.14" x2="3770.66" y2="2130.18" style="stroke:#000000;stroke-width:4.90"/>
	<text x="3770.66" y="2206.58" style="font-family:'Helvetica';font-size:85.02px;fill:#000000" text-anchor="middle">80</text>
	<rect x="377.69" y="309.88" width="1688.82" height="97.39" style="fill:#D9E6EB"/>
	<rect x="380.13" y="312.33" width="1683.92" height="92.50" style="fill:none;stroke:#D9E6EB;stroke-width:4.90"/>
	<text x="1222.15" y="372.10" style="font-family:'Helvetica';font-size:67.94px;fill:#000000" text-anchor="middle">Buckinghams., Oxfords., Berks., Hamps., IoW</text>
	<rect x="2135.68" y="309.88" width="1688.82" height="97.39" style="fill:#D9E6EB"/>
	<rect x="2138.13" y="312.33" width="1683.92" height="92.50" style="fill:none;stroke:#D9E6EB;stroke-width:4.90"/>
	<text x="2980.15" y="372.10" style="font-family:'Helvetica';font-size:67.94px;fill:#000000" text-anchor="middle">Sussex and Surrey</text>
	<rect x="432.38" y="2418.27" width="3195.10" height="326.34" style="fill:#FFFFFF"/>
	<rect x="435.26" y="2421.15" width="3189.34" height="320.58" style="fill:none;stroke:#000000;stroke-width:5.76"/>
	<line x1="475.57" y1="2511.46" x2="850.04" y2="2511.46" style="stroke:#1A476F;stroke-width:23.04"/>
	<line x1="2166.99" y1="2511.46" x2="2541.45" y2="2511.46" style="stroke:#90353B;stroke-width:23.04"/>
	<line x1="475.57" y1="2651.43" x2="850.04" y2="2651.43" style="stroke:#55752F;stroke-width:23.04"/>
	<line x1="2166.99" y1="2651.43" x2="2541.45" y2="2651.43" style="stroke:#E37E00;stroke-width:23.04"/>
	<text x="909.93" y="2546.49" style="font-family:'Helvetica';font-size:99.99px;fill:#000000">Force of infection</text>
	<text x="2601.35" y="2546.49" style="font-family:'Helvetica';font-size:99.99px;fill:#000000">Smoothed A &amp; E rate</text>
	<text x="909.93" y="2686.46" style="font-family:'Helvetica';font-size:99.99px;fill:#000000">GP suspected case rate</text>
	<text x="2601.35" y="2686.46" style="font-family:'Helvetica';font-size:99.99px;fill:#000000">Crude numbers</text>
	<text x="170.79" y="1279.49" style="font-family:'Helvetica';font-size:99.99px;fill:#000000" transform="rotate(-90 170.79,1279.49)" text-anchor="middle">Expected number of cases</text>
	<text x="2029.99" y="2353.56" style="font-family:'Helvetica';font-size:99.99px;fill:#000000" text-anchor="middle"> </text>
	<text x="2029.99" y="215.98" style="font-family:'Helvetica';font-size:139.96px;fill:#1E2D53" text-anchor="middle">South East</text>
</svg>
