<?xml version="1.0" encoding="UTF-8" standalone="no"?>
<!-- This is a Stata 16.1 generated SVG file (http://www.stata.com) -->

<svg version="1.1" width="5.50in" height="4.00in" viewBox="0 0 3960 2880" xmlns="http://www.w3.org/2000/svg" xmlns:xlink="http://www.w3.org/1999/xlink">
	<desc>Stata Graph - Graph</desc>
	<rect x="0" y="0" width="3960" height="2880" style="fill:#EAF2F3;stroke:none"/>
	<rect x="0.00" y="0.00" width="3959.88" height="2880.00" style="fill:#EAF2F3"/>
	<rect x="2.88" y="2.88" width="3954.12" height="2874.24" style="fill:none;stroke:#EAF2F3;stroke-width:5.76"/>
	<rect x="427.31" y="407.27" width="1664.07" height="1688.87" style="fill:#FFFFFF"/>
	<rect x="429.76" y="409.72" width="1659.17" height="1683.97" style="fill:none;stroke:#FFFFFF;stroke-width:4.90"/>
	<line x1="427.31" y1="2042.31" x2="2091.38" y2="2042.31" style="stroke:#EAF2F3;stroke-width:7.34"/>
	<line x1="427.31" y1="1647.04" x2="2091.38" y2="1647.04" style="stroke:#EAF2F3;stroke-width:7.34"/>
	<line x1="427.31" y1="1251.65" x2="2091.38" y2="1251.65" style="stroke:#EAF2F3;stroke-width:7.34"/>
	<line x1="427.31" y1="856.38" x2="2091.38" y2="856.38" style="stroke:#EAF2F3;stroke-width:7.34"/>
	<rect x="2160.43" y="407.27" width="1664.07" height="1688.87" style="fill:#FFFFFF"/>
	<rect x="2162.88" y="409.72" width="1659.17" height="1683.97" style="fill:none;stroke:#FFFFFF;stroke-width:4.90"/>
	<line x1="2160.43" y1="2042.31" x2="3824.49" y2="2042.31" style="stroke:#EAF2F3;stroke-width:7.34"/>
	<line x1="2160.43" y1="1647.04" x2="3824.49" y2="1647.04" style="stroke:#EAF2F3;stroke-width:7.34"/>
	<line x1="2160.43" y1="1251.65" x2="3824.49" y2="1251.65" style="stroke:#EAF2F3;stroke-width:7.34"/>
	<line x1="2160.43" y1="856.38" x2="3824.49" y2="856.38" style="stroke:#EAF2F3;stroke-width:7.34"/>
	<path d=" M500.57 1982.66 L520.00 1970.41 L539.43 1962.12 L558.86 1951.85 L578.41 1940.71 L597.84 1928.70 L617.26 1904.57 L636.69 1888.24 L656.12 1867.45 L675.67 1845.05 L695.10 1821.16 L714.53 1791.21 L733.96 1758.67 L753.39 1725.01 L772.94 1697.04 L792.37 1658.67 L811.80 1596.30 L831.23 1583.93 L850.78 1555.71 L870.21 1516.85 L889.64 1486.41 L909.07 1468.34 L928.50 1446.56 L948.05 1405.84 L967.48 1472.05 L986.91 1452.38 L1006.34 1437.28 L1025.76 1434.93 L1045.32 1465.74 L1064.74 1483.31 L1084.17 1435.79 L1103.60 1442.60 L1123.03 1469.95 L1142.58 1490.74 L1162.01 1509.30 L1181.44 1544.70 L1200.87 1568.83 L1220.30 1579.35 L1239.85 1589.99 L1259.28 1611.28 L1278.71 1614.74 L1298.14 1680.33 L1317.57 1673.03 L1337.12 1711.64 L1356.55 1733.42 L1375.98 1684.91 L1395.40 1696.79 L1414.96 1712.01 L1434.39 1741.96 L1453.82 1745.55 L1473.24 1739.11 L1492.67 1743.20 L1512.22 1748.27 L1531.65 1752.48 L1551.08 1753.59 L1570.51 1760.77 L1589.94 1768.44 L1609.49 1765.35 L1628.92 1768.20 L1648.35 1800.62 L1667.78 1789.11 L1687.21 1795.30 L1706.76 1792.57 L1726.19 1791.96 L1745.62 1810.64 L1765.05 1810.15 L1784.47 1832.55 L1804.03 1837.87 L1823.46 1839.97 L1842.88 1869.18 L1862.31 1865.22 L1881.74 1886.26 L1901.30 1883.66" stroke-linejoin="round" style="fill:none;stroke:#1A476F;stroke-width:19.58"/>
	<path d=" M500.57 1837.74 L520.00 1837.74 L539.43 1837.74 L558.86 1837.74 L578.41 1837.74 L597.84 1837.74 L617.26 1837.74 L636.69 1837.74 L656.12 1837.74 L675.67 1837.74 L695.10 1837.74 L714.53 1837.74 L733.96 1837.74 L753.39 1837.74 L772.94 1837.74 L792.37 1837.74 L811.80 1837.74 L831.23 1837.74 L850.78 1837.74 L870.21 1837.74 L889.64 1757.06 L909.07 1722.41 L928.50 1692.83 L948.05 1687.88 L967.48 1684.29 L986.91 1668.70 L1006.34 1644.69 L1025.76 1638.75 L1045.32 1626.50 L1064.74 1621.18 L1084.17 1601.99 L1103.60 1586.03 L1123.03 1568.46 L1142.58 1561.40 L1162.01 1544.08 L1181.44 1549.52 L1200.87 1533.93 L1220.30 1529.47 L1239.85 1517.10 L1259.28 1510.42 L1278.71 1508.81 L1298.14 1523.29 L1317.57 1523.66 L1337.12 1550.26 L1356.55 1572.29 L1375.98 1602.49 L1395.40 1635.78 L1414.96 1652.98 L1434.39 1666.59 L1453.82 1681.69 L1473.24 1692.21 L1492.67 1702.98 L1512.22 1708.67 L1531.65 1706.57 L1551.08 1710.15 L1570.51 1714.86 L1589.94 1728.10 L1609.49 1726.99 L1628.92 1721.91 L1648.35 1716.34 L1667.78 1728.10 L1687.21 1735.40 L1706.76 1746.17 L1726.19 1737.38 L1745.62 1745.05 L1765.05 1743.57 L1784.47 1759.66 L1804.03 1762.50 L1823.46 1776.12 L1842.88 1777.60 L1862.31 1796.91 L1881.74 1817.08 L1901.30 1900.12" stroke-linejoin="round" style="fill:none;stroke:#90353B;stroke-width:19.58"/>
	<path d=" M500.57 1870.29 L520.00 1864.97 L539.43 1859.53 L558.86 1863.61 L578.41 1867.20 L597.84 1896.78 L617.26 1887.49 L636.69 1871.90 L656.12 1864.97 L675.67 1820.42 L695.10 1783.29 L714.53 1759.90 L733.96 1761.02 L753.39 1759.66 L772.94 1766.96 L792.37 1764.98 L811.80 1715.85 L831.23 1687.01 L850.78 1649.27 L870.21 1622.04 L889.64 1580.71 L909.07 1571.67 L928.50 1560.66 L948.05 1534.80 L967.48 1522.54 L986.91 1513.14 L1006.34 1503.11 L1025.76 1500.76 L1045.32 1481.46 L1064.74 1466.48 L1084.17 1461.16 L1103.60 1442.35 L1123.03 1387.28 L1142.58 1414.38 L1162.01 1442.60 L1181.44 1481.58 L1200.87 1509.92 L1220.30 1517.22 L1239.85 1540.36 L1259.28 1584.17 L1278.71 1613.13 L1298.14 1631.08 L1317.57 1625.63 L1337.12 1617.22 L1356.55 1624.15 L1375.98 1603.23 L1395.40 1597.66 L1414.96 1609.67 L1434.39 1654.34 L1453.82 1722.53 L1473.24 1778.22 L1492.67 1782.06 L1512.22 1792.70 L1531.65 1798.76 L1551.08 1796.41 L1570.51 1780.20 L1589.94 1763.25 L1609.49 1746.17 L1628.92 1736.14 L1648.35 1735.90 L1667.78 1732.06 L1687.21 1724.76 L1706.76 1723.03 L1726.19 1722.41 L1745.62 1717.21 L1765.05 1716.22 L1784.47 1713.74 L1804.03 1713.12 L1823.46 1717.70 L1842.88 1738.25 L1862.31 1740.72 L1881.74 1744.19 L1901.30 1748.52" stroke-linejoin="round" style="fill:none;stroke:#55752F;stroke-width:19.58"/>
	<path d=" M500.57 2042.31 L520.00 2002.83 L539.43 2002.83 L558.86 2002.83 L578.41 2002.83 L597.84 1963.23 L617.26 1923.75 L636.69 1923.75 L656.12 1923.75 L675.67 1923.75 L695.10 1923.75 L714.53 1923.75 L733.96 1884.28 L753.39 1884.28 L772.94 1805.20 L792.37 1805.20 L811.80 1805.20 L831.23 1765.60 L850.78 1765.60 L870.21 1765.60 L889.64 1765.60 L909.07 1765.60 L928.50 1765.60 L948.05 1647.04 L967.48 1647.04 L986.91 1647.04 L1006.34 1647.04 L1025.76 1607.56 L1045.32 1567.96 L1064.74 1607.56 L1084.17 1607.56 L1103.60 1607.56 L1123.03 1607.56 L1142.58 1647.04 L1162.01 1686.52 L1181.44 1686.52 L1200.87 1686.52 L1220.30 1686.52 L1239.85 1686.52 L1259.28 1686.52 L1278.71 1726.12 L1298.14 1726.12 L1317.57 1805.20 L1337.12 1805.20 L1356.55 1805.20 L1375.98 1844.68 L1395.40 1844.68 L1414.96 1844.68 L1434.39 1844.68 L1453.82 1805.20 L1473.24 1805.20 L1492.67 1923.75 L1512.22 1923.75 L1531.65 1923.75 L1551.08 1923.75 L1570.51 1963.23 L1589.94 2002.83 L1609.49 2002.83 L1628.92 2002.83 L1648.35 2002.83 L1667.78 2002.83 L1687.21 2002.83 L1706.76 2002.83 L1726.19 2002.83 L1745.62 2002.83 L1765.05 2002.83 L1784.47 2002.83 L1804.03 2002.83 L1823.46 2002.83 L1842.88 2002.83 L1862.31 2002.83 L1881.74 2002.83 L1901.30 2002.83" stroke-linejoin="round" style="fill:none;stroke:#E37E00;stroke-width:19.58"/>
	<path d=" M2233.69 1961.62 L2253.12 1945.04 L2272.67 1933.78 L2292.10 1919.79 L2311.53 1904.82 L2330.95 1888.61 L2350.38 1856.06 L2369.94 1833.78 L2389.36 1805.69 L2408.79 1775.37 L2428.22 1743.07 L2447.65 1702.61 L2467.20 1658.67 L2486.63 1613.01 L2506.06 1575.14 L2525.49 1523.16 L2545.04 1438.89 L2564.47 1422.18 L2583.90 1384.06 L2603.33 1331.34 L2622.76 1290.26 L2642.31 1265.88 L2661.74 1236.30 L2681.17 1181.23 L2700.60 1270.70 L2720.03 1244.22 L2739.58 1223.68 L2759.01 1220.46 L2778.43 1262.29 L2797.86 1286.05 L2817.29 1221.70 L2836.84 1230.98 L2856.27 1267.98 L2875.70 1296.07 L2895.13 1321.32 L2914.56 1369.09 L2934.11 1401.64 L2953.54 1415.99 L2972.97 1430.35 L2992.40 1459.06 L3011.83 1463.88 L3031.38 1552.62 L3050.81 1542.59 L3070.24 1594.94 L3089.67 1624.39 L3109.22 1558.68 L3128.65 1574.77 L3148.08 1595.56 L3167.51 1635.90 L3186.93 1640.85 L3206.49 1632.07 L3225.91 1637.63 L3245.34 1644.44 L3264.77 1650.13 L3284.20 1651.62 L3303.75 1661.40 L3323.18 1671.79 L3342.61 1667.58 L3362.04 1671.42 L3381.47 1715.35 L3401.02 1699.64 L3420.45 1708.17 L3439.88 1704.46 L3459.31 1703.60 L3478.74 1728.84 L3498.29 1728.22 L3517.72 1758.54 L3537.15 1765.72 L3556.57 1768.57 L3576.00 1808.04 L3595.56 1802.72 L3614.99 1831.19 L3634.41 1827.72" stroke-linejoin="round" style="fill:none;stroke:#1A476F;stroke-width:19.58"/>
	<path d=" M2233.69 1765.60 L2253.12 1765.60 L2272.67 1765.60 L2292.10 1765.60 L2311.53 1765.60 L2330.95 1765.60 L2350.38 1765.60 L2369.94 1765.60 L2389.36 1765.60 L2408.79 1765.60 L2428.22 1765.60 L2447.65 1765.60 L2467.20 1765.60 L2486.63 1765.60 L2506.06 1765.60 L2525.49 1765.60 L2545.04 1765.60 L2564.47 1678.10 L2583.90 1639.61 L2603.33 1638.13 L2622.76 1637.26 L2642.31 1608.43 L2661.74 1584.79 L2681.17 1581.45 L2700.60 1577.24 L2720.03 1576.50 L2739.58 1556.82 L2759.01 1539.87 L2778.43 1541.11 L2797.86 1533.81 L2817.29 1515.37 L2836.84 1510.17 L2856.27 1508.19 L2875.70 1524.52 L2895.13 1532.94 L2914.56 1551.75 L2934.11 1587.14 L2953.54 1630.58 L2972.97 1685.40 L2992.40 1762.87 L3011.83 1868.56 L3031.38 1427.75 L3050.81 1686.15 L3070.24 1642.96 L3089.67 1664.24 L3109.22 1623.16 L3128.65 1529.47 L3148.08 1663.13 L3167.51 1632.93 L3186.93 1606.20 L3206.49 1609.91 L3225.91 1589.12 L3245.34 1581.95 L3264.77 1590.73 L3284.20 1588.75 L3303.75 1575.26 L3323.18 1577.49 L3342.61 1580.71 L3362.04 1602.86 L3381.47 1618.82 L3401.02 1631.32 L3420.45 1645.56 L3439.88 1654.22 L3459.31 1682.68 L3478.74 1689.36 L3498.29 1692.71 L3517.72 1713.50 L3537.15 1713.50 L3556.57 1753.22 L3576.00 1853.34 L3595.56 1885.51 L3614.99 1686.89 L3634.41 1733.67" stroke-linejoin="round" style="fill:none;stroke:#90353B;stroke-width:19.58"/>
	<path d=" M2233.69 1867.94 L2253.12 1826.98 L2272.67 1829.82 L2292.10 1834.90 L2311.53 1836.63 L2330.95 1823.14 L2350.38 1806.19 L2369.94 1787.62 L2389.36 1824.38 L2408.79 1805.69 L2428.22 1703.97 L2447.65 1647.41 L2467.20 1640.98 L2486.63 1592.46 L2506.06 1600.26 L2525.49 1595.31 L2545.04 1533.31 L2564.47 1488.14 L2583.90 1461.78 L2603.33 1436.41 L2622.76 1411.78 L2642.31 1402.26 L2661.74 1391.36 L2681.17 1354.49 L2700.60 1339.39 L2720.03 1314.02 L2739.58 1291.37 L2759.01 1280.48 L2778.43 1266.74 L2797.86 1258.45 L2817.29 1268.48 L2836.84 1278.62 L2856.27 1244.96 L2875.70 1252.14 L2895.13 1276.27 L2914.56 1305.36 L2934.11 1327.51 L2953.54 1323.30 L2972.97 1330.35 L2992.40 1364.88 L3011.83 1389.26 L3031.38 1405.47 L3050.81 1395.82 L3070.24 1391.12 L3089.67 1426.26 L3109.22 1438.14 L3128.65 1488.39 L3148.08 1552.62 L3167.51 1617.46 L3186.93 1680.58 L3206.49 1722.16 L3225.91 1724.63 L3245.34 1742.70 L3264.77 1744.81 L3284.20 1752.35 L3303.75 1747.40 L3323.18 1737.50 L3342.61 1726.49 L3362.04 1723.03 L3381.47 1715.35 L3401.02 1703.72 L3420.45 1684.79 L3439.88 1675.26 L3459.31 1668.57 L3478.74 1657.68 L3498.29 1652.24 L3517.72 1660.41 L3537.15 1673.65 L3556.57 1696.79 L3576.00 1717.58 L3595.56 1728.84 L3614.99 1740.23 L3634.41 1753.34" stroke-linejoin="round" style="fill:none;stroke:#55752F;stroke-width:19.58"/>
	<path d=" M2233.69 1963.23 L2253.12 1963.23 L2272.67 1923.75 L2292.10 1923.75 L2311.53 1923.75 L2330.95 1923.75 L2350.38 1884.28 L2369.94 1884.28 L2389.36 1844.68 L2408.79 1844.68 L2428.22 1765.60 L2447.65 1765.60 L2467.20 1765.60 L2486.63 1765.60 L2506.06 1765.60 L2525.49 1765.60 L2545.04 1765.60 L2564.47 1765.60 L2583.90 1647.04 L2603.33 1647.04 L2622.76 1607.56 L2642.31 1607.56 L2661.74 1567.96 L2681.17 1528.48 L2700.60 1528.48 L2720.03 1488.88 L2739.58 1528.48 L2759.01 1488.88 L2778.43 1488.88 L2797.86 1488.88 L2817.29 1528.48 L2836.84 1528.48 L2856.27 1488.88 L2875.70 1488.88 L2895.13 1528.48 L2914.56 1528.48 L2934.11 1528.48 L2953.54 1528.48 L2972.97 1567.96 L2992.40 1567.96 L3011.83 1567.96 L3031.38 1567.96 L3050.81 1567.96 L3070.24 1528.48 L3089.67 1528.48 L3109.22 1528.48 L3128.65 1647.04 L3148.08 1647.04 L3167.51 1686.52 L3186.93 1686.52 L3206.49 1726.12 L3225.91 1765.60 L3245.34 1726.12 L3264.77 1805.20 L3284.20 1805.20 L3303.75 1844.68 L3323.18 1844.68 L3342.61 1844.68 L3362.04 1844.68 L3381.47 1805.20 L3401.02 1844.68 L3420.45 1844.68 L3439.88 1844.68 L3459.31 1844.68 L3478.74 1884.28 L3498.29 1884.28 L3517.72 1923.75 L3537.15 1923.75 L3556.57 1923.75 L3576.00 1923.75 L3595.56 1923.75 L3614.99 1963.23 L3634.41 1963.23" stroke-linejoin="round" style="fill:none;stroke:#E37E00;stroke-width:19.58"/>
	<line x1="427.31" y1="2096.14" x2="427.31" y2="407.27" style="stroke:#000000;stroke-width:4.90"/>
	<line x1="427.31" y1="2042.31" x2="393.28" y2="2042.31" style="stroke:#000000;stroke-width:4.90"/>
	<text x="376.32" y="2072.10" style="font-family:'Helvetica';font-size:85.02px;fill:#000000" text-anchor="end">0</text>
	<line x1="427.31" y1="1647.04" x2="393.28" y2="1647.04" style="stroke:#000000;stroke-width:4.90"/>
	<text x="376.32" y="1676.83" style="font-family:'Helvetica';font-size:85.02px;fill:#000000" text-anchor="end">10</text>
	<line x1="427.31" y1="1251.65" x2="393.28" y2="1251.65" style="stroke:#000000;stroke-width:4.90"/>
	<text x="376.32" y="1281.43" style="font-family:'Helvetica';font-size:85.02px;fill:#000000" text-anchor="end">20</text>
	<line x1="427.31" y1="856.38" x2="393.28" y2="856.38" style="stroke:#000000;stroke-width:4.90"/>
	<text x="376.32" y="886.16" style="font-family:'Helvetica';font-size:85.02px;fill:#000000" text-anchor="end">30</text>
	<line x1="427.31" y1="461.11" x2="393.28" y2="461.11" style="stroke:#000000;stroke-width:4.90"/>
	<text x="376.32" y="490.89" style="font-family:'Helvetica';font-size:85.02px;fill:#000000" text-anchor="end">40</text>
	<line x1="427.31" y1="2096.14" x2="2091.38" y2="2096.14" style="stroke:#000000;stroke-width:4.90"/>
	<line x1="481.14" y1="2096.14" x2="481.14" y2="2130.18" style="stroke:#000000;stroke-width:4.90"/>
	<text x="481.14" y="2206.58" style="font-family:'Helvetica';font-size:85.02px;fill:#000000" text-anchor="middle">0</text>
	<line x1="870.21" y1="2096.14" x2="870.21" y2="2130.18" style="stroke:#000000;stroke-width:4.90"/>
	<text x="870.21" y="2206.58" style="font-family:'Helvetica';font-size:85.02px;fill:#000000" text-anchor="middle">20</text>
	<line x1="1259.28" y1="2096.14" x2="1259.28" y2="2130.18" style="stroke:#000000;stroke-width:4.90"/>
	<text x="1259.28" y="2206.58" style="font-family:'Helvetica';font-size:85.02px;fill:#000000" text-anchor="middle">40</text>
	<line x1="1648.35" y1="2096.14" x2="1648.35" y2="2130.18" style="stroke:#000000;stroke-width:4.90"/>
	<text x="1648.35" y="2206.58" style="font-family:'Helvetica';font-size:85.02px;fill:#000000" text-anchor="middle">60</text>
	<line x1="2037.54" y1="2096.14" x2="2037.54" y2="2130.18" style="stroke:#000000;stroke-width:4.90"/>
	<text x="2037.54" y="2206.58" style="font-family:'Helvetica';font-size:85.02px;fill:#000000" text-anchor="middle">80</text>
	<line x1="2160.43" y1="2096.14" x2="3824.49" y2="2096.14" style="stroke:#000000;stroke-width:4.90"/>
	<line x1="2214.38" y1="2096.14" x2="2214.38" y2="2130.18" style="stroke:#000000;stroke-width:4.90"/>
	<text x="2214.38" y="2206.58" style="font-family:'Helvetica';font-size:85.02px;fill:#000000" text-anchor="middle">0</text>
	<line x1="2603.45" y1="2096.14" x2="2603.45" y2="2130.18" style="stroke:#000000;stroke-width:4.90"/>
	<text x="2603.45" y="2206.58" style="font-family:'Helvetica';font-size:85.02px;fill:#000000" text-anchor="middle">20</text>
	<line x1="2992.52" y1="2096.14" x2="2992.52" y2="2130.18" style="stroke:#000000;stroke-width:4.90"/>
	<text x="2992.52" y="2206.58" style="font-family:'Helvetica';font-size:85.02px;fill:#000000" text-anchor="middle">40</text>
	<line x1="3381.59" y1="2096.14" x2="3381.59" y2="2130.18" style="stroke:#000000;stroke-width:4.90"/>
	<text x="3381.59" y="2206.58" style="font-family:'Helvetica';font-size:85.02px;fill:#000000" text-anchor="middle">60</text>
	<line x1="3770.66" y1="2096.14" x2="3770.66" y2="2130.18" style="stroke:#000000;stroke-width:4.90"/>
	<text x="3770.66" y="2206.58" style="font-family:'Helvetica';font-size:85.02px;fill:#000000" text-anchor="middle">80</text>
	<rect x="427.31" y="309.88" width="1664.07" height="97.39" style="fill:#D9E6EB"/>
	<rect x="429.76" y="312.33" width="1659.17" height="92.50" style="fill:none;stroke:#D9E6EB;stroke-width:4.90"/>
	<text x="1259.28" y="372.10" style="font-family:'Helvetica';font-size:67.94px;fill:#000000" text-anchor="middle">Buckinghams., Oxfords., Berks., Hamps., IoW</text>
	<rect x="2160.43" y="309.88" width="1664.07" height="97.39" style="fill:#D9E6EB"/>
	<rect x="2162.88" y="312.33" width="1659.17" height="92.50" style="fill:none;stroke:#D9E6EB;stroke-width:4.90"/>
	<text x="2992.52" y="372.10" style="font-family:'Helvetica';font-size:67.94px;fill:#000000" text-anchor="middle">Sussex and Surrey</text>
	<rect x="432.38" y="2418.27" width="3195.10" height="326.34" style="fill:#FFFFFF"/>
	<rect x="435.26" y="2421.15" width="3189.34" height="320.58" style="fill:none;stroke:#000000;stroke-width:5.76"/>
	<line x1="475.57" y1="2511.46" x2="850.04" y2="2511.46" style="stroke:#1A476F;stroke-width:23.04"/>
	<line x1="2032.84" y1="2511.46" x2="2407.18" y2="2511.46" style="stroke:#90353B;stroke-width:23.04"/>
	<line x1="475.57" y1="2651.43" x2="850.04" y2="2651.43" style="stroke:#55752F;stroke-width:23.04"/>
	<line x1="2032.84" y1="2651.43" x2="2407.18" y2="2651.43" style="stroke:#E37E00;stroke-width:23.04"/>
	<text x="909.93" y="2546.49" style="font-family:'Helvetica';font-size:99.99px;fill:#000000">Crude</text>
	<text x="2467.20" y="2546.49" style="font-family:'Helvetica';font-size:99.99px;fill:#000000">Force of infection</text>
	<text x="909.93" y="2686.46" style="font-family:'Helvetica';font-size:99.99px;fill:#000000">Smoothed A &amp; E rate</text>
	<text x="2467.20" y="2686.46" style="font-family:'Helvetica';font-size:99.99px;fill:#000000">GP suspected case rate</text>
	<text x="170.79" y="1279.49" style="font-family:'Helvetica';font-size:99.99px;fill:#000000" transform="rotate(-90 170.79,1279.49)" text-anchor="middle">Expected no cases</text>
	<text x="2029.99" y="2353.56" style="font-family:'Helvetica';font-size:99.99px;fill:#000000" text-anchor="middle"> </text>
	<text x="2029.99" y="215.98" style="font-family:'Helvetica';font-size:139.96px;fill:#1E2D53" text-anchor="middle">South East</text>
</svg>
