<?xml version="1.0" encoding="UTF-8" standalone="no"?>
<!-- This is a Stata 16.1 generated SVG file (http://www.stata.com) -->

<svg version="1.1" width="5.50in" height="4.00in" viewBox="0 0 3960 2880" xmlns="http://www.w3.org/2000/svg" xmlns:xlink="http://www.w3.org/1999/xlink">
	<desc>Stata Graph - Graph</desc>
	<rect x="0" y="0" width="3960" height="2880" style="fill:#EAF2F3;stroke:none"/>
	<rect x="0.00" y="0.00" width="3959.88" height="2880.00" style="fill:#EAF2F3"/>
	<rect x="2.88" y="2.88" width="3954.12" height="2874.24" style="fill:none;stroke:#EAF2F3;stroke-width:5.76"/>
	<rect x="427.31" y="407.27" width="1664.07" height="684.73" style="fill:#FFFFFF"/>
	<rect x="429.76" y="409.72" width="1659.17" height="679.83" style="fill:none;stroke:#FFFFFF;stroke-width:4.90"/>
	<line x1="427.31" y1="1038.17" x2="2091.38" y2="1038.17" style="stroke:#EAF2F3;stroke-width:7.34"/>
	<line x1="427.31" y1="941.89" x2="2091.38" y2="941.89" style="stroke:#EAF2F3;stroke-width:7.34"/>
	<line x1="427.31" y1="845.73" x2="2091.38" y2="845.73" style="stroke:#EAF2F3;stroke-width:7.34"/>
	<line x1="427.31" y1="749.58" x2="2091.38" y2="749.58" style="stroke:#EAF2F3;stroke-width:7.34"/>
	<line x1="427.31" y1="653.42" x2="2091.38" y2="653.42" style="stroke:#EAF2F3;stroke-width:7.34"/>
	<line x1="427.31" y1="557.26" x2="2091.38" y2="557.26" style="stroke:#EAF2F3;stroke-width:7.34"/>
	<line x1="427.31" y1="461.11" x2="2091.38" y2="461.11" style="stroke:#EAF2F3;stroke-width:7.34"/>
	<rect x="2160.43" y="407.27" width="1664.07" height="684.73" style="fill:#FFFFFF"/>
	<rect x="2162.88" y="409.72" width="1659.17" height="679.83" style="fill:none;stroke:#FFFFFF;stroke-width:4.90"/>
	<line x1="2160.43" y1="1038.17" x2="3824.49" y2="1038.17" style="stroke:#EAF2F3;stroke-width:7.34"/>
	<line x1="2160.43" y1="941.89" x2="3824.49" y2="941.89" style="stroke:#EAF2F3;stroke-width:7.34"/>
	<line x1="2160.43" y1="845.73" x2="3824.49" y2="845.73" style="stroke:#EAF2F3;stroke-width:7.34"/>
	<line x1="2160.43" y1="749.58" x2="3824.49" y2="749.58" style="stroke:#EAF2F3;stroke-width:7.34"/>
	<line x1="2160.43" y1="653.42" x2="3824.49" y2="653.42" style="stroke:#EAF2F3;stroke-width:7.34"/>
	<line x1="2160.43" y1="557.26" x2="3824.49" y2="557.26" style="stroke:#EAF2F3;stroke-width:7.34"/>
	<line x1="2160.43" y1="461.11" x2="3824.49" y2="461.11" style="stroke:#EAF2F3;stroke-width:7.34"/>
	<rect x="427.31" y="1411.41" width="1664.07" height="684.73" style="fill:#FFFFFF"/>
	<rect x="429.76" y="1413.86" width="1659.17" height="679.83" style="fill:none;stroke:#FFFFFF;stroke-width:4.90"/>
	<line x1="427.31" y1="2042.31" x2="2091.38" y2="2042.31" style="stroke:#EAF2F3;stroke-width:7.34"/>
	<line x1="427.31" y1="1946.15" x2="2091.38" y2="1946.15" style="stroke:#EAF2F3;stroke-width:7.34"/>
	<line x1="427.31" y1="1850.00" x2="2091.38" y2="1850.00" style="stroke:#EAF2F3;stroke-width:7.34"/>
	<line x1="427.31" y1="1753.84" x2="2091.38" y2="1753.84" style="stroke:#EAF2F3;stroke-width:7.34"/>
	<line x1="427.31" y1="1657.56" x2="2091.38" y2="1657.56" style="stroke:#EAF2F3;stroke-width:7.34"/>
	<line x1="427.31" y1="1561.40" x2="2091.38" y2="1561.40" style="stroke:#EAF2F3;stroke-width:7.34"/>
	<line x1="427.31" y1="1465.25" x2="2091.38" y2="1465.25" style="stroke:#EAF2F3;stroke-width:7.34"/>
	<path d=" M500.57 1023.82 L520.00 1021.34 L539.43 1018.74 L558.86 1015.77 L578.41 1011.94 L597.84 1007.73 L617.26 1002.16 L636.69 996.34 L656.12 988.92 L675.67 983.72 L695.10 975.18 L714.53 965.65 L733.96 954.02 L753.39 940.65 L772.94 929.64 L792.37 911.20 L811.80 894.12 L831.23 884.47 L850.78 874.20 L870.21 851.06 L889.64 837.19 L909.07 837.19 L928.50 818.63 L948.05 808.86 L967.48 837.81 L986.91 827.91 L1006.34 820.24 L1025.76 821.97 L1045.32 841.65 L1064.74 842.39 L1084.17 817.15 L1103.60 819.37 L1123.03 830.02 L1142.58 838.80 L1162.01 845.98 L1181.44 861.33 L1200.87 864.42 L1220.30 866.03 L1239.85 865.41 L1259.28 875.06 L1278.71 881.75 L1298.14 904.89 L1317.57 899.07 L1337.12 921.72 L1356.55 924.81 L1375.98 895.36 L1395.40 903.03 L1414.96 908.48 L1434.39 916.40 L1453.82 923.82 L1473.24 916.64 L1492.67 917.14 L1512.22 917.02 L1531.65 918.87 L1551.08 919.37 L1570.51 920.48 L1589.94 924.19 L1609.49 925.43 L1628.92 920.36 L1648.35 926.67 L1667.78 931.50 L1687.21 926.42 L1706.76 929.27 L1726.19 931.25 L1745.62 937.81 L1765.05 943.13 L1784.47 944.74 L1804.03 944.74 L1823.46 945.23 L1842.88 963.05 L1862.31 959.09 L1881.74 971.96 L1901.30 964.91" stroke-linejoin="round" style="fill:none;stroke:#1A476F;stroke-width:19.58"/>
	<path d=" M500.57 957.98 L520.00 957.98 L539.43 957.98 L558.86 957.98 L578.41 957.98 L597.84 957.98 L617.26 957.98 L636.69 957.98 L656.12 957.98 L675.67 957.98 L695.10 957.98 L714.53 957.98 L733.96 957.98 L753.39 957.98 L772.94 957.98 L792.37 957.98 L811.80 957.98 L831.23 957.98 L850.78 957.98 L870.21 957.98 L889.64 957.98 L909.07 933.72 L928.50 921.60 L948.05 921.10 L967.48 913.06 L986.91 905.75 L1006.34 897.09 L1025.76 888.55 L1045.32 883.11 L1064.74 878.65 L1084.17 869.00 L1103.60 861.33 L1123.03 852.91 L1142.58 848.09 L1162.01 842.02 L1181.44 837.94 L1200.87 833.85 L1220.30 832.99 L1239.85 834.84 L1259.28 838.80 L1278.71 842.76 L1298.14 851.18 L1317.57 858.23 L1337.12 864.05 L1356.55 871.47 L1375.98 876.92 L1395.40 881.13 L1414.96 882.49 L1434.39 883.97 L1453.82 884.96 L1473.24 887.32 L1492.67 887.19 L1512.22 887.69 L1531.65 889.42 L1551.08 889.67 L1570.51 888.31 L1589.94 884.59 L1609.49 880.26 L1628.92 879.52 L1648.35 878.53 L1667.78 876.67 L1687.21 878.65 L1706.76 881.00 L1726.19 885.71 L1745.62 889.91 L1765.05 890.66 L1784.47 892.14 L1804.03 894.99 L1823.46 894.74 L1842.88 894.25 L1862.31 894.62 L1881.74 897.09 L1901.30 899.44" stroke-linejoin="round" style="fill:none;stroke:#90353B;stroke-width:19.58"/>
	<path d=" M500.57 976.17 L520.00 977.53 L539.43 977.78 L558.86 974.44 L578.41 973.20 L597.84 971.96 L617.26 970.85 L636.69 968.87 L656.12 963.80 L675.67 955.87 L695.10 949.32 L714.53 939.04 L733.96 934.59 L753.39 925.43 L772.94 928.15 L792.37 929.27 L811.80 911.94 L831.23 901.18 L850.78 893.01 L870.21 886.20 L889.64 872.46 L909.07 869.25 L928.50 865.41 L948.05 846.35 L967.48 837.07 L986.91 830.51 L1006.34 825.44 L1025.76 822.59 L1045.32 823.09 L1064.74 822.34 L1084.17 821.23 L1103.60 819.75 L1123.03 808.73 L1142.58 807.00 L1162.01 811.45 L1181.44 817.52 L1200.87 823.21 L1220.30 825.81 L1239.85 828.90 L1259.28 839.17 L1278.71 843.88 L1298.14 850.07 L1317.57 850.31 L1337.12 852.42 L1356.55 866.77 L1375.98 873.21 L1395.40 883.23 L1414.96 897.59 L1434.39 904.89 L1453.82 914.54 L1473.24 922.34 L1492.67 923.95 L1512.22 931.87 L1531.65 938.18 L1551.08 939.17 L1570.51 940.53 L1589.94 938.55 L1609.49 935.95 L1628.92 932.86 L1648.35 929.14 L1667.78 923.33 L1687.21 919.61 L1706.76 917.51 L1726.19 915.65 L1745.62 914.05 L1765.05 914.17 L1784.47 915.78 L1804.03 916.52 L1823.46 916.52 L1842.88 923.45 L1862.31 924.57 L1881.74 924.81 L1901.30 925.18" stroke-linejoin="round" style="fill:none;stroke:#55752F;stroke-width:19.58"/>
	<path d=" M500.57 1038.17 L520.00 1038.17 L539.43 1028.52 L558.86 1028.52 L578.41 1009.34 L597.84 1009.34 L617.26 1009.34 L636.69 999.68 L656.12 990.03 L675.67 980.50 L695.10 961.20 L714.53 961.20 L733.96 951.67 L753.39 951.67 L772.94 951.67 L792.37 942.01 L811.80 942.01 L831.23 942.01 L850.78 942.01 L870.21 932.36 L889.64 932.36 L909.07 932.36 L928.50 932.36 L948.05 932.36 L967.48 903.53 L986.91 893.87 L1006.34 893.87 L1025.76 874.69 L1045.32 874.69 L1064.74 865.04 L1084.17 855.51 L1103.60 855.51 L1123.03 874.69 L1142.58 845.86 L1162.01 836.20 L1181.44 826.68 L1200.87 836.20 L1220.30 845.86 L1239.85 865.04 L1259.28 865.04 L1278.71 874.69 L1298.14 865.04 L1317.57 855.51 L1337.12 865.04 L1356.55 855.51 L1375.98 855.51 L1395.40 855.51 L1414.96 836.20 L1434.39 836.20 L1453.82 836.20 L1473.24 836.20 L1492.67 836.20 L1512.22 865.04 L1531.65 865.04 L1551.08 865.04 L1570.51 874.69 L1589.94 874.69 L1609.49 884.35 L1628.92 903.53 L1648.35 903.53 L1667.78 893.87 L1687.21 922.83 L1706.76 913.18 L1726.19 922.83 L1745.62 922.83 L1765.05 922.83 L1784.47 913.18 L1804.03 913.18 L1823.46 913.18 L1842.88 922.83 L1862.31 932.36 L1881.74 932.36 L1901.30 942.01" stroke-linejoin="round" style="fill:none;stroke:#E37E00;stroke-width:19.58"/>
	<path d=" M2233.69 1021.71 L2253.12 1018.74 L2272.67 1015.77 L2292.10 1012.43 L2311.53 1007.98 L2330.95 1003.15 L2350.38 996.71 L2369.94 990.03 L2389.36 981.37 L2408.79 975.30 L2428.22 965.53 L2447.65 954.51 L2467.20 941.15 L2486.63 925.80 L2506.06 913.06 L2525.49 891.77 L2545.04 872.22 L2564.47 860.96 L2583.90 849.08 L2603.33 822.47 L2622.76 806.50 L2642.31 806.50 L2661.74 785.09 L2681.17 773.83 L2700.60 807.25 L2720.03 795.74 L2739.58 786.95 L2759.01 788.93 L2778.43 811.58 L2797.86 812.44 L2817.29 783.36 L2836.84 785.96 L2856.27 798.21 L2875.70 808.36 L2895.13 816.53 L2914.56 834.22 L2934.11 837.94 L2953.54 839.67 L2972.97 839.05 L2992.40 850.19 L3011.83 857.86 L3031.38 884.59 L3050.81 877.79 L3070.24 903.90 L3089.67 907.49 L3109.22 873.45 L3128.65 882.37 L3148.08 888.68 L3167.51 897.83 L3186.93 906.37 L3206.49 898.08 L3225.91 898.70 L3245.34 898.58 L3264.77 900.56 L3284.20 901.18 L3303.75 902.41 L3323.18 906.74 L3342.61 908.11 L3362.04 902.41 L3381.47 909.59 L3401.02 915.16 L3420.45 909.34 L3439.88 912.68 L3459.31 914.91 L3478.74 922.46 L3498.29 928.65 L3517.72 930.51 L3537.15 930.51 L3556.57 931.00 L3576.00 951.54 L3595.56 946.96 L3614.99 961.82 L3634.41 953.65" stroke-linejoin="round" style="fill:none;stroke:#1A476F;stroke-width:19.58"/>
	<path d=" M2233.69 945.73 L2253.12 945.73 L2272.67 945.73 L2292.10 945.73 L2311.53 945.73 L2330.95 945.73 L2350.38 945.73 L2369.94 945.73 L2389.36 945.73 L2408.79 945.73 L2428.22 945.73 L2447.65 945.73 L2467.20 945.73 L2486.63 945.73 L2506.06 945.73 L2525.49 945.73 L2545.04 945.73 L2564.47 945.73 L2583.90 945.73 L2603.33 945.73 L2622.76 945.73 L2642.31 945.73 L2661.74 945.73 L2681.17 918.01 L2700.60 906.87 L2720.03 906.50 L2739.58 893.63 L2759.01 892.76 L2778.43 882.61 L2797.86 873.08 L2817.29 870.48 L2836.84 862.56 L2856.27 853.41 L2875.70 845.36 L2895.13 834.97 L2914.56 832.86 L2934.11 827.79 L2953.54 819.00 L2972.97 815.91 L2992.40 813.93 L3011.83 818.14 L3031.38 822.10 L3050.81 823.71 L3070.24 830.39 L3089.67 840.54 L3109.22 849.45 L3128.65 858.98 L3148.08 864.67 L3167.51 872.34 L3186.93 878.28 L3206.49 881.00 L3225.91 879.64 L3245.34 881.13 L3264.77 881.99 L3284.20 883.97 L3303.75 884.84 L3323.18 885.46 L3342.61 886.70 L3362.04 893.38 L3381.47 893.13 L3401.02 894.86 L3420.45 895.85 L3439.88 896.97 L3459.31 898.82 L3478.74 902.54 L3498.29 903.16 L3517.72 906.74 L3537.15 904.89 L3556.57 905.26 L3576.00 903.40 L3595.56 900.80 L3614.99 901.79 L3634.41 899.81" stroke-linejoin="round" style="fill:none;stroke:#90353B;stroke-width:19.58"/>
	<path d=" M2233.69 1009.83 L2253.12 998.57 L2272.67 992.26 L2292.10 988.92 L2311.53 980.63 L2330.95 974.69 L2350.38 964.91 L2369.94 958.84 L2389.36 959.34 L2408.79 946.84 L2428.22 932.73 L2447.65 931.87 L2467.20 929.64 L2486.63 919.00 L2506.06 921.10 L2525.49 919.99 L2545.04 900.56 L2564.47 878.16 L2583.90 863.31 L2603.33 853.28 L2622.76 839.30 L2642.31 835.96 L2661.74 831.38 L2681.17 819.13 L2700.60 814.55 L2720.03 807.87 L2739.58 799.82 L2759.01 792.64 L2778.43 787.82 L2797.86 783.24 L2817.29 778.29 L2836.84 776.18 L2856.27 764.92 L2875.70 767.40 L2895.13 775.32 L2914.56 785.84 L2934.11 794.13 L2953.54 795.74 L2972.97 799.33 L2992.40 809.47 L3011.83 816.53 L3031.38 822.72 L3050.81 819.99 L3070.24 818.51 L3089.67 826.06 L3109.22 825.31 L3128.65 833.98 L3148.08 845.61 L3167.51 858.98 L3186.93 875.06 L3206.49 891.15 L3225.91 902.66 L3245.34 917.26 L3264.77 926.55 L3284.20 931.37 L3303.75 933.60 L3323.18 932.61 L3342.61 930.51 L3362.04 929.27 L3381.47 928.65 L3401.02 925.68 L3420.45 924.07 L3439.88 920.48 L3459.31 918.38 L3478.74 915.16 L3498.29 913.18 L3517.72 911.57 L3537.15 911.57 L3556.57 911.94 L3576.00 921.35 L3595.56 924.69 L3614.99 927.41 L3634.41 929.39" stroke-linejoin="round" style="fill:none;stroke:#55752F;stroke-width:19.58"/>
	<path d=" M2233.69 1028.52 L2253.12 1018.99 L2272.67 1018.99 L2292.10 1018.99 L2311.53 1009.34 L2330.95 999.68 L2350.38 990.03 L2369.94 990.03 L2389.36 980.50 L2408.79 951.67 L2428.22 951.67 L2447.65 942.01 L2467.20 932.36 L2486.63 932.36 L2506.06 922.83 L2525.49 922.83 L2545.04 913.18 L2564.47 903.53 L2583.90 893.87 L2603.33 884.35 L2622.76 884.35 L2642.31 884.35 L2661.74 884.35 L2681.17 874.69 L2700.60 865.04 L2720.03 836.20 L2739.58 836.20 L2759.01 836.20 L2778.43 817.02 L2797.86 807.37 L2817.29 797.72 L2836.84 778.54 L2856.27 788.19 L2875.70 788.19 L2895.13 778.54 L2914.56 778.54 L2934.11 788.19 L2953.54 807.37 L2972.97 797.72 L2992.40 807.37 L3011.83 817.02 L3031.38 817.02 L3050.81 826.68 L3070.24 826.68 L3089.67 836.20 L3109.22 845.86 L3128.65 855.51 L3148.08 865.04 L3167.51 865.04 L3186.93 865.04 L3206.49 865.04 L3225.91 874.69 L3245.34 874.69 L3264.77 903.53 L3284.20 893.87 L3303.75 893.87 L3323.18 903.53 L3342.61 922.83 L3362.04 932.36 L3381.47 951.67 L3401.02 951.67 L3420.45 961.20 L3439.88 980.50 L3459.31 970.85 L3478.74 970.85 L3498.29 980.50 L3517.72 990.03 L3537.15 990.03 L3556.57 990.03 L3576.00 990.03 L3595.56 990.03 L3614.99 990.03 L3634.41 990.03" stroke-linejoin="round" style="fill:none;stroke:#E37E00;stroke-width:19.58"/>
	<path d=" M500.57 2012.73 L520.00 2007.54 L539.43 2002.21 L558.86 1996.15 L578.41 1988.23 L597.84 1979.44 L617.26 1967.93 L636.69 1955.93 L656.12 1940.46 L675.67 1929.69 L695.10 1912.00 L714.53 1892.32 L733.96 1868.31 L753.39 1840.84 L772.94 1817.94 L792.37 1779.95 L811.80 1744.68 L831.23 1724.63 L850.78 1703.22 L870.21 1655.58 L889.64 1626.87 L909.07 1626.99 L928.50 1588.38 L948.05 1568.33 L967.48 1628.11 L986.91 1607.56 L1006.34 1591.97 L1025.76 1595.43 L1045.32 1636.03 L1064.74 1637.63 L1084.17 1585.41 L1103.60 1589.99 L1123.03 1612.14 L1142.58 1630.21 L1162.01 1644.94 L1181.44 1676.62 L1200.87 1683.18 L1220.30 1686.39 L1239.85 1685.28 L1259.28 1705.20 L1278.71 1718.94 L1298.14 1766.96 L1317.57 1754.71 L1337.12 1801.61 L1356.55 1807.92 L1375.98 1747.03 L1395.40 1763.00 L1414.96 1774.26 L1434.39 1790.72 L1453.82 1805.94 L1473.24 1790.97 L1492.67 1792.20 L1512.22 1791.96 L1531.65 1795.67 L1551.08 1796.78 L1570.51 1798.89 L1589.94 1806.68 L1609.49 1809.16 L1628.92 1798.89 L1648.35 1811.88 L1667.78 1821.78 L1687.21 1811.26 L1706.76 1817.33 L1726.19 1821.29 L1745.62 1834.90 L1765.05 1845.79 L1784.47 1849.25 L1804.03 1849.13 L1823.46 1850.12 L1842.88 1887.00 L1862.31 1878.83 L1881.74 1905.44 L1901.30 1890.71" stroke-linejoin="round" style="fill:none;stroke:#1A476F;stroke-width:19.58"/>
	<path d=" M500.57 1876.60 L520.00 1876.60 L539.43 1876.60 L558.86 1876.60 L578.41 1876.60 L597.84 1876.60 L617.26 1876.60 L636.69 1876.60 L656.12 1876.60 L675.67 1876.60 L695.10 1876.60 L714.53 1876.60 L733.96 1876.60 L753.39 1876.60 L772.94 1876.60 L792.37 1876.60 L811.80 1848.64 L831.23 1827.10 L850.78 1816.46 L870.21 1806.68 L889.64 1794.43 L909.07 1781.68 L928.50 1772.53 L948.05 1761.14 L967.48 1750.50 L986.91 1739.86 L1006.34 1723.77 L1025.76 1711.02 L1045.32 1697.53 L1064.74 1682.06 L1084.17 1670.43 L1103.60 1659.17 L1123.03 1645.56 L1142.58 1639.00 L1162.01 1629.34 L1181.44 1623.40 L1200.87 1616.23 L1220.30 1611.52 L1239.85 1606.20 L1259.28 1604.96 L1278.71 1607.44 L1298.14 1616.10 L1317.57 1627.86 L1337.12 1645.18 L1356.55 1669.07 L1375.98 1694.19 L1395.40 1718.94 L1414.96 1736.51 L1434.39 1753.22 L1453.82 1766.46 L1473.24 1776.98 L1492.67 1779.09 L1512.22 1782.80 L1531.65 1785.15 L1551.08 1789.36 L1570.51 1790.72 L1589.94 1791.21 L1609.49 1791.09 L1628.92 1788.86 L1648.35 1783.66 L1667.78 1780.57 L1687.21 1776.49 L1706.76 1773.64 L1726.19 1771.41 L1745.62 1771.91 L1765.05 1775.62 L1784.47 1781.68 L1804.03 1787.13 L1823.46 1793.07 L1842.88 1796.66 L1862.31 1800.12 L1881.74 1801.98 L1901.30 1803.71" stroke-linejoin="round" style="fill:none;stroke:#90353B;stroke-width:19.58"/>
	<path d=" M500.57 1932.91 L520.00 1940.96 L539.43 1942.69 L558.86 1941.45 L578.41 1944.54 L597.84 1942.56 L617.26 1939.10 L636.69 1933.53 L656.12 1929.57 L675.67 1918.18 L695.10 1901.48 L714.53 1881.31 L733.96 1862.62 L753.39 1834.65 L772.94 1832.79 L792.37 1826.24 L811.80 1784.16 L831.23 1744.93 L850.78 1714.11 L870.21 1689.12 L889.64 1666.96 L909.07 1661.40 L928.50 1653.85 L948.05 1628.60 L967.48 1621.30 L986.91 1614.37 L1006.34 1606.82 L1025.76 1594.82 L1045.32 1585.41 L1064.74 1576.38 L1084.17 1568.58 L1103.60 1559.79 L1123.03 1542.34 L1142.58 1549.27 L1162.01 1566.11 L1181.44 1587.76 L1200.87 1604.35 L1220.30 1606.57 L1239.85 1614.74 L1259.28 1633.43 L1278.71 1647.29 L1298.14 1659.91 L1317.57 1656.57 L1337.12 1654.84 L1356.55 1676.62 L1375.98 1681.94 L1395.40 1699.14 L1414.96 1725.50 L1434.39 1761.14 L1453.82 1806.06 L1473.24 1845.91 L1492.67 1866.46 L1512.22 1889.72 L1531.65 1902.72 L1551.08 1910.51 L1570.51 1915.09 L1589.94 1912.24 L1609.49 1906.80 L1628.92 1901.97 L1648.35 1895.91 L1667.78 1885.02 L1687.21 1876.85 L1706.76 1867.07 L1726.19 1858.78 L1745.62 1848.64 L1765.05 1838.12 L1784.47 1833.41 L1804.03 1833.91 L1823.46 1835.76 L1842.88 1845.79 L1862.31 1848.14 L1881.74 1848.88 L1901.30 1853.46" stroke-linejoin="round" style="fill:none;stroke:#55752F;stroke-width:19.58"/>
	<path d=" M500.57 1974.99 L520.00 1946.15 L539.43 1946.15 L558.86 1917.32 L578.41 1917.32 L597.84 1878.83 L617.26 1859.65 L636.69 1840.34 L656.12 1821.16 L675.67 1801.98 L695.10 1773.02 L714.53 1763.49 L733.96 1725.01 L753.39 1715.35 L772.94 1705.82 L792.37 1696.17 L811.80 1686.52 L831.23 1667.34 L850.78 1648.03 L870.21 1619.20 L889.64 1619.20 L909.07 1590.36 L928.50 1551.87 L948.05 1561.53 L967.48 1532.69 L986.91 1523.04 L1006.34 1494.20 L1025.76 1465.37 L1045.32 1465.37 L1064.74 1484.55 L1084.17 1475.02 L1103.60 1503.86 L1123.03 1503.86 L1142.58 1523.04 L1162.01 1542.34 L1181.44 1551.87 L1200.87 1571.18 L1220.30 1561.53 L1239.85 1590.36 L1259.28 1590.36 L1278.71 1628.85 L1298.14 1619.20 L1317.57 1628.85 L1337.12 1638.50 L1356.55 1657.68 L1375.98 1686.52 L1395.40 1705.82 L1414.96 1734.66 L1434.39 1725.01 L1453.82 1744.19 L1473.24 1763.49 L1492.67 1763.49 L1512.22 1782.67 L1531.65 1792.33 L1551.08 1821.16 L1570.51 1859.65 L1589.94 1878.83 L1609.49 1878.83 L1628.92 1878.83 L1648.35 1869.30 L1667.78 1859.65 L1687.21 1859.65 L1706.76 1859.65 L1726.19 1850.00 L1745.62 1850.00 L1765.05 1878.83 L1784.47 1878.83 L1804.03 1888.48 L1823.46 1888.48 L1842.88 1907.67 L1862.31 1907.67 L1881.74 1907.67 L1901.30 1907.67" stroke-linejoin="round" style="fill:none;stroke:#E37E00;stroke-width:19.58"/>
	<line x1="427.31" y1="1092.00" x2="427.31" y2="407.27" style="stroke:#000000;stroke-width:4.90"/>
	<line x1="427.31" y1="1038.17" x2="393.28" y2="1038.17" style="stroke:#000000;stroke-width:4.90"/>
	<text x="376.32" y="1067.96" style="font-family:'Helvetica';font-size:85.02px;fill:#000000" text-anchor="end">0</text>
	<line x1="427.31" y1="941.89" x2="393.28" y2="941.89" style="stroke:#000000;stroke-width:4.90"/>
	<text x="376.32" y="971.68" style="font-family:'Helvetica';font-size:85.02px;fill:#000000" text-anchor="end">10</text>
	<line x1="427.31" y1="845.73" x2="393.28" y2="845.73" style="stroke:#000000;stroke-width:4.90"/>
	<text x="376.32" y="875.52" style="font-family:'Helvetica';font-size:85.02px;fill:#000000" text-anchor="end">20</text>
	<line x1="427.31" y1="749.58" x2="393.28" y2="749.58" style="stroke:#000000;stroke-width:4.90"/>
	<text x="376.32" y="779.36" style="font-family:'Helvetica';font-size:85.02px;fill:#000000" text-anchor="end">30</text>
	<line x1="427.31" y1="653.42" x2="393.28" y2="653.42" style="stroke:#000000;stroke-width:4.90"/>
	<text x="376.32" y="683.21" style="font-family:'Helvetica';font-size:85.02px;fill:#000000" text-anchor="end">40</text>
	<line x1="427.31" y1="557.26" x2="393.28" y2="557.26" style="stroke:#000000;stroke-width:4.90"/>
	<text x="376.32" y="587.05" style="font-family:'Helvetica';font-size:85.02px;fill:#000000" text-anchor="end">50</text>
	<line x1="427.31" y1="461.11" x2="393.28" y2="461.11" style="stroke:#000000;stroke-width:4.90"/>
	<text x="376.32" y="490.89" style="font-family:'Helvetica';font-size:85.02px;fill:#000000" text-anchor="end">60</text>
	<line x1="427.31" y1="2096.14" x2="427.31" y2="1411.41" style="stroke:#000000;stroke-width:4.90"/>
	<line x1="427.31" y1="2042.31" x2="393.28" y2="2042.31" style="stroke:#000000;stroke-width:4.90"/>
	<text x="376.32" y="2072.10" style="font-family:'Helvetica';font-size:85.02px;fill:#000000" text-anchor="end">0</text>
	<line x1="427.31" y1="1946.15" x2="393.28" y2="1946.15" style="stroke:#000000;stroke-width:4.90"/>
	<text x="376.32" y="1975.94" style="font-family:'Helvetica';font-size:85.02px;fill:#000000" text-anchor="end">10</text>
	<line x1="427.31" y1="1850.00" x2="393.28" y2="1850.00" style="stroke:#000000;stroke-width:4.90"/>
	<text x="376.32" y="1879.78" style="font-family:'Helvetica';font-size:85.02px;fill:#000000" text-anchor="end">20</text>
	<line x1="427.31" y1="1753.84" x2="393.28" y2="1753.84" style="stroke:#000000;stroke-width:4.90"/>
	<text x="376.32" y="1783.63" style="font-family:'Helvetica';font-size:85.02px;fill:#000000" text-anchor="end">30</text>
	<line x1="427.31" y1="1657.56" x2="393.28" y2="1657.56" style="stroke:#000000;stroke-width:4.90"/>
	<text x="376.32" y="1687.35" style="font-family:'Helvetica';font-size:85.02px;fill:#000000" text-anchor="end">40</text>
	<line x1="427.31" y1="1561.40" x2="393.28" y2="1561.40" style="stroke:#000000;stroke-width:4.90"/>
	<text x="376.32" y="1591.19" style="font-family:'Helvetica';font-size:85.02px;fill:#000000" text-anchor="end">50</text>
	<line x1="427.31" y1="1465.25" x2="393.28" y2="1465.25" style="stroke:#000000;stroke-width:4.90"/>
	<text x="376.32" y="1495.03" style="font-family:'Helvetica';font-size:85.02px;fill:#000000" text-anchor="end">60</text>
	<line x1="2160.43" y1="1092.00" x2="3824.49" y2="1092.00" style="stroke:#000000;stroke-width:4.90"/>
	<line x1="2214.38" y1="1092.00" x2="2214.38" y2="1125.91" style="stroke:#000000;stroke-width:4.90"/>
	<text x="2214.38" y="1202.44" style="font-family:'Helvetica';font-size:85.02px;fill:#000000" text-anchor="middle">0</text>
	<line x1="2603.45" y1="1092.00" x2="2603.45" y2="1125.91" style="stroke:#000000;stroke-width:4.90"/>
	<text x="2603.45" y="1202.44" style="font-family:'Helvetica';font-size:85.02px;fill:#000000" text-anchor="middle">20</text>
	<line x1="2992.52" y1="1092.00" x2="2992.52" y2="1125.91" style="stroke:#000000;stroke-width:4.90"/>
	<text x="2992.52" y="1202.44" style="font-family:'Helvetica';font-size:85.02px;fill:#000000" text-anchor="middle">40</text>
	<line x1="3381.59" y1="1092.00" x2="3381.59" y2="1125.91" style="stroke:#000000;stroke-width:4.90"/>
	<text x="3381.59" y="1202.44" style="font-family:'Helvetica';font-size:85.02px;fill:#000000" text-anchor="middle">60</text>
	<line x1="3770.66" y1="1092.00" x2="3770.66" y2="1125.91" style="stroke:#000000;stroke-width:4.90"/>
	<text x="3770.66" y="1202.44" style="font-family:'Helvetica';font-size:85.02px;fill:#000000" text-anchor="middle">80</text>
	<line x1="427.31" y1="2096.14" x2="2091.38" y2="2096.14" style="stroke:#000000;stroke-width:4.90"/>
	<line x1="481.14" y1="2096.14" x2="481.14" y2="2130.18" style="stroke:#000000;stroke-width:4.90"/>
	<text x="481.14" y="2206.58" style="font-family:'Helvetica';font-size:85.02px;fill:#000000" text-anchor="middle">0</text>
	<line x1="870.21" y1="2096.14" x2="870.21" y2="2130.18" style="stroke:#000000;stroke-width:4.90"/>
	<text x="870.21" y="2206.58" style="font-family:'Helvetica';font-size:85.02px;fill:#000000" text-anchor="middle">20</text>
	<line x1="1259.28" y1="2096.14" x2="1259.28" y2="2130.18" style="stroke:#000000;stroke-width:4.90"/>
	<text x="1259.28" y="2206.58" style="font-family:'Helvetica';font-size:85.02px;fill:#000000" text-anchor="middle">40</text>
	<line x1="1648.35" y1="2096.14" x2="1648.35" y2="2130.18" style="stroke:#000000;stroke-width:4.90"/>
	<text x="1648.35" y="2206.58" style="font-family:'Helvetica';font-size:85.02px;fill:#000000" text-anchor="middle">60</text>
	<line x1="2037.54" y1="2096.14" x2="2037.54" y2="2130.18" style="stroke:#000000;stroke-width:4.90"/>
	<text x="2037.54" y="2206.58" style="font-family:'Helvetica';font-size:85.02px;fill:#000000" text-anchor="middle">80</text>
	<rect x="427.31" y="309.88" width="1664.07" height="97.39" style="fill:#D9E6EB"/>
	<rect x="429.76" y="312.33" width="1659.17" height="92.50" style="fill:none;stroke:#D9E6EB;stroke-width:4.90"/>
	<text x="1259.28" y="372.10" style="font-family:'Helvetica';font-size:67.94px;fill:#000000" text-anchor="middle">Humber, Coast and Vale</text>
	<rect x="2160.43" y="309.88" width="1664.07" height="97.39" style="fill:#D9E6EB"/>
	<rect x="2162.88" y="312.33" width="1659.17" height="92.50" style="fill:none;stroke:#D9E6EB;stroke-width:4.90"/>
	<text x="2992.52" y="372.10" style="font-family:'Helvetica';font-size:67.94px;fill:#000000" text-anchor="middle">South Yorkshire and Bassetlaw</text>
	<rect x="427.31" y="1314.14" width="1664.07" height="97.27" style="fill:#D9E6EB"/>
	<rect x="429.76" y="1316.59" width="1659.17" height="92.37" style="fill:none;stroke:#D9E6EB;stroke-width:4.90"/>
	<text x="1259.28" y="1376.37" style="font-family:'Helvetica';font-size:67.94px;fill:#000000" text-anchor="middle">West Yorkshire</text>
	<rect x="432.38" y="2418.27" width="3195.10" height="326.34" style="fill:#FFFFFF"/>
	<rect x="435.26" y="2421.15" width="3189.34" height="320.58" style="fill:none;stroke:#000000;stroke-width:5.76"/>
	<line x1="475.57" y1="2511.46" x2="850.04" y2="2511.46" style="stroke:#1A476F;stroke-width:23.04"/>
	<line x1="2166.99" y1="2511.46" x2="2541.45" y2="2511.46" style="stroke:#90353B;stroke-width:23.04"/>
	<line x1="475.57" y1="2651.43" x2="850.04" y2="2651.43" style="stroke:#55752F;stroke-width:23.04"/>
	<line x1="2166.99" y1="2651.43" x2="2541.45" y2="2651.43" style="stroke:#E37E00;stroke-width:23.04"/>
	<text x="909.93" y="2546.49" style="font-family:'Helvetica';font-size:99.99px;fill:#000000">Force of infection</text>
	<text x="2601.35" y="2546.49" style="font-family:'Helvetica';font-size:99.99px;fill:#000000">Smoothed A &amp; E rate</text>
	<text x="909.93" y="2686.46" style="font-family:'Helvetica';font-size:99.99px;fill:#000000">GP suspected case rate</text>
	<text x="2601.35" y="2686.46" style="font-family:'Helvetica';font-size:99.99px;fill:#000000">Crude numbers</text>
	<text x="170.79" y="1279.49" style="font-family:'Helvetica';font-size:99.99px;fill:#000000" transform="rotate(-90 170.79,1279.49)" text-anchor="middle">Expected number of cases</text>
	<text x="2029.99" y="2353.56" style="font-family:'Helvetica';font-size:99.99px;fill:#000000" text-anchor="middle"> </text>
	<text x="2029.99" y="215.98" style="font-family:'Helvetica';font-size:139.96px;fill:#1E2D53" text-anchor="middle">North East/Yorkshire</text>
</svg>
