<?xml version="1.0" encoding="UTF-8" standalone="no"?>
<!-- This is a Stata 16.1 generated SVG file (http://www.stata.com) -->

<svg version="1.1" width="5.50in" height="4.00in" viewBox="0 0 3960 2880" xmlns="http://www.w3.org/2000/svg" xmlns:xlink="http://www.w3.org/1999/xlink">
	<desc>Stata Graph - Graph</desc>
	<rect x="0" y="0" width="3960" height="2880" style="fill:#EAF2F3;stroke:none"/>
	<rect x="0.00" y="0.00" width="3959.88" height="2880.00" style="fill:#EAF2F3"/>
	<rect x="2.88" y="2.88" width="3954.12" height="2874.24" style="fill:none;stroke:#EAF2F3;stroke-width:5.76"/>
	<rect x="416.05" y="401.58" width="1090.11" height="412.72" style="fill:#FFFFFF"/>
	<rect x="418.35" y="403.89" width="1085.51" height="408.11" style="fill:none;stroke:#FFFFFF;stroke-width:4.61"/>
	<line x1="416.05" y1="763.56" x2="1506.16" y2="763.56" style="stroke:#EAF2F3;stroke-width:6.91"/>
	<line x1="416.05" y1="685.72" x2="1506.16" y2="685.72" style="stroke:#EAF2F3;stroke-width:6.91"/>
	<line x1="416.05" y1="607.88" x2="1506.16" y2="607.88" style="stroke:#EAF2F3;stroke-width:6.91"/>
	<line x1="416.05" y1="530.04" x2="1506.16" y2="530.04" style="stroke:#EAF2F3;stroke-width:6.91"/>
	<rect x="1575.21" y="401.58" width="1090.11" height="412.72" style="fill:#FFFFFF"/>
	<rect x="1577.52" y="403.89" width="1085.51" height="408.11" style="fill:none;stroke:#FFFFFF;stroke-width:4.61"/>
	<line x1="1575.21" y1="763.56" x2="2665.33" y2="763.56" style="stroke:#EAF2F3;stroke-width:6.91"/>
	<line x1="1575.21" y1="685.72" x2="2665.33" y2="685.72" style="stroke:#EAF2F3;stroke-width:6.91"/>
	<line x1="1575.21" y1="607.88" x2="2665.33" y2="607.88" style="stroke:#EAF2F3;stroke-width:6.91"/>
	<line x1="1575.21" y1="530.04" x2="2665.33" y2="530.04" style="stroke:#EAF2F3;stroke-width:6.91"/>
	<rect x="2734.38" y="401.58" width="1090.11" height="412.72" style="fill:#FFFFFF"/>
	<rect x="2736.68" y="403.89" width="1085.51" height="408.11" style="fill:none;stroke:#FFFFFF;stroke-width:4.61"/>
	<line x1="2734.38" y1="763.56" x2="3824.49" y2="763.56" style="stroke:#EAF2F3;stroke-width:6.91"/>
	<line x1="2734.38" y1="685.72" x2="3824.49" y2="685.72" style="stroke:#EAF2F3;stroke-width:6.91"/>
	<line x1="2734.38" y1="607.88" x2="3824.49" y2="607.88" style="stroke:#EAF2F3;stroke-width:6.91"/>
	<line x1="2734.38" y1="530.04" x2="3824.49" y2="530.04" style="stroke:#EAF2F3;stroke-width:6.91"/>
	<rect x="416.05" y="974.93" width="1090.11" height="412.72" style="fill:#FFFFFF"/>
	<rect x="418.35" y="977.24" width="1085.51" height="408.11" style="fill:none;stroke:#FFFFFF;stroke-width:4.61"/>
	<line x1="416.05" y1="1337.04" x2="1506.16" y2="1337.04" style="stroke:#EAF2F3;stroke-width:6.91"/>
	<line x1="416.05" y1="1259.20" x2="1506.16" y2="1259.20" style="stroke:#EAF2F3;stroke-width:6.91"/>
	<line x1="416.05" y1="1181.35" x2="1506.16" y2="1181.35" style="stroke:#EAF2F3;stroke-width:6.91"/>
	<line x1="416.05" y1="1103.51" x2="1506.16" y2="1103.51" style="stroke:#EAF2F3;stroke-width:6.91"/>
	<rect x="1575.21" y="974.93" width="1090.11" height="412.72" style="fill:#FFFFFF"/>
	<rect x="1577.52" y="977.24" width="1085.51" height="408.11" style="fill:none;stroke:#FFFFFF;stroke-width:4.61"/>
	<line x1="1575.21" y1="1337.04" x2="2665.33" y2="1337.04" style="stroke:#EAF2F3;stroke-width:6.91"/>
	<line x1="1575.21" y1="1259.20" x2="2665.33" y2="1259.20" style="stroke:#EAF2F3;stroke-width:6.91"/>
	<line x1="1575.21" y1="1181.35" x2="2665.33" y2="1181.35" style="stroke:#EAF2F3;stroke-width:6.91"/>
	<line x1="1575.21" y1="1103.51" x2="2665.33" y2="1103.51" style="stroke:#EAF2F3;stroke-width:6.91"/>
	<rect x="2734.38" y="974.93" width="1090.11" height="412.72" style="fill:#FFFFFF"/>
	<rect x="2736.68" y="977.24" width="1085.51" height="408.11" style="fill:none;stroke:#FFFFFF;stroke-width:4.61"/>
	<line x1="2734.38" y1="1337.04" x2="3824.49" y2="1337.04" style="stroke:#EAF2F3;stroke-width:6.91"/>
	<line x1="2734.38" y1="1259.20" x2="3824.49" y2="1259.20" style="stroke:#EAF2F3;stroke-width:6.91"/>
	<line x1="2734.38" y1="1181.35" x2="3824.49" y2="1181.35" style="stroke:#EAF2F3;stroke-width:6.91"/>
	<line x1="2734.38" y1="1103.51" x2="3824.49" y2="1103.51" style="stroke:#EAF2F3;stroke-width:6.91"/>
	<rect x="416.05" y="1692.46" width="1090.11" height="412.72" style="fill:#FFFFFF"/>
	<rect x="418.35" y="1694.76" width="1085.51" height="408.11" style="fill:none;stroke:#FFFFFF;stroke-width:4.61"/>
	<line x1="416.05" y1="2054.44" x2="1506.16" y2="2054.44" style="stroke:#EAF2F3;stroke-width:6.91"/>
	<line x1="416.05" y1="1976.60" x2="1506.16" y2="1976.60" style="stroke:#EAF2F3;stroke-width:6.91"/>
	<line x1="416.05" y1="1898.76" x2="1506.16" y2="1898.76" style="stroke:#EAF2F3;stroke-width:6.91"/>
	<line x1="416.05" y1="1820.91" x2="1506.16" y2="1820.91" style="stroke:#EAF2F3;stroke-width:6.91"/>
	<path d=" M479.04 753.91 L491.41 752.05 L503.66 750.94 L516.04 749.45 L528.41 747.35 L540.79 745.25 L553.16 742.03 L565.54 739.43 L577.91 735.84 L590.16 733.49 L602.54 729.28 L614.91 724.95 L627.29 720.25 L639.66 714.43 L652.04 710.59 L664.41 705.52 L676.79 696.36 L689.04 693.52 L701.41 690.55 L713.79 682.13 L726.16 676.56 L738.54 676.81 L750.91 671.86 L763.29 665.42 L775.66 675.08 L787.92 672.73 L800.29 670.13 L812.67 669.51 L825.04 676.56 L837.42 677.18 L849.79 670.00 L862.17 669.26 L874.54 674.83 L886.79 677.55 L899.17 680.28 L911.54 687.45 L923.92 690.92 L936.29 691.17 L948.67 692.03 L961.04 695.50 L973.29 697.35 L985.67 706.26 L998.04 706.02 L1010.42 713.69 L1022.79 715.05 L1035.17 705.77 L1047.54 708.24 L1059.92 709.98 L1072.17 713.69 L1084.55 719.13 L1096.92 716.29 L1109.30 715.17 L1121.67 715.67 L1134.05 716.53 L1146.42 717.03 L1158.80 717.77 L1171.05 719.75 L1183.42 720.74 L1195.80 719.63 L1208.17 723.71 L1220.55 722.48 L1232.92 722.97 L1245.30 722.48 L1257.55 723.22 L1269.92 724.83 L1282.30 723.59 L1294.67 725.20 L1307.05 725.94 L1319.42 726.56 L1331.80 732.62 L1344.17 732.00 L1356.42 736.09 L1368.80 733.37" stroke-linejoin="round" style="fill:none;stroke:#1A476F;stroke-width:18.43"/>
	<path d=" M479.04 733.37 L491.41 733.37 L503.66 733.37 L516.04 733.37 L528.41 733.37 L540.79 733.37 L553.16 733.37 L565.54 733.37 L577.91 733.37 L590.16 733.37 L602.54 733.37 L614.91 733.37 L627.29 733.37 L639.66 733.37 L652.04 733.37 L664.41 717.40 L676.79 717.03 L689.04 716.78 L701.41 712.45 L713.79 708.86 L726.16 704.16 L738.54 698.34 L750.91 696.61 L763.29 689.31 L775.66 681.27 L787.92 671.86 L800.29 660.72 L812.67 647.98 L825.04 632.88 L837.42 616.91 L849.79 602.93 L862.17 589.07 L874.54 577.44 L886.79 571.87 L899.17 575.08 L911.54 583.00 L923.92 594.88 L936.29 607.88 L948.67 624.34 L961.04 642.65 L973.29 661.59 L985.67 676.19 L998.04 691.17 L1010.42 701.07 L1022.79 710.35 L1035.17 716.53 L1047.54 721.36 L1059.92 723.34 L1072.17 724.83 L1084.55 725.45 L1096.92 726.06 L1109.30 726.06 L1121.67 726.19 L1134.05 725.94 L1146.42 726.19 L1158.80 726.56 L1171.05 726.68 L1183.42 727.30 L1195.80 727.67 L1208.17 728.04 L1220.55 728.17 L1232.92 726.68 L1245.30 726.06 L1257.55 726.31 L1269.92 725.57 L1282.30 724.70 L1294.67 723.96 L1307.05 723.47 L1319.42 723.71 L1331.80 722.72 L1344.17 720.74 L1356.42 719.13 L1368.80 718.14" stroke-linejoin="round" style="fill:none;stroke:#90353B;stroke-width:18.43"/>
	<path d=" M479.04 751.93 L491.41 748.09 L503.66 746.48 L516.04 747.10 L528.41 744.01 L540.79 740.67 L553.16 736.34 L565.54 733.86 L577.91 732.38 L590.16 729.53 L602.54 728.79 L614.91 727.80 L627.29 726.44 L639.66 722.97 L652.04 724.21 L664.41 725.20 L676.79 719.26 L689.04 713.56 L701.41 708.00 L713.79 703.66 L726.16 697.11 L738.54 695.99 L750.91 694.75 L763.29 688.57 L775.66 686.34 L787.92 684.73 L800.29 683.74 L812.67 683.86 L825.04 682.63 L837.42 681.14 L849.79 680.89 L862.17 679.53 L874.54 673.96 L886.79 673.22 L899.17 675.08 L911.54 678.67 L923.92 681.64 L936.29 682.50 L948.67 684.48 L961.04 689.56 L973.29 692.90 L985.67 696.73 L998.04 696.98 L1010.42 698.34 L1022.79 705.64 L1035.17 710.97 L1047.54 717.28 L1059.92 725.57 L1072.17 732.87 L1084.55 739.68 L1096.92 744.38 L1109.30 744.26 L1121.67 745.12 L1134.05 745.74 L1146.42 745.62 L1158.80 744.87 L1171.05 743.51 L1183.42 741.66 L1195.80 740.91 L1208.17 738.56 L1220.55 735.47 L1232.92 732.13 L1245.30 730.02 L1257.55 728.42 L1269.92 726.31 L1282.30 724.58 L1294.67 724.33 L1307.05 722.97 L1319.42 723.09 L1331.80 724.95 L1344.17 725.20 L1356.42 725.45 L1368.80 725.07" stroke-linejoin="round" style="fill:none;stroke:#55752F;stroke-width:18.43"/>
	<path d=" M479.04 755.89 L491.41 755.89 L503.66 732.50 L516.04 732.50 L528.41 716.91 L540.79 709.11 L553.16 701.31 L565.54 701.31 L577.91 701.31 L590.16 685.84 L602.54 678.05 L614.91 662.45 L627.29 654.66 L639.66 654.66 L652.04 654.66 L664.41 654.66 L676.79 639.06 L689.04 631.27 L701.41 623.47 L713.79 615.80 L726.16 600.21 L738.54 592.41 L750.91 584.61 L763.29 584.61 L775.66 584.61 L787.92 576.82 L800.29 576.82 L812.67 576.82 L825.04 584.61 L837.42 576.82 L849.79 600.21 L862.17 600.21 L874.54 615.80 L886.79 623.47 L899.17 631.27 L911.54 631.27 L923.92 631.27 L936.29 639.06 L948.67 646.86 L961.04 662.45 L973.29 670.25 L985.67 670.25 L998.04 662.45 L1010.42 662.45 L1022.79 678.05 L1035.17 685.84 L1047.54 693.52 L1059.92 701.31 L1072.17 716.91 L1084.55 724.70 L1096.92 732.50 L1109.30 732.50 L1121.67 732.50 L1134.05 740.30 L1146.42 740.30 L1158.80 740.30 L1171.05 732.50 L1183.42 740.30 L1195.80 740.30 L1208.17 740.30 L1220.55 740.30 L1232.92 740.30 L1245.30 740.30 L1257.55 740.30 L1269.92 740.30 L1282.30 748.09 L1294.67 748.09 L1307.05 748.09 L1319.42 748.09 L1331.80 748.09 L1344.17 755.89 L1356.42 755.89 L1368.80 755.89" stroke-linejoin="round" style="fill:none;stroke:#E37E00;stroke-width:18.43"/>
	<path d=" M1638.20 742.65 L1650.58 738.44 L1662.95 736.09 L1675.33 732.75 L1687.58 728.29 L1699.95 723.71 L1712.33 716.53 L1724.70 710.97 L1737.08 703.05 L1749.45 698.10 L1761.83 688.94 L1774.20 679.53 L1786.45 669.14 L1798.83 656.39 L1811.20 648.35 L1823.58 637.21 L1835.95 617.28 L1848.33 611.10 L1860.70 604.66 L1873.08 586.22 L1885.33 574.22 L1897.71 574.59 L1910.08 563.95 L1922.46 549.84 L1934.83 570.75 L1947.21 565.80 L1959.58 560.11 L1971.96 558.62 L1984.21 574.09 L1996.58 575.46 L2008.96 559.86 L2021.33 558.13 L2033.71 570.26 L2046.08 576.32 L2058.46 582.14 L2070.71 597.85 L2083.08 605.53 L2095.46 605.78 L2107.83 607.76 L2120.21 615.43 L2132.58 619.26 L2144.96 638.82 L2157.33 638.20 L2169.59 655.03 L2181.96 657.88 L2194.34 637.58 L2206.71 643.15 L2219.09 646.99 L2231.46 654.91 L2243.84 666.79 L2256.21 660.47 L2268.46 658.25 L2280.84 659.24 L2293.21 661.22 L2305.59 662.08 L2317.96 663.94 L2330.34 668.15 L2342.71 670.37 L2354.96 667.78 L2367.34 676.69 L2379.71 673.96 L2392.09 675.08 L2404.46 674.09 L2416.84 675.82 L2429.21 679.04 L2441.59 676.44 L2453.84 680.03 L2466.21 681.64 L2478.59 682.87 L2490.96 696.12 L2503.34 694.63 L2515.71 703.79 L2528.09 697.60" stroke-linejoin="round" style="fill:none;stroke:#1A476F;stroke-width:18.43"/>
	<path d=" M1638.20 697.85 L1650.58 697.85 L1662.95 697.85 L1675.33 697.85 L1687.58 697.85 L1699.95 697.85 L1712.33 697.85 L1724.70 697.85 L1737.08 697.85 L1749.45 697.85 L1761.83 697.85 L1774.20 697.85 L1786.45 697.85 L1798.83 697.85 L1811.20 697.85 L1823.58 697.85 L1835.95 697.85 L1848.33 675.32 L1860.70 665.80 L1873.08 656.64 L1885.33 651.56 L1897.71 646.00 L1910.08 638.32 L1922.46 629.29 L1934.83 623.84 L1947.21 619.39 L1959.58 615.43 L1971.96 609.24 L1984.21 607.26 L1996.58 607.38 L2008.96 606.15 L2021.33 604.04 L2033.71 599.22 L2046.08 597.61 L2058.46 595.13 L2070.71 591.67 L2083.08 587.21 L2095.46 586.22 L2107.83 587.95 L2120.21 593.28 L2132.58 597.48 L2144.96 604.54 L2157.33 608.99 L2169.59 615.30 L2181.96 622.73 L2194.34 629.16 L2206.71 635.60 L2219.09 641.17 L2231.46 646.12 L2243.84 653.17 L2256.21 657.38 L2268.46 660.47 L2280.84 662.58 L2293.21 664.06 L2305.59 665.30 L2317.96 666.66 L2330.34 666.41 L2342.71 668.27 L2354.96 667.40 L2367.34 670.00 L2379.71 668.89 L2392.09 668.39 L2404.46 667.90 L2416.84 665.55 L2429.21 663.57 L2441.59 661.09 L2453.84 656.51 L2466.21 654.29 L2478.59 651.94 L2490.96 648.10 L2503.34 646.86 L2515.71 648.22 L2528.09 650.20" stroke-linejoin="round" style="fill:none;stroke:#90353B;stroke-width:18.43"/>
	<path d=" M1638.20 731.01 L1650.58 728.29 L1662.95 717.03 L1675.33 706.76 L1687.58 697.11 L1699.95 690.30 L1712.33 686.71 L1724.70 683.49 L1737.08 679.53 L1749.45 677.68 L1761.83 677.06 L1774.20 675.08 L1786.45 670.00 L1798.83 651.07 L1811.20 650.33 L1823.58 650.45 L1835.95 637.46 L1848.33 632.13 L1860.70 627.18 L1873.08 621.86 L1885.33 613.70 L1897.71 613.45 L1910.08 612.21 L1922.46 605.28 L1934.83 603.55 L1947.21 599.83 L1959.58 593.40 L1971.96 585.48 L1984.21 579.66 L1996.58 577.56 L2008.96 576.32 L2021.33 577.31 L2033.71 577.19 L2046.08 580.65 L2058.46 585.97 L2070.71 590.68 L2083.08 594.39 L2095.46 597.73 L2107.83 599.22 L2120.21 603.05 L2132.58 605.78 L2144.96 609.74 L2157.33 611.72 L2169.59 615.18 L2181.96 626.07 L2194.34 637.46 L2206.71 651.07 L2219.09 665.80 L2231.46 677.80 L2243.84 685.72 L2256.21 690.05 L2268.46 690.55 L2280.84 689.31 L2293.21 687.95 L2305.59 685.10 L2317.96 679.66 L2330.34 676.81 L2342.71 674.58 L2354.96 669.38 L2367.34 664.68 L2379.71 658.37 L2392.09 651.94 L2404.46 648.47 L2416.84 644.88 L2429.21 642.04 L2441.59 638.94 L2453.84 639.19 L2466.21 641.54 L2478.59 644.88 L2490.96 650.70 L2503.34 654.41 L2515.71 658.37 L2528.09 667.16" stroke-linejoin="round" style="fill:none;stroke:#55752F;stroke-width:18.43"/>
	<path d=" M1638.20 732.50 L1650.58 724.70 L1662.95 724.70 L1675.33 709.11 L1687.58 701.31 L1699.95 701.31 L1712.33 678.05 L1724.70 670.25 L1737.08 670.25 L1749.45 662.45 L1761.83 654.66 L1774.20 654.66 L1786.45 654.66 L1798.83 631.27 L1811.20 615.80 L1823.58 608.00 L1835.95 608.00 L1848.33 608.00 L1860.70 584.61 L1873.08 584.61 L1885.33 584.61 L1897.71 584.61 L1910.08 584.61 L1922.46 584.61 L1934.83 569.02 L1947.21 576.82 L1959.58 576.82 L1971.96 561.22 L1984.21 569.02 L1996.58 576.82 L2008.96 569.02 L2021.33 584.61 L2033.71 584.61 L2046.08 584.61 L2058.46 608.00 L2070.71 615.80 L2083.08 615.80 L2095.46 623.47 L2107.83 623.47 L2120.21 615.80 L2132.58 608.00 L2144.96 631.27 L2157.33 639.06 L2169.59 646.86 L2181.96 646.86 L2194.34 646.86 L2206.71 662.45 L2219.09 662.45 L2231.46 662.45 L2243.84 662.45 L2256.21 662.45 L2268.46 670.25 L2280.84 685.84 L2293.21 670.25 L2305.59 670.25 L2317.96 678.05 L2330.34 670.25 L2342.71 670.25 L2354.96 670.25 L2367.34 670.25 L2379.71 678.05 L2392.09 678.05 L2404.46 678.05 L2416.84 678.05 L2429.21 670.25 L2441.59 670.25 L2453.84 678.05 L2466.21 685.84 L2478.59 693.52 L2490.96 693.52 L2503.34 693.52 L2515.71 693.52 L2528.09 693.52" stroke-linejoin="round" style="fill:none;stroke:#E37E00;stroke-width:18.43"/>
	<path d=" M2797.37 744.75 L2809.74 741.04 L2822.12 738.93 L2834.49 735.84 L2846.87 731.88 L2859.24 727.80 L2871.62 721.36 L2883.87 716.41 L2896.24 709.23 L2908.62 704.78 L2920.99 696.49 L2933.37 688.07 L2945.74 678.79 L2958.12 667.40 L2970.49 660.10 L2982.75 650.08 L2995.12 632.26 L3007.50 626.69 L3019.87 620.87 L3032.25 604.29 L3044.62 593.52 L3057.00 593.89 L3069.37 584.24 L3081.62 571.74 L3094.00 590.55 L3106.37 585.97 L3118.75 580.90 L3131.12 579.66 L3143.50 593.52 L3155.87 594.64 L3168.12 580.65 L3180.50 579.17 L3192.87 590.06 L3205.25 595.38 L3217.62 600.70 L3230.00 614.81 L3242.37 621.62 L3254.75 621.86 L3267.00 623.72 L3279.38 630.53 L3291.75 633.99 L3304.13 651.56 L3316.50 651.07 L3328.88 666.17 L3341.25 668.64 L3353.63 650.45 L3365.88 655.52 L3378.25 658.87 L3390.63 665.92 L3403.00 676.69 L3415.38 670.99 L3427.75 669.01 L3440.13 669.88 L3452.38 671.74 L3464.75 672.48 L3477.13 674.09 L3489.50 677.92 L3501.88 679.90 L3514.25 677.55 L3526.63 685.60 L3539.00 683.12 L3551.25 684.11 L3563.63 683.25 L3576.00 684.73 L3588.38 687.70 L3600.75 685.35 L3613.13 688.57 L3625.50 690.05 L3637.88 691.04 L3650.13 703.05 L3662.51 701.68 L3674.88 709.85 L3687.26 704.41" stroke-linejoin="round" style="fill:none;stroke:#1A476F;stroke-width:18.43"/>
	<path d=" M2797.37 704.65 L2809.74 704.65 L2822.12 704.65 L2834.49 704.65 L2846.87 704.65 L2859.24 704.65 L2871.62 704.65 L2883.87 704.65 L2896.24 704.65 L2908.62 704.65 L2920.99 704.65 L2933.37 704.65 L2945.74 704.65 L2958.12 704.65 L2970.49 704.65 L2982.75 704.65 L2995.12 704.65 L3007.50 704.65 L3019.87 704.65 L3032.25 704.65 L3044.62 704.65 L3057.00 704.65 L3069.37 704.65 L3081.62 677.06 L3094.00 668.64 L3106.37 663.20 L3118.75 651.81 L3131.12 645.87 L3143.50 635.48 L3155.87 624.83 L3168.12 617.28 L3180.50 607.01 L3192.87 598.60 L3205.25 594.14 L3217.62 588.94 L3230.00 587.83 L3242.37 588.70 L3254.75 590.55 L3267.00 597.98 L3279.38 605.65 L3291.75 613.70 L3304.13 620.25 L3316.50 629.29 L3328.88 639.68 L3341.25 648.47 L3353.63 656.51 L3365.88 662.08 L3378.25 667.78 L3390.63 671.86 L3403.00 674.71 L3415.38 676.19 L3427.75 678.17 L3440.13 677.68 L3452.38 680.15 L3464.75 680.15 L3477.13 681.51 L3489.50 681.51 L3501.88 683.12 L3514.25 680.89 L3526.63 683.74 L3539.00 679.04 L3551.25 675.32 L3563.63 673.84 L3576.00 671.98 L3588.38 668.02 L3600.75 668.39 L3613.13 667.16 L3625.50 670.62 L3637.88 677.92 L3650.13 683.49 L3662.51 684.11 L3674.88 685.10 L3687.26 685.23" stroke-linejoin="round" style="fill:none;stroke:#90353B;stroke-width:18.43"/>
	<path d=" M2797.37 714.55 L2809.74 711.21 L2822.12 710.35 L2834.49 711.46 L2846.87 711.09 L2859.24 711.46 L2871.62 711.83 L2883.87 710.35 L2896.24 713.69 L2908.62 711.71 L2920.99 701.19 L2933.37 692.77 L2945.74 690.30 L2958.12 686.46 L2970.49 690.18 L2982.75 691.66 L2995.12 677.92 L3007.50 669.63 L3019.87 662.58 L3032.25 655.90 L3044.62 648.84 L3057.00 646.37 L3069.37 643.52 L3081.62 636.47 L3094.00 629.16 L3106.37 623.47 L3118.75 619.88 L3131.12 613.57 L3143.50 608.50 L3155.87 604.41 L3168.12 603.80 L3180.50 601.94 L3192.87 595.87 L3205.25 596.37 L3217.62 599.59 L3230.00 605.40 L3242.37 609.49 L3254.75 608.99 L3267.00 611.10 L3279.38 617.53 L3291.75 620.50 L3304.13 623.22 L3316.50 620.63 L3328.88 620.50 L3341.25 627.80 L3353.63 634.73 L3365.88 645.38 L3378.25 660.47 L3390.63 679.28 L3403.00 696.73 L3415.38 708.49 L3427.75 711.21 L3440.13 715.17 L3452.38 717.65 L3464.75 717.40 L3477.13 716.04 L3489.50 712.57 L3501.88 709.48 L3514.25 708.24 L3526.63 705.52 L3539.00 700.57 L3551.25 697.60 L3563.63 693.76 L3576.00 691.66 L3588.38 687.21 L3600.75 683.12 L3613.13 681.88 L3625.50 683.12 L3637.88 684.11 L3650.13 686.59 L3662.51 687.95 L3674.88 690.42 L3687.26 692.90" stroke-linejoin="round" style="fill:none;stroke:#55752F;stroke-width:18.43"/>
	<path d=" M2797.37 755.89 L2809.74 755.89 L2822.12 748.09 L2834.49 740.30 L2846.87 740.30 L2859.24 740.30 L2871.62 740.30 L2883.87 732.50 L2896.24 716.91 L2908.62 716.91 L2920.99 716.91 L2933.37 716.91 L2945.74 716.91 L2958.12 716.91 L2970.49 709.11 L2982.75 709.11 L2995.12 709.11 L3007.50 709.11 L3019.87 709.11 L3032.25 709.11 L3044.62 701.31 L3057.00 701.31 L3069.37 701.31 L3081.62 701.31 L3094.00 701.31 L3106.37 701.31 L3118.75 678.05 L3131.12 685.84 L3143.50 678.05 L3155.87 678.05 L3168.12 685.84 L3180.50 685.84 L3192.87 685.84 L3205.25 685.84 L3217.62 685.84 L3230.00 693.52 L3242.37 709.11 L3254.75 709.11 L3267.00 709.11 L3279.38 701.31 L3291.75 701.31 L3304.13 701.31 L3316.50 709.11 L3328.88 709.11 L3341.25 709.11 L3353.63 709.11 L3365.88 709.11 L3378.25 709.11 L3390.63 716.91 L3403.00 716.91 L3415.38 716.91 L3427.75 716.91 L3440.13 716.91 L3452.38 716.91 L3464.75 740.30 L3477.13 740.30 L3489.50 748.09 L3501.88 748.09 L3514.25 748.09 L3526.63 755.89 L3539.00 748.09 L3551.25 748.09 L3563.63 748.09 L3576.00 748.09 L3588.38 748.09 L3600.75 748.09 L3613.13 748.09 L3625.50 755.89 L3637.88 755.89 L3650.13 755.89 L3662.51 755.89 L3674.88 755.89 L3687.26 755.89" stroke-linejoin="round" style="fill:none;stroke:#E37E00;stroke-width:18.43"/>
	<path d=" M479.04 1324.54 L491.41 1322.06 L503.66 1320.70 L516.04 1318.72 L528.41 1316.00 L540.79 1313.28 L553.16 1309.07 L565.54 1305.73 L577.91 1301.02 L590.16 1298.05 L602.54 1292.61 L614.91 1287.04 L627.29 1280.85 L639.66 1273.30 L652.04 1268.48 L664.41 1261.79 L676.79 1249.91 L689.04 1246.33 L701.41 1242.49 L713.79 1231.47 L726.16 1224.30 L738.54 1224.54 L750.91 1218.23 L763.29 1209.82 L775.66 1222.32 L787.92 1219.35 L800.29 1216.01 L812.67 1215.14 L825.04 1224.30 L837.42 1225.04 L849.79 1215.76 L862.17 1214.77 L874.54 1222.07 L886.79 1225.53 L899.17 1229.12 L911.54 1238.40 L923.92 1242.98 L936.29 1243.11 L948.67 1244.35 L961.04 1248.92 L973.29 1251.15 L985.67 1262.78 L998.04 1262.41 L1010.42 1272.44 L1022.79 1274.17 L1035.17 1262.04 L1047.54 1265.38 L1059.92 1267.61 L1072.17 1272.31 L1084.55 1279.49 L1096.92 1275.65 L1109.30 1274.42 L1121.67 1274.91 L1134.05 1276.15 L1146.42 1276.64 L1158.80 1277.76 L1171.05 1280.23 L1183.42 1281.60 L1195.80 1279.99 L1208.17 1285.31 L1220.55 1283.70 L1232.92 1284.32 L1245.30 1283.82 L1257.55 1284.81 L1269.92 1286.79 L1282.30 1285.18 L1294.67 1287.29 L1307.05 1288.28 L1319.42 1289.02 L1331.80 1296.94 L1344.17 1296.07 L1356.42 1301.40 L1368.80 1297.81" stroke-linejoin="round" style="fill:none;stroke:#1A476F;stroke-width:18.43"/>
	<path d=" M479.04 1297.93 L491.41 1297.93 L503.66 1297.93 L516.04 1297.93 L528.41 1297.93 L540.79 1297.93 L553.16 1297.93 L565.54 1297.93 L577.91 1297.93 L590.16 1297.93 L602.54 1297.93 L614.91 1297.93 L627.29 1297.93 L639.66 1297.93 L652.04 1297.93 L664.41 1297.93 L676.79 1297.93 L689.04 1297.93 L701.41 1297.93 L713.79 1279.74 L726.16 1274.29 L738.54 1268.97 L750.91 1265.38 L763.29 1260.80 L775.66 1256.23 L787.92 1249.54 L800.29 1244.35 L812.67 1239.27 L825.04 1236.80 L837.42 1231.23 L849.79 1224.42 L862.17 1219.97 L874.54 1213.90 L886.79 1208.70 L899.17 1201.03 L911.54 1193.36 L923.92 1189.52 L936.29 1186.06 L948.67 1184.82 L961.04 1189.65 L973.29 1196.08 L985.67 1208.21 L998.04 1218.36 L1010.42 1229.00 L1022.79 1242.24 L1035.17 1251.40 L1047.54 1259.44 L1059.92 1265.63 L1072.17 1270.95 L1084.55 1275.53 L1096.92 1278.87 L1109.30 1280.98 L1121.67 1283.95 L1134.05 1286.05 L1146.42 1290.01 L1158.80 1291.00 L1171.05 1292.61 L1183.42 1293.10 L1195.80 1294.84 L1208.17 1295.95 L1220.55 1297.93 L1232.92 1294.96 L1245.30 1294.84 L1257.55 1295.08 L1269.92 1296.94 L1282.30 1293.23 L1294.67 1287.91 L1307.05 1283.58 L1319.42 1281.72 L1331.80 1279.00 L1344.17 1273.80 L1356.42 1266.50 L1368.80 1261.79" stroke-linejoin="round" style="fill:none;stroke:#90353B;stroke-width:18.43"/>
	<path d=" M479.04 1319.22 L491.41 1318.60 L503.66 1318.72 L516.04 1318.72 L528.41 1318.35 L540.79 1317.85 L553.16 1316.74 L565.54 1314.88 L577.91 1313.65 L590.16 1306.10 L602.54 1300.28 L614.91 1293.60 L627.29 1289.89 L639.66 1280.85 L652.04 1280.98 L664.41 1280.11 L676.79 1270.21 L689.04 1262.04 L701.41 1257.22 L713.79 1252.64 L726.16 1249.54 L738.54 1248.06 L750.91 1245.95 L763.29 1241.25 L775.66 1239.15 L787.92 1236.42 L800.29 1234.44 L812.67 1228.88 L825.04 1226.77 L837.42 1225.91 L849.79 1226.28 L862.17 1226.65 L874.54 1223.55 L886.79 1226.03 L899.17 1228.63 L911.54 1232.59 L923.92 1235.68 L936.29 1235.06 L948.67 1236.05 L961.04 1240.39 L973.29 1241.13 L985.67 1243.60 L998.04 1242.74 L1010.42 1242.12 L1022.79 1245.71 L1035.17 1244.96 L1047.54 1246.33 L1059.92 1250.66 L1072.17 1255.85 L1084.55 1262.29 L1096.92 1268.85 L1109.30 1269.96 L1121.67 1275.28 L1134.05 1279.74 L1146.42 1282.59 L1158.80 1284.44 L1171.05 1284.81 L1183.42 1284.69 L1195.80 1285.80 L1208.17 1285.80 L1220.55 1283.95 L1232.92 1282.46 L1245.30 1280.73 L1257.55 1279.12 L1269.92 1277.26 L1282.30 1275.16 L1294.67 1274.42 L1307.05 1275.28 L1319.42 1275.28 L1331.80 1277.63 L1344.17 1278.13 L1356.42 1278.50 L1368.80 1279.37" stroke-linejoin="round" style="fill:none;stroke:#55752F;stroke-width:18.43"/>
	<path d=" M479.04 1321.44 L491.41 1321.44 L503.66 1321.44 L516.04 1321.44 L528.41 1321.44 L540.79 1321.44 L553.16 1321.44 L565.54 1313.77 L577.91 1305.97 L590.16 1305.97 L602.54 1298.18 L614.91 1298.18 L627.29 1298.18 L639.66 1282.59 L652.04 1259.20 L664.41 1259.20 L676.79 1251.40 L689.04 1235.93 L701.41 1228.13 L713.79 1228.13 L726.16 1228.13 L738.54 1220.34 L750.91 1220.34 L763.29 1212.54 L775.66 1212.54 L787.92 1212.54 L800.29 1204.74 L812.67 1196.95 L825.04 1204.74 L837.42 1196.95 L849.79 1196.95 L862.17 1196.95 L874.54 1196.95 L886.79 1196.95 L899.17 1189.15 L911.54 1196.95 L923.92 1196.95 L936.29 1189.15 L948.67 1196.95 L961.04 1196.95 L973.29 1189.15 L985.67 1204.74 L998.04 1220.34 L1010.42 1220.34 L1022.79 1228.13 L1035.17 1243.73 L1047.54 1251.40 L1059.92 1251.40 L1072.17 1251.40 L1084.55 1251.40 L1096.92 1251.40 L1109.30 1259.20 L1121.67 1259.20 L1134.05 1251.40 L1146.42 1251.40 L1158.80 1259.20 L1171.05 1266.99 L1183.42 1274.79 L1195.80 1259.20 L1208.17 1251.40 L1220.55 1251.40 L1232.92 1251.40 L1245.30 1259.20 L1257.55 1251.40 L1269.92 1259.20 L1282.30 1259.20 L1294.67 1259.20 L1307.05 1259.20 L1319.42 1266.99 L1331.80 1266.99 L1344.17 1274.79 L1356.42 1274.79 L1368.80 1274.79" stroke-linejoin="round" style="fill:none;stroke:#E37E00;stroke-width:18.43"/>
	<path d=" M1638.20 1315.87 L1650.58 1311.67 L1662.95 1309.32 L1675.33 1305.97 L1687.58 1301.40 L1699.95 1296.82 L1712.33 1289.52 L1724.70 1283.95 L1737.08 1275.90 L1749.45 1270.83 L1761.83 1261.67 L1774.20 1252.27 L1786.45 1241.75 L1798.83 1228.88 L1811.20 1220.71 L1823.58 1209.45 L1835.95 1189.40 L1848.33 1183.09 L1860.70 1176.65 L1873.08 1158.09 L1885.33 1145.96 L1897.71 1146.33 L1910.08 1135.57 L1922.46 1121.33 L1934.83 1142.50 L1947.21 1137.42 L1959.58 1131.73 L1971.96 1130.24 L1984.21 1145.84 L1996.58 1147.20 L2008.96 1131.48 L2021.33 1129.75 L2033.71 1142.00 L2046.08 1148.06 L2058.46 1154.00 L2070.71 1169.85 L2083.08 1177.52 L2095.46 1177.77 L2107.83 1179.87 L2120.21 1187.54 L2132.58 1191.38 L2144.96 1211.06 L2157.33 1210.56 L2169.59 1227.51 L2181.96 1230.36 L2194.34 1209.94 L2206.71 1215.51 L2219.09 1219.35 L2231.46 1227.27 L2243.84 1239.39 L2256.21 1232.96 L2268.46 1230.73 L2280.84 1231.72 L2293.21 1233.83 L2305.59 1234.69 L2317.96 1236.42 L2330.34 1240.76 L2342.71 1242.98 L2354.96 1240.39 L2367.34 1249.42 L2379.71 1246.57 L2392.09 1247.69 L2404.46 1246.70 L2416.84 1248.43 L2429.21 1251.77 L2441.59 1249.05 L2453.84 1252.64 L2466.21 1254.37 L2478.59 1255.48 L2490.96 1268.97 L2503.34 1267.49 L2515.71 1276.64 L2528.09 1270.46" stroke-linejoin="round" style="fill:none;stroke:#1A476F;stroke-width:18.43"/>
	<path d=" M1638.20 1270.70 L1650.58 1270.70 L1662.95 1270.70 L1675.33 1270.70 L1687.58 1270.70 L1699.95 1270.70 L1712.33 1270.70 L1724.70 1270.70 L1737.08 1270.70 L1749.45 1270.70 L1761.83 1270.70 L1774.20 1270.70 L1786.45 1270.70 L1798.83 1270.70 L1811.20 1270.70 L1823.58 1250.29 L1835.95 1250.29 L1848.33 1250.29 L1860.70 1250.41 L1873.08 1250.66 L1885.33 1239.39 L1897.71 1231.23 L1910.08 1227.51 L1922.46 1220.34 L1934.83 1211.06 L1947.21 1200.29 L1959.58 1185.93 L1971.96 1177.02 L1984.21 1164.90 L1996.58 1155.74 L2008.96 1145.47 L2021.33 1136.31 L2033.71 1127.89 L2046.08 1125.42 L2058.46 1118.24 L2070.71 1117.25 L2083.08 1118.61 L2095.46 1123.44 L2107.83 1133.96 L2120.21 1144.97 L2132.58 1156.11 L2144.96 1170.09 L2157.33 1181.73 L2169.59 1191.50 L2181.96 1199.92 L2194.34 1204.62 L2206.71 1212.42 L2219.09 1218.60 L2231.46 1223.31 L2243.84 1229.25 L2256.21 1233.33 L2268.46 1235.43 L2280.84 1238.78 L2293.21 1239.77 L2305.59 1241.13 L2317.96 1242.98 L2330.34 1243.85 L2342.71 1244.96 L2354.96 1246.57 L2367.34 1247.07 L2379.71 1248.31 L2392.09 1248.06 L2404.46 1246.20 L2416.84 1244.72 L2429.21 1245.09 L2441.59 1244.72 L2453.84 1244.35 L2466.21 1245.46 L2478.59 1243.97 L2490.96 1244.59 L2503.34 1247.07 L2515.71 1243.48 L2528.09 1245.83" stroke-linejoin="round" style="fill:none;stroke:#90353B;stroke-width:18.43"/>
	<path d=" M1638.20 1294.59 L1650.58 1290.38 L1662.95 1289.39 L1675.33 1289.39 L1687.58 1286.30 L1699.95 1286.17 L1712.33 1279.61 L1724.70 1277.88 L1737.08 1275.41 L1749.45 1260.06 L1761.83 1256.23 L1774.20 1255.73 L1786.45 1250.90 L1798.83 1242.98 L1811.20 1241.75 L1823.58 1239.27 L1835.95 1226.40 L1848.33 1216.87 L1860.70 1206.23 L1873.08 1198.68 L1885.33 1192.86 L1897.71 1190.02 L1910.08 1185.93 L1922.46 1179.13 L1934.83 1175.91 L1947.21 1172.82 L1959.58 1168.11 L1971.96 1157.72 L1984.21 1153.39 L1996.58 1151.53 L2008.96 1151.65 L2021.33 1153.63 L2033.71 1147.57 L2046.08 1148.81 L2058.46 1153.63 L2070.71 1160.19 L2083.08 1165.14 L2095.46 1165.89 L2107.83 1167.25 L2120.21 1174.30 L2132.58 1179.00 L2144.96 1181.35 L2157.33 1177.02 L2169.59 1174.30 L2181.96 1177.39 L2194.34 1180.86 L2206.71 1191.38 L2219.09 1209.82 L2231.46 1231.72 L2243.84 1251.15 L2256.21 1264.27 L2268.46 1271.94 L2280.84 1277.51 L2293.21 1280.11 L2305.59 1280.73 L2317.96 1279.24 L2330.34 1276.27 L2342.71 1273.06 L2354.96 1269.22 L2367.34 1264.52 L2379.71 1261.55 L2392.09 1258.95 L2404.46 1256.60 L2416.84 1256.10 L2429.21 1254.49 L2441.59 1254.12 L2453.84 1255.85 L2466.21 1255.36 L2478.59 1255.36 L2490.96 1261.92 L2503.34 1263.53 L2515.71 1265.01 L2528.09 1264.89" stroke-linejoin="round" style="fill:none;stroke:#55752F;stroke-width:18.43"/>
	<path d=" M1638.20 1329.24 L1650.58 1329.24 L1662.95 1329.24 L1675.33 1329.24 L1687.58 1329.24 L1699.95 1321.44 L1712.33 1305.97 L1724.70 1290.38 L1737.08 1274.79 L1749.45 1251.40 L1761.83 1235.93 L1774.20 1228.13 L1786.45 1228.13 L1798.83 1212.54 L1811.20 1204.74 L1823.58 1189.15 L1835.95 1181.35 L1848.33 1173.68 L1860.70 1165.89 L1873.08 1158.09 L1885.33 1142.50 L1897.71 1134.70 L1910.08 1126.90 L1922.46 1111.31 L1934.83 1095.84 L1947.21 1088.04 L1959.58 1080.25 L1971.96 1080.25 L1984.21 1080.25 L1996.58 1072.45 L2008.96 1072.45 L2021.33 1072.45 L2033.71 1072.45 L2046.08 1080.25 L2058.46 1088.04 L2070.71 1095.84 L2083.08 1111.31 L2095.46 1134.70 L2107.83 1150.29 L2120.21 1158.09 L2132.58 1150.29 L2144.96 1165.89 L2157.33 1173.68 L2169.59 1189.15 L2181.96 1196.95 L2194.34 1204.74 L2206.71 1212.54 L2219.09 1220.34 L2231.46 1228.13 L2243.84 1235.93 L2256.21 1243.73 L2268.46 1243.73 L2280.84 1259.20 L2293.21 1266.99 L2305.59 1274.79 L2317.96 1282.59 L2330.34 1282.59 L2342.71 1290.38 L2354.96 1290.38 L2367.34 1290.38 L2379.71 1290.38 L2392.09 1290.38 L2404.46 1298.18 L2416.84 1305.97 L2429.21 1305.97 L2441.59 1305.97 L2453.84 1305.97 L2466.21 1305.97 L2478.59 1313.77 L2490.96 1313.77 L2503.34 1313.77 L2515.71 1313.77 L2528.09 1313.77" stroke-linejoin="round" style="fill:none;stroke:#E37E00;stroke-width:18.43"/>
	<path d=" M2797.37 1317.24 L2809.74 1313.28 L2822.12 1311.05 L2834.49 1307.83 L2846.87 1303.62 L2859.24 1299.29 L2871.62 1292.61 L2883.87 1287.29 L2896.24 1279.74 L2908.62 1275.04 L2920.99 1266.37 L2933.37 1257.59 L2945.74 1247.69 L2958.12 1235.68 L2970.49 1228.01 L2982.75 1217.49 L2995.12 1198.68 L3007.50 1192.74 L3019.87 1186.68 L3032.25 1169.23 L3044.62 1157.84 L3057.00 1158.34 L3069.37 1148.19 L3081.62 1134.82 L3094.00 1154.62 L3106.37 1149.92 L3118.75 1144.60 L3131.12 1143.24 L3143.50 1157.84 L3155.87 1159.08 L3168.12 1144.35 L3180.50 1142.74 L3192.87 1154.13 L3205.25 1159.82 L3217.62 1165.39 L3230.00 1180.36 L3242.37 1187.42 L3254.75 1187.79 L3267.00 1189.65 L3279.38 1196.95 L3291.75 1200.54 L3304.13 1218.98 L3316.50 1218.48 L3328.88 1234.32 L3341.25 1237.04 L3353.63 1217.86 L3365.88 1223.18 L3378.25 1226.77 L3390.63 1234.20 L3403.00 1245.46 L3415.38 1239.52 L3427.75 1237.41 L3440.13 1238.28 L3452.38 1240.26 L3464.75 1241.00 L3477.13 1242.74 L3489.50 1246.82 L3501.88 1248.92 L3514.25 1246.45 L3526.63 1254.86 L3539.00 1252.27 L3551.25 1253.26 L3563.63 1252.39 L3576.00 1254.00 L3588.38 1257.09 L3600.75 1254.62 L3613.13 1257.96 L3625.50 1259.44 L3637.88 1260.68 L3650.13 1273.18 L3662.51 1271.82 L3674.88 1280.48 L3687.26 1274.66" stroke-linejoin="round" style="fill:none;stroke:#1A476F;stroke-width:18.43"/>
	<path d=" M2797.37 1274.91 L2809.74 1274.91 L2822.12 1274.91 L2834.49 1274.91 L2846.87 1274.91 L2859.24 1274.91 L2871.62 1274.91 L2883.87 1274.91 L2896.24 1274.91 L2908.62 1274.91 L2920.99 1274.91 L2933.37 1274.91 L2945.74 1274.91 L2958.12 1274.91 L2970.49 1274.91 L2982.75 1254.37 L2995.12 1245.71 L3007.50 1236.80 L3019.87 1231.85 L3032.25 1225.91 L3044.62 1217.49 L3057.00 1208.21 L3069.37 1204.13 L3081.62 1198.31 L3094.00 1192.00 L3106.37 1181.35 L3118.75 1172.07 L3131.12 1163.53 L3143.50 1157.72 L3155.87 1148.68 L3168.12 1138.66 L3180.50 1130.37 L3192.87 1126.90 L3205.25 1126.78 L3217.62 1126.16 L3230.00 1129.50 L3242.37 1135.44 L3254.75 1143.98 L3267.00 1154.25 L3279.38 1165.51 L3291.75 1174.67 L3304.13 1185.56 L3316.50 1195.46 L3328.88 1205.24 L3341.25 1216.87 L3353.63 1228.01 L3365.88 1236.80 L3378.25 1245.34 L3390.63 1252.51 L3403.00 1257.96 L3415.38 1260.93 L3427.75 1260.56 L3440.13 1259.44 L3452.38 1258.95 L3464.75 1257.09 L3477.13 1254.62 L3489.50 1250.04 L3501.88 1247.07 L3514.25 1244.59 L3526.63 1242.74 L3539.00 1239.77 L3551.25 1238.16 L3563.63 1236.92 L3576.00 1237.79 L3588.38 1238.16 L3600.75 1239.39 L3613.13 1238.90 L3625.50 1239.64 L3637.88 1238.78 L3650.13 1241.13 L3662.51 1240.01 L3674.88 1237.91 L3687.26 1236.92" stroke-linejoin="round" style="fill:none;stroke:#90353B;stroke-width:18.43"/>
	<path d=" M2797.37 1309.19 L2809.74 1310.55 L2822.12 1312.66 L2834.49 1307.58 L2846.87 1303.62 L2859.24 1302.26 L2871.62 1294.59 L2883.87 1291.50 L2896.24 1289.02 L2908.62 1280.85 L2920.99 1275.53 L2933.37 1272.93 L2945.74 1265.88 L2958.12 1257.46 L2970.49 1255.48 L2982.75 1250.41 L2995.12 1232.71 L3007.50 1216.01 L3019.87 1205.12 L3032.25 1196.58 L3044.62 1190.88 L3057.00 1188.41 L3069.37 1185.56 L3081.62 1178.88 L3094.00 1177.77 L3106.37 1175.17 L3118.75 1170.71 L3131.12 1162.30 L3143.50 1157.35 L3155.87 1155.74 L3168.12 1156.97 L3180.50 1158.95 L3192.87 1158.34 L3205.25 1162.30 L3217.62 1168.11 L3230.00 1173.93 L3242.37 1178.51 L3254.75 1179.75 L3267.00 1182.10 L3279.38 1188.04 L3291.75 1191.87 L3304.13 1194.97 L3316.50 1195.21 L3328.88 1197.57 L3341.25 1206.60 L3353.63 1213.16 L3365.88 1222.56 L3378.25 1232.09 L3390.63 1241.38 L3403.00 1249.42 L3415.38 1255.98 L3427.75 1259.81 L3440.13 1265.88 L3452.38 1270.58 L3464.75 1274.42 L3477.13 1276.77 L3489.50 1277.76 L3501.88 1277.76 L3514.25 1278.50 L3526.63 1275.90 L3539.00 1272.93 L3551.25 1270.46 L3563.63 1268.35 L3576.00 1266.25 L3588.38 1263.53 L3600.75 1261.92 L3613.13 1263.40 L3625.50 1266.13 L3637.88 1269.34 L3650.13 1273.80 L3662.51 1276.64 L3674.88 1279.37 L3687.26 1281.97" stroke-linejoin="round" style="fill:none;stroke:#55752F;stroke-width:18.43"/>
	<path d=" M2797.37 1290.38 L2809.74 1290.38 L2822.12 1282.59 L2834.49 1282.59 L2846.87 1274.79 L2859.24 1274.79 L2871.62 1274.79 L2883.87 1266.99 L2896.24 1251.40 L2908.62 1235.93 L2920.99 1204.74 L2933.37 1189.15 L2945.74 1165.89 L2958.12 1158.09 L2970.49 1142.50 L2982.75 1134.70 L2995.12 1119.11 L3007.50 1095.84 L3019.87 1088.04 L3032.25 1088.04 L3044.62 1088.04 L3057.00 1072.45 L3069.37 1072.45 L3081.62 1080.25 L3094.00 1088.04 L3106.37 1088.04 L3118.75 1088.04 L3131.12 1080.25 L3143.50 1111.31 L3155.87 1111.31 L3168.12 1119.11 L3180.50 1119.11 L3192.87 1111.31 L3205.25 1103.51 L3217.62 1095.84 L3230.00 1103.51 L3242.37 1119.11 L3254.75 1119.11 L3267.00 1150.29 L3279.38 1165.89 L3291.75 1189.15 L3304.13 1196.95 L3316.50 1212.54 L3328.88 1212.54 L3341.25 1228.13 L3353.63 1243.73 L3365.88 1251.40 L3378.25 1251.40 L3390.63 1243.73 L3403.00 1251.40 L3415.38 1243.73 L3427.75 1228.13 L3440.13 1228.13 L3452.38 1228.13 L3464.75 1228.13 L3477.13 1228.13 L3489.50 1228.13 L3501.88 1228.13 L3514.25 1228.13 L3526.63 1228.13 L3539.00 1243.73 L3551.25 1251.40 L3563.63 1259.20 L3576.00 1259.20 L3588.38 1259.20 L3600.75 1274.79 L3613.13 1274.79 L3625.50 1274.79 L3637.88 1274.79 L3650.13 1274.79 L3662.51 1274.79 L3674.88 1282.59 L3687.26 1282.59" stroke-linejoin="round" style="fill:none;stroke:#E37E00;stroke-width:18.43"/>
	<path d=" M479.04 2049.24 L491.41 2048.25 L503.66 2047.63 L516.04 2046.89 L528.41 2045.78 L540.79 2044.54 L553.16 2042.81 L565.54 2041.44 L577.91 2039.46 L590.16 2038.23 L602.54 2036.00 L614.91 2033.65 L627.29 2031.05 L639.66 2027.95 L652.04 2025.97 L664.41 2023.13 L676.79 2018.18 L689.04 2016.69 L701.41 2015.08 L713.79 2010.51 L726.16 2007.54 L738.54 2007.66 L750.91 2004.94 L763.29 2001.47 L775.66 2006.67 L787.92 2005.43 L800.29 2004.07 L812.67 2003.70 L825.04 2007.54 L837.42 2007.78 L849.79 2003.95 L862.17 2003.58 L874.54 2006.55 L886.79 2008.03 L899.17 2009.52 L911.54 2013.35 L923.92 2015.33 L936.29 2015.33 L948.67 2015.83 L961.04 2017.81 L973.29 2018.67 L985.67 2023.50 L998.04 2023.38 L1010.42 2027.58 L1022.79 2028.33 L1035.17 2023.25 L1047.54 2024.61 L1059.92 2025.60 L1072.17 2027.58 L1084.55 2030.43 L1096.92 2028.94 L1109.30 2028.33 L1121.67 2028.57 L1134.05 2029.07 L1146.42 2029.32 L1158.80 2029.81 L1171.05 2030.80 L1183.42 2031.42 L1195.80 2030.68 L1208.17 2032.90 L1220.55 2032.29 L1232.92 2032.53 L1245.30 2032.29 L1257.55 2032.66 L1269.92 2033.52 L1282.30 2032.90 L1294.67 2033.77 L1307.05 2034.14 L1319.42 2034.51 L1331.80 2037.73 L1344.17 2037.36 L1356.42 2039.71 L1368.80 2038.10" stroke-linejoin="round" style="fill:none;stroke:#1A476F;stroke-width:18.43"/>
	<path d=" M479.04 2038.23 L491.41 2038.23 L503.66 2038.23 L516.04 2038.23 L528.41 2038.23 L540.79 2038.23 L553.16 2038.23 L565.54 2038.23 L577.91 2038.23 L590.16 2038.23 L602.54 2038.23 L614.91 2038.23 L627.29 2038.23 L639.66 2038.23 L652.04 2038.23 L664.41 2038.23 L676.79 2038.23 L689.04 2038.23 L701.41 2038.23 L713.79 2027.83 L726.16 2024.86 L738.54 2020.65 L750.91 2016.82 L763.29 2012.11 L775.66 2008.03 L787.92 2002.71 L800.29 1998.50 L812.67 1993.92 L825.04 1989.59 L837.42 1985.14 L849.79 1979.20 L862.17 1971.89 L874.54 1965.46 L886.79 1955.31 L899.17 1946.28 L911.54 1941.70 L923.92 1942.81 L936.29 1947.51 L948.67 1954.94 L961.04 1964.59 L973.29 1978.58 L985.67 1990.83 L998.04 2001.35 L1010.42 2009.27 L1022.79 2016.20 L1035.17 2021.77 L1047.54 2026.22 L1059.92 2029.56 L1072.17 2032.29 L1084.55 2034.02 L1096.92 2035.13 L1109.30 2036.00 L1121.67 2036.62 L1134.05 2036.99 L1146.42 2037.24 L1158.80 2037.85 L1171.05 2038.47 L1183.42 2039.09 L1195.80 2040.58 L1208.17 2041.20 L1220.55 2042.43 L1232.92 2047.14 L1245.30 1950.61 L1257.55 2034.51 L1269.92 2037.36 L1282.30 2038.60 L1294.67 2038.47 L1307.05 2036.25 L1319.42 2035.87 L1331.80 2036.49 L1344.17 2034.27 L1356.42 2033.40 L1368.80 2030.68" stroke-linejoin="round" style="fill:none;stroke:#90353B;stroke-width:18.43"/>
	<path d=" M479.04 2045.03 L491.41 2044.41 L503.66 2043.92 L516.04 2044.04 L528.41 2045.40 L540.79 2047.76 L553.16 2044.29 L565.54 2039.09 L577.91 2038.84 L590.16 2037.73 L602.54 2037.36 L614.91 2036.86 L627.29 2036.74 L639.66 2035.26 L652.04 2035.50 L664.41 2034.27 L676.79 2029.93 L689.04 2026.47 L701.41 2021.52 L713.79 2018.92 L726.16 2016.82 L738.54 2016.07 L750.91 2015.21 L763.29 2013.10 L775.66 2011.99 L787.92 2011.74 L800.29 2011.12 L812.67 2009.76 L825.04 2009.02 L837.42 2008.28 L849.79 2007.66 L862.17 2007.29 L874.54 2007.04 L886.79 2007.16 L899.17 2008.40 L911.54 2009.64 L923.92 2011.62 L936.29 2013.48 L948.67 2015.46 L961.04 2017.93 L973.29 2019.66 L985.67 2021.27 L998.04 2022.51 L1010.42 2023.87 L1022.79 2026.72 L1035.17 2028.82 L1047.54 2031.42 L1059.92 2034.02 L1072.17 2036.99 L1084.55 2039.22 L1096.92 2041.20 L1109.30 2042.56 L1121.67 2044.29 L1134.05 2045.16 L1146.42 2046.15 L1158.80 2047.14 L1171.05 2047.51 L1183.42 2047.63 L1195.80 2047.76 L1208.17 2047.88 L1220.55 2047.76 L1232.92 2047.38 L1245.30 2046.52 L1257.55 2045.40 L1269.92 2044.04 L1282.30 2042.81 L1294.67 2041.69 L1307.05 2041.32 L1319.42 2041.20 L1331.80 2041.44 L1344.17 2041.44 L1356.42 2041.57 L1368.80 2042.31" stroke-linejoin="round" style="fill:none;stroke:#55752F;stroke-width:18.43"/>
	<path d=" M479.04 2023.38 L491.41 2023.38 L503.66 2023.38 L516.04 1999.99 L528.41 1984.52 L540.79 1984.52 L553.16 1984.52 L565.54 1984.52 L577.91 1984.52 L590.16 1984.52 L602.54 1976.72 L614.91 1961.13 L627.29 1945.53 L639.66 1937.74 L652.04 1937.74 L664.41 1922.15 L676.79 1929.94 L689.04 1929.94 L701.41 1914.35 L713.79 1914.35 L726.16 1906.68 L738.54 1898.88 L750.91 1898.88 L763.29 1914.35 L775.66 1922.15 L787.92 1922.15 L800.29 1922.15 L812.67 1922.15 L825.04 1922.15 L837.42 1906.68 L849.79 1898.88 L862.17 1922.15 L874.54 1937.74 L886.79 1937.74 L899.17 1937.74 L911.54 1937.74 L923.92 1929.94 L936.29 1929.94 L948.67 1937.74 L961.04 1953.33 L973.29 1953.33 L985.67 1961.13 L998.04 1961.13 L1010.42 1968.92 L1022.79 1968.92 L1035.17 1968.92 L1047.54 1984.52 L1059.92 1984.52 L1072.17 1992.19 L1084.55 1999.99 L1096.92 1999.99 L1109.30 1999.99 L1121.67 1999.99 L1134.05 1999.99 L1146.42 1999.99 L1158.80 1999.99 L1171.05 1999.99 L1183.42 2015.58 L1195.80 2023.38 L1208.17 2015.58 L1220.55 2015.58 L1232.92 2015.58 L1245.30 2015.58 L1257.55 2015.58 L1269.92 2023.38 L1282.30 2023.38 L1294.67 2023.38 L1307.05 2023.38 L1319.42 2038.97 L1331.80 2031.17 L1344.17 2031.17 L1356.42 2038.97 L1368.80 2038.97" stroke-linejoin="round" style="fill:none;stroke:#E37E00;stroke-width:18.43"/>
	<line x1="416.05" y1="814.30" x2="416.05" y2="401.58" style="stroke:#000000;stroke-width:4.61"/>
	<line x1="416.05" y1="763.56" x2="384.00" y2="763.56" style="stroke:#000000;stroke-width:4.61"/>
	<text x="368.03" y="791.57" style="font-family:'Helvetica';font-size:79.94px;fill:#000000" text-anchor="end">0</text>
	<line x1="416.05" y1="685.72" x2="384.00" y2="685.72" style="stroke:#000000;stroke-width:4.61"/>
	<text x="368.03" y="713.73" style="font-family:'Helvetica';font-size:79.94px;fill:#000000" text-anchor="end">10</text>
	<line x1="416.05" y1="607.88" x2="384.00" y2="607.88" style="stroke:#000000;stroke-width:4.61"/>
	<text x="368.03" y="635.89" style="font-family:'Helvetica';font-size:79.94px;fill:#000000" text-anchor="end">20</text>
	<line x1="416.05" y1="530.04" x2="384.00" y2="530.04" style="stroke:#000000;stroke-width:4.61"/>
	<text x="368.03" y="558.05" style="font-family:'Helvetica';font-size:79.94px;fill:#000000" text-anchor="end">30</text>
	<line x1="416.05" y1="452.20" x2="384.00" y2="452.20" style="stroke:#000000;stroke-width:4.61"/>
	<text x="368.03" y="480.21" style="font-family:'Helvetica';font-size:79.94px;fill:#000000" text-anchor="end">40</text>
	<line x1="416.05" y1="1387.65" x2="416.05" y2="974.93" style="stroke:#000000;stroke-width:4.61"/>
	<line x1="416.05" y1="1337.04" x2="384.00" y2="1337.04" style="stroke:#000000;stroke-width:4.61"/>
	<text x="368.03" y="1365.05" style="font-family:'Helvetica';font-size:79.94px;fill:#000000" text-anchor="end">0</text>
	<line x1="416.05" y1="1259.20" x2="384.00" y2="1259.20" style="stroke:#000000;stroke-width:4.61"/>
	<text x="368.03" y="1287.21" style="font-family:'Helvetica';font-size:79.94px;fill:#000000" text-anchor="end">10</text>
	<line x1="416.05" y1="1181.35" x2="384.00" y2="1181.35" style="stroke:#000000;stroke-width:4.61"/>
	<text x="368.03" y="1209.37" style="font-family:'Helvetica';font-size:79.94px;fill:#000000" text-anchor="end">20</text>
	<line x1="416.05" y1="1103.51" x2="384.00" y2="1103.51" style="stroke:#000000;stroke-width:4.61"/>
	<text x="368.03" y="1131.52" style="font-family:'Helvetica';font-size:79.94px;fill:#000000" text-anchor="end">30</text>
	<line x1="416.05" y1="1025.67" x2="384.00" y2="1025.67" style="stroke:#000000;stroke-width:4.61"/>
	<text x="368.03" y="1053.68" style="font-family:'Helvetica';font-size:79.94px;fill:#000000" text-anchor="end">40</text>
	<line x1="416.05" y1="2105.18" x2="416.05" y2="1692.46" style="stroke:#000000;stroke-width:4.61"/>
	<line x1="416.05" y1="2054.44" x2="384.00" y2="2054.44" style="stroke:#000000;stroke-width:4.61"/>
	<text x="368.03" y="2082.45" style="font-family:'Helvetica';font-size:79.94px;fill:#000000" text-anchor="end">0</text>
	<line x1="416.05" y1="1976.60" x2="384.00" y2="1976.60" style="stroke:#000000;stroke-width:4.61"/>
	<text x="368.03" y="2004.61" style="font-family:'Helvetica';font-size:79.94px;fill:#000000" text-anchor="end">10</text>
	<line x1="416.05" y1="1898.76" x2="384.00" y2="1898.76" style="stroke:#000000;stroke-width:4.61"/>
	<text x="368.03" y="1926.77" style="font-family:'Helvetica';font-size:79.94px;fill:#000000" text-anchor="end">20</text>
	<line x1="416.05" y1="1820.91" x2="384.00" y2="1820.91" style="stroke:#000000;stroke-width:4.61"/>
	<text x="368.03" y="1848.93" style="font-family:'Helvetica';font-size:79.94px;fill:#000000" text-anchor="end">30</text>
	<line x1="416.05" y1="1743.07" x2="384.00" y2="1743.07" style="stroke:#000000;stroke-width:4.61"/>
	<text x="368.03" y="1771.08" style="font-family:'Helvetica';font-size:79.94px;fill:#000000" text-anchor="end">40</text>
	<line x1="1575.21" y1="1387.65" x2="2665.33" y2="1387.65" style="stroke:#000000;stroke-width:4.61"/>
	<line x1="1625.95" y1="1387.65" x2="1625.95" y2="1419.70" style="stroke:#000000;stroke-width:4.61"/>
	<text x="1625.95" y="1491.57" style="font-family:'Helvetica';font-size:79.94px;fill:#000000" text-anchor="middle">0</text>
	<line x1="1873.08" y1="1387.65" x2="1873.08" y2="1419.70" style="stroke:#000000;stroke-width:4.61"/>
	<text x="1873.08" y="1491.57" style="font-family:'Helvetica';font-size:79.94px;fill:#000000" text-anchor="middle">20</text>
	<line x1="2120.21" y1="1387.65" x2="2120.21" y2="1419.70" style="stroke:#000000;stroke-width:4.61"/>
	<text x="2120.21" y="1491.57" style="font-family:'Helvetica';font-size:79.94px;fill:#000000" text-anchor="middle">40</text>
	<line x1="2367.46" y1="1387.65" x2="2367.46" y2="1419.70" style="stroke:#000000;stroke-width:4.61"/>
	<text x="2367.46" y="1491.57" style="font-family:'Helvetica';font-size:79.94px;fill:#000000" text-anchor="middle">60</text>
	<line x1="2614.59" y1="1387.65" x2="2614.59" y2="1419.70" style="stroke:#000000;stroke-width:4.61"/>
	<text x="2614.59" y="1491.57" style="font-family:'Helvetica';font-size:79.94px;fill:#000000" text-anchor="middle">80</text>
	<line x1="2734.38" y1="1387.65" x2="3824.49" y2="1387.65" style="stroke:#000000;stroke-width:4.61"/>
	<line x1="2785.12" y1="1387.65" x2="2785.12" y2="1419.70" style="stroke:#000000;stroke-width:4.61"/>
	<text x="2785.12" y="1491.57" style="font-family:'Helvetica';font-size:79.94px;fill:#000000" text-anchor="middle">0</text>
	<line x1="3032.25" y1="1387.65" x2="3032.25" y2="1419.70" style="stroke:#000000;stroke-width:4.61"/>
	<text x="3032.25" y="1491.57" style="font-family:'Helvetica';font-size:79.94px;fill:#000000" text-anchor="middle">20</text>
	<line x1="3279.50" y1="1387.65" x2="3279.50" y2="1419.70" style="stroke:#000000;stroke-width:4.61"/>
	<text x="3279.50" y="1491.57" style="font-family:'Helvetica';font-size:79.94px;fill:#000000" text-anchor="middle">40</text>
	<line x1="3526.63" y1="1387.65" x2="3526.63" y2="1419.70" style="stroke:#000000;stroke-width:4.61"/>
	<text x="3526.63" y="1491.57" style="font-family:'Helvetica';font-size:79.94px;fill:#000000" text-anchor="middle">60</text>
	<line x1="3773.88" y1="1387.65" x2="3773.88" y2="1419.70" style="stroke:#000000;stroke-width:4.61"/>
	<text x="3773.88" y="1491.57" style="font-family:'Helvetica';font-size:79.94px;fill:#000000" text-anchor="middle">80</text>
	<line x1="416.05" y1="2105.18" x2="1506.16" y2="2105.18" style="stroke:#000000;stroke-width:4.61"/>
	<line x1="466.66" y1="2105.18" x2="466.66" y2="2137.11" style="stroke:#000000;stroke-width:4.61"/>
	<text x="466.66" y="2208.97" style="font-family:'Helvetica';font-size:79.94px;fill:#000000" text-anchor="middle">0</text>
	<line x1="713.91" y1="2105.18" x2="713.91" y2="2137.11" style="stroke:#000000;stroke-width:4.61"/>
	<text x="713.91" y="2208.97" style="font-family:'Helvetica';font-size:79.94px;fill:#000000" text-anchor="middle">20</text>
	<line x1="961.04" y1="2105.18" x2="961.04" y2="2137.11" style="stroke:#000000;stroke-width:4.61"/>
	<text x="961.04" y="2208.97" style="font-family:'Helvetica';font-size:79.94px;fill:#000000" text-anchor="middle">40</text>
	<line x1="1208.30" y1="2105.18" x2="1208.30" y2="2137.11" style="stroke:#000000;stroke-width:4.61"/>
	<text x="1208.30" y="2208.97" style="font-family:'Helvetica';font-size:79.94px;fill:#000000" text-anchor="middle">60</text>
	<line x1="1455.42" y1="2105.18" x2="1455.42" y2="2137.11" style="stroke:#000000;stroke-width:4.61"/>
	<text x="1455.42" y="2208.97" style="font-family:'Helvetica';font-size:79.94px;fill:#000000" text-anchor="middle">80</text>
	<rect x="416.05" y="309.88" width="1090.11" height="91.70" style="fill:#D9E6EB"/>
	<rect x="418.35" y="312.18" width="1085.51" height="87.09" style="fill:none;stroke:#D9E6EB;stroke-width:4.61"/>
	<text x="961.04" y="368.46" style="font-family:'Helvetica';font-size:63.98px;fill:#000000" text-anchor="middle">Birmingham and Solihull</text>
	<rect x="1575.21" y="309.88" width="1090.11" height="91.70" style="fill:#D9E6EB"/>
	<rect x="1577.52" y="312.18" width="1085.51" height="87.09" style="fill:none;stroke:#D9E6EB;stroke-width:4.61"/>
	<text x="2120.21" y="368.46" style="font-family:'Helvetica';font-size:63.98px;fill:#000000" text-anchor="middle">Leicester, Leicestershire and Rutland</text>
	<rect x="2734.38" y="309.88" width="1090.11" height="91.70" style="fill:#D9E6EB"/>
	<rect x="2736.68" y="312.18" width="1085.51" height="87.09" style="fill:none;stroke:#D9E6EB;stroke-width:4.61"/>
	<text x="3279.50" y="368.46" style="font-family:'Helvetica';font-size:63.98px;fill:#000000" text-anchor="middle">Lincolnshire</text>
	<rect x="416.05" y="883.36" width="1090.11" height="91.58" style="fill:#D9E6EB"/>
	<rect x="418.35" y="885.66" width="1085.51" height="86.97" style="fill:none;stroke:#D9E6EB;stroke-width:4.61"/>
	<text x="961.04" y="941.94" style="font-family:'Helvetica';font-size:63.98px;fill:#000000" text-anchor="middle">Northamptonshire</text>
	<rect x="1575.21" y="883.36" width="1090.11" height="91.58" style="fill:#D9E6EB"/>
	<rect x="1577.52" y="885.66" width="1085.51" height="86.97" style="fill:none;stroke:#D9E6EB;stroke-width:4.61"/>
	<text x="2120.21" y="941.94" style="font-family:'Helvetica';font-size:63.98px;fill:#000000" text-anchor="middle">Nottinghamshire</text>
	<rect x="2734.38" y="883.36" width="1090.11" height="91.58" style="fill:#D9E6EB"/>
	<rect x="2736.68" y="885.66" width="1085.51" height="86.97" style="fill:none;stroke:#D9E6EB;stroke-width:4.61"/>
	<text x="3279.50" y="941.94" style="font-family:'Helvetica';font-size:63.98px;fill:#000000" text-anchor="middle">Staffordshire/Derbyshire</text>
	<rect x="416.05" y="1600.76" width="1090.11" height="91.70" style="fill:#D9E6EB"/>
	<rect x="418.35" y="1603.06" width="1085.51" height="87.09" style="fill:none;stroke:#D9E6EB;stroke-width:4.61"/>
	<text x="961.04" y="1659.34" style="font-family:'Helvetica';font-size:63.98px;fill:#000000" text-anchor="middle">The Black Country</text>
	<rect x="432.38" y="2418.27" width="3195.10" height="326.34" style="fill:#FFFFFF"/>
	<rect x="435.26" y="2421.15" width="3189.34" height="320.58" style="fill:none;stroke:#000000;stroke-width:5.76"/>
	<line x1="475.57" y1="2511.46" x2="850.04" y2="2511.46" style="stroke:#1A476F;stroke-width:23.04"/>
	<line x1="2032.84" y1="2511.46" x2="2407.18" y2="2511.46" style="stroke:#90353B;stroke-width:23.04"/>
	<line x1="475.57" y1="2651.43" x2="850.04" y2="2651.43" style="stroke:#55752F;stroke-width:23.04"/>
	<line x1="2032.84" y1="2651.43" x2="2407.18" y2="2651.43" style="stroke:#E37E00;stroke-width:23.04"/>
	<text x="909.93" y="2546.49" style="font-family:'Helvetica';font-size:99.99px;fill:#000000">Crude</text>
	<text x="2467.20" y="2546.49" style="font-family:'Helvetica';font-size:99.99px;fill:#000000">Force of infection</text>
	<text x="909.93" y="2686.46" style="font-family:'Helvetica';font-size:99.99px;fill:#000000">Smoothed A &amp; E rate</text>
	<text x="2467.20" y="2686.46" style="font-family:'Helvetica';font-size:99.99px;fill:#000000">GP suspected case rate</text>
	<text x="170.79" y="1279.49" style="font-family:'Helvetica';font-size:99.99px;fill:#000000" transform="rotate(-90 170.79,1279.49)" text-anchor="middle">Expected number of cases</text>
	<text x="2029.99" y="2353.56" style="font-family:'Helvetica';font-size:99.99px;fill:#000000" text-anchor="middle"></text>
	<text x="2029.99" y="215.98" style="font-family:'Helvetica';font-size:139.96px;fill:#1E2D53" text-anchor="middle">Midlands</text>
</svg>
