<?xml version="1.0" encoding="UTF-8" standalone="no"?>
<!-- This is a Stata 16.1 generated SVG file (http://www.stata.com) -->

<svg version="1.1" width="5.50in" height="4.00in" viewBox="0 0 3960 2880" xmlns="http://www.w3.org/2000/svg" xmlns:xlink="http://www.w3.org/1999/xlink">
	<desc>Stata Graph - Graph</desc>
	<rect x="0" y="0" width="3960" height="2880" style="fill:#EAF2F3;stroke:none"/>
	<rect x="0.00" y="0.00" width="3959.88" height="2880.00" style="fill:#EAF2F3"/>
	<rect x="2.88" y="2.88" width="3954.12" height="2874.24" style="fill:none;stroke:#EAF2F3;stroke-width:5.76"/>
	<rect x="461.22" y="424.48" width="3363.28" height="1644.69" style="fill:#FFFFFF"/>
	<rect x="464.10" y="427.36" width="3357.52" height="1638.93" style="fill:none;stroke:#FFFFFF;stroke-width:5.76"/>
	<line x1="461.22" y1="2005.80" x2="3824.49" y2="2005.80" style="stroke:#EAF2F3;stroke-width:8.64"/>
	<line x1="461.22" y1="1675.75" x2="3824.49" y2="1675.75" style="stroke:#EAF2F3;stroke-width:8.64"/>
	<line x1="461.22" y1="1345.82" x2="3824.49" y2="1345.82" style="stroke:#EAF2F3;stroke-width:8.64"/>
	<line x1="461.22" y1="1015.77" x2="3824.49" y2="1015.77" style="stroke:#EAF2F3;stroke-width:8.64"/>
	<path d=" M564.92 1897.02 L605.38 1874.62 L645.85 1862.50 L686.32 1844.80 L726.78 1824.26 L767.25 1804.83 L807.72 1771.29 L848.18 1745.80 L888.65 1714.86 L928.99 1683.67 L969.46 1650.13 L1009.92 1614.74 L1050.39 1579.97 L1090.86 1549.77 L1131.32 1514.62 L1171.79 1479.11 L1212.26 1432.45 L1252.72 1430.59 L1293.19 1393.84 L1333.65 1353.25 L1374.12 1319.59 L1414.59 1277.63 L1455.05 1241.50 L1495.52 1176.28 L1535.86 1165.76 L1576.33 1087.80 L1616.79 1007.73 L1657.26 940.65 L1697.73 888.92 L1738.19 893.01 L1778.66 903.40 L1819.13 936.32 L1859.59 1008.10 L1900.06 1081.73 L1940.52 1158.34 L1980.99 1218.60 L2021.46 1303.38 L2061.92 1413.52 L2102.39 1459.80 L2142.73 1517.84 L2183.20 1548.90 L2223.66 1610.16 L2264.13 1592.96 L2304.60 1626.37 L2345.06 1672.04 L2385.53 1636.40 L2425.99 1655.46 L2466.46 1676.00 L2506.93 1696.05 L2547.39 1692.46 L2587.86 1693.32 L2628.33 1720.30 L2668.79 1731.07 L2709.14 1739.73 L2749.60 1749.01 L2790.07 1757.92 L2830.53 1758.91 L2871.00 1758.54 L2911.47 1780.08 L2951.93 1804.21 L2992.40 1797.65 L3032.86 1809.03 L3073.33 1807.55 L3113.80 1799.63 L3154.26 1811.63 L3194.73 1822.03 L3235.20 1832.92 L3275.66 1834.77 L3316.01 1836.75 L3356.47 1853.09 L3396.94 1839.85 L3437.40 1853.96 L3477.87 1860.64" stroke-linejoin="round" style="fill:none;stroke:#1A476F;stroke-width:23.04"/>
	<path d=" M564.92 1829.45 L605.38 1829.45 L645.85 1829.45 L686.32 1829.45 L726.78 1829.45 L767.25 1829.45 L807.72 1829.45 L848.18 1829.45 L888.65 1829.45 L928.99 1829.45 L969.46 1829.45 L1009.92 1780.32 L1050.39 1780.45 L1090.86 1758.79 L1131.32 1758.42 L1171.79 1740.97 L1212.26 1728.10 L1252.72 1710.65 L1293.19 1704.09 L1333.65 1692.21 L1374.12 1686.15 L1414.59 1670.68 L1455.05 1663.25 L1495.52 1653.35 L1535.86 1645.93 L1576.33 1638.75 L1616.79 1630.70 L1657.26 1623.53 L1697.73 1617.83 L1738.19 1609.79 L1778.66 1606.08 L1819.13 1606.20 L1859.59 1606.94 L1900.06 1610.16 L1940.52 1615.85 L1980.99 1621.67 L2021.46 1632.68 L2061.92 1645.31 L2102.39 1651.25 L2142.73 1661.27 L2183.20 1672.04 L2223.66 1679.71 L2264.13 1691.22 L2304.60 1700.13 L2345.06 1709.91 L2385.53 1723.77 L2425.99 1736.51 L2466.46 1744.19 L2506.93 1751.98 L2547.39 1758.79 L2587.86 1765.84 L2628.33 1766.83 L2668.79 1770.79 L2709.14 1771.41 L2749.60 1773.15 L2790.07 1775.87 L2830.53 1775.62 L2871.00 1773.64 L2911.47 1771.91 L2951.93 1768.81 L2992.40 1769.43 L3032.86 1765.23 L3073.33 1768.20 L3113.80 1774.63 L3154.26 1783.91 L3194.73 1798.51 L3235.20 1799.75 L3275.66 1801.49 L3316.01 1812.00 L3356.47 1793.44 L3396.94 1788.24 L3437.40 1782.80 L3477.87 1776.98" stroke-linejoin="round" style="fill:none;stroke:#90353B;stroke-width:23.04"/>
	<path d=" M564.92 1895.91 L605.38 1878.34 L645.85 1872.52 L686.32 1867.45 L726.78 1859.15 L767.25 1847.77 L807.72 1836.26 L848.18 1825.00 L888.65 1823.64 L928.99 1797.15 L969.46 1769.31 L1009.92 1754.83 L1050.39 1740.23 L1090.86 1717.58 L1131.32 1719.06 L1171.79 1715.60 L1212.26 1673.89 L1252.72 1645.43 L1293.19 1620.19 L1333.65 1598.65 L1374.12 1578.36 L1414.59 1574.89 L1455.05 1570.68 L1495.52 1554.72 L1535.86 1545.07 L1576.33 1536.53 L1616.79 1524.28 L1657.26 1513.39 L1697.73 1505.47 L1738.19 1501.38 L1778.66 1498.91 L1819.13 1502.00 L1859.59 1505.96 L1900.06 1514.99 L1940.52 1527.12 L1980.99 1540.24 L2021.46 1552.49 L2061.92 1564.25 L2102.39 1575.76 L2142.73 1588.50 L2183.20 1600.39 L2223.66 1614.62 L2264.13 1623.16 L2304.60 1635.65 L2345.06 1667.71 L2385.53 1696.54 L2425.99 1734.29 L2466.46 1775.87 L2506.93 1815.22 L2547.39 1843.07 L2587.86 1862.25 L2628.33 1872.02 L2668.79 1884.77 L2709.14 1893.81 L2749.60 1901.97 L2790.07 1907.42 L2830.53 1909.03 L2871.00 1908.16 L2911.47 1910.26 L2951.93 1909.03 L2992.40 1907.29 L3032.86 1905.07 L3073.33 1901.60 L3113.80 1898.14 L3154.26 1891.58 L3194.73 1886.38 L3235.20 1884.77 L3275.66 1881.93 L3316.01 1881.43 L3356.47 1886.01 L3396.94 1885.27 L3437.40 1884.40 L3477.87 1887.99" stroke-linejoin="round" style="fill:none;stroke:#55752F;stroke-width:23.04"/>
	<path d=" M564.92 1543.83 L605.38 1411.91 L645.85 1345.82 L686.32 1279.86 L726.78 1213.90 L767.25 1213.90 L807.72 1213.90 L848.18 1147.82 L888.65 1015.90 L928.99 1015.90 L969.46 949.81 L1009.92 949.81 L1050.39 883.85 L1090.86 817.89 L1131.32 817.89 L1171.79 619.88 L1212.26 619.88 L1252.72 619.88 L1293.19 553.92 L1333.65 619.88 L1374.12 619.88 L1414.59 619.88 L1455.05 619.88 L1495.52 619.88 L1535.86 685.84 L1576.33 553.92 L1616.79 487.84 L1657.26 619.88 L1697.73 619.88 L1738.19 751.93 L1778.66 817.89 L1819.13 883.85 L1859.59 883.85 L1900.06 817.89 L1940.52 817.89 L1980.99 817.89 L2021.46 949.81 L2061.92 949.81 L2102.39 1015.90 L2142.73 1015.90 L2183.20 1081.86 L2223.66 1147.82 L2264.13 1147.82 L2304.60 1345.82 L2345.06 1345.82 L2385.53 1345.82 L2425.99 1411.91 L2466.46 1477.87 L2506.93 1477.87 L2547.39 1477.87 L2587.86 1477.87 L2628.33 1477.87 L2668.79 1477.87 L2709.14 1609.79 L2749.60 1675.87 L2790.07 1741.84 L2830.53 1741.84 L2871.00 1741.84 L2911.47 1741.84 L2951.93 1741.84 L2992.40 1807.80 L3032.86 1873.88 L3073.33 1873.88 L3113.80 1939.84 L3154.26 1939.84 L3194.73 1939.84 L3235.20 1939.84 L3275.66 1939.84 L3316.01 1939.84 L3356.47 1939.84 L3396.94 1939.84 L3437.40 1873.88 L3477.87 1873.88" stroke-linejoin="round" style="fill:none;stroke:#E37E00;stroke-width:23.04"/>
	<line x1="461.22" y1="2069.16" x2="461.22" y2="424.48" style="stroke:#000000;stroke-width:5.76"/>
	<line x1="461.22" y1="2005.80" x2="421.12" y2="2005.80" style="stroke:#000000;stroke-width:5.76"/>
	<text x="401.20" y="2040.83" style="font-family:'Helvetica';font-size:99.99px;fill:#000000" text-anchor="end">0</text>
	<line x1="461.22" y1="1675.75" x2="421.12" y2="1675.75" style="stroke:#000000;stroke-width:5.76"/>
	<text x="401.20" y="1710.78" style="font-family:'Helvetica';font-size:99.99px;fill:#000000" text-anchor="end">5</text>
	<line x1="461.22" y1="1345.82" x2="421.12" y2="1345.82" style="stroke:#000000;stroke-width:5.76"/>
	<text x="401.20" y="1380.85" style="font-family:'Helvetica';font-size:99.99px;fill:#000000" text-anchor="end">10</text>
	<line x1="461.22" y1="1015.77" x2="421.12" y2="1015.77" style="stroke:#000000;stroke-width:5.76"/>
	<text x="401.20" y="1050.80" style="font-family:'Helvetica';font-size:99.99px;fill:#000000" text-anchor="end">15</text>
	<line x1="461.22" y1="2069.16" x2="3824.49" y2="2069.16" style="stroke:#000000;stroke-width:5.76"/>
	<line x1="524.58" y1="2069.16" x2="524.58" y2="2109.14" style="stroke:#000000;stroke-width:5.76"/>
	<text x="524.58" y="2199.12" style="font-family:'Helvetica';font-size:99.99px;fill:#000000" text-anchor="middle">0</text>
	<line x1="1333.65" y1="2069.16" x2="1333.65" y2="2109.14" style="stroke:#000000;stroke-width:5.76"/>
	<text x="1333.65" y="2199.12" style="font-family:'Helvetica';font-size:99.99px;fill:#000000" text-anchor="middle">20</text>
	<line x1="2142.86" y1="2069.16" x2="2142.86" y2="2109.14" style="stroke:#000000;stroke-width:5.76"/>
	<text x="2142.86" y="2199.12" style="font-family:'Helvetica';font-size:99.99px;fill:#000000" text-anchor="middle">40</text>
	<line x1="2952.06" y1="2069.16" x2="2952.06" y2="2109.14" style="stroke:#000000;stroke-width:5.76"/>
	<text x="2952.06" y="2199.12" style="font-family:'Helvetica';font-size:99.99px;fill:#000000" text-anchor="middle">60</text>
	<line x1="3761.13" y1="2069.16" x2="3761.13" y2="2109.14" style="stroke:#000000;stroke-width:5.76"/>
	<text x="3761.13" y="2199.12" style="font-family:'Helvetica';font-size:99.99px;fill:#000000" text-anchor="middle">80</text>
	<rect x="461.22" y="309.88" width="3363.28" height="114.60" style="fill:#D9E6EB"/>
	<rect x="464.10" y="312.76" width="3357.52" height="108.84" style="fill:none;stroke:#D9E6EB;stroke-width:5.76"/>
	<text x="2142.86" y="383.10" style="font-family:'Helvetica';font-size:79.94px;fill:#000000" text-anchor="middle">London</text>
	<rect x="432.38" y="2418.27" width="3195.10" height="326.34" style="fill:#FFFFFF"/>
	<rect x="435.26" y="2421.15" width="3189.34" height="320.58" style="fill:none;stroke:#000000;stroke-width:5.76"/>
	<line x1="475.57" y1="2511.46" x2="850.04" y2="2511.46" style="stroke:#1A476F;stroke-width:23.04"/>
	<line x1="2166.99" y1="2511.46" x2="2541.45" y2="2511.46" style="stroke:#90353B;stroke-width:23.04"/>
	<line x1="475.57" y1="2651.43" x2="850.04" y2="2651.43" style="stroke:#55752F;stroke-width:23.04"/>
	<line x1="2166.99" y1="2651.43" x2="2541.45" y2="2651.43" style="stroke:#E37E00;stroke-width:23.04"/>
	<text x="909.93" y="2546.49" style="font-family:'Helvetica';font-size:99.99px;fill:#000000">Force of infection</text>
	<text x="2601.35" y="2546.49" style="font-family:'Helvetica';font-size:99.99px;fill:#000000">Smoothed A &amp; E rate</text>
	<text x="909.93" y="2686.46" style="font-family:'Helvetica';font-size:99.99px;fill:#000000">GP suspected case rate</text>
	<text x="2601.35" y="2686.46" style="font-family:'Helvetica';font-size:99.99px;fill:#000000">Crude numbers</text>
	<text x="170.79" y="1279.49" style="font-family:'Helvetica';font-size:99.99px;fill:#000000" transform="rotate(-90 170.79,1279.49)" text-anchor="middle">Expected number of cases</text>
	<text x="2029.99" y="2353.56" style="font-family:'Helvetica';font-size:99.99px;fill:#000000" text-anchor="middle"> </text>
	<text x="2029.99" y="215.98" style="font-family:'Helvetica';font-size:139.96px;fill:#1E2D53" text-anchor="middle">London</text>
</svg>
