<?xml version="1.0" encoding="UTF-8" standalone="no"?>
<!-- This is a Stata 16.1 generated SVG file (http://www.stata.com) -->

<svg version="1.1" width="5.50in" height="4.00in" viewBox="0 0 3960 2880" xmlns="http://www.w3.org/2000/svg" xmlns:xlink="http://www.w3.org/1999/xlink">
	<desc>Stata Graph - Graph</desc>
	<rect x="0" y="0" width="3960" height="2880" style="fill:#EAF2F3;stroke:none"/>
	<rect x="0.00" y="0.00" width="3959.88" height="2880.00" style="fill:#EAF2F3"/>
	<rect x="2.88" y="2.88" width="3954.12" height="2874.24" style="fill:none;stroke:#EAF2F3;stroke-width:5.76"/>
	<rect x="416.05" y="401.58" width="1090.11" height="412.72" style="fill:#FFFFFF"/>
	<rect x="418.35" y="403.89" width="1085.51" height="408.11" style="fill:none;stroke:#FFFFFF;stroke-width:4.61"/>
	<line x1="416.05" y1="763.56" x2="1506.16" y2="763.56" style="stroke:#EAF2F3;stroke-width:6.91"/>
	<line x1="416.05" y1="685.72" x2="1506.16" y2="685.72" style="stroke:#EAF2F3;stroke-width:6.91"/>
	<line x1="416.05" y1="607.88" x2="1506.16" y2="607.88" style="stroke:#EAF2F3;stroke-width:6.91"/>
	<line x1="416.05" y1="530.04" x2="1506.16" y2="530.04" style="stroke:#EAF2F3;stroke-width:6.91"/>
	<line x1="416.05" y1="452.20" x2="1506.16" y2="452.20" style="stroke:#EAF2F3;stroke-width:6.91"/>
	<rect x="1575.21" y="401.58" width="1090.11" height="412.72" style="fill:#FFFFFF"/>
	<rect x="1577.52" y="403.89" width="1085.51" height="408.11" style="fill:none;stroke:#FFFFFF;stroke-width:4.61"/>
	<line x1="1575.21" y1="763.56" x2="2665.33" y2="763.56" style="stroke:#EAF2F3;stroke-width:6.91"/>
	<line x1="1575.21" y1="685.72" x2="2665.33" y2="685.72" style="stroke:#EAF2F3;stroke-width:6.91"/>
	<line x1="1575.21" y1="607.88" x2="2665.33" y2="607.88" style="stroke:#EAF2F3;stroke-width:6.91"/>
	<line x1="1575.21" y1="530.04" x2="2665.33" y2="530.04" style="stroke:#EAF2F3;stroke-width:6.91"/>
	<line x1="1575.21" y1="452.20" x2="2665.33" y2="452.20" style="stroke:#EAF2F3;stroke-width:6.91"/>
	<rect x="2734.38" y="401.58" width="1090.11" height="412.72" style="fill:#FFFFFF"/>
	<rect x="2736.68" y="403.89" width="1085.51" height="408.11" style="fill:none;stroke:#FFFFFF;stroke-width:4.61"/>
	<line x1="2734.38" y1="763.56" x2="3824.49" y2="763.56" style="stroke:#EAF2F3;stroke-width:6.91"/>
	<line x1="2734.38" y1="685.72" x2="3824.49" y2="685.72" style="stroke:#EAF2F3;stroke-width:6.91"/>
	<line x1="2734.38" y1="607.88" x2="3824.49" y2="607.88" style="stroke:#EAF2F3;stroke-width:6.91"/>
	<line x1="2734.38" y1="530.04" x2="3824.49" y2="530.04" style="stroke:#EAF2F3;stroke-width:6.91"/>
	<line x1="2734.38" y1="452.20" x2="3824.49" y2="452.20" style="stroke:#EAF2F3;stroke-width:6.91"/>
	<rect x="416.05" y="974.93" width="1090.11" height="412.72" style="fill:#FFFFFF"/>
	<rect x="418.35" y="977.24" width="1085.51" height="408.11" style="fill:none;stroke:#FFFFFF;stroke-width:4.61"/>
	<line x1="416.05" y1="1337.04" x2="1506.16" y2="1337.04" style="stroke:#EAF2F3;stroke-width:6.91"/>
	<line x1="416.05" y1="1259.20" x2="1506.16" y2="1259.20" style="stroke:#EAF2F3;stroke-width:6.91"/>
	<line x1="416.05" y1="1181.35" x2="1506.16" y2="1181.35" style="stroke:#EAF2F3;stroke-width:6.91"/>
	<line x1="416.05" y1="1103.51" x2="1506.16" y2="1103.51" style="stroke:#EAF2F3;stroke-width:6.91"/>
	<line x1="416.05" y1="1025.67" x2="1506.16" y2="1025.67" style="stroke:#EAF2F3;stroke-width:6.91"/>
	<rect x="1575.21" y="974.93" width="1090.11" height="412.72" style="fill:#FFFFFF"/>
	<rect x="1577.52" y="977.24" width="1085.51" height="408.11" style="fill:none;stroke:#FFFFFF;stroke-width:4.61"/>
	<line x1="1575.21" y1="1337.04" x2="2665.33" y2="1337.04" style="stroke:#EAF2F3;stroke-width:6.91"/>
	<line x1="1575.21" y1="1259.20" x2="2665.33" y2="1259.20" style="stroke:#EAF2F3;stroke-width:6.91"/>
	<line x1="1575.21" y1="1181.35" x2="2665.33" y2="1181.35" style="stroke:#EAF2F3;stroke-width:6.91"/>
	<line x1="1575.21" y1="1103.51" x2="2665.33" y2="1103.51" style="stroke:#EAF2F3;stroke-width:6.91"/>
	<line x1="1575.21" y1="1025.67" x2="2665.33" y2="1025.67" style="stroke:#EAF2F3;stroke-width:6.91"/>
	<rect x="2734.38" y="974.93" width="1090.11" height="412.72" style="fill:#FFFFFF"/>
	<rect x="2736.68" y="977.24" width="1085.51" height="408.11" style="fill:none;stroke:#FFFFFF;stroke-width:4.61"/>
	<line x1="2734.38" y1="1337.04" x2="3824.49" y2="1337.04" style="stroke:#EAF2F3;stroke-width:6.91"/>
	<line x1="2734.38" y1="1259.20" x2="3824.49" y2="1259.20" style="stroke:#EAF2F3;stroke-width:6.91"/>
	<line x1="2734.38" y1="1181.35" x2="3824.49" y2="1181.35" style="stroke:#EAF2F3;stroke-width:6.91"/>
	<line x1="2734.38" y1="1103.51" x2="3824.49" y2="1103.51" style="stroke:#EAF2F3;stroke-width:6.91"/>
	<line x1="2734.38" y1="1025.67" x2="3824.49" y2="1025.67" style="stroke:#EAF2F3;stroke-width:6.91"/>
	<rect x="416.05" y="1692.46" width="1090.11" height="412.72" style="fill:#FFFFFF"/>
	<rect x="418.35" y="1694.76" width="1085.51" height="408.11" style="fill:none;stroke:#FFFFFF;stroke-width:4.61"/>
	<line x1="416.05" y1="2054.44" x2="1506.16" y2="2054.44" style="stroke:#EAF2F3;stroke-width:6.91"/>
	<line x1="416.05" y1="1976.60" x2="1506.16" y2="1976.60" style="stroke:#EAF2F3;stroke-width:6.91"/>
	<line x1="416.05" y1="1898.76" x2="1506.16" y2="1898.76" style="stroke:#EAF2F3;stroke-width:6.91"/>
	<line x1="416.05" y1="1820.91" x2="1506.16" y2="1820.91" style="stroke:#EAF2F3;stroke-width:6.91"/>
	<line x1="416.05" y1="1743.07" x2="1506.16" y2="1743.07" style="stroke:#EAF2F3;stroke-width:6.91"/>
	<path d=" M479.04 757.00 L491.41 755.76 L503.66 755.02 L516.04 753.91 L528.41 752.55 L540.79 751.19 L553.16 749.08 L565.54 747.35 L577.91 745.00 L590.16 743.39 L602.54 740.67 L614.91 737.82 L627.29 734.85 L639.66 731.26 L652.04 728.79 L664.41 725.57 L676.79 720.37 L689.04 718.64 L701.41 716.91 L713.79 712.08 L726.16 708.61 L738.54 707.62 L750.91 705.40 L763.29 701.81 L775.66 706.14 L787.92 703.29 L800.29 699.83 L812.67 697.48 L825.04 698.59 L837.42 697.11 L849.79 694.01 L862.17 693.39 L874.54 697.23 L886.79 699.70 L899.17 702.43 L911.54 706.63 L923.92 709.98 L936.29 713.81 L948.67 715.67 L961.04 718.89 L973.29 721.11 L985.67 728.04 L998.04 725.82 L1010.42 730.27 L1022.79 733.37 L1035.17 726.44 L1047.54 728.04 L1059.92 729.41 L1072.17 731.51 L1084.55 733.49 L1096.92 731.63 L1109.30 732.62 L1121.67 732.99 L1134.05 733.49 L1146.42 733.86 L1158.80 734.48 L1171.05 734.60 L1183.42 734.97 L1195.80 735.47 L1208.17 737.82 L1220.55 736.95 L1232.92 737.08 L1245.30 736.58 L1257.55 736.34 L1269.92 736.83 L1282.30 737.45 L1294.67 738.69 L1307.05 739.18 L1319.42 739.55 L1331.80 744.01 L1344.17 742.03 L1356.42 744.38 L1368.80 743.64" stroke-linejoin="round" style="fill:none;stroke:#1A476F;stroke-width:18.43"/>
	<path d=" M479.04 743.14 L491.41 743.14 L503.66 743.14 L516.04 743.14 L528.41 743.14 L540.79 743.14 L553.16 743.14 L565.54 743.14 L577.91 743.14 L590.16 743.14 L602.54 743.14 L614.91 743.14 L627.29 743.14 L639.66 743.14 L652.04 743.14 L664.41 732.25 L676.79 732.00 L689.04 731.76 L701.41 728.79 L713.79 726.31 L726.16 723.22 L738.54 719.26 L750.91 718.02 L763.29 713.07 L775.66 707.62 L787.92 701.31 L800.29 693.64 L812.67 684.98 L825.04 674.71 L837.42 663.82 L849.79 654.41 L862.17 644.88 L874.54 636.96 L886.79 633.25 L899.17 635.48 L911.54 640.80 L923.92 648.84 L936.29 657.75 L948.67 668.89 L961.04 681.39 L973.29 694.26 L985.67 704.16 L998.04 714.31 L1010.42 721.11 L1022.79 727.43 L1035.17 731.63 L1047.54 734.85 L1059.92 736.21 L1072.17 737.33 L1084.55 737.70 L1096.92 738.07 L1109.30 738.07 L1121.67 738.19 L1134.05 737.94 L1146.42 738.19 L1158.80 738.44 L1171.05 738.44 L1183.42 738.93 L1195.80 739.18 L1208.17 739.43 L1220.55 739.55 L1232.92 738.56 L1245.30 738.07 L1257.55 738.32 L1269.92 737.82 L1282.30 737.08 L1294.67 736.71 L1307.05 736.34 L1319.42 736.46 L1331.80 735.84 L1344.17 734.48 L1356.42 733.37 L1368.80 732.75" stroke-linejoin="round" style="fill:none;stroke:#90353B;stroke-width:18.43"/>
	<path d=" M479.04 755.64 L491.41 753.04 L503.66 751.93 L516.04 752.30 L528.41 750.20 L540.79 747.97 L553.16 744.87 L565.54 743.27 L577.91 742.28 L590.16 740.30 L602.54 739.80 L614.91 739.06 L627.29 738.19 L639.66 735.72 L652.04 736.71 L664.41 737.33 L676.79 733.24 L689.04 729.41 L701.41 725.57 L713.79 722.60 L726.16 718.02 L738.54 717.40 L750.91 716.41 L763.29 712.20 L775.66 710.72 L787.92 709.60 L800.29 708.99 L812.67 708.99 L825.04 708.24 L837.42 707.13 L849.79 707.01 L862.17 706.02 L874.54 702.30 L886.79 701.81 L899.17 702.92 L911.54 705.52 L923.92 707.50 L936.29 708.12 L948.67 709.48 L961.04 712.95 L973.29 715.30 L985.67 717.90 L998.04 718.02 L1010.42 718.89 L1022.79 723.96 L1035.17 727.55 L1047.54 731.88 L1059.92 737.57 L1072.17 742.65 L1084.55 747.23 L1096.92 750.44 L1109.30 750.32 L1121.67 750.94 L1134.05 751.43 L1146.42 751.31 L1158.80 750.69 L1171.05 749.82 L1183.42 748.59 L1195.80 748.09 L1208.17 746.48 L1220.55 744.38 L1232.92 742.03 L1245.30 740.67 L1257.55 739.55 L1269.92 738.07 L1282.30 736.83 L1294.67 736.71 L1307.05 735.84 L1319.42 735.96 L1331.80 737.20 L1344.17 737.33 L1356.42 737.57 L1368.80 737.20" stroke-linejoin="round" style="fill:none;stroke:#55752F;stroke-width:18.43"/>
	<path d=" M479.04 711.71 L491.41 711.71 L503.66 711.71 L516.04 711.71 L528.41 685.84 L540.79 685.84 L553.16 685.84 L565.54 685.84 L577.91 685.84 L590.16 685.84 L602.54 659.86 L614.91 659.86 L627.29 633.87 L639.66 608.00 L652.04 608.00 L664.41 608.00 L676.79 608.00 L689.04 582.01 L701.41 582.01 L713.79 582.01 L726.16 556.03 L738.54 556.03 L750.91 556.03 L763.29 530.16 L775.66 504.17 L787.92 504.17 L800.29 504.17 L812.67 530.16 L825.04 556.03 L837.42 556.03 L849.79 556.03 L862.17 556.03 L874.54 582.01 L886.79 582.01 L899.17 582.01 L911.54 582.01 L923.92 582.01 L936.29 582.01 L948.67 608.00 L961.04 608.00 L973.29 633.87 L985.67 659.86 L998.04 659.86 L1010.42 659.86 L1022.79 659.86 L1035.17 685.84 L1047.54 685.84 L1059.92 685.84 L1072.17 711.71 L1084.55 711.71 L1096.92 711.71 L1109.30 737.70 L1121.67 763.56 L1134.05 763.56 L1146.42 763.56 L1158.80 763.56 L1171.05 763.56 L1183.42 763.56 L1195.80 763.56 L1208.17 763.56 L1220.55 763.56 L1232.92 763.56 L1245.30 763.56 L1257.55 763.56 L1269.92 763.56 L1282.30 763.56 L1294.67 763.56 L1307.05 763.56 L1319.42 763.56 L1331.80 763.56 L1344.17 763.56 L1356.42 763.56 L1368.80 763.56" stroke-linejoin="round" style="fill:none;stroke:#E37E00;stroke-width:18.43"/>
	<path d=" M1638.20 750.69 L1650.58 748.22 L1662.95 746.73 L1675.33 744.63 L1687.58 742.03 L1699.95 739.18 L1712.33 735.10 L1724.70 731.63 L1737.08 727.05 L1749.45 723.96 L1761.83 718.64 L1774.20 713.19 L1786.45 707.25 L1798.83 700.32 L1811.20 695.37 L1823.58 689.31 L1835.95 679.04 L1848.33 675.70 L1860.70 672.11 L1873.08 662.70 L1885.33 656.02 L1897.71 654.16 L1910.08 649.58 L1922.46 642.65 L1934.83 651.07 L1947.21 645.50 L1959.58 638.69 L1971.96 634.11 L1984.21 636.34 L1996.58 633.37 L2008.96 627.43 L2021.33 626.07 L2033.71 633.62 L2046.08 638.57 L2058.46 643.89 L2070.71 652.06 L2083.08 658.49 L2095.46 666.04 L2107.83 669.63 L2120.21 676.19 L2132.58 680.52 L2144.96 694.01 L2157.33 689.80 L2169.59 698.34 L2181.96 704.41 L2194.34 690.79 L2206.71 694.14 L2219.09 696.61 L2231.46 700.82 L2243.84 704.65 L2256.21 700.94 L2268.46 702.92 L2280.84 703.66 L2293.21 704.78 L2305.59 705.40 L2317.96 706.51 L2330.34 706.88 L2342.71 707.62 L2354.96 708.49 L2367.34 713.07 L2379.71 711.34 L2392.09 711.71 L2404.46 710.84 L2416.84 710.10 L2429.21 711.34 L2441.59 712.33 L2453.84 714.93 L2466.21 715.79 L2478.59 716.53 L2490.96 725.07 L2503.34 721.49 L2515.71 726.06 L2528.09 724.58" stroke-linejoin="round" style="fill:none;stroke:#1A476F;stroke-width:18.43"/>
	<path d=" M1638.20 723.47 L1650.58 723.47 L1662.95 723.47 L1675.33 723.47 L1687.58 723.47 L1699.95 723.47 L1712.33 723.47 L1724.70 723.47 L1737.08 723.47 L1749.45 723.47 L1761.83 723.47 L1774.20 723.47 L1786.45 723.47 L1798.83 723.47 L1811.20 723.47 L1823.58 723.47 L1835.95 723.47 L1848.33 709.60 L1860.70 703.79 L1873.08 698.22 L1885.33 695.13 L1897.71 691.78 L1910.08 686.96 L1922.46 681.51 L1934.83 678.17 L1947.21 675.45 L1959.58 672.97 L1971.96 669.26 L1984.21 668.02 L1996.58 668.15 L2008.96 667.28 L2021.33 666.04 L2033.71 663.07 L2046.08 662.08 L2058.46 660.60 L2070.71 658.49 L2083.08 655.77 L2095.46 655.15 L2107.83 656.27 L2120.21 659.48 L2132.58 662.08 L2144.96 666.41 L2157.33 669.01 L2169.59 672.97 L2181.96 677.43 L2194.34 681.39 L2206.71 685.35 L2219.09 688.81 L2231.46 691.78 L2243.84 696.12 L2256.21 698.71 L2268.46 700.57 L2280.84 701.81 L2293.21 702.67 L2305.59 703.54 L2317.96 704.41 L2330.34 704.16 L2342.71 705.27 L2354.96 704.78 L2367.34 706.39 L2379.71 705.64 L2392.09 705.40 L2404.46 705.15 L2416.84 703.66 L2429.21 702.43 L2441.59 700.94 L2453.84 698.10 L2466.21 696.86 L2478.59 695.37 L2490.96 693.02 L2503.34 692.28 L2515.71 693.02 L2528.09 694.26" stroke-linejoin="round" style="fill:none;stroke:#90353B;stroke-width:18.43"/>
	<path d=" M1638.20 743.51 L1650.58 741.90 L1662.95 734.97 L1675.33 728.66 L1687.58 722.72 L1699.95 718.51 L1712.33 716.29 L1724.70 714.31 L1737.08 711.83 L1749.45 710.72 L1761.83 710.35 L1774.20 709.11 L1786.45 706.02 L1798.83 694.38 L1811.20 693.89 L1823.58 694.01 L1835.95 685.97 L1848.33 682.63 L1860.70 679.66 L1873.08 676.31 L1885.33 671.36 L1897.71 671.24 L1910.08 670.37 L1922.46 666.17 L1934.83 665.05 L1947.21 662.83 L1959.58 658.87 L1971.96 654.04 L1984.21 650.33 L1996.58 649.09 L2008.96 648.35 L2021.33 648.97 L2033.71 648.84 L2046.08 650.95 L2058.46 654.29 L2070.71 657.13 L2083.08 659.48 L2095.46 661.59 L2107.83 662.45 L2120.21 664.81 L2132.58 666.41 L2144.96 668.89 L2157.33 670.13 L2169.59 672.23 L2181.96 678.91 L2194.34 685.97 L2206.71 694.38 L2219.09 703.42 L2231.46 710.84 L2243.84 715.67 L2256.21 718.39 L2268.46 718.64 L2280.84 717.90 L2293.21 717.03 L2305.59 715.30 L2317.96 711.96 L2330.34 710.22 L2342.71 708.74 L2354.96 705.64 L2367.34 702.80 L2379.71 698.84 L2392.09 694.88 L2404.46 692.77 L2416.84 690.55 L2429.21 688.69 L2441.59 686.96 L2453.84 686.96 L2466.21 688.57 L2478.59 690.55 L2490.96 694.14 L2503.34 696.36 L2515.71 698.84 L2528.09 704.16" stroke-linejoin="round" style="fill:none;stroke:#55752F;stroke-width:18.43"/>
	<path d=" M1638.20 737.70 L1650.58 737.70 L1662.95 737.70 L1675.33 737.70 L1687.58 737.70 L1699.95 737.70 L1712.33 737.70 L1724.70 737.70 L1737.08 737.70 L1749.45 737.70 L1761.83 737.70 L1774.20 737.70 L1786.45 737.70 L1798.83 737.70 L1811.20 737.70 L1823.58 737.70 L1835.95 737.70 L1848.33 685.84 L1860.70 633.87 L1873.08 633.87 L1885.33 582.01 L1897.71 582.01 L1910.08 582.01 L1922.46 582.01 L1934.83 582.01 L1947.21 582.01 L1959.58 582.01 L1971.96 582.01 L1984.21 582.01 L1996.58 582.01 L2008.96 582.01 L2021.33 582.01 L2033.71 582.01 L2046.08 582.01 L2058.46 582.01 L2070.71 582.01 L2083.08 582.01 L2095.46 582.01 L2107.83 582.01 L2120.21 582.01 L2132.58 582.01 L2144.96 582.01 L2157.33 582.01 L2169.59 582.01 L2181.96 582.01 L2194.34 633.87 L2206.71 685.84 L2219.09 685.84 L2231.46 737.70 L2243.84 737.70 L2256.21 737.70 L2268.46 737.70 L2280.84 737.70 L2293.21 737.70 L2305.59 763.56 L2317.96 763.56 L2330.34 763.56 L2342.71 763.56 L2354.96 763.56 L2367.34 763.56 L2379.71 763.56 L2392.09 763.56 L2404.46 763.56 L2416.84 763.56 L2429.21 763.56 L2441.59 763.56 L2453.84 763.56 L2466.21 763.56 L2478.59 763.56 L2490.96 763.56 L2503.34 763.56 L2515.71 763.56 L2528.09 763.56" stroke-linejoin="round" style="fill:none;stroke:#E37E00;stroke-width:18.43"/>
	<path d=" M2797.37 754.28 L2809.74 752.55 L2822.12 751.43 L2834.49 749.95 L2846.87 747.97 L2859.24 745.99 L2871.62 742.89 L2883.87 740.54 L2896.24 737.20 L2908.62 734.85 L2920.99 731.01 L2933.37 727.05 L2945.74 722.85 L2958.12 717.77 L2970.49 714.31 L2982.75 709.85 L2995.12 702.43 L3007.50 699.95 L3019.87 697.35 L3032.25 690.55 L3044.62 685.72 L3057.00 684.36 L3069.37 681.14 L3081.62 676.07 L3094.00 682.13 L3106.37 678.05 L3118.75 673.22 L3131.12 669.88 L3143.50 671.49 L3155.87 669.38 L3168.12 665.05 L3180.50 664.06 L3192.87 669.51 L3205.25 673.10 L3217.62 676.93 L3230.00 682.87 L3242.37 687.58 L3254.75 693.02 L3267.00 695.62 L3279.38 700.32 L3291.75 703.54 L3304.13 713.19 L3316.50 710.10 L3328.88 716.41 L3341.25 720.74 L3353.63 710.84 L3365.88 713.32 L3378.25 715.05 L3390.63 718.14 L3403.00 720.99 L3415.38 718.27 L3427.75 719.63 L3440.13 720.25 L3452.38 720.99 L3464.75 721.49 L3477.13 722.23 L3489.50 722.48 L3501.88 723.09 L3514.25 723.71 L3526.63 727.05 L3539.00 725.82 L3551.25 726.06 L3563.63 725.45 L3576.00 724.95 L3588.38 725.69 L3600.75 726.44 L3613.13 728.42 L3625.50 728.91 L3637.88 729.53 L3650.13 735.72 L3662.51 733.12 L3674.88 736.46 L3687.26 735.35" stroke-linejoin="round" style="fill:none;stroke:#1A476F;stroke-width:18.43"/>
	<path d=" M2797.37 734.48 L2809.74 734.48 L2822.12 734.48 L2834.49 734.48 L2846.87 734.48 L2859.24 734.48 L2871.62 734.48 L2883.87 734.48 L2896.24 734.48 L2908.62 734.48 L2920.99 734.48 L2933.37 734.48 L2945.74 734.48 L2958.12 734.48 L2970.49 734.48 L2982.75 734.48 L2995.12 734.48 L3007.50 734.48 L3019.87 734.48 L3032.25 734.48 L3044.62 734.48 L3057.00 734.48 L3069.37 734.48 L3081.62 720.99 L3094.00 716.78 L3106.37 714.18 L3118.75 708.49 L3131.12 705.64 L3143.50 700.45 L3155.87 695.25 L3168.12 691.54 L3180.50 686.46 L3192.87 682.26 L3205.25 680.15 L3217.62 677.55 L3230.00 676.93 L3242.37 677.43 L3254.75 678.29 L3267.00 682.01 L3279.38 685.84 L3291.75 689.68 L3304.13 692.90 L3316.50 697.35 L3328.88 702.55 L3341.25 706.88 L3353.63 710.84 L3365.88 713.56 L3378.25 716.41 L3390.63 718.39 L3403.00 719.88 L3415.38 720.62 L3427.75 721.49 L3440.13 721.24 L3452.38 722.48 L3464.75 722.48 L3477.13 723.22 L3489.50 723.22 L3501.88 723.96 L3514.25 722.85 L3526.63 724.21 L3539.00 721.98 L3551.25 720.12 L3563.63 719.38 L3576.00 718.39 L3588.38 716.53 L3600.75 716.66 L3613.13 716.16 L3625.50 717.77 L3637.88 721.36 L3650.13 724.08 L3662.51 724.46 L3674.88 724.95 L3687.26 724.95" stroke-linejoin="round" style="fill:none;stroke:#90353B;stroke-width:18.43"/>
	<path d=" M2797.37 739.31 L2809.74 737.57 L2822.12 737.20 L2834.49 737.70 L2846.87 737.57 L2859.24 737.70 L2871.62 737.94 L2883.87 737.20 L2896.24 738.81 L2908.62 737.82 L2920.99 732.62 L2933.37 728.42 L2945.74 727.18 L2958.12 725.32 L2970.49 727.18 L2982.75 727.92 L2995.12 721.11 L3007.50 717.03 L3019.87 713.44 L3032.25 710.22 L3044.62 706.63 L3057.00 705.52 L3069.37 704.04 L3081.62 700.45 L3094.00 696.86 L3106.37 694.14 L3118.75 692.28 L3131.12 689.19 L3143.50 686.59 L3155.87 684.61 L3168.12 684.36 L3180.50 683.37 L3192.87 680.40 L3205.25 680.65 L3217.62 682.26 L3230.00 685.10 L3242.37 687.08 L3254.75 686.83 L3267.00 687.95 L3279.38 691.17 L3291.75 692.65 L3304.13 694.01 L3316.50 692.65 L3328.88 692.65 L3341.25 696.24 L3353.63 699.70 L3365.88 704.90 L3378.25 712.45 L3390.63 721.73 L3403.00 730.40 L3415.38 736.34 L3427.75 737.57 L3440.13 739.55 L3452.38 740.79 L3464.75 740.67 L3477.13 740.05 L3489.50 738.32 L3501.88 736.71 L3514.25 736.09 L3526.63 734.85 L3539.00 732.38 L3551.25 730.89 L3563.63 728.91 L3576.00 727.92 L3588.38 725.69 L3600.75 723.71 L3613.13 723.09 L3625.50 723.71 L3637.88 724.21 L3650.13 725.45 L3662.51 726.06 L3674.88 727.30 L3687.26 728.54" stroke-linejoin="round" style="fill:none;stroke:#55752F;stroke-width:18.43"/>
	<path d=" M2797.37 763.56 L2809.74 763.56 L2822.12 763.56 L2834.49 763.56 L2846.87 763.56 L2859.24 763.56 L2871.62 763.56 L2883.87 763.56 L2896.24 763.56 L2908.62 763.56 L2920.99 763.56 L2933.37 763.56 L2945.74 763.56 L2958.12 763.56 L2970.49 763.56 L2982.75 763.56 L2995.12 763.56 L3007.50 763.56 L3019.87 763.56 L3032.25 763.56 L3044.62 763.56 L3057.00 763.56 L3069.37 763.56 L3081.62 763.56 L3094.00 763.56 L3106.37 763.56 L3118.75 763.56 L3131.12 763.56 L3143.50 763.56 L3155.87 763.56 L3168.12 737.70 L3180.50 737.70 L3192.87 737.70 L3205.25 737.70 L3217.62 737.70 L3230.00 737.70 L3242.37 737.70 L3254.75 737.70 L3267.00 737.70 L3279.38 737.70 L3291.75 737.70 L3304.13 737.70 L3316.50 737.70 L3328.88 737.70 L3341.25 737.70 L3353.63 737.70 L3365.88 737.70 L3378.25 737.70 L3390.63 737.70 L3403.00 737.70 L3415.38 737.70 L3427.75 737.70 L3440.13 737.70 L3452.38 737.70 L3464.75 737.70 L3477.13 737.70 L3489.50 711.71 L3501.88 711.71 L3514.25 737.70 L3526.63 737.70 L3539.00 737.70 L3551.25 737.70 L3563.63 737.70 L3576.00 737.70 L3588.38 737.70 L3600.75 737.70 L3613.13 737.70 L3625.50 737.70 L3637.88 737.70 L3650.13 737.70 L3662.51 737.70 L3674.88 737.70 L3687.26 737.70" stroke-linejoin="round" style="fill:none;stroke:#E37E00;stroke-width:18.43"/>
	<path d=" M479.04 1328.87 L491.41 1327.38 L503.66 1326.39 L516.04 1325.03 L528.41 1323.30 L540.79 1321.57 L553.16 1318.97 L565.54 1316.86 L577.91 1313.89 L590.16 1311.91 L602.54 1308.45 L614.91 1305.11 L627.29 1301.27 L639.66 1296.94 L652.04 1293.85 L664.41 1289.89 L676.79 1283.45 L689.04 1281.22 L701.41 1279.00 L713.79 1273.06 L726.16 1268.85 L738.54 1267.61 L750.91 1264.76 L763.29 1260.31 L775.66 1265.75 L787.92 1262.17 L800.29 1257.83 L812.67 1254.86 L825.04 1256.35 L837.42 1254.49 L849.79 1250.66 L862.17 1249.91 L874.54 1254.62 L886.79 1257.71 L899.17 1261.05 L911.54 1266.37 L923.92 1270.46 L936.29 1275.16 L948.67 1277.51 L961.04 1281.60 L973.29 1284.32 L985.67 1292.86 L998.04 1290.26 L1010.42 1295.70 L1022.79 1299.54 L1035.17 1290.88 L1047.54 1292.98 L1059.92 1294.59 L1072.17 1297.19 L1084.55 1299.66 L1096.92 1297.31 L1109.30 1298.55 L1121.67 1299.04 L1134.05 1299.66 L1146.42 1300.16 L1158.80 1300.78 L1171.05 1301.02 L1183.42 1301.52 L1195.80 1302.14 L1208.17 1304.98 L1220.55 1303.87 L1232.92 1304.12 L1245.30 1303.62 L1257.55 1303.13 L1269.92 1303.87 L1282.30 1304.49 L1294.67 1306.22 L1307.05 1306.72 L1319.42 1307.21 L1331.80 1312.66 L1344.17 1310.31 L1356.42 1313.28 L1368.80 1312.29" stroke-linejoin="round" style="fill:none;stroke:#1A476F;stroke-width:18.43"/>
	<path d=" M479.04 1311.54 L491.41 1311.54 L503.66 1311.54 L516.04 1311.54 L528.41 1311.54 L540.79 1311.54 L553.16 1311.54 L565.54 1311.54 L577.91 1311.54 L590.16 1311.54 L602.54 1311.54 L614.91 1311.54 L627.29 1311.54 L639.66 1311.54 L652.04 1311.54 L664.41 1311.54 L676.79 1311.54 L689.04 1311.54 L701.41 1311.54 L713.79 1299.79 L726.16 1296.20 L738.54 1292.73 L750.91 1290.38 L763.29 1287.41 L775.66 1284.44 L787.92 1280.11 L800.29 1276.64 L812.67 1273.30 L825.04 1271.69 L837.42 1268.11 L849.79 1263.65 L862.17 1260.80 L874.54 1256.84 L886.79 1253.50 L899.17 1248.43 L911.54 1243.48 L923.92 1240.88 L936.29 1238.65 L948.67 1237.91 L961.04 1241.00 L973.29 1245.21 L985.67 1253.13 L998.04 1259.81 L1010.42 1266.62 L1022.79 1275.28 L1035.17 1281.22 L1047.54 1286.42 L1059.92 1290.51 L1072.17 1293.97 L1084.55 1297.06 L1096.92 1299.17 L1109.30 1300.53 L1121.67 1302.39 L1134.05 1303.87 L1146.42 1306.47 L1158.80 1307.09 L1171.05 1308.08 L1183.42 1308.45 L1195.80 1309.56 L1208.17 1310.31 L1220.55 1311.54 L1232.92 1309.69 L1245.30 1309.56 L1257.55 1309.69 L1269.92 1310.92 L1282.30 1308.57 L1294.67 1305.11 L1307.05 1302.26 L1319.42 1301.02 L1331.80 1299.17 L1344.17 1295.83 L1356.42 1291.12 L1368.80 1288.03" stroke-linejoin="round" style="fill:none;stroke:#90353B;stroke-width:18.43"/>
	<path d=" M479.04 1325.40 L491.41 1324.91 L503.66 1325.03 L516.04 1325.03 L528.41 1324.79 L540.79 1324.41 L553.16 1323.67 L565.54 1322.56 L577.91 1321.69 L590.16 1316.74 L602.54 1312.90 L614.91 1308.57 L627.29 1306.10 L639.66 1300.16 L652.04 1300.28 L664.41 1299.66 L676.79 1293.23 L689.04 1287.91 L701.41 1284.69 L713.79 1281.72 L726.16 1279.61 L738.54 1278.62 L750.91 1277.39 L763.29 1274.17 L775.66 1272.81 L787.92 1271.08 L800.29 1269.71 L812.67 1266.13 L825.04 1264.76 L837.42 1264.15 L849.79 1264.39 L862.17 1264.64 L874.54 1262.66 L886.79 1264.27 L899.17 1265.88 L911.54 1268.60 L923.92 1270.58 L936.29 1270.21 L948.67 1270.83 L961.04 1273.67 L973.29 1274.17 L985.67 1275.78 L998.04 1275.16 L1010.42 1274.79 L1022.79 1277.14 L1035.17 1276.64 L1047.54 1277.51 L1059.92 1280.36 L1072.17 1283.82 L1084.55 1288.03 L1096.92 1292.36 L1109.30 1292.98 L1121.67 1296.57 L1134.05 1299.54 L1146.42 1301.40 L1158.80 1302.51 L1171.05 1302.76 L1183.42 1302.76 L1195.80 1303.50 L1208.17 1303.50 L1220.55 1302.26 L1232.92 1301.27 L1245.30 1300.03 L1257.55 1299.04 L1269.92 1297.81 L1282.30 1296.45 L1294.67 1295.95 L1307.05 1296.57 L1319.42 1296.57 L1331.80 1298.18 L1344.17 1298.43 L1356.42 1298.67 L1368.80 1299.17" stroke-linejoin="round" style="fill:none;stroke:#55752F;stroke-width:18.43"/>
	<path d=" M479.04 1311.17 L491.41 1311.17 L503.66 1311.17 L516.04 1311.17 L528.41 1311.17 L540.79 1311.17 L553.16 1311.17 L565.54 1311.17 L577.91 1311.17 L590.16 1311.17 L602.54 1311.17 L614.91 1311.17 L627.29 1311.17 L639.66 1311.17 L652.04 1311.17 L664.41 1311.17 L676.79 1311.17 L689.04 1311.17 L701.41 1311.17 L713.79 1311.17 L726.16 1337.04 L738.54 1337.04 L750.91 1337.04 L763.29 1337.04 L775.66 1337.04 L787.92 1337.04 L800.29 1337.04 L812.67 1337.04 L825.04 1337.04 L837.42 1337.04 L849.79 1311.17 L862.17 1311.17 L874.54 1311.17 L886.79 1311.17 L899.17 1311.17 L911.54 1311.17 L923.92 1311.17 L936.29 1311.17 L948.67 1311.17 L961.04 1311.17 L973.29 1311.17 L985.67 1311.17 L998.04 1311.17 L1010.42 1311.17 L1022.79 1311.17 L1035.17 1311.17 L1047.54 1311.17 L1059.92 1311.17 L1072.17 1311.17 L1084.55 1311.17 L1096.92 1285.18 L1109.30 1285.18 L1121.67 1285.18 L1134.05 1285.18 L1146.42 1285.18 L1158.80 1285.18 L1171.05 1285.18 L1183.42 1285.18 L1195.80 1311.17 L1208.17 1311.17 L1220.55 1311.17 L1232.92 1311.17 L1245.30 1311.17 L1257.55 1311.17 L1269.92 1311.17 L1282.30 1311.17 L1294.67 1311.17 L1307.05 1311.17 L1319.42 1311.17 L1331.80 1311.17 L1344.17 1311.17 L1356.42 1311.17 L1368.80 1311.17" stroke-linejoin="round" style="fill:none;stroke:#E37E00;stroke-width:18.43"/>
	<path d=" M1638.20 1325.03 L1650.58 1322.68 L1662.95 1321.32 L1675.33 1319.34 L1687.58 1316.86 L1699.95 1314.27 L1712.33 1310.43 L1724.70 1307.21 L1737.08 1303.00 L1749.45 1300.03 L1761.83 1295.08 L1774.20 1290.01 L1786.45 1284.44 L1798.83 1278.01 L1811.20 1273.43 L1823.58 1267.73 L1835.95 1258.21 L1848.33 1254.99 L1860.70 1251.65 L1873.08 1242.86 L1885.33 1236.67 L1897.71 1234.94 L1910.08 1230.73 L1922.46 1224.17 L1934.83 1232.09 L1947.21 1226.90 L1959.58 1220.58 L1971.96 1216.25 L1984.21 1218.36 L1996.58 1215.63 L2008.96 1210.07 L2021.33 1208.83 L2033.71 1215.88 L2046.08 1220.34 L2058.46 1225.29 L2070.71 1233.08 L2083.08 1239.02 L2095.46 1246.08 L2107.83 1249.42 L2120.21 1255.48 L2132.58 1259.57 L2144.96 1272.07 L2157.33 1268.11 L2169.59 1276.15 L2181.96 1281.84 L2194.34 1269.10 L2206.71 1272.19 L2219.09 1274.54 L2231.46 1278.38 L2243.84 1282.09 L2256.21 1278.62 L2268.46 1280.36 L2280.84 1281.10 L2293.21 1282.09 L2305.59 1282.83 L2317.96 1283.82 L2330.34 1284.07 L2342.71 1284.81 L2354.96 1285.56 L2367.34 1289.89 L2379.71 1288.28 L2392.09 1288.65 L2404.46 1287.78 L2416.84 1287.16 L2429.21 1288.28 L2441.59 1289.14 L2453.84 1291.62 L2466.21 1292.36 L2478.59 1293.10 L2490.96 1301.15 L2503.34 1297.68 L2515.71 1302.01 L2528.09 1300.65" stroke-linejoin="round" style="fill:none;stroke:#1A476F;stroke-width:18.43"/>
	<path d=" M1638.20 1299.54 L1650.58 1299.54 L1662.95 1299.54 L1675.33 1299.54 L1687.58 1299.54 L1699.95 1299.54 L1712.33 1299.54 L1724.70 1299.54 L1737.08 1299.54 L1749.45 1299.54 L1761.83 1299.54 L1774.20 1299.54 L1786.45 1299.54 L1798.83 1299.54 L1811.20 1299.54 L1823.58 1288.03 L1835.95 1288.03 L1848.33 1288.03 L1860.70 1288.15 L1873.08 1288.28 L1885.33 1281.84 L1897.71 1277.26 L1910.08 1275.16 L1922.46 1271.08 L1934.83 1265.88 L1947.21 1259.69 L1959.58 1251.65 L1971.96 1246.57 L1984.21 1239.77 L1996.58 1234.57 L2008.96 1228.75 L2021.33 1223.55 L2033.71 1218.85 L2046.08 1217.49 L2058.46 1213.41 L2070.71 1212.79 L2083.08 1213.53 L2095.46 1216.38 L2107.83 1222.19 L2120.21 1228.50 L2132.58 1234.82 L2144.96 1242.74 L2157.33 1249.30 L2169.59 1254.86 L2181.96 1259.57 L2194.34 1262.29 L2206.71 1266.62 L2219.09 1270.09 L2231.46 1272.81 L2243.84 1276.15 L2256.21 1278.50 L2268.46 1279.61 L2280.84 1281.47 L2293.21 1282.09 L2305.59 1282.83 L2317.96 1283.95 L2330.34 1284.32 L2342.71 1284.94 L2354.96 1285.93 L2367.34 1286.17 L2379.71 1286.92 L2392.09 1286.79 L2404.46 1285.68 L2416.84 1284.81 L2429.21 1285.06 L2441.59 1284.94 L2453.84 1284.69 L2466.21 1285.31 L2478.59 1284.44 L2490.96 1284.81 L2503.34 1286.17 L2515.71 1284.19 L2528.09 1285.43" stroke-linejoin="round" style="fill:none;stroke:#90353B;stroke-width:18.43"/>
	<path d=" M1638.20 1312.90 L1650.58 1310.55 L1662.95 1309.93 L1675.33 1309.93 L1687.58 1308.20 L1699.95 1308.08 L1712.33 1304.37 L1724.70 1303.38 L1737.08 1302.01 L1749.45 1293.23 L1761.83 1291.12 L1774.20 1290.75 L1786.45 1288.03 L1798.83 1283.58 L1811.20 1282.83 L1823.58 1281.47 L1835.95 1274.05 L1848.33 1268.72 L1860.70 1262.66 L1873.08 1258.33 L1885.33 1254.99 L1897.71 1253.38 L1910.08 1251.15 L1922.46 1247.19 L1934.83 1245.34 L1947.21 1243.60 L1959.58 1240.88 L1971.96 1234.94 L1984.21 1232.46 L1996.58 1231.47 L2008.96 1231.60 L2021.33 1232.71 L2033.71 1229.25 L2046.08 1229.99 L2058.46 1232.71 L2070.71 1236.42 L2083.08 1239.27 L2095.46 1239.64 L2107.83 1240.51 L2120.21 1244.47 L2132.58 1247.07 L2144.96 1248.43 L2157.33 1245.95 L2169.59 1244.47 L2181.96 1246.20 L2194.34 1248.18 L2206.71 1254.12 L2219.09 1264.64 L2231.46 1277.14 L2243.84 1288.15 L2256.21 1295.58 L2268.46 1300.03 L2280.84 1303.13 L2293.21 1304.61 L2305.59 1304.98 L2317.96 1304.12 L2330.34 1302.51 L2342.71 1300.65 L2354.96 1298.43 L2367.34 1295.83 L2379.71 1294.09 L2392.09 1292.61 L2404.46 1291.25 L2416.84 1291.00 L2429.21 1290.01 L2441.59 1289.89 L2453.84 1290.88 L2466.21 1290.63 L2478.59 1290.63 L2490.96 1294.34 L2503.34 1295.21 L2515.71 1296.07 L2528.09 1296.07" stroke-linejoin="round" style="fill:none;stroke:#55752F;stroke-width:18.43"/>
	<path d=" M1638.20 1337.04 L1650.58 1337.04 L1662.95 1337.04 L1675.33 1337.04 L1687.58 1337.04 L1699.95 1337.04 L1712.33 1337.04 L1724.70 1311.17 L1737.08 1311.17 L1749.45 1285.18 L1761.83 1259.20 L1774.20 1259.20 L1786.45 1259.20 L1798.83 1259.20 L1811.20 1233.33 L1823.58 1233.33 L1835.95 1233.33 L1848.33 1233.33 L1860.70 1233.33 L1873.08 1233.33 L1885.33 1233.33 L1897.71 1233.33 L1910.08 1207.34 L1922.46 1207.34 L1934.83 1207.34 L1947.21 1207.34 L1959.58 1207.34 L1971.96 1207.34 L1984.21 1207.34 L1996.58 1181.35 L2008.96 1181.35 L2021.33 1181.35 L2033.71 1181.35 L2046.08 1181.35 L2058.46 1181.35 L2070.71 1207.34 L2083.08 1207.34 L2095.46 1233.33 L2107.83 1259.20 L2120.21 1259.20 L2132.58 1259.20 L2144.96 1259.20 L2157.33 1285.18 L2169.59 1285.18 L2181.96 1285.18 L2194.34 1285.18 L2206.71 1285.18 L2219.09 1285.18 L2231.46 1285.18 L2243.84 1285.18 L2256.21 1311.17 L2268.46 1311.17 L2280.84 1311.17 L2293.21 1311.17 L2305.59 1311.17 L2317.96 1311.17 L2330.34 1311.17 L2342.71 1337.04 L2354.96 1337.04 L2367.34 1337.04 L2379.71 1337.04 L2392.09 1337.04 L2404.46 1337.04 L2416.84 1337.04 L2429.21 1337.04 L2441.59 1337.04 L2453.84 1337.04 L2466.21 1337.04 L2478.59 1337.04 L2490.96 1337.04 L2503.34 1337.04 L2515.71 1337.04 L2528.09 1337.04" stroke-linejoin="round" style="fill:none;stroke:#E37E00;stroke-width:18.43"/>
	<path d=" M2797.37 1325.40 L2809.74 1323.18 L2822.12 1321.82 L2834.49 1319.96 L2846.87 1317.48 L2859.24 1315.01 L2871.62 1311.30 L2883.87 1308.20 L2896.24 1304.12 L2908.62 1301.15 L2920.99 1296.45 L2933.37 1291.50 L2945.74 1286.17 L2958.12 1279.86 L2970.49 1275.53 L2982.75 1269.96 L2995.12 1260.68 L3007.50 1257.59 L3019.87 1254.37 L3032.25 1245.95 L3044.62 1239.89 L3057.00 1238.16 L3069.37 1234.07 L3081.62 1227.76 L3094.00 1235.43 L3106.37 1230.36 L3118.75 1224.30 L3131.12 1220.09 L3143.50 1222.19 L3155.87 1219.47 L3168.12 1214.03 L3180.50 1212.91 L3192.87 1219.72 L3205.25 1224.05 L3217.62 1228.88 L3230.00 1236.30 L3242.37 1242.24 L3254.75 1248.92 L3267.00 1252.27 L3279.38 1258.08 L3291.75 1262.04 L3304.13 1274.17 L3316.50 1270.33 L3328.88 1278.13 L3341.25 1283.58 L3353.63 1271.32 L3365.88 1274.29 L3378.25 1276.52 L3390.63 1280.36 L3403.00 1283.82 L3415.38 1280.48 L3427.75 1282.21 L3440.13 1282.96 L3452.38 1283.95 L3464.75 1284.57 L3477.13 1285.43 L3489.50 1285.80 L3501.88 1286.42 L3514.25 1287.29 L3526.63 1291.37 L3539.00 1289.89 L3551.25 1290.13 L3563.63 1289.39 L3576.00 1288.77 L3588.38 1289.76 L3600.75 1290.75 L3613.13 1293.10 L3625.50 1293.85 L3637.88 1294.47 L3650.13 1302.26 L3662.51 1299.04 L3674.88 1303.13 L3687.26 1301.77" stroke-linejoin="round" style="fill:none;stroke:#1A476F;stroke-width:18.43"/>
	<path d=" M2797.37 1300.78 L2809.74 1300.78 L2822.12 1300.78 L2834.49 1300.78 L2846.87 1300.78 L2859.24 1300.78 L2871.62 1300.78 L2883.87 1300.78 L2896.24 1300.78 L2908.62 1300.78 L2920.99 1300.78 L2933.37 1300.78 L2945.74 1300.78 L2958.12 1300.78 L2970.49 1300.78 L2982.75 1288.90 L2995.12 1283.70 L3007.50 1278.62 L3019.87 1275.65 L3032.25 1272.19 L3044.62 1267.24 L3057.00 1261.92 L3069.37 1259.57 L3081.62 1256.10 L3094.00 1252.39 L3106.37 1246.20 L3118.75 1240.76 L3131.12 1235.81 L3143.50 1232.46 L3155.87 1227.14 L3168.12 1221.20 L3180.50 1216.38 L3192.87 1214.40 L3205.25 1214.27 L3217.62 1214.03 L3230.00 1215.88 L3242.37 1219.35 L3254.75 1224.42 L3267.00 1230.36 L3279.38 1236.92 L3291.75 1242.24 L3304.13 1248.68 L3316.50 1254.37 L3328.88 1260.19 L3341.25 1266.99 L3353.63 1273.43 L3365.88 1278.62 L3378.25 1283.58 L3390.63 1287.78 L3403.00 1290.88 L3415.38 1292.61 L3427.75 1292.36 L3440.13 1291.74 L3452.38 1291.50 L3464.75 1290.38 L3477.13 1289.02 L3489.50 1286.30 L3501.88 1284.57 L3514.25 1283.08 L3526.63 1281.97 L3539.00 1280.23 L3551.25 1279.37 L3563.63 1278.62 L3576.00 1279.12 L3588.38 1279.37 L3600.75 1280.11 L3613.13 1279.74 L3625.50 1280.23 L3637.88 1279.61 L3650.13 1281.10 L3662.51 1280.48 L3674.88 1279.24 L3687.26 1278.62" stroke-linejoin="round" style="fill:none;stroke:#90353B;stroke-width:18.43"/>
	<path d=" M2797.37 1320.70 L2809.74 1321.44 L2822.12 1322.68 L2834.49 1319.71 L2846.87 1317.36 L2859.24 1316.62 L2871.62 1312.04 L2883.87 1310.31 L2896.24 1308.82 L2908.62 1304.12 L2920.99 1300.90 L2933.37 1299.42 L2945.74 1295.21 L2958.12 1290.26 L2970.49 1289.14 L2982.75 1286.17 L2995.12 1275.78 L3007.50 1265.88 L3019.87 1259.57 L3032.25 1254.49 L3044.62 1251.15 L3057.00 1249.67 L3069.37 1248.06 L3081.62 1244.10 L3094.00 1243.48 L3106.37 1241.99 L3118.75 1239.27 L3131.12 1234.44 L3143.50 1231.47 L3155.87 1230.48 L3168.12 1231.23 L3180.50 1232.34 L3192.87 1231.97 L3205.25 1234.32 L3217.62 1237.79 L3230.00 1241.25 L3242.37 1243.85 L3254.75 1244.59 L3267.00 1245.95 L3279.38 1249.42 L3291.75 1251.77 L3304.13 1253.50 L3316.50 1253.75 L3328.88 1255.11 L3341.25 1260.43 L3353.63 1264.27 L3365.88 1269.84 L3378.25 1275.41 L3390.63 1280.85 L3403.00 1285.56 L3415.38 1289.39 L3427.75 1291.74 L3440.13 1295.21 L3452.38 1298.05 L3464.75 1300.28 L3477.13 1301.64 L3489.50 1302.26 L3501.88 1302.14 L3514.25 1302.63 L3526.63 1301.15 L3539.00 1299.29 L3551.25 1297.93 L3563.63 1296.69 L3576.00 1295.46 L3588.38 1293.85 L3600.75 1292.98 L3613.13 1293.85 L3625.50 1295.46 L3637.88 1297.31 L3650.13 1299.91 L3662.51 1301.64 L3674.88 1303.13 L3687.26 1304.74" stroke-linejoin="round" style="fill:none;stroke:#55752F;stroke-width:18.43"/>
	<path d=" M2797.37 1337.04 L2809.74 1337.04 L2822.12 1337.04 L2834.49 1337.04 L2846.87 1337.04 L2859.24 1337.04 L2871.62 1337.04 L2883.87 1311.17 L2896.24 1285.18 L2908.62 1285.18 L2920.99 1285.18 L2933.37 1285.18 L2945.74 1285.18 L2958.12 1233.33 L2970.49 1233.33 L2982.75 1233.33 L2995.12 1233.33 L3007.50 1233.33 L3019.87 1233.33 L3032.25 1233.33 L3044.62 1233.33 L3057.00 1233.33 L3069.37 1233.33 L3081.62 1233.33 L3094.00 1233.33 L3106.37 1233.33 L3118.75 1207.34 L3131.12 1207.34 L3143.50 1207.34 L3155.87 1207.34 L3168.12 1207.34 L3180.50 1207.34 L3192.87 1207.34 L3205.25 1207.34 L3217.62 1207.34 L3230.00 1233.33 L3242.37 1259.20 L3254.75 1259.20 L3267.00 1259.20 L3279.38 1259.20 L3291.75 1259.20 L3304.13 1311.17 L3316.50 1311.17 L3328.88 1285.18 L3341.25 1285.18 L3353.63 1285.18 L3365.88 1285.18 L3378.25 1285.18 L3390.63 1285.18 L3403.00 1285.18 L3415.38 1285.18 L3427.75 1259.20 L3440.13 1259.20 L3452.38 1259.20 L3464.75 1285.18 L3477.13 1285.18 L3489.50 1285.18 L3501.88 1285.18 L3514.25 1285.18 L3526.63 1285.18 L3539.00 1285.18 L3551.25 1285.18 L3563.63 1285.18 L3576.00 1285.18 L3588.38 1285.18 L3600.75 1285.18 L3613.13 1285.18 L3625.50 1285.18 L3637.88 1285.18 L3650.13 1285.18 L3662.51 1285.18 L3674.88 1311.17 L3687.26 1311.17" stroke-linejoin="round" style="fill:none;stroke:#E37E00;stroke-width:18.43"/>
	<path d=" M479.04 2050.23 L491.41 2049.36 L503.66 2048.87 L516.04 2048.13 L528.41 2047.26 L540.79 2046.39 L553.16 2044.91 L565.54 2043.80 L577.91 2042.31 L590.16 2041.20 L602.54 2039.46 L614.91 2037.61 L627.29 2035.63 L639.66 2033.40 L652.04 2031.67 L664.41 2029.69 L676.79 2026.22 L689.04 2025.11 L701.41 2023.87 L713.79 2020.78 L726.16 2018.55 L738.54 2017.93 L750.91 2016.45 L763.29 2014.09 L775.66 2016.94 L787.92 2014.96 L800.29 2012.73 L812.67 2011.25 L825.04 2011.99 L837.42 2011.00 L849.79 2009.02 L862.17 2008.53 L874.54 2011.12 L886.79 2012.73 L899.17 2014.47 L911.54 2017.19 L923.92 2019.42 L936.29 2021.89 L948.67 2023.13 L961.04 2025.23 L973.29 2026.72 L985.67 2031.17 L998.04 2029.81 L1010.42 2032.66 L1022.79 2034.76 L1035.17 2030.18 L1047.54 2031.30 L1059.92 2032.16 L1072.17 2033.52 L1084.55 2034.76 L1096.92 2033.52 L1109.30 2034.27 L1121.67 2034.51 L1134.05 2034.88 L1146.42 2035.01 L1158.80 2035.38 L1171.05 2035.50 L1183.42 2035.75 L1195.80 2036.12 L1208.17 2037.61 L1220.55 2036.99 L1232.92 2037.11 L1245.30 2036.86 L1257.55 2036.62 L1269.92 2036.99 L1282.30 2037.36 L1294.67 2038.23 L1307.05 2038.47 L1319.42 2038.72 L1331.80 2041.69 L1344.17 2040.45 L1356.42 2041.94 L1368.80 2041.44" stroke-linejoin="round" style="fill:none;stroke:#1A476F;stroke-width:18.43"/>
	<path d=" M479.04 2041.07 L491.41 2041.07 L503.66 2041.07 L516.04 2041.07 L528.41 2041.07 L540.79 2041.07 L553.16 2041.07 L565.54 2041.07 L577.91 2041.07 L590.16 2041.07 L602.54 2041.07 L614.91 2041.07 L627.29 2041.07 L639.66 2041.07 L652.04 2041.07 L664.41 2041.07 L676.79 2041.07 L689.04 2041.07 L701.41 2041.07 L713.79 2032.53 L726.16 2030.18 L738.54 2026.59 L750.91 2023.50 L763.29 2019.66 L775.66 2016.20 L787.92 2011.87 L800.29 2008.40 L812.67 2004.57 L825.04 2000.98 L837.42 1997.26 L849.79 1992.44 L862.17 1986.37 L874.54 1981.18 L886.79 1972.76 L899.17 1965.34 L911.54 1961.62 L923.92 1962.49 L936.29 1966.45 L948.67 1972.51 L961.04 1980.43 L973.29 1991.94 L985.67 2002.09 L998.04 2010.75 L1010.42 2017.31 L1022.79 2022.88 L1035.17 2027.46 L1047.54 2031.17 L1059.92 2034.02 L1072.17 2036.12 L1084.55 2037.61 L1096.92 2038.60 L1109.30 2039.22 L1121.67 2039.83 L1134.05 2040.08 L1146.42 2040.21 L1158.80 2040.70 L1171.05 2041.32 L1183.42 2041.82 L1195.80 2043.05 L1208.17 2043.55 L1220.55 2044.66 L1232.92 2048.37 L1245.30 1968.92 L1257.55 2038.10 L1269.92 2040.45 L1282.30 2041.44 L1294.67 2041.20 L1307.05 2039.46 L1319.42 2039.22 L1331.80 2039.59 L1344.17 2037.85 L1356.42 2037.11 L1368.80 2034.88" stroke-linejoin="round" style="fill:none;stroke:#90353B;stroke-width:18.43"/>
	<path d=" M479.04 2046.64 L491.41 2046.15 L503.66 2045.78 L516.04 2045.90 L528.41 2046.89 L540.79 2048.87 L553.16 2046.02 L565.54 2041.69 L577.91 2041.57 L590.16 2040.58 L602.54 2040.33 L614.91 2039.96 L627.29 2039.71 L639.66 2038.60 L652.04 2038.72 L664.41 2037.73 L676.79 2034.14 L689.04 2031.17 L701.41 2027.09 L713.79 2024.98 L726.16 2023.25 L738.54 2022.63 L750.91 2021.89 L763.29 2020.16 L775.66 2019.17 L787.92 2019.04 L800.29 2018.55 L812.67 2017.31 L825.04 2016.82 L837.42 2016.20 L849.79 2015.70 L862.17 2015.33 L874.54 2015.08 L886.79 2015.21 L899.17 2016.32 L911.54 2017.31 L923.92 2018.92 L936.29 2020.53 L948.67 2022.14 L961.04 2024.12 L973.29 2025.60 L985.67 2026.84 L998.04 2027.95 L1010.42 2029.07 L1022.79 2031.42 L1035.17 2033.15 L1047.54 2035.38 L1059.92 2037.48 L1072.17 2039.96 L1084.55 2041.82 L1096.92 2043.42 L1109.30 2044.66 L1121.67 2046.02 L1134.05 2046.77 L1146.42 2047.63 L1158.80 2048.37 L1171.05 2048.62 L1183.42 2048.87 L1195.80 2048.99 L1208.17 2048.99 L1220.55 2048.87 L1232.92 2048.50 L1245.30 2047.88 L1257.55 2047.01 L1269.92 2045.90 L1282.30 2044.79 L1294.67 2043.80 L1307.05 2043.55 L1319.42 2043.55 L1331.80 2043.67 L1344.17 2043.67 L1356.42 2043.80 L1368.80 2044.41" stroke-linejoin="round" style="fill:none;stroke:#55752F;stroke-width:18.43"/>
	<path d=" M479.04 2054.56 L491.41 2054.56 L503.66 2054.56 L516.04 2054.56 L528.41 2054.56 L540.79 2054.56 L553.16 2054.56 L565.54 2054.56 L577.91 2054.56 L590.16 2054.56 L602.54 2054.56 L614.91 2002.59 L627.29 2002.59 L639.66 2002.59 L652.04 1976.72 L664.41 1976.72 L676.79 1950.73 L689.04 1950.73 L701.41 1950.73 L713.79 1950.73 L726.16 1950.73 L738.54 1950.73 L750.91 1950.73 L763.29 1950.73 L775.66 1950.73 L787.92 1950.73 L800.29 1950.73 L812.67 1950.73 L825.04 1950.73 L837.42 1950.73 L849.79 1950.73 L862.17 1950.73 L874.54 1950.73 L886.79 1950.73 L899.17 1950.73 L911.54 1950.73 L923.92 1950.73 L936.29 1950.73 L948.67 1950.73 L961.04 2002.59 L973.29 2002.59 L985.67 2002.59 L998.04 2028.57 L1010.42 2028.57 L1022.79 2054.56 L1035.17 2054.56 L1047.54 2054.56 L1059.92 2054.56 L1072.17 2054.56 L1084.55 2054.56 L1096.92 2054.56 L1109.30 2054.56 L1121.67 2054.56 L1134.05 2054.56 L1146.42 2054.56 L1158.80 2054.56 L1171.05 2054.56 L1183.42 2054.56 L1195.80 2054.56 L1208.17 2054.56 L1220.55 2054.56 L1232.92 2054.56 L1245.30 2054.56 L1257.55 2054.56 L1269.92 2054.56 L1282.30 2028.57 L1294.67 2002.59 L1307.05 2002.59 L1319.42 2002.59 L1331.80 2002.59 L1344.17 2002.59 L1356.42 2002.59 L1368.80 2002.59" stroke-linejoin="round" style="fill:none;stroke:#E37E00;stroke-width:18.43"/>
	<line x1="416.05" y1="814.30" x2="416.05" y2="401.58" style="stroke:#000000;stroke-width:4.61"/>
	<line x1="416.05" y1="763.56" x2="384.00" y2="763.56" style="stroke:#000000;stroke-width:4.61"/>
	<text x="368.03" y="791.57" style="font-family:'Helvetica';font-size:79.94px;fill:#000000" text-anchor="end">0</text>
	<line x1="416.05" y1="685.72" x2="384.00" y2="685.72" style="stroke:#000000;stroke-width:4.61"/>
	<text x="368.03" y="713.73" style="font-family:'Helvetica';font-size:79.94px;fill:#000000" text-anchor="end">3</text>
	<line x1="416.05" y1="607.88" x2="384.00" y2="607.88" style="stroke:#000000;stroke-width:4.61"/>
	<text x="368.03" y="635.89" style="font-family:'Helvetica';font-size:79.94px;fill:#000000" text-anchor="end">6</text>
	<line x1="416.05" y1="530.04" x2="384.00" y2="530.04" style="stroke:#000000;stroke-width:4.61"/>
	<text x="368.03" y="558.05" style="font-family:'Helvetica';font-size:79.94px;fill:#000000" text-anchor="end">9</text>
	<line x1="416.05" y1="452.20" x2="384.00" y2="452.20" style="stroke:#000000;stroke-width:4.61"/>
	<text x="368.03" y="480.21" style="font-family:'Helvetica';font-size:79.94px;fill:#000000" text-anchor="end">12</text>
	<line x1="416.05" y1="1387.65" x2="416.05" y2="974.93" style="stroke:#000000;stroke-width:4.61"/>
	<line x1="416.05" y1="1337.04" x2="384.00" y2="1337.04" style="stroke:#000000;stroke-width:4.61"/>
	<text x="368.03" y="1365.05" style="font-family:'Helvetica';font-size:79.94px;fill:#000000" text-anchor="end">0</text>
	<line x1="416.05" y1="1259.20" x2="384.00" y2="1259.20" style="stroke:#000000;stroke-width:4.61"/>
	<text x="368.03" y="1287.21" style="font-family:'Helvetica';font-size:79.94px;fill:#000000" text-anchor="end">3</text>
	<line x1="416.05" y1="1181.35" x2="384.00" y2="1181.35" style="stroke:#000000;stroke-width:4.61"/>
	<text x="368.03" y="1209.37" style="font-family:'Helvetica';font-size:79.94px;fill:#000000" text-anchor="end">6</text>
	<line x1="416.05" y1="1103.51" x2="384.00" y2="1103.51" style="stroke:#000000;stroke-width:4.61"/>
	<text x="368.03" y="1131.52" style="font-family:'Helvetica';font-size:79.94px;fill:#000000" text-anchor="end">9</text>
	<line x1="416.05" y1="1025.67" x2="384.00" y2="1025.67" style="stroke:#000000;stroke-width:4.61"/>
	<text x="368.03" y="1053.68" style="font-family:'Helvetica';font-size:79.94px;fill:#000000" text-anchor="end">12</text>
	<line x1="416.05" y1="2105.18" x2="416.05" y2="1692.46" style="stroke:#000000;stroke-width:4.61"/>
	<line x1="416.05" y1="2054.44" x2="384.00" y2="2054.44" style="stroke:#000000;stroke-width:4.61"/>
	<text x="368.03" y="2082.45" style="font-family:'Helvetica';font-size:79.94px;fill:#000000" text-anchor="end">0</text>
	<line x1="416.05" y1="1976.60" x2="384.00" y2="1976.60" style="stroke:#000000;stroke-width:4.61"/>
	<text x="368.03" y="2004.61" style="font-family:'Helvetica';font-size:79.94px;fill:#000000" text-anchor="end">3</text>
	<line x1="416.05" y1="1898.76" x2="384.00" y2="1898.76" style="stroke:#000000;stroke-width:4.61"/>
	<text x="368.03" y="1926.77" style="font-family:'Helvetica';font-size:79.94px;fill:#000000" text-anchor="end">6</text>
	<line x1="416.05" y1="1820.91" x2="384.00" y2="1820.91" style="stroke:#000000;stroke-width:4.61"/>
	<text x="368.03" y="1848.93" style="font-family:'Helvetica';font-size:79.94px;fill:#000000" text-anchor="end">9</text>
	<line x1="416.05" y1="1743.07" x2="384.00" y2="1743.07" style="stroke:#000000;stroke-width:4.61"/>
	<text x="368.03" y="1771.08" style="font-family:'Helvetica';font-size:79.94px;fill:#000000" text-anchor="end">12</text>
	<line x1="1575.21" y1="1387.65" x2="2665.33" y2="1387.65" style="stroke:#000000;stroke-width:4.61"/>
	<line x1="1625.95" y1="1387.65" x2="1625.95" y2="1419.70" style="stroke:#000000;stroke-width:4.61"/>
	<text x="1625.95" y="1491.57" style="font-family:'Helvetica';font-size:79.94px;fill:#000000" text-anchor="middle">0</text>
	<line x1="1873.08" y1="1387.65" x2="1873.08" y2="1419.70" style="stroke:#000000;stroke-width:4.61"/>
	<text x="1873.08" y="1491.57" style="font-family:'Helvetica';font-size:79.94px;fill:#000000" text-anchor="middle">20</text>
	<line x1="2120.21" y1="1387.65" x2="2120.21" y2="1419.70" style="stroke:#000000;stroke-width:4.61"/>
	<text x="2120.21" y="1491.57" style="font-family:'Helvetica';font-size:79.94px;fill:#000000" text-anchor="middle">40</text>
	<line x1="2367.46" y1="1387.65" x2="2367.46" y2="1419.70" style="stroke:#000000;stroke-width:4.61"/>
	<text x="2367.46" y="1491.57" style="font-family:'Helvetica';font-size:79.94px;fill:#000000" text-anchor="middle">60</text>
	<line x1="2614.59" y1="1387.65" x2="2614.59" y2="1419.70" style="stroke:#000000;stroke-width:4.61"/>
	<text x="2614.59" y="1491.57" style="font-family:'Helvetica';font-size:79.94px;fill:#000000" text-anchor="middle">80</text>
	<line x1="2734.38" y1="1387.65" x2="3824.49" y2="1387.65" style="stroke:#000000;stroke-width:4.61"/>
	<line x1="2785.12" y1="1387.65" x2="2785.12" y2="1419.70" style="stroke:#000000;stroke-width:4.61"/>
	<text x="2785.12" y="1491.57" style="font-family:'Helvetica';font-size:79.94px;fill:#000000" text-anchor="middle">0</text>
	<line x1="3032.25" y1="1387.65" x2="3032.25" y2="1419.70" style="stroke:#000000;stroke-width:4.61"/>
	<text x="3032.25" y="1491.57" style="font-family:'Helvetica';font-size:79.94px;fill:#000000" text-anchor="middle">20</text>
	<line x1="3279.50" y1="1387.65" x2="3279.50" y2="1419.70" style="stroke:#000000;stroke-width:4.61"/>
	<text x="3279.50" y="1491.57" style="font-family:'Helvetica';font-size:79.94px;fill:#000000" text-anchor="middle">40</text>
	<line x1="3526.63" y1="1387.65" x2="3526.63" y2="1419.70" style="stroke:#000000;stroke-width:4.61"/>
	<text x="3526.63" y="1491.57" style="font-family:'Helvetica';font-size:79.94px;fill:#000000" text-anchor="middle">60</text>
	<line x1="3773.88" y1="1387.65" x2="3773.88" y2="1419.70" style="stroke:#000000;stroke-width:4.61"/>
	<text x="3773.88" y="1491.57" style="font-family:'Helvetica';font-size:79.94px;fill:#000000" text-anchor="middle">80</text>
	<line x1="416.05" y1="2105.18" x2="1506.16" y2="2105.18" style="stroke:#000000;stroke-width:4.61"/>
	<line x1="466.66" y1="2105.18" x2="466.66" y2="2137.11" style="stroke:#000000;stroke-width:4.61"/>
	<text x="466.66" y="2208.97" style="font-family:'Helvetica';font-size:79.94px;fill:#000000" text-anchor="middle">0</text>
	<line x1="713.91" y1="2105.18" x2="713.91" y2="2137.11" style="stroke:#000000;stroke-width:4.61"/>
	<text x="713.91" y="2208.97" style="font-family:'Helvetica';font-size:79.94px;fill:#000000" text-anchor="middle">20</text>
	<line x1="961.04" y1="2105.18" x2="961.04" y2="2137.11" style="stroke:#000000;stroke-width:4.61"/>
	<text x="961.04" y="2208.97" style="font-family:'Helvetica';font-size:79.94px;fill:#000000" text-anchor="middle">40</text>
	<line x1="1208.30" y1="2105.18" x2="1208.30" y2="2137.11" style="stroke:#000000;stroke-width:4.61"/>
	<text x="1208.30" y="2208.97" style="font-family:'Helvetica';font-size:79.94px;fill:#000000" text-anchor="middle">60</text>
	<line x1="1455.42" y1="2105.18" x2="1455.42" y2="2137.11" style="stroke:#000000;stroke-width:4.61"/>
	<text x="1455.42" y="2208.97" style="font-family:'Helvetica';font-size:79.94px;fill:#000000" text-anchor="middle">80</text>
	<rect x="416.05" y="309.88" width="1090.11" height="91.70" style="fill:#D9E6EB"/>
	<rect x="418.35" y="312.18" width="1085.51" height="87.09" style="fill:none;stroke:#D9E6EB;stroke-width:4.61"/>
	<text x="961.04" y="368.46" style="font-family:'Helvetica';font-size:63.98px;fill:#000000" text-anchor="middle">Birmingham and Solihull</text>
	<rect x="1575.21" y="309.88" width="1090.11" height="91.70" style="fill:#D9E6EB"/>
	<rect x="1577.52" y="312.18" width="1085.51" height="87.09" style="fill:none;stroke:#D9E6EB;stroke-width:4.61"/>
	<text x="2120.21" y="368.46" style="font-family:'Helvetica';font-size:63.98px;fill:#000000" text-anchor="middle">Leicester, Leicestershire and Rutland</text>
	<rect x="2734.38" y="309.88" width="1090.11" height="91.70" style="fill:#D9E6EB"/>
	<rect x="2736.68" y="312.18" width="1085.51" height="87.09" style="fill:none;stroke:#D9E6EB;stroke-width:4.61"/>
	<text x="3279.50" y="368.46" style="font-family:'Helvetica';font-size:63.98px;fill:#000000" text-anchor="middle">Lincolnshire</text>
	<rect x="416.05" y="883.36" width="1090.11" height="91.58" style="fill:#D9E6EB"/>
	<rect x="418.35" y="885.66" width="1085.51" height="86.97" style="fill:none;stroke:#D9E6EB;stroke-width:4.61"/>
	<text x="961.04" y="941.94" style="font-family:'Helvetica';font-size:63.98px;fill:#000000" text-anchor="middle">Northamptonshire</text>
	<rect x="1575.21" y="883.36" width="1090.11" height="91.58" style="fill:#D9E6EB"/>
	<rect x="1577.52" y="885.66" width="1085.51" height="86.97" style="fill:none;stroke:#D9E6EB;stroke-width:4.61"/>
	<text x="2120.21" y="941.94" style="font-family:'Helvetica';font-size:63.98px;fill:#000000" text-anchor="middle">Nottinghamshire</text>
	<rect x="2734.38" y="883.36" width="1090.11" height="91.58" style="fill:#D9E6EB"/>
	<rect x="2736.68" y="885.66" width="1085.51" height="86.97" style="fill:none;stroke:#D9E6EB;stroke-width:4.61"/>
	<text x="3279.50" y="941.94" style="font-family:'Helvetica';font-size:63.98px;fill:#000000" text-anchor="middle">Staffordshire/Derbyshire</text>
	<rect x="416.05" y="1600.76" width="1090.11" height="91.70" style="fill:#D9E6EB"/>
	<rect x="418.35" y="1603.06" width="1085.51" height="87.09" style="fill:none;stroke:#D9E6EB;stroke-width:4.61"/>
	<text x="961.04" y="1659.34" style="font-family:'Helvetica';font-size:63.98px;fill:#000000" text-anchor="middle">The Black Country</text>
	<rect x="432.38" y="2418.27" width="3195.10" height="326.34" style="fill:#FFFFFF"/>
	<rect x="435.26" y="2421.15" width="3189.34" height="320.58" style="fill:none;stroke:#000000;stroke-width:5.76"/>
	<line x1="475.57" y1="2511.46" x2="850.04" y2="2511.46" style="stroke:#1A476F;stroke-width:23.04"/>
	<line x1="2166.99" y1="2511.46" x2="2541.45" y2="2511.46" style="stroke:#90353B;stroke-width:23.04"/>
	<line x1="475.57" y1="2651.43" x2="850.04" y2="2651.43" style="stroke:#55752F;stroke-width:23.04"/>
	<line x1="2166.99" y1="2651.43" x2="2541.45" y2="2651.43" style="stroke:#E37E00;stroke-width:23.04"/>
	<text x="909.93" y="2546.49" style="font-family:'Helvetica';font-size:99.99px;fill:#000000">Force of infection</text>
	<text x="2601.35" y="2546.49" style="font-family:'Helvetica';font-size:99.99px;fill:#000000">Smoothed A &amp; E rate</text>
	<text x="909.93" y="2686.46" style="font-family:'Helvetica';font-size:99.99px;fill:#000000">GP suspected case rate</text>
	<text x="2601.35" y="2686.46" style="font-family:'Helvetica';font-size:99.99px;fill:#000000">Crude numbers</text>
	<text x="170.79" y="1279.49" style="font-family:'Helvetica';font-size:99.99px;fill:#000000" transform="rotate(-90 170.79,1279.49)" text-anchor="middle">Expected number of cases</text>
	<text x="2029.99" y="2353.56" style="font-family:'Helvetica';font-size:99.99px;fill:#000000" text-anchor="middle"></text>
	<text x="2029.99" y="215.98" style="font-family:'Helvetica';font-size:139.96px;fill:#1E2D53" text-anchor="middle">Midlands</text>
</svg>
