<?xml version="1.0" encoding="UTF-8" standalone="no"?>
<!-- This is a Stata 16.1 generated SVG file (http://www.stata.com) -->

<svg version="1.1" width="5.50in" height="4.00in" viewBox="0 0 3960 2880" xmlns="http://www.w3.org/2000/svg" xmlns:xlink="http://www.w3.org/1999/xlink">
	<desc>Stata Graph - Graph</desc>
	<rect x="0" y="0" width="3960" height="2880" style="fill:#EAF2F3;stroke:none"/>
	<rect x="0.00" y="0.00" width="3959.88" height="2880.00" style="fill:#EAF2F3"/>
	<rect x="2.88" y="2.88" width="3954.12" height="2874.24" style="fill:none;stroke:#EAF2F3;stroke-width:5.76"/>
	<rect x="427.31" y="407.27" width="1664.07" height="761.21" style="fill:#FFFFFF"/>
	<rect x="429.76" y="409.72" width="1659.17" height="756.31" style="fill:none;stroke:#FFFFFF;stroke-width:4.90"/>
	<line x1="427.31" y1="1114.65" x2="2091.38" y2="1114.65" style="stroke:#EAF2F3;stroke-width:7.34"/>
	<line x1="427.31" y1="951.30" x2="2091.38" y2="951.30" style="stroke:#EAF2F3;stroke-width:7.34"/>
	<line x1="427.31" y1="787.82" x2="2091.38" y2="787.82" style="stroke:#EAF2F3;stroke-width:7.34"/>
	<line x1="427.31" y1="624.46" x2="2091.38" y2="624.46" style="stroke:#EAF2F3;stroke-width:7.34"/>
	<rect x="2160.43" y="407.27" width="1664.07" height="761.21" style="fill:#FFFFFF"/>
	<rect x="2162.88" y="409.72" width="1659.17" height="756.31" style="fill:none;stroke:#FFFFFF;stroke-width:4.90"/>
	<line x1="2160.43" y1="1114.65" x2="3824.49" y2="1114.65" style="stroke:#EAF2F3;stroke-width:7.34"/>
	<line x1="2160.43" y1="951.30" x2="3824.49" y2="951.30" style="stroke:#EAF2F3;stroke-width:7.34"/>
	<line x1="2160.43" y1="787.82" x2="3824.49" y2="787.82" style="stroke:#EAF2F3;stroke-width:7.34"/>
	<line x1="2160.43" y1="624.46" x2="3824.49" y2="624.46" style="stroke:#EAF2F3;stroke-width:7.34"/>
	<rect x="427.31" y="1334.93" width="1664.07" height="761.21" style="fill:#FFFFFF"/>
	<rect x="429.76" y="1337.38" width="1659.17" height="756.31" style="fill:none;stroke:#FFFFFF;stroke-width:4.90"/>
	<line x1="427.31" y1="2042.31" x2="2091.38" y2="2042.31" style="stroke:#EAF2F3;stroke-width:7.34"/>
	<line x1="427.31" y1="1878.95" x2="2091.38" y2="1878.95" style="stroke:#EAF2F3;stroke-width:7.34"/>
	<line x1="427.31" y1="1715.48" x2="2091.38" y2="1715.48" style="stroke:#EAF2F3;stroke-width:7.34"/>
	<line x1="427.31" y1="1552.12" x2="2091.38" y2="1552.12" style="stroke:#EAF2F3;stroke-width:7.34"/>
	<rect x="2160.43" y="1334.93" width="1664.07" height="761.21" style="fill:#FFFFFF"/>
	<rect x="2162.88" y="1337.38" width="1659.17" height="756.31" style="fill:none;stroke:#FFFFFF;stroke-width:4.90"/>
	<line x1="2160.43" y1="2042.31" x2="3824.49" y2="2042.31" style="stroke:#EAF2F3;stroke-width:7.34"/>
	<line x1="2160.43" y1="1878.95" x2="3824.49" y2="1878.95" style="stroke:#EAF2F3;stroke-width:7.34"/>
	<line x1="2160.43" y1="1715.48" x2="3824.49" y2="1715.48" style="stroke:#EAF2F3;stroke-width:7.34"/>
	<line x1="2160.43" y1="1552.12" x2="3824.49" y2="1552.12" style="stroke:#EAF2F3;stroke-width:7.34"/>
	<path d=" M500.57 1091.88 L520.00 1087.18 L539.43 1083.59 L558.86 1079.38 L578.41 1076.41 L597.84 1069.98 L617.26 1062.06 L636.69 1055.50 L656.12 1046.71 L675.67 1038.91 L695.10 1028.39 L714.53 1016.51 L733.96 1003.15 L753.39 988.17 L772.94 977.28 L792.37 963.05 L811.80 931.62 L831.23 928.53 L850.78 919.37 L870.21 899.07 L889.64 884.96 L909.07 882.24 L928.50 863.06 L948.05 849.20 L967.48 886.08 L986.91 884.96 L1006.34 877.54 L1025.76 883.36 L1045.32 902.29 L1064.74 909.34 L1084.17 886.70 L1103.60 888.55 L1123.03 905.01 L1142.58 910.58 L1162.01 919.99 L1181.44 935.83 L1200.87 947.09 L1220.30 941.64 L1239.85 945.73 L1259.28 952.78 L1278.71 950.92 L1298.14 981.99 L1317.57 976.91 L1337.12 995.10 L1356.55 997.08 L1375.98 975.92 L1395.40 983.35 L1414.96 987.06 L1434.39 1006.00 L1453.82 1008.59 L1473.24 1002.16 L1492.67 998.57 L1512.22 999.81 L1531.65 1002.41 L1551.08 1002.28 L1570.51 1006.99 L1589.94 1010.20 L1609.49 1009.58 L1628.92 1008.10 L1648.35 1023.32 L1667.78 1027.78 L1687.21 1036.07 L1706.76 1036.56 L1726.19 1039.53 L1745.62 1048.32 L1765.05 1044.73 L1784.47 1052.16 L1804.03 1051.17 L1823.46 1052.77 L1842.88 1065.40 L1862.31 1063.66 L1881.74 1069.85 L1901.30 1066.76" stroke-linejoin="round" style="fill:none;stroke:#1A476F;stroke-width:19.58"/>
	<path d=" M500.57 1003.52 L520.00 1003.52 L539.43 1003.52 L558.86 1003.52 L578.41 1003.52 L597.84 1003.52 L617.26 1003.52 L636.69 1003.52 L656.12 1003.52 L675.67 1003.52 L695.10 1003.52 L714.53 1003.52 L733.96 1003.52 L753.39 1003.52 L772.94 1003.52 L792.37 1003.52 L811.80 1003.52 L831.23 1003.52 L850.78 1003.52 L870.21 1003.52 L889.64 1003.52 L909.07 1003.52 L928.50 1003.52 L948.05 1003.52 L967.48 1003.52 L986.91 1003.52 L1006.34 966.39 L1025.76 950.55 L1045.32 937.06 L1064.74 935.58 L1084.17 923.95 L1103.60 914.91 L1123.03 906.37 L1142.58 899.32 L1162.01 894.00 L1181.44 889.17 L1200.87 887.69 L1220.30 883.97 L1239.85 876.42 L1259.28 869.49 L1278.71 865.41 L1298.14 863.55 L1317.57 858.60 L1337.12 852.79 L1356.55 851.30 L1375.98 850.68 L1395.40 858.73 L1414.96 873.45 L1434.39 883.36 L1453.82 899.07 L1473.24 911.57 L1492.67 923.20 L1512.22 942.76 L1531.65 952.90 L1551.08 954.02 L1570.51 958.10 L1589.94 966.52 L1609.49 972.95 L1628.92 984.21 L1648.35 990.77 L1667.78 998.82 L1687.21 1017.88 L1706.76 1060.32 L1726.19 1051.91 L1745.62 995.72 L1765.05 981.24 L1784.47 967.01 L1804.03 964.66 L1823.46 953.52 L1842.88 949.81 L1862.31 951.91 L1881.74 947.34 L1901.30 944.98" stroke-linejoin="round" style="fill:none;stroke:#90353B;stroke-width:19.58"/>
	<path d=" M500.57 1051.78 L520.00 1045.72 L539.43 1039.90 L558.86 1030.99 L578.41 1027.53 L597.84 1020.60 L617.26 1010.57 L636.69 1006.86 L656.12 1004.02 L675.67 991.52 L695.10 976.67 L714.53 968.87 L733.96 961.69 L753.39 943.99 L772.94 946.72 L792.37 943.87 L811.80 924.81 L831.23 910.46 L850.78 893.75 L870.21 880.76 L889.64 865.41 L909.07 863.06 L928.50 859.72 L948.05 841.90 L967.48 833.11 L986.91 825.44 L1006.34 820.98 L1025.76 817.89 L1045.32 808.24 L1064.74 802.42 L1084.17 803.53 L1103.60 803.66 L1123.03 782.12 L1142.58 784.97 L1162.01 797.22 L1181.44 817.64 L1200.87 833.36 L1220.30 837.32 L1239.85 847.84 L1259.28 869.62 L1278.71 884.47 L1298.14 894.12 L1317.57 892.27 L1337.12 888.80 L1356.55 892.88 L1375.98 887.19 L1395.40 882.12 L1414.96 890.90 L1434.39 910.46 L1453.82 941.64 L1473.24 967.88 L1492.67 970.35 L1512.22 977.04 L1531.65 978.52 L1551.08 976.17 L1570.51 974.19 L1589.94 969.98 L1609.49 963.67 L1628.92 961.44 L1648.35 959.09 L1667.78 959.09 L1687.21 956.74 L1706.76 955.13 L1726.19 953.15 L1745.62 950.80 L1765.05 947.83 L1784.47 949.44 L1804.03 951.79 L1823.46 958.72 L1842.88 971.72 L1862.31 977.28 L1881.74 981.37 L1901.30 988.55" stroke-linejoin="round" style="fill:none;stroke:#55752F;stroke-width:19.58"/>
	<path d=" M500.57 1114.65 L520.00 1114.65 L539.43 1098.32 L558.86 1098.32 L578.41 1065.64 L597.84 1065.64 L617.26 1049.31 L636.69 1049.31 L656.12 1049.31 L675.67 1049.31 L695.10 1049.31 L714.53 1032.97 L733.96 1032.97 L753.39 1032.97 L772.94 1032.97 L792.37 1032.97 L811.80 1032.97 L831.23 1032.97 L850.78 1032.97 L870.21 1016.64 L889.64 983.97 L909.07 983.97 L928.50 983.97 L948.05 983.97 L967.48 983.97 L986.91 983.97 L1006.34 967.63 L1025.76 951.30 L1045.32 934.96 L1064.74 934.96 L1084.17 951.30 L1103.60 951.30 L1123.03 983.97 L1142.58 967.63 L1162.01 983.97 L1181.44 983.97 L1200.87 967.63 L1220.30 967.63 L1239.85 951.30 L1259.28 967.63 L1278.71 951.30 L1298.14 951.30 L1317.57 951.30 L1337.12 951.30 L1356.55 951.30 L1375.98 951.30 L1395.40 951.30 L1414.96 967.63 L1434.39 1000.30 L1453.82 1000.30 L1473.24 1000.30 L1492.67 1000.30 L1512.22 983.97 L1531.65 983.97 L1551.08 1000.30 L1570.51 1016.64 L1589.94 1032.97 L1609.49 1032.97 L1628.92 1016.64 L1648.35 1016.64 L1667.78 1016.64 L1687.21 1032.97 L1706.76 1032.97 L1726.19 1032.97 L1745.62 1049.31 L1765.05 1049.31 L1784.47 1049.31 L1804.03 1049.31 L1823.46 1065.64 L1842.88 1065.64 L1862.31 1065.64 L1881.74 1065.64 L1901.30 1065.64" stroke-linejoin="round" style="fill:none;stroke:#E37E00;stroke-width:19.58"/>
	<path d=" M2233.69 1084.95 L2253.12 1078.89 L2272.67 1074.18 L2292.10 1068.61 L2311.53 1064.78 L2330.95 1056.49 L2350.38 1046.22 L2369.94 1037.55 L2389.36 1026.17 L2408.79 1016.02 L2428.22 1002.28 L2447.65 986.94 L2467.20 969.49 L2486.63 949.93 L2506.06 935.83 L2525.49 917.26 L2545.04 876.30 L2564.47 872.34 L2583.90 860.34 L2603.33 833.98 L2622.76 815.54 L2642.31 811.95 L2661.74 787.07 L2681.17 769.01 L2700.60 817.02 L2720.03 815.66 L2739.58 805.89 L2759.01 813.43 L2778.43 838.06 L2797.86 847.34 L2817.29 817.89 L2836.84 820.36 L2856.27 841.65 L2875.70 848.95 L2895.13 861.20 L2914.56 881.87 L2934.11 896.60 L2953.54 889.42 L2972.97 894.74 L2992.40 903.90 L3011.83 901.55 L3031.38 942.01 L3050.81 935.33 L3070.24 959.09 L3089.67 961.57 L3109.22 934.09 L3128.65 943.62 L3148.08 948.57 L3167.51 973.08 L3186.93 976.67 L3206.49 968.13 L3225.91 963.42 L3245.34 965.16 L3264.77 968.50 L3284.20 968.25 L3303.75 974.44 L3323.18 978.65 L3342.61 977.78 L3362.04 975.92 L3381.47 995.72 L3401.02 1001.42 L3420.45 1012.31 L3439.88 1013.05 L3459.31 1016.89 L3478.74 1028.39 L3498.29 1023.69 L3517.72 1033.22 L3537.15 1031.98 L3556.57 1034.09 L3576.00 1050.55 L3595.56 1048.20 L3614.99 1056.24 L3634.41 1052.40" stroke-linejoin="round" style="fill:none;stroke:#1A476F;stroke-width:19.58"/>
	<path d=" M2233.69 969.98 L2253.12 969.98 L2272.67 969.98 L2292.10 969.98 L2311.53 969.98 L2330.95 969.98 L2350.38 969.98 L2369.94 969.98 L2389.36 969.98 L2408.79 969.98 L2428.22 969.98 L2447.65 969.98 L2467.20 969.98 L2486.63 969.98 L2506.06 969.98 L2525.49 969.98 L2545.04 969.98 L2564.47 969.98 L2583.90 969.98 L2603.33 969.98 L2622.76 969.98 L2642.31 922.09 L2661.74 905.75 L2681.17 893.63 L2700.60 882.12 L2720.03 871.72 L2739.58 858.23 L2759.01 843.75 L2778.43 837.32 L2797.86 831.75 L2817.29 834.47 L2836.84 830.51 L2856.27 822.22 L2875.70 817.27 L2895.13 817.15 L2914.56 820.74 L2934.11 830.88 L2953.54 830.51 L2972.97 844.62 L2992.40 862.81 L3011.83 890.53 L3031.38 913.92 L3050.81 932.24 L3070.24 934.09 L3089.67 936.45 L3109.22 922.59 L3128.65 913.18 L3148.08 905.75 L3167.51 894.37 L3186.93 894.86 L3206.49 900.68 L3225.91 903.40 L3245.34 900.93 L3264.77 906.62 L3284.20 906.25 L3303.75 912.31 L3323.18 903.65 L3342.61 903.53 L3362.04 910.83 L3381.47 930.63 L3401.02 940.16 L3420.45 952.16 L3439.88 986.44 L3459.31 1091.51 L3478.74 1029.88 L3498.29 984.46 L3517.72 951.91 L3537.15 940.03 L3556.57 933.23 L3576.00 929.14 L3595.56 928.90 L3614.99 968.25 L3634.41 964.66" stroke-linejoin="round" style="fill:none;stroke:#90353B;stroke-width:19.58"/>
	<path d=" M2233.69 1030.99 L2253.12 1021.22 L2272.67 1014.91 L2292.10 1013.92 L2311.53 1007.36 L2330.95 1009.96 L2350.38 999.44 L2369.94 993.25 L2389.36 998.20 L2408.79 968.37 L2428.22 961.44 L2447.65 956.99 L2467.20 951.54 L2486.63 933.85 L2506.06 936.32 L2525.49 933.97 L2545.04 902.66 L2564.47 874.57 L2583.90 846.72 L2603.33 828.16 L2622.76 806.75 L2642.31 801.80 L2661.74 795.24 L2681.17 768.64 L2700.60 757.99 L2720.03 747.84 L2739.58 737.94 L2759.01 728.66 L2778.43 723.22 L2797.86 717.52 L2817.29 716.41 L2836.84 709.85 L2856.27 687.08 L2875.70 687.08 L2895.13 700.45 L2914.56 716.16 L2934.11 727.92 L2953.54 727.80 L2972.97 733.74 L2992.40 752.79 L3011.83 768.51 L3031.38 778.66 L3050.81 773.83 L3070.24 772.84 L3089.67 796.48 L3109.22 807.37 L3128.65 826.30 L3148.08 850.44 L3167.51 870.73 L3186.93 896.10 L3206.49 917.88 L3225.91 920.36 L3245.34 933.23 L3264.77 945.73 L3284.20 952.66 L3303.75 958.35 L3323.18 957.85 L3342.61 955.75 L3362.04 958.47 L3381.47 959.09 L3401.02 955.38 L3420.45 954.02 L3439.88 954.39 L3459.31 956.37 L3478.74 954.88 L3498.29 955.75 L3517.72 959.59 L3537.15 965.40 L3556.57 969.98 L3576.00 976.42 L3595.56 977.41 L3614.99 977.04 L3634.41 976.54" stroke-linejoin="round" style="fill:none;stroke:#55752F;stroke-width:19.58"/>
	<path d=" M2233.69 1098.32 L2253.12 1081.98 L2272.67 1081.98 L2292.10 1065.64 L2311.53 1065.64 L2330.95 1065.64 L2350.38 1049.31 L2369.94 1032.97 L2389.36 1032.97 L2408.79 1032.97 L2428.22 1032.97 L2447.65 1032.97 L2467.20 1032.97 L2486.63 1032.97 L2506.06 1016.64 L2525.49 1032.97 L2545.04 1032.97 L2564.47 1032.97 L2583.90 1032.97 L2603.33 1016.64 L2622.76 1016.64 L2642.31 1016.64 L2661.74 1016.64 L2681.17 1016.64 L2700.60 1016.64 L2720.03 1016.64 L2739.58 1016.64 L2759.01 1016.64 L2778.43 1016.64 L2797.86 1032.97 L2817.29 1032.97 L2836.84 1049.31 L2856.27 1049.31 L2875.70 1049.31 L2895.13 1065.64 L2914.56 1081.98 L2934.11 1081.98 L2953.54 1081.98 L2972.97 1081.98 L2992.40 1081.98 L3011.83 1065.64 L3031.38 1065.64 L3050.81 1081.98 L3070.24 1081.98 L3089.67 1081.98 L3109.22 1081.98 L3128.65 1065.64 L3148.08 1081.98 L3167.51 1081.98 L3186.93 1081.98 L3206.49 1081.98 L3225.91 1081.98 L3245.34 1081.98 L3264.77 1081.98 L3284.20 1081.98 L3303.75 1081.98 L3323.18 1081.98 L3342.61 1081.98 L3362.04 1081.98 L3381.47 1081.98 L3401.02 1081.98 L3420.45 1081.98 L3439.88 1081.98 L3459.31 1081.98 L3478.74 1081.98 L3498.29 1081.98 L3517.72 1081.98 L3537.15 1081.98 L3556.57 1098.32 L3576.00 1098.32 L3595.56 1098.32 L3614.99 1098.32 L3634.41 1098.32" stroke-linejoin="round" style="fill:none;stroke:#E37E00;stroke-width:19.58"/>
	<path d=" M500.57 2015.33 L520.00 2009.76 L539.43 2005.43 L558.86 2000.48 L578.41 1996.89 L597.84 1989.34 L617.26 1980.06 L636.69 1972.14 L656.12 1961.87 L675.67 1952.46 L695.10 1940.09 L714.53 1925.98 L733.96 1910.14 L753.39 1892.32 L772.94 1879.57 L792.37 1862.62 L811.80 1825.37 L831.23 1821.78 L850.78 1810.89 L870.21 1786.76 L889.64 1770.05 L909.07 1766.83 L928.50 1744.06 L948.05 1727.73 L967.48 1771.41 L986.91 1770.18 L1006.34 1761.27 L1025.76 1768.20 L1045.32 1790.59 L1064.74 1799.01 L1084.17 1772.16 L1103.60 1774.38 L1123.03 1793.81 L1142.58 1800.50 L1162.01 1811.63 L1181.44 1830.44 L1200.87 1843.81 L1220.30 1837.25 L1239.85 1842.08 L1259.28 1850.49 L1278.71 1848.26 L1298.14 1885.14 L1317.57 1879.08 L1337.12 1900.74 L1356.55 1902.96 L1375.98 1877.96 L1395.40 1886.63 L1414.96 1891.08 L1434.39 1913.48 L1453.82 1916.70 L1473.24 1909.03 L1492.67 1904.70 L1512.22 1906.18 L1531.65 1909.27 L1551.08 1909.03 L1570.51 1914.72 L1589.94 1918.56 L1609.49 1917.81 L1628.92 1916.08 L1648.35 1934.03 L1667.78 1939.35 L1687.21 1949.12 L1706.76 1949.87 L1726.19 1953.33 L1745.62 1963.73 L1765.05 1959.52 L1784.47 1968.18 L1804.03 1967.07 L1823.46 1969.05 L1842.88 1984.02 L1862.31 1981.92 L1881.74 1989.22 L1901.30 1985.63" stroke-linejoin="round" style="fill:none;stroke:#1A476F;stroke-width:19.58"/>
	<path d=" M500.57 1910.64 L520.00 1910.64 L539.43 1910.64 L558.86 1910.64 L578.41 1910.64 L597.84 1910.64 L617.26 1910.64 L636.69 1910.64 L656.12 1910.64 L675.67 1910.64 L695.10 1910.64 L714.53 1910.64 L733.96 1910.64 L753.39 1910.64 L772.94 1910.64 L792.37 1910.64 L811.80 1910.64 L831.23 1910.64 L850.78 1910.64 L870.21 1910.64 L889.64 1910.64 L909.07 1860.14 L928.50 1859.77 L948.05 1843.93 L967.48 1843.07 L986.91 1829.70 L1006.34 1812.13 L1025.76 1795.54 L1045.32 1785.52 L1064.74 1771.66 L1084.17 1756.81 L1103.60 1742.45 L1123.03 1730.08 L1142.58 1721.29 L1162.01 1721.54 L1181.44 1722.28 L1200.87 1718.82 L1220.30 1721.91 L1239.85 1725.01 L1259.28 1731.44 L1278.71 1743.07 L1298.14 1749.51 L1317.57 1756.44 L1337.12 1771.91 L1356.55 1789.85 L1375.98 1802.60 L1395.40 1815.10 L1414.96 1825.99 L1434.39 1834.65 L1453.82 1841.95 L1473.24 1846.66 L1492.67 1847.65 L1512.22 1855.94 L1531.65 1859.90 L1551.08 1865.96 L1570.51 1874.99 L1589.94 1890.71 L1609.49 1903.21 L1628.92 1926.11 L1648.35 1943.68 L1667.78 1823.02 L1687.21 1855.57 L1706.76 1876.73 L1726.19 1893.19 L1745.62 1905.56 L1765.05 2035.01 L1784.47 1845.79 L1804.03 1858.78 L1823.46 1894.05 L1842.88 1890.46 L1862.31 1888.73 L1881.74 1887.87 L1901.30 1886.88" stroke-linejoin="round" style="fill:none;stroke:#90353B;stroke-width:19.58"/>
	<path d=" M500.57 1963.97 L520.00 1951.35 L539.43 1948.75 L558.86 1946.03 L578.41 1945.53 L597.84 1938.48 L617.26 1925.12 L636.69 1911.13 L656.12 1917.44 L675.67 1894.18 L695.10 1887.00 L714.53 1891.70 L733.96 1888.98 L753.39 1879.20 L772.94 1882.05 L792.37 1880.81 L811.80 1852.60 L831.23 1830.44 L850.78 1806.31 L870.21 1790.10 L889.64 1765.97 L909.07 1760.28 L928.50 1753.10 L948.05 1733.30 L967.48 1724.02 L986.91 1713.87 L1006.34 1706.19 L1025.76 1697.41 L1045.32 1684.29 L1064.74 1678.23 L1084.17 1673.77 L1103.60 1671.91 L1123.03 1651.00 L1142.58 1650.63 L1162.01 1662.51 L1181.44 1682.93 L1200.87 1697.28 L1220.30 1701.00 L1239.85 1707.80 L1259.28 1727.23 L1278.71 1740.97 L1298.14 1748.39 L1317.57 1741.22 L1337.12 1733.54 L1356.55 1738.87 L1375.98 1734.66 L1395.40 1738.49 L1414.96 1755.45 L1434.39 1781.68 L1453.82 1816.34 L1473.24 1847.03 L1492.67 1854.82 L1512.22 1864.97 L1531.65 1873.01 L1551.08 1876.36 L1570.51 1873.76 L1589.94 1869.55 L1609.49 1865.59 L1628.92 1860.02 L1648.35 1861.26 L1667.78 1858.78 L1687.21 1859.28 L1706.76 1861.38 L1726.19 1863.49 L1745.62 1863.61 L1765.05 1872.40 L1784.47 1876.48 L1804.03 1879.20 L1823.46 1881.06 L1842.88 1900.74 L1862.31 1908.53 L1881.74 1914.22 L1901.30 1919.17" stroke-linejoin="round" style="fill:none;stroke:#55752F;stroke-width:19.58"/>
	<path d=" M500.57 2042.31 L520.00 2042.31 L539.43 2042.31 L558.86 2042.31 L578.41 2042.31 L597.84 2042.31 L617.26 2025.97 L636.69 2025.97 L656.12 2025.97 L675.67 2009.64 L695.10 2009.64 L714.53 1993.30 L733.96 1993.30 L753.39 1976.97 L772.94 1960.63 L792.37 1960.63 L811.80 1960.63 L831.23 1960.63 L850.78 1960.63 L870.21 1960.63 L889.64 1960.63 L909.07 1960.63 L928.50 1960.63 L948.05 1911.63 L967.48 1911.63 L986.91 1911.63 L1006.34 1895.29 L1025.76 1878.95 L1045.32 1878.95 L1064.74 1878.95 L1084.17 1878.95 L1103.60 1878.95 L1123.03 1878.95 L1142.58 1878.95 L1162.01 1895.29 L1181.44 1895.29 L1200.87 1895.29 L1220.30 1911.63 L1239.85 1911.63 L1259.28 1927.96 L1278.71 1927.96 L1298.14 1944.30 L1317.57 1960.63 L1337.12 1960.63 L1356.55 1960.63 L1375.98 1960.63 L1395.40 1960.63 L1414.96 1960.63 L1434.39 1960.63 L1453.82 1960.63 L1473.24 1944.30 L1492.67 1993.30 L1512.22 1993.30 L1531.65 1993.30 L1551.08 2009.64 L1570.51 2025.97 L1589.94 2025.97 L1609.49 2025.97 L1628.92 2009.64 L1648.35 2009.64 L1667.78 2009.64 L1687.21 2009.64 L1706.76 2009.64 L1726.19 2009.64 L1745.62 1993.30 L1765.05 1993.30 L1784.47 1993.30 L1804.03 1993.30 L1823.46 1993.30 L1842.88 1993.30 L1862.31 1993.30 L1881.74 1993.30 L1901.30 1993.30" stroke-linejoin="round" style="fill:none;stroke:#E37E00;stroke-width:19.58"/>
	<path d=" M2233.69 2027.09 L2253.12 2023.99 L2272.67 2021.64 L2292.10 2018.80 L2311.53 2016.82 L2330.95 2012.61 L2350.38 2007.29 L2369.94 2002.83 L2389.36 1997.02 L2408.79 1991.82 L2428.22 1984.76 L2447.65 1976.97 L2467.20 1967.93 L2486.63 1958.03 L2506.06 1950.73 L2525.49 1941.33 L2545.04 1920.29 L2564.47 1918.31 L2583.90 1912.12 L2603.33 1898.63 L2622.76 1889.23 L2642.31 1887.37 L2661.74 1874.62 L2681.17 1865.34 L2700.60 1889.97 L2720.03 1889.23 L2739.58 1884.28 L2759.01 1888.11 L2778.43 1900.74 L2797.86 1905.56 L2817.29 1890.46 L2836.84 1891.70 L2856.27 1902.59 L2875.70 1906.30 L2895.13 1912.62 L2914.56 1923.14 L2934.11 1930.68 L2953.54 1926.97 L2972.97 1929.69 L2992.40 1934.40 L3011.83 1933.16 L3031.38 1953.95 L3050.81 1950.61 L3070.24 1962.61 L3089.67 1963.97 L3109.22 1949.87 L3128.65 1954.82 L3148.08 1957.29 L3167.51 1969.91 L3186.93 1971.65 L3206.49 1967.32 L3225.91 1964.96 L3245.34 1965.71 L3264.77 1967.56 L3284.20 1967.44 L3303.75 1970.53 L3323.18 1972.76 L3342.61 1972.27 L3362.04 1971.28 L3381.47 1981.42 L3401.02 1984.39 L3420.45 1989.96 L3439.88 1990.33 L3459.31 1992.31 L3478.74 1998.13 L3498.29 1995.78 L3517.72 2000.61 L3537.15 1999.99 L3556.57 2001.10 L3576.00 2009.52 L3595.56 2008.28 L3614.99 2012.49 L3634.41 2010.38" stroke-linejoin="round" style="fill:none;stroke:#1A476F;stroke-width:19.58"/>
	<path d=" M2233.69 1968.31 L2253.12 1968.31 L2272.67 1968.31 L2292.10 1968.31 L2311.53 1968.31 L2330.95 1968.31 L2350.38 1968.31 L2369.94 1968.31 L2389.36 1968.31 L2408.79 1968.31 L2428.22 1968.31 L2447.65 1968.31 L2467.20 1968.31 L2486.63 1968.31 L2506.06 1968.31 L2525.49 1968.31 L2545.04 1968.31 L2564.47 1968.31 L2583.90 1968.31 L2603.33 1968.31 L2622.76 1968.31 L2642.31 1931.92 L2661.74 1931.30 L2681.17 1917.07 L2700.60 1905.07 L2720.03 1890.22 L2739.58 1876.85 L2759.01 1861.88 L2778.43 1850.49 L2797.86 1833.54 L2817.29 1818.44 L2836.84 1804.70 L2856.27 1799.38 L2875.70 1789.98 L2895.13 1782.30 L2914.56 1777.23 L2934.11 1778.22 L2953.54 1775.00 L2972.97 1778.47 L2992.40 1785.52 L3011.83 1799.13 L3031.38 1812.13 L3050.81 1826.73 L3070.24 1840.59 L3089.67 1858.66 L3109.22 1874.38 L3128.65 1884.52 L3148.08 1892.82 L3167.51 1904.45 L3186.93 1912.49 L3206.49 1920.04 L3225.91 1932.05 L3245.34 1938.60 L3264.77 1948.50 L3284.20 1956.05 L3303.75 1963.11 L3323.18 1973.26 L3342.61 1976.72 L3362.04 1972.14 L3381.47 1969.05 L3401.02 1964.84 L3420.45 1958.65 L3439.88 1946.15 L3459.31 1939.47 L3478.74 1937.12 L3498.29 1936.13 L3517.72 1933.28 L3537.15 1930.07 L3556.57 1928.70 L3576.00 1939.47 L3595.56 1939.97 L3614.99 1940.83 L3634.41 1942.94" stroke-linejoin="round" style="fill:none;stroke:#90353B;stroke-width:19.58"/>
	<path d=" M2233.69 1974.86 L2253.12 1972.14 L2272.67 1968.18 L2292.10 1973.26 L2311.53 1978.21 L2330.95 1971.89 L2350.38 1969.30 L2369.94 1967.56 L2389.36 1968.92 L2408.79 1969.30 L2428.22 1959.52 L2447.65 1948.88 L2467.20 1949.74 L2486.63 1934.27 L2506.06 1932.91 L2525.49 1931.30 L2545.04 1913.36 L2564.47 1899.75 L2583.90 1890.84 L2603.33 1882.05 L2622.76 1873.14 L2642.31 1871.90 L2661.74 1868.93 L2681.17 1858.54 L2700.60 1854.33 L2720.03 1848.14 L2739.58 1842.32 L2759.01 1837.50 L2778.43 1836.38 L2797.86 1836.14 L2817.29 1833.41 L2836.84 1834.40 L2856.27 1820.67 L2875.70 1827.35 L2895.13 1837.00 L2914.56 1850.24 L2934.11 1860.52 L2953.54 1865.34 L2972.97 1872.89 L2992.40 1887.00 L3011.83 1894.92 L3031.38 1900.36 L3050.81 1898.14 L3070.24 1894.67 L3089.67 1896.90 L3109.22 1890.22 L3128.65 1891.33 L3148.08 1897.64 L3167.51 1907.67 L3186.93 1922.02 L3206.49 1934.52 L3225.91 1935.39 L3245.34 1943.43 L3264.77 1947.14 L3284.20 1948.75 L3303.75 1951.97 L3323.18 1951.72 L3342.61 1949.49 L3362.04 1945.16 L3381.47 1944.79 L3401.02 1943.80 L3420.45 1943.68 L3439.88 1941.45 L3459.31 1939.10 L3478.74 1936.01 L3498.29 1935.88 L3517.72 1937.61 L3537.15 1939.47 L3556.57 1940.46 L3576.00 1949.49 L3595.56 1952.34 L3614.99 1954.44 L3634.41 1957.79" stroke-linejoin="round" style="fill:none;stroke:#55752F;stroke-width:19.58"/>
	<path d=" M2233.69 2025.97 L2253.12 2025.97 L2272.67 2009.64 L2292.10 2009.64 L2311.53 2009.64 L2330.95 2009.64 L2350.38 2009.64 L2369.94 1993.30 L2389.36 1976.97 L2408.79 1976.97 L2428.22 1976.97 L2447.65 1960.63 L2467.20 1960.63 L2486.63 1944.30 L2506.06 1927.96 L2525.49 1927.96 L2545.04 1927.96 L2564.47 1911.63 L2583.90 1911.63 L2603.33 1911.63 L2622.76 1895.29 L2642.31 1862.62 L2661.74 1846.28 L2681.17 1846.28 L2700.60 1829.95 L2720.03 1829.95 L2739.58 1813.61 L2759.01 1813.61 L2778.43 1829.95 L2797.86 1829.95 L2817.29 1829.95 L2836.84 1829.95 L2856.27 1829.95 L2875.70 1829.95 L2895.13 1829.95 L2914.56 1846.28 L2934.11 1862.62 L2953.54 1862.62 L2972.97 1862.62 L2992.40 1862.62 L3011.83 1862.62 L3031.38 1878.95 L3050.81 1895.29 L3070.24 1895.29 L3089.67 1895.29 L3109.22 1911.63 L3128.65 1911.63 L3148.08 1911.63 L3167.51 1927.96 L3186.93 1960.63 L3206.49 1976.97 L3225.91 1960.63 L3245.34 1976.97 L3264.77 1976.97 L3284.20 1993.30 L3303.75 1993.30 L3323.18 1993.30 L3342.61 1993.30 L3362.04 2009.64 L3381.47 2009.64 L3401.02 2009.64 L3420.45 2009.64 L3439.88 2009.64 L3459.31 2009.64 L3478.74 2009.64 L3498.29 2009.64 L3517.72 2009.64 L3537.15 2025.97 L3556.57 2025.97 L3576.00 2025.97 L3595.56 2025.97 L3614.99 2025.97 L3634.41 2025.97" stroke-linejoin="round" style="fill:none;stroke:#E37E00;stroke-width:19.58"/>
	<line x1="427.31" y1="1168.48" x2="427.31" y2="407.27" style="stroke:#000000;stroke-width:4.90"/>
	<line x1="427.31" y1="1114.65" x2="393.28" y2="1114.65" style="stroke:#000000;stroke-width:4.90"/>
	<text x="376.32" y="1144.44" style="font-family:'Helvetica';font-size:85.02px;fill:#000000" text-anchor="end">0</text>
	<line x1="427.31" y1="951.30" x2="393.28" y2="951.30" style="stroke:#000000;stroke-width:4.90"/>
	<text x="376.32" y="981.08" style="font-family:'Helvetica';font-size:85.02px;fill:#000000" text-anchor="end">10</text>
	<line x1="427.31" y1="787.82" x2="393.28" y2="787.82" style="stroke:#000000;stroke-width:4.90"/>
	<text x="376.32" y="817.60" style="font-family:'Helvetica';font-size:85.02px;fill:#000000" text-anchor="end">20</text>
	<line x1="427.31" y1="624.46" x2="393.28" y2="624.46" style="stroke:#000000;stroke-width:4.90"/>
	<text x="376.32" y="654.25" style="font-family:'Helvetica';font-size:85.02px;fill:#000000" text-anchor="end">30</text>
	<line x1="427.31" y1="461.11" x2="393.28" y2="461.11" style="stroke:#000000;stroke-width:4.90"/>
	<text x="376.32" y="490.89" style="font-family:'Helvetica';font-size:85.02px;fill:#000000" text-anchor="end">40</text>
	<line x1="427.31" y1="2096.14" x2="427.31" y2="1334.93" style="stroke:#000000;stroke-width:4.90"/>
	<line x1="427.31" y1="2042.31" x2="393.28" y2="2042.31" style="stroke:#000000;stroke-width:4.90"/>
	<text x="376.32" y="2072.10" style="font-family:'Helvetica';font-size:85.02px;fill:#000000" text-anchor="end">0</text>
	<line x1="427.31" y1="1878.95" x2="393.28" y2="1878.95" style="stroke:#000000;stroke-width:4.90"/>
	<text x="376.32" y="1908.74" style="font-family:'Helvetica';font-size:85.02px;fill:#000000" text-anchor="end">10</text>
	<line x1="427.31" y1="1715.48" x2="393.28" y2="1715.48" style="stroke:#000000;stroke-width:4.90"/>
	<text x="376.32" y="1745.26" style="font-family:'Helvetica';font-size:85.02px;fill:#000000" text-anchor="end">20</text>
	<line x1="427.31" y1="1552.12" x2="393.28" y2="1552.12" style="stroke:#000000;stroke-width:4.90"/>
	<text x="376.32" y="1581.91" style="font-family:'Helvetica';font-size:85.02px;fill:#000000" text-anchor="end">30</text>
	<line x1="427.31" y1="1388.77" x2="393.28" y2="1388.77" style="stroke:#000000;stroke-width:4.90"/>
	<text x="376.32" y="1418.55" style="font-family:'Helvetica';font-size:85.02px;fill:#000000" text-anchor="end">40</text>
	<line x1="427.31" y1="2096.14" x2="2091.38" y2="2096.14" style="stroke:#000000;stroke-width:4.90"/>
	<line x1="481.14" y1="2096.14" x2="481.14" y2="2130.18" style="stroke:#000000;stroke-width:4.90"/>
	<text x="481.14" y="2206.58" style="font-family:'Helvetica';font-size:85.02px;fill:#000000" text-anchor="middle">0</text>
	<line x1="870.21" y1="2096.14" x2="870.21" y2="2130.18" style="stroke:#000000;stroke-width:4.90"/>
	<text x="870.21" y="2206.58" style="font-family:'Helvetica';font-size:85.02px;fill:#000000" text-anchor="middle">20</text>
	<line x1="1259.28" y1="2096.14" x2="1259.28" y2="2130.18" style="stroke:#000000;stroke-width:4.90"/>
	<text x="1259.28" y="2206.58" style="font-family:'Helvetica';font-size:85.02px;fill:#000000" text-anchor="middle">40</text>
	<line x1="1648.35" y1="2096.14" x2="1648.35" y2="2130.18" style="stroke:#000000;stroke-width:4.90"/>
	<text x="1648.35" y="2206.58" style="font-family:'Helvetica';font-size:85.02px;fill:#000000" text-anchor="middle">60</text>
	<line x1="2037.54" y1="2096.14" x2="2037.54" y2="2130.18" style="stroke:#000000;stroke-width:4.90"/>
	<text x="2037.54" y="2206.58" style="font-family:'Helvetica';font-size:85.02px;fill:#000000" text-anchor="middle">80</text>
	<line x1="2160.43" y1="2096.14" x2="3824.49" y2="2096.14" style="stroke:#000000;stroke-width:4.90"/>
	<line x1="2214.38" y1="2096.14" x2="2214.38" y2="2130.18" style="stroke:#000000;stroke-width:4.90"/>
	<text x="2214.38" y="2206.58" style="font-family:'Helvetica';font-size:85.02px;fill:#000000" text-anchor="middle">0</text>
	<line x1="2603.45" y1="2096.14" x2="2603.45" y2="2130.18" style="stroke:#000000;stroke-width:4.90"/>
	<text x="2603.45" y="2206.58" style="font-family:'Helvetica';font-size:85.02px;fill:#000000" text-anchor="middle">20</text>
	<line x1="2992.52" y1="2096.14" x2="2992.52" y2="2130.18" style="stroke:#000000;stroke-width:4.90"/>
	<text x="2992.52" y="2206.58" style="font-family:'Helvetica';font-size:85.02px;fill:#000000" text-anchor="middle">40</text>
	<line x1="3381.59" y1="2096.14" x2="3381.59" y2="2130.18" style="stroke:#000000;stroke-width:4.90"/>
	<text x="3381.59" y="2206.58" style="font-family:'Helvetica';font-size:85.02px;fill:#000000" text-anchor="middle">60</text>
	<line x1="3770.66" y1="2096.14" x2="3770.66" y2="2130.18" style="stroke:#000000;stroke-width:4.90"/>
	<text x="3770.66" y="2206.58" style="font-family:'Helvetica';font-size:85.02px;fill:#000000" text-anchor="middle">80</text>
	<rect x="427.31" y="309.88" width="1664.07" height="97.39" style="fill:#D9E6EB"/>
	<rect x="429.76" y="312.33" width="1659.17" height="92.50" style="fill:none;stroke:#D9E6EB;stroke-width:4.90"/>
	<text x="1259.28" y="372.10" style="font-family:'Helvetica';font-size:67.94px;fill:#000000" text-anchor="middle">Bath, Swindon and Wiltshire</text>
	<rect x="2160.43" y="309.88" width="1664.07" height="97.39" style="fill:#D9E6EB"/>
	<rect x="2162.88" y="312.33" width="1659.17" height="92.50" style="fill:none;stroke:#D9E6EB;stroke-width:4.90"/>
	<text x="2992.52" y="372.10" style="font-family:'Helvetica';font-size:67.94px;fill:#000000" text-anchor="middle">Devon/Cornwall</text>
	<rect x="427.31" y="1237.54" width="1664.07" height="97.39" style="fill:#D9E6EB"/>
	<rect x="429.76" y="1239.99" width="1659.17" height="92.50" style="fill:none;stroke:#D9E6EB;stroke-width:4.90"/>
	<text x="1259.28" y="1299.76" style="font-family:'Helvetica';font-size:67.94px;fill:#000000" text-anchor="middle">Dorset</text>
	<rect x="2160.43" y="1237.54" width="1664.07" height="97.39" style="fill:#D9E6EB"/>
	<rect x="2162.88" y="1239.99" width="1659.17" height="92.50" style="fill:none;stroke:#D9E6EB;stroke-width:4.90"/>
	<text x="2992.52" y="1299.76" style="font-family:'Helvetica';font-size:67.94px;fill:#000000" text-anchor="middle">Gloucestershire</text>
	<rect x="432.38" y="2418.27" width="3195.10" height="326.34" style="fill:#FFFFFF"/>
	<rect x="435.26" y="2421.15" width="3189.34" height="320.58" style="fill:none;stroke:#000000;stroke-width:5.76"/>
	<line x1="475.57" y1="2511.46" x2="850.04" y2="2511.46" style="stroke:#1A476F;stroke-width:23.04"/>
	<line x1="2166.99" y1="2511.46" x2="2541.45" y2="2511.46" style="stroke:#90353B;stroke-width:23.04"/>
	<line x1="475.57" y1="2651.43" x2="850.04" y2="2651.43" style="stroke:#55752F;stroke-width:23.04"/>
	<line x1="2166.99" y1="2651.43" x2="2541.45" y2="2651.43" style="stroke:#E37E00;stroke-width:23.04"/>
	<text x="909.93" y="2546.49" style="font-family:'Helvetica';font-size:99.99px;fill:#000000">Force of infection</text>
	<text x="2601.35" y="2546.49" style="font-family:'Helvetica';font-size:99.99px;fill:#000000">Smoothed A &amp; E rate</text>
	<text x="909.93" y="2686.46" style="font-family:'Helvetica';font-size:99.99px;fill:#000000">GP suspected case rate</text>
	<text x="2601.35" y="2686.46" style="font-family:'Helvetica';font-size:99.99px;fill:#000000">Crude numbers</text>
	<text x="170.79" y="1279.49" style="font-family:'Helvetica';font-size:99.99px;fill:#000000" transform="rotate(-90 170.79,1279.49)" text-anchor="middle">Expected no cases</text>
	<text x="2029.99" y="2353.56" style="font-family:'Helvetica';font-size:99.99px;fill:#000000" text-anchor="middle"> </text>
	<text x="2029.99" y="215.98" style="font-family:'Helvetica';font-size:139.96px;fill:#1E2D53" text-anchor="middle">South West</text>
</svg>
