<?xml version="1.0" encoding="UTF-8" standalone="no"?>
<!-- This is a Stata 16.1 generated SVG file (http://www.stata.com) -->

<svg version="1.1" width="5.50in" height="4.00in" viewBox="0 0 3960 2880" xmlns="http://www.w3.org/2000/svg" xmlns:xlink="http://www.w3.org/1999/xlink">
	<desc>Stata Graph - Graph</desc>
	<rect x="0" y="0" width="3960" height="2880" style="fill:#EAF2F3;stroke:none"/>
	<rect x="0.00" y="0.00" width="3959.88" height="2880.00" style="fill:#EAF2F3"/>
	<rect x="2.88" y="2.88" width="3954.12" height="2874.24" style="fill:none;stroke:#EAF2F3;stroke-width:5.76"/>
	<rect x="416.05" y="401.58" width="1090.11" height="771.36" style="fill:#FFFFFF"/>
	<rect x="418.35" y="403.89" width="1085.51" height="766.75" style="fill:none;stroke:#FFFFFF;stroke-width:4.61"/>
	<line x1="416.05" y1="1122.32" x2="1506.16" y2="1122.32" style="stroke:#EAF2F3;stroke-width:6.91"/>
	<line x1="416.05" y1="954.76" x2="1506.16" y2="954.76" style="stroke:#EAF2F3;stroke-width:6.91"/>
	<line x1="416.05" y1="787.20" x2="1506.16" y2="787.20" style="stroke:#EAF2F3;stroke-width:6.91"/>
	<line x1="416.05" y1="619.76" x2="1506.16" y2="619.76" style="stroke:#EAF2F3;stroke-width:6.91"/>
	<line x1="416.05" y1="452.20" x2="1506.16" y2="452.20" style="stroke:#EAF2F3;stroke-width:6.91"/>
	<rect x="1575.21" y="401.58" width="1090.11" height="771.36" style="fill:#FFFFFF"/>
	<rect x="1577.52" y="403.89" width="1085.51" height="766.75" style="fill:none;stroke:#FFFFFF;stroke-width:4.61"/>
	<line x1="1575.21" y1="1122.32" x2="2665.33" y2="1122.32" style="stroke:#EAF2F3;stroke-width:6.91"/>
	<line x1="1575.21" y1="954.76" x2="2665.33" y2="954.76" style="stroke:#EAF2F3;stroke-width:6.91"/>
	<line x1="1575.21" y1="787.20" x2="2665.33" y2="787.20" style="stroke:#EAF2F3;stroke-width:6.91"/>
	<line x1="1575.21" y1="619.76" x2="2665.33" y2="619.76" style="stroke:#EAF2F3;stroke-width:6.91"/>
	<line x1="1575.21" y1="452.20" x2="2665.33" y2="452.20" style="stroke:#EAF2F3;stroke-width:6.91"/>
	<rect x="2734.38" y="401.58" width="1090.11" height="771.36" style="fill:#FFFFFF"/>
	<rect x="2736.68" y="403.89" width="1085.51" height="766.75" style="fill:none;stroke:#FFFFFF;stroke-width:4.61"/>
	<line x1="2734.38" y1="1122.32" x2="3824.49" y2="1122.32" style="stroke:#EAF2F3;stroke-width:6.91"/>
	<line x1="2734.38" y1="954.76" x2="3824.49" y2="954.76" style="stroke:#EAF2F3;stroke-width:6.91"/>
	<line x1="2734.38" y1="787.20" x2="3824.49" y2="787.20" style="stroke:#EAF2F3;stroke-width:6.91"/>
	<line x1="2734.38" y1="619.76" x2="3824.49" y2="619.76" style="stroke:#EAF2F3;stroke-width:6.91"/>
	<line x1="2734.38" y1="452.20" x2="3824.49" y2="452.20" style="stroke:#EAF2F3;stroke-width:6.91"/>
	<rect x="416.05" y="1333.70" width="1090.11" height="771.48" style="fill:#FFFFFF"/>
	<rect x="418.35" y="1336.00" width="1085.51" height="766.87" style="fill:none;stroke:#FFFFFF;stroke-width:4.61"/>
	<line x1="416.05" y1="2054.44" x2="1506.16" y2="2054.44" style="stroke:#EAF2F3;stroke-width:6.91"/>
	<line x1="416.05" y1="1886.88" x2="1506.16" y2="1886.88" style="stroke:#EAF2F3;stroke-width:6.91"/>
	<line x1="416.05" y1="1719.44" x2="1506.16" y2="1719.44" style="stroke:#EAF2F3;stroke-width:6.91"/>
	<line x1="416.05" y1="1551.87" x2="1506.16" y2="1551.87" style="stroke:#EAF2F3;stroke-width:6.91"/>
	<line x1="416.05" y1="1384.43" x2="1506.16" y2="1384.43" style="stroke:#EAF2F3;stroke-width:6.91"/>
	<rect x="1575.21" y="1333.70" width="1090.11" height="771.48" style="fill:#FFFFFF"/>
	<rect x="1577.52" y="1336.00" width="1085.51" height="766.87" style="fill:none;stroke:#FFFFFF;stroke-width:4.61"/>
	<line x1="1575.21" y1="2054.44" x2="2665.33" y2="2054.44" style="stroke:#EAF2F3;stroke-width:6.91"/>
	<line x1="1575.21" y1="1886.88" x2="2665.33" y2="1886.88" style="stroke:#EAF2F3;stroke-width:6.91"/>
	<line x1="1575.21" y1="1719.44" x2="2665.33" y2="1719.44" style="stroke:#EAF2F3;stroke-width:6.91"/>
	<line x1="1575.21" y1="1551.87" x2="2665.33" y2="1551.87" style="stroke:#EAF2F3;stroke-width:6.91"/>
	<line x1="1575.21" y1="1384.43" x2="2665.33" y2="1384.43" style="stroke:#EAF2F3;stroke-width:6.91"/>
	<rect x="2734.38" y="1333.70" width="1090.11" height="771.48" style="fill:#FFFFFF"/>
	<rect x="2736.68" y="1336.00" width="1085.51" height="766.87" style="fill:none;stroke:#FFFFFF;stroke-width:4.61"/>
	<line x1="2734.38" y1="2054.44" x2="3824.49" y2="2054.44" style="stroke:#EAF2F3;stroke-width:6.91"/>
	<line x1="2734.38" y1="1886.88" x2="3824.49" y2="1886.88" style="stroke:#EAF2F3;stroke-width:6.91"/>
	<line x1="2734.38" y1="1719.44" x2="3824.49" y2="1719.44" style="stroke:#EAF2F3;stroke-width:6.91"/>
	<line x1="2734.38" y1="1551.87" x2="3824.49" y2="1551.87" style="stroke:#EAF2F3;stroke-width:6.91"/>
	<line x1="2734.38" y1="1384.43" x2="3824.49" y2="1384.43" style="stroke:#EAF2F3;stroke-width:6.91"/>
	<path d=" M479.04 1105.12 L491.41 1100.79 L503.66 1097.82 L516.04 1093.61 L528.41 1088.29 L540.79 1083.22 L553.16 1074.18 L565.54 1065.77 L577.91 1055.37 L590.16 1045.84 L602.54 1032.11 L614.91 1016.64 L627.29 1001.05 L639.66 982.36 L652.04 965.16 L664.41 943.38 L676.79 911.20 L689.04 895.61 L701.41 876.55 L713.79 849.82 L726.16 829.77 L738.54 819.13 L750.91 799.57 L763.29 776.06 L775.66 811.08 L787.92 799.20 L800.29 785.84 L812.67 778.29 L825.04 800.07 L837.42 806.88 L849.79 767.15 L862.17 757.25 L874.54 776.43 L886.79 779.65 L899.17 787.20 L911.54 801.68 L923.92 813.31 L936.29 818.63 L948.67 815.91 L961.04 827.79 L973.29 827.67 L985.67 875.19 L998.04 861.95 L1010.42 897.71 L1022.79 909.47 L1035.17 858.36 L1047.54 866.28 L1059.92 876.92 L1072.17 890.53 L1084.55 904.27 L1096.92 891.15 L1109.30 893.75 L1121.67 893.38 L1134.05 897.59 L1146.42 910.09 L1158.80 925.68 L1171.05 939.54 L1183.42 939.79 L1195.80 949.19 L1208.17 973.45 L1220.55 968.99 L1232.92 977.41 L1245.30 979.76 L1257.55 981.74 L1269.92 993.25 L1282.30 995.60 L1294.67 1000.43 L1307.05 1002.16 L1319.42 1002.04 L1331.80 1022.95 L1344.17 1017.13 L1356.42 1032.73 L1368.80 1026.17" stroke-linejoin="round" style="fill:none;stroke:#1A476F;stroke-width:18.43"/>
	<path d=" M479.04 1006.99 L491.41 1006.99 L503.66 1006.99 L516.04 1006.99 L528.41 1006.99 L540.79 1006.99 L553.16 1006.99 L565.54 1006.99 L577.91 1006.99 L590.16 1006.99 L602.54 1006.99 L614.91 1006.99 L627.29 1006.99 L639.66 1006.99 L652.04 1006.99 L664.41 1006.99 L676.79 1006.99 L689.04 970.60 L701.41 970.48 L713.79 947.21 L726.16 937.44 L738.54 923.45 L750.91 912.68 L763.29 900.80 L775.66 890.29 L787.92 879.89 L800.29 874.94 L812.67 864.79 L825.04 858.85 L837.42 850.44 L849.79 839.67 L862.17 832.49 L874.54 823.95 L886.79 814.05 L899.17 808.24 L911.54 807.25 L923.92 806.88 L936.29 813.43 L948.67 814.55 L961.04 816.90 L973.29 825.93 L985.67 834.10 L998.04 837.81 L1010.42 842.64 L1022.79 849.82 L1035.17 864.92 L1047.54 878.16 L1059.92 887.07 L1072.17 898.21 L1084.55 911.57 L1096.92 922.34 L1109.30 927.54 L1121.67 931.37 L1134.05 933.35 L1146.42 936.82 L1158.80 938.92 L1171.05 939.29 L1183.42 938.92 L1195.80 936.45 L1208.17 933.23 L1220.55 929.39 L1232.92 924.32 L1245.30 918.50 L1257.55 914.05 L1269.92 910.95 L1282.30 912.19 L1294.67 914.79 L1307.05 919.86 L1319.42 922.71 L1331.80 933.35 L1344.17 935.58 L1356.42 942.76 L1368.80 943.13" stroke-linejoin="round" style="fill:none;stroke:#90353B;stroke-width:18.43"/>
	<path d=" M479.04 1027.65 L491.41 1022.95 L503.66 1021.96 L516.04 1020.47 L528.41 1018.87 L540.79 1018.74 L553.16 1007.73 L565.54 1000.43 L577.91 1001.79 L590.16 984.59 L602.54 988.55 L614.91 986.32 L627.29 983.84 L639.66 980.87 L652.04 983.84 L664.41 983.72 L676.79 953.77 L689.04 931.87 L701.41 916.15 L713.79 901.30 L726.16 878.03 L738.54 870.24 L750.91 863.18 L763.29 837.81 L775.66 825.56 L787.92 817.89 L800.29 811.08 L812.67 806.50 L825.04 805.14 L837.42 803.78 L849.79 806.88 L862.17 809.72 L874.54 799.08 L886.79 798.21 L899.17 805.89 L911.54 817.64 L923.92 825.93 L936.29 826.92 L948.67 828.41 L961.04 838.43 L973.29 847.59 L985.67 857.00 L998.04 855.51 L1010.42 858.48 L1022.79 882.24 L1035.17 895.61 L1047.54 917.76 L1059.92 941.02 L1072.17 952.41 L1084.55 965.16 L1096.92 974.07 L1109.30 966.64 L1121.67 970.73 L1134.05 975.55 L1146.42 976.54 L1158.80 976.67 L1171.05 973.82 L1183.42 970.60 L1195.80 966.02 L1208.17 965.03 L1220.55 961.69 L1232.92 954.51 L1245.30 951.67 L1257.55 950.18 L1269.92 947.95 L1282.30 950.06 L1294.67 954.14 L1307.05 955.87 L1319.42 964.41 L1331.80 977.16 L1344.17 981.99 L1356.42 986.19 L1368.80 992.75" stroke-linejoin="round" style="fill:none;stroke:#55752F;stroke-width:18.43"/>
	<path d=" M479.04 1105.62 L491.41 1105.62 L503.66 1105.62 L516.04 1105.62 L528.41 1088.79 L540.79 1088.79 L553.16 1088.79 L565.54 1088.79 L577.91 1088.79 L590.16 1088.79 L602.54 1088.79 L614.91 1088.79 L627.29 1088.79 L639.66 1072.08 L652.04 1055.37 L664.41 1021.84 L676.79 1021.84 L689.04 1021.84 L701.41 1021.84 L713.79 988.30 L726.16 971.59 L738.54 971.59 L750.91 954.88 L763.29 938.05 L775.66 938.05 L787.92 921.35 L800.29 938.05 L812.67 938.05 L825.04 921.35 L837.42 921.35 L849.79 921.35 L862.17 904.52 L874.54 921.35 L886.79 921.35 L899.17 921.35 L911.54 887.81 L923.92 887.81 L936.29 887.81 L948.67 871.10 L961.04 871.10 L973.29 871.10 L985.67 887.81 L998.04 904.52 L1010.42 938.05 L1022.79 938.05 L1035.17 938.05 L1047.54 938.05 L1059.92 971.59 L1072.17 988.30 L1084.55 988.30 L1096.92 988.30 L1109.30 1005.13 L1121.67 1005.13 L1134.05 1005.13 L1146.42 988.30 L1158.80 988.30 L1171.05 1005.13 L1183.42 1005.13 L1195.80 1005.13 L1208.17 1005.13 L1220.55 1005.13 L1232.92 1005.13 L1245.30 1005.13 L1257.55 1038.54 L1269.92 1038.54 L1282.30 1038.54 L1294.67 1055.37 L1307.05 1055.37 L1319.42 1038.54 L1331.80 1038.54 L1344.17 1038.54 L1356.42 1038.54 L1368.80 1038.54" stroke-linejoin="round" style="fill:none;stroke:#E37E00;stroke-width:18.43"/>
	<path d=" M1638.20 1108.96 L1650.58 1105.62 L1662.95 1103.39 L1675.33 1100.05 L1687.58 1095.96 L1699.95 1092.00 L1712.33 1084.95 L1724.70 1078.51 L1737.08 1070.47 L1749.45 1063.05 L1761.83 1052.28 L1774.20 1040.40 L1786.45 1028.27 L1798.83 1013.79 L1811.20 1000.43 L1823.58 983.60 L1835.95 958.60 L1848.33 946.47 L1860.70 931.74 L1873.08 911.08 L1885.33 895.48 L1897.71 887.19 L1910.08 872.09 L1922.46 853.90 L1934.83 881.00 L1947.21 871.72 L1959.58 861.33 L1971.96 855.63 L1984.21 872.34 L1996.58 877.66 L2008.96 846.97 L2021.33 839.30 L2033.71 854.15 L2046.08 856.62 L2058.46 862.44 L2070.71 873.70 L2083.08 882.74 L2095.46 886.82 L2107.83 884.72 L2120.21 894.00 L2132.58 893.87 L2144.96 930.63 L2157.33 920.48 L2169.59 948.08 L2181.96 957.24 L2194.34 917.63 L2206.71 923.82 L2219.09 931.99 L2231.46 942.63 L2243.84 953.28 L2256.21 943.13 L2268.46 945.11 L2280.84 944.86 L2293.21 948.08 L2305.59 957.73 L2317.96 969.86 L2330.34 980.50 L2342.71 980.75 L2354.96 988.05 L2367.34 1006.86 L2379.71 1003.40 L2392.09 1009.96 L2404.46 1011.81 L2416.84 1013.30 L2429.21 1022.33 L2441.59 1024.06 L2453.84 1027.78 L2466.21 1029.14 L2478.59 1029.01 L2490.96 1045.35 L2503.34 1040.77 L2515.71 1052.77 L2528.09 1047.70" stroke-linejoin="round" style="fill:none;stroke:#1A476F;stroke-width:18.43"/>
	<path d=" M1638.20 1032.85 L1650.58 1032.85 L1662.95 1032.85 L1675.33 1032.85 L1687.58 1032.85 L1699.95 1032.85 L1712.33 1032.85 L1724.70 1032.85 L1737.08 1032.85 L1749.45 1032.85 L1761.83 1032.85 L1774.20 1032.85 L1786.45 1032.85 L1798.83 1032.85 L1811.20 1032.85 L1823.58 1032.85 L1835.95 1003.52 L1848.33 982.73 L1860.70 974.19 L1873.08 965.65 L1885.33 950.55 L1897.71 946.59 L1910.08 937.19 L1922.46 927.54 L1934.83 922.59 L1947.21 913.92 L1959.58 904.76 L1971.96 902.17 L1984.21 884.22 L1996.58 870.11 L2008.96 854.03 L2021.33 836.82 L2033.71 816.40 L2046.08 797.59 L2058.46 778.04 L2070.71 774.33 L2083.08 775.44 L2095.46 779.65 L2107.83 792.15 L2120.21 810.09 L2132.58 833.98 L2144.96 855.88 L2157.33 873.33 L2169.59 890.04 L2181.96 909.10 L2194.34 926.79 L2206.71 943.25 L2219.09 956.99 L2231.46 971.72 L2243.84 983.72 L2256.21 992.01 L2268.46 1000.43 L2280.84 1003.64 L2293.21 1006.86 L2305.59 1006.61 L2317.96 1005.50 L2330.34 1004.02 L2342.71 1002.65 L2354.96 1001.42 L2367.34 1000.55 L2379.71 998.57 L2392.09 1001.42 L2404.46 1002.41 L2416.84 1002.41 L2429.21 1002.90 L2441.59 1000.55 L2453.84 1000.67 L2466.21 1001.66 L2478.59 997.70 L2490.96 995.23 L2503.34 990.65 L2515.71 989.66 L2528.09 989.54" stroke-linejoin="round" style="fill:none;stroke:#90353B;stroke-width:18.43"/>
	<path d=" M1638.20 1041.14 L1650.58 1035.45 L1662.95 1027.40 L1675.33 1022.33 L1687.58 1020.23 L1699.95 1016.89 L1712.33 1016.39 L1724.70 1011.94 L1737.08 1006.37 L1749.45 999.19 L1761.83 988.79 L1774.20 981.62 L1786.45 975.30 L1798.83 971.59 L1811.20 975.30 L1823.58 978.03 L1835.95 962.06 L1848.33 954.14 L1860.70 942.76 L1873.08 935.08 L1885.33 923.45 L1897.71 921.35 L1910.08 917.63 L1922.46 902.78 L1934.83 894.99 L1947.21 888.18 L1959.58 882.74 L1971.96 879.77 L1984.21 875.43 L1996.58 872.59 L2008.96 875.31 L2021.33 875.81 L2033.71 857.49 L2046.08 864.30 L2058.46 877.91 L2070.71 895.36 L2083.08 909.10 L2095.46 914.66 L2107.83 924.44 L2120.21 942.51 L2132.58 952.29 L2144.96 957.11 L2157.33 954.02 L2169.59 949.93 L2181.96 951.67 L2194.34 945.11 L2206.71 944.86 L2219.09 952.53 L2231.46 963.18 L2243.84 978.65 L2256.21 991.27 L2268.46 990.40 L2280.84 995.23 L2293.21 990.15 L2305.59 985.33 L2317.96 981.86 L2330.34 978.52 L2342.71 973.20 L2354.96 968.13 L2367.34 970.73 L2379.71 975.55 L2392.09 977.90 L2404.46 980.01 L2416.84 980.75 L2429.21 981.12 L2441.59 984.59 L2453.84 987.31 L2466.21 990.15 L2478.59 993.25 L2490.96 1002.28 L2503.34 1005.25 L2515.71 1006.86 L2528.09 1011.07" stroke-linejoin="round" style="fill:none;stroke:#55752F;stroke-width:18.43"/>
	<path d=" M1638.20 1038.54 L1650.58 1038.54 L1662.95 1021.84 L1675.33 1005.13 L1687.58 1005.13 L1699.95 1005.13 L1712.33 988.30 L1724.70 988.30 L1737.08 954.88 L1749.45 921.35 L1761.83 921.35 L1774.20 887.81 L1786.45 854.27 L1798.83 854.27 L1811.20 804.03 L1823.58 787.32 L1835.95 787.32 L1848.33 787.32 L1860.70 787.32 L1873.08 787.32 L1885.33 804.03 L1897.71 770.62 L1910.08 753.78 L1922.46 770.62 L1934.83 770.62 L1947.21 787.32 L1959.58 787.32 L1971.96 804.03 L1984.21 820.86 L1996.58 820.86 L2008.96 837.57 L2021.33 854.27 L2033.71 854.27 L2046.08 854.27 L2058.46 854.27 L2070.71 854.27 L2083.08 887.81 L2095.46 921.35 L2107.83 904.52 L2120.21 938.05 L2132.58 971.59 L2144.96 971.59 L2157.33 1021.84 L2169.59 1038.54 L2181.96 1021.84 L2194.34 1005.13 L2206.71 1005.13 L2219.09 971.59 L2231.46 971.59 L2243.84 1005.13 L2256.21 1021.84 L2268.46 1021.84 L2280.84 1021.84 L2293.21 1021.84 L2305.59 1005.13 L2317.96 1005.13 L2330.34 1005.13 L2342.71 1005.13 L2354.96 1005.13 L2367.34 1005.13 L2379.71 1005.13 L2392.09 1005.13 L2404.46 1021.84 L2416.84 1021.84 L2429.21 1021.84 L2441.59 1021.84 L2453.84 1038.54 L2466.21 1038.54 L2478.59 1038.54 L2490.96 1038.54 L2503.34 1038.54 L2515.71 1038.54 L2528.09 1055.37" stroke-linejoin="round" style="fill:none;stroke:#E37E00;stroke-width:18.43"/>
	<path d=" M2797.37 1099.68 L2809.74 1093.98 L2822.12 1090.02 L2834.49 1084.33 L2846.87 1077.40 L2859.24 1070.72 L2871.62 1058.84 L2883.87 1047.70 L2896.24 1033.96 L2908.62 1021.34 L2920.99 1003.27 L2933.37 982.85 L2945.74 962.19 L2958.12 937.56 L2970.49 914.91 L2982.75 886.20 L2995.12 843.75 L3007.50 823.09 L3019.87 797.96 L3032.25 762.82 L3044.62 736.21 L3057.00 722.23 L3069.37 696.36 L3081.62 665.42 L3094.00 711.71 L3106.37 695.87 L3118.75 678.29 L3131.12 668.39 L3143.50 696.98 L3155.87 706.02 L3168.12 653.67 L3180.50 640.55 L3192.87 665.92 L3205.25 670.13 L3217.62 680.03 L3230.00 699.33 L3242.37 714.55 L3254.75 721.61 L3267.00 718.02 L3279.38 733.74 L3291.75 733.49 L3304.13 796.23 L3316.50 778.78 L3328.88 825.93 L3341.25 841.40 L3353.63 774.08 L3365.88 784.48 L3378.25 798.46 L3390.63 816.53 L3403.00 834.60 L3415.38 817.39 L3427.75 820.74 L3440.13 820.24 L3452.38 825.69 L3464.75 842.27 L3477.13 862.94 L3489.50 881.00 L3501.88 881.50 L3514.25 893.87 L3526.63 925.93 L3539.00 919.99 L3551.25 931.12 L3563.63 934.22 L3576.00 936.82 L3588.38 952.04 L3600.75 955.01 L3613.13 961.44 L3625.50 963.80 L3637.88 963.55 L3650.13 991.27 L3662.51 983.60 L3674.88 1004.02 L3687.26 995.48" stroke-linejoin="round" style="fill:none;stroke:#1A476F;stroke-width:18.43"/>
	<path d=" M2797.37 970.11 L2809.74 970.11 L2822.12 970.11 L2834.49 970.11 L2846.87 970.11 L2859.24 970.11 L2871.62 970.11 L2883.87 970.11 L2896.24 970.11 L2908.62 970.11 L2920.99 970.11 L2933.37 970.11 L2945.74 970.11 L2958.12 970.11 L2970.49 970.11 L2982.75 970.11 L2995.12 930.38 L3007.50 908.23 L3019.87 890.41 L3032.25 877.79 L3044.62 861.33 L3057.00 844.00 L3069.37 821.11 L3081.62 805.51 L3094.00 788.31 L3106.37 762.82 L3118.75 734.23 L3131.12 705.64 L3143.50 671.74 L3155.87 643.89 L3168.12 609.36 L3180.50 574.47 L3192.87 536.60 L3205.25 505.66 L3217.62 487.96 L3230.00 473.98 L3242.37 471.13 L3254.75 474.97 L3267.00 484.25 L3279.38 516.30 L3291.75 560.11 L3304.13 598.97 L3316.50 645.25 L3328.88 683.86 L3341.25 732.99 L3353.63 782.37 L3365.88 826.06 L3378.25 861.95 L3390.63 889.05 L3403.00 913.67 L3415.38 935.08 L3427.75 945.60 L3440.13 952.53 L3452.38 953.65 L3464.75 948.70 L3477.13 943.50 L3489.50 937.06 L3501.88 928.65 L3514.25 920.85 L3526.63 912.07 L3539.00 905.75 L3551.25 899.44 L3563.63 894.86 L3576.00 892.76 L3588.38 893.26 L3600.75 891.28 L3613.13 891.89 L3625.50 892.02 L3637.88 895.11 L3650.13 898.70 L3662.51 900.43 L3674.88 899.94 L3687.26 903.03" stroke-linejoin="round" style="fill:none;stroke:#90353B;stroke-width:18.43"/>
	<path d=" M2797.37 1023.44 L2809.74 1023.82 L2822.12 1022.08 L2834.49 1027.03 L2846.87 1028.15 L2859.24 1031.12 L2871.62 1021.71 L2883.87 1015.90 L2896.24 1017.01 L2908.62 1012.68 L2920.99 999.93 L2933.37 976.05 L2945.74 962.81 L2958.12 941.52 L2970.49 938.92 L2982.75 933.35 L2995.12 901.79 L3007.50 875.43 L3019.87 858.60 L3032.25 839.17 L3044.62 817.77 L3057.00 810.59 L3069.37 802.42 L3081.62 778.54 L3094.00 767.15 L3106.37 755.27 L3118.75 740.67 L3131.12 717.90 L3143.50 704.16 L3155.87 696.36 L3168.12 697.23 L3180.50 698.59 L3192.87 689.19 L3205.25 692.03 L3217.62 703.79 L3230.00 718.89 L3242.37 730.52 L3254.75 729.90 L3267.00 732.75 L3279.38 743.76 L3291.75 751.19 L3304.13 754.77 L3316.50 747.60 L3328.88 743.64 L3341.25 755.52 L3353.63 763.93 L3365.88 783.61 L3378.25 814.30 L3390.63 844.50 L3403.00 877.41 L3415.38 904.02 L3427.75 914.29 L3440.13 927.04 L3452.38 938.30 L3464.75 939.79 L3477.13 940.16 L3489.50 936.45 L3501.88 934.09 L3514.25 933.85 L3526.63 929.89 L3539.00 922.71 L3551.25 917.88 L3563.63 917.51 L3576.00 917.76 L3588.38 914.05 L3600.75 908.97 L3613.13 908.97 L3625.50 915.78 L3637.88 920.61 L3650.13 932.11 L3662.51 937.31 L3674.88 942.39 L3687.26 946.96" stroke-linejoin="round" style="fill:none;stroke:#55752F;stroke-width:18.43"/>
	<path d=" M2797.37 1072.08 L2809.74 1021.84 L2822.12 1021.84 L2834.49 1005.13 L2846.87 988.30 L2859.24 971.59 L2871.62 971.59 L2883.87 921.35 L2896.24 921.35 L2908.62 887.81 L2920.99 837.57 L2933.37 820.86 L2945.74 787.32 L2958.12 753.78 L2970.49 720.37 L2982.75 686.83 L2995.12 670.00 L3007.50 653.30 L3019.87 653.30 L3032.25 636.59 L3044.62 636.59 L3057.00 636.59 L3069.37 603.05 L3081.62 586.35 L3094.00 569.52 L3106.37 536.10 L3118.75 552.81 L3131.12 552.81 L3143.50 519.27 L3155.87 569.52 L3168.12 536.10 L3180.50 536.10 L3192.87 552.81 L3205.25 552.81 L3217.62 552.81 L3230.00 603.05 L3242.37 586.35 L3254.75 603.05 L3267.00 653.30 L3279.38 653.30 L3291.75 670.00 L3304.13 686.83 L3316.50 720.37 L3328.88 753.78 L3341.25 770.62 L3353.63 787.32 L3365.88 787.32 L3378.25 804.03 L3390.63 804.03 L3403.00 804.03 L3415.38 837.57 L3427.75 854.27 L3440.13 854.27 L3452.38 871.10 L3464.75 887.81 L3477.13 887.81 L3489.50 921.35 L3501.88 904.52 L3514.25 938.05 L3526.63 921.35 L3539.00 921.35 L3551.25 938.05 L3563.63 938.05 L3576.00 921.35 L3588.38 921.35 L3600.75 938.05 L3613.13 921.35 L3625.50 938.05 L3637.88 954.88 L3650.13 971.59 L3662.51 971.59 L3674.88 971.59 L3687.26 971.59" stroke-linejoin="round" style="fill:none;stroke:#E37E00;stroke-width:18.43"/>
	<path d=" M479.04 2038.10 L491.41 2034.02 L503.66 2031.17 L516.04 2027.09 L528.41 2022.01 L540.79 2017.19 L553.16 2008.65 L565.54 2000.61 L577.91 1990.70 L590.16 1981.55 L602.54 1968.43 L614.91 1953.70 L627.29 1938.85 L639.66 1921.03 L652.04 1904.70 L664.41 1883.91 L676.79 1853.21 L689.04 1838.24 L701.41 1820.17 L713.79 1794.68 L726.16 1775.50 L738.54 1765.35 L750.91 1746.79 L763.29 1724.39 L775.66 1757.80 L787.92 1746.29 L800.29 1733.67 L812.67 1726.49 L825.04 1747.16 L837.42 1753.72 L849.79 1715.85 L862.17 1706.44 L874.54 1724.76 L886.79 1727.73 L899.17 1734.91 L911.54 1748.77 L923.92 1759.78 L936.29 1764.85 L948.67 1762.38 L961.04 1773.76 L973.29 1773.52 L985.67 1818.81 L998.04 1806.19 L1010.42 1840.22 L1022.79 1851.48 L1035.17 1802.85 L1047.54 1810.27 L1059.92 1820.42 L1072.17 1833.54 L1084.55 1846.53 L1096.92 1834.16 L1109.30 1836.51 L1121.67 1836.26 L1134.05 1840.10 L1146.42 1852.10 L1158.80 1867.07 L1171.05 1880.19 L1183.42 1880.44 L1195.80 1889.35 L1208.17 1912.49 L1220.55 1908.28 L1232.92 1916.33 L1245.30 1918.56 L1257.55 1920.41 L1269.92 1931.43 L1282.30 1933.65 L1294.67 1938.23 L1307.05 1939.84 L1319.42 1939.72 L1331.80 1959.77 L1344.17 1954.20 L1356.42 1969.05 L1368.80 1962.86" stroke-linejoin="round" style="fill:none;stroke:#1A476F;stroke-width:18.43"/>
	<path d=" M479.04 1944.54 L491.41 1944.54 L503.66 1944.54 L516.04 1944.54 L528.41 1944.54 L540.79 1944.54 L553.16 1944.54 L565.54 1944.54 L577.91 1944.54 L590.16 1944.54 L602.54 1944.54 L614.91 1944.54 L627.29 1944.54 L639.66 1944.54 L652.04 1944.54 L664.41 1944.54 L676.79 1911.87 L689.04 1895.17 L701.41 1885.27 L713.79 1884.28 L726.16 1869.18 L738.54 1853.59 L750.91 1839.60 L763.29 1830.07 L775.66 1817.70 L787.92 1803.84 L800.29 1785.27 L812.67 1770.18 L825.04 1754.33 L837.42 1743.82 L849.79 1726.12 L862.17 1711.64 L874.54 1698.03 L886.79 1685.65 L899.17 1678.35 L911.54 1678.35 L923.92 1675.87 L936.29 1682.81 L948.67 1694.81 L961.04 1710.28 L973.29 1733.92 L985.67 1760.52 L998.04 1782.43 L1010.42 1803.09 L1022.79 1823.88 L1035.17 1841.95 L1047.54 1860.14 L1059.92 1873.01 L1072.17 1880.69 L1084.55 1890.96 L1096.92 1899.87 L1109.30 1905.07 L1121.67 1910.14 L1134.05 1911.01 L1146.42 1910.76 L1158.80 1909.65 L1171.05 1906.06 L1183.42 1903.46 L1195.80 1899.87 L1208.17 1899.99 L1220.55 1897.89 L1232.92 1896.16 L1245.30 1893.31 L1257.55 1892.82 L1269.92 1890.22 L1282.30 1891.33 L1294.67 1887.25 L1307.05 1887.12 L1319.42 1891.21 L1331.80 1896.90 L1344.17 1899.37 L1356.42 1901.11 L1368.80 1900.49" stroke-linejoin="round" style="fill:none;stroke:#90353B;stroke-width:18.43"/>
	<path d=" M479.04 1962.98 L491.41 1964.35 L503.66 1966.82 L516.04 1973.87 L528.41 1971.15 L540.79 1971.28 L553.16 1963.11 L565.54 1960.39 L577.91 1958.40 L590.16 1953.58 L602.54 1934.89 L614.91 1921.77 L627.29 1907.67 L639.66 1894.67 L652.04 1891.45 L664.41 1885.64 L676.79 1865.34 L689.04 1849.01 L701.41 1836.88 L713.79 1822.15 L726.16 1808.79 L738.54 1804.95 L750.91 1800.00 L763.29 1782.55 L775.66 1775.13 L787.92 1768.69 L800.29 1761.02 L812.67 1751.49 L825.04 1746.29 L837.42 1745.42 L849.79 1746.41 L862.17 1748.77 L874.54 1737.75 L886.79 1744.06 L899.17 1757.18 L911.54 1772.90 L923.92 1784.28 L936.29 1788.12 L948.67 1795.17 L961.04 1810.27 L973.29 1817.33 L985.67 1819.55 L998.04 1815.35 L1010.42 1811.76 L1022.79 1815.96 L1035.17 1812.13 L1047.54 1817.20 L1059.92 1831.19 L1072.17 1846.90 L1084.55 1865.59 L1096.92 1881.43 L1109.30 1883.29 L1121.67 1896.28 L1134.05 1904.57 L1146.42 1906.43 L1158.80 1906.68 L1171.05 1905.31 L1183.42 1903.09 L1195.80 1905.31 L1208.17 1905.93 L1220.55 1904.82 L1232.92 1905.44 L1245.30 1904.45 L1257.55 1903.58 L1269.92 1900.49 L1282.30 1899.50 L1294.67 1899.62 L1307.05 1897.89 L1319.42 1895.29 L1331.80 1902.34 L1344.17 1903.46 L1356.42 1904.45 L1368.80 1902.96" stroke-linejoin="round" style="fill:none;stroke:#55752F;stroke-width:18.43"/>
	<path d=" M479.04 2004.19 L491.41 2004.19 L503.66 2004.19 L516.04 2004.19 L528.41 1953.95 L540.79 1953.95 L553.16 1953.95 L565.54 1953.95 L577.91 1937.24 L590.16 1903.71 L602.54 1853.46 L614.91 1786.51 L627.29 1736.27 L639.66 1736.27 L652.04 1736.27 L664.41 1719.44 L676.79 1702.73 L689.04 1702.73 L701.41 1686.02 L713.79 1669.19 L726.16 1652.49 L738.54 1652.49 L750.91 1669.19 L763.29 1652.49 L775.66 1652.49 L787.92 1652.49 L800.29 1669.19 L812.67 1686.02 L825.04 1669.19 L837.42 1669.19 L849.79 1652.49 L862.17 1652.49 L874.54 1702.73 L886.79 1702.73 L899.17 1702.73 L911.54 1702.73 L923.92 1719.44 L936.29 1752.97 L948.67 1786.51 L961.04 1836.75 L973.29 1887.00 L985.67 1887.00 L998.04 1853.46 L1010.42 1870.29 L1022.79 1887.00 L1035.17 1887.00 L1047.54 1903.71 L1059.92 1920.54 L1072.17 1937.24 L1084.55 1937.24 L1096.92 1937.24 L1109.30 1953.95 L1121.67 1953.95 L1134.05 1953.95 L1146.42 1953.95 L1158.80 1953.95 L1171.05 1970.78 L1183.42 1970.78 L1195.80 1987.49 L1208.17 1987.49 L1220.55 1987.49 L1232.92 1970.78 L1245.30 1970.78 L1257.55 1970.78 L1269.92 1970.78 L1282.30 1970.78 L1294.67 1987.49 L1307.05 2004.19 L1319.42 2004.19 L1331.80 2004.19 L1344.17 2037.73 L1356.42 2037.73 L1368.80 2037.73" stroke-linejoin="round" style="fill:none;stroke:#E37E00;stroke-width:18.43"/>
	<path d=" M1638.20 2030.80 L1650.58 2024.86 L1662.95 2020.78 L1675.33 2014.84 L1687.58 2007.54 L1699.95 2000.61 L1712.33 1988.11 L1724.70 1976.47 L1737.08 1962.12 L1749.45 1949.00 L1761.83 1929.94 L1774.20 1908.78 L1786.45 1887.12 L1798.83 1861.38 L1811.20 1837.74 L1823.58 1807.67 L1835.95 1763.25 L1848.33 1741.71 L1860.70 1715.48 L1873.08 1678.72 L1885.33 1651.00 L1897.71 1636.27 L1910.08 1609.30 L1922.46 1577.00 L1934.83 1625.26 L1947.21 1608.68 L1959.58 1590.36 L1971.96 1579.97 L1984.21 1609.91 L1996.58 1619.32 L2008.96 1564.62 L2021.33 1551.01 L2033.71 1577.49 L2046.08 1581.82 L2058.46 1592.22 L2070.71 1612.27 L2083.08 1628.23 L2095.46 1635.53 L2107.83 1631.82 L2120.21 1648.28 L2132.58 1648.03 L2144.96 1713.62 L2157.33 1695.30 L2169.59 1744.56 L2181.96 1760.89 L2194.34 1690.48 L2206.71 1701.24 L2219.09 1715.97 L2231.46 1734.78 L2243.84 1753.72 L2256.21 1735.65 L2268.46 1739.24 L2280.84 1738.74 L2293.21 1744.43 L2305.59 1761.76 L2317.96 1783.29 L2330.34 1802.35 L2342.71 1802.72 L2354.96 1815.72 L2367.34 1849.13 L2379.71 1842.94 L2392.09 1854.58 L2404.46 1857.92 L2416.84 1860.64 L2429.21 1876.48 L2441.59 1879.70 L2453.84 1886.38 L2466.21 1888.73 L2478.59 1888.48 L2490.96 1917.44 L2503.34 1909.52 L2515.71 1930.81 L2528.09 1921.90" stroke-linejoin="round" style="fill:none;stroke:#1A476F;stroke-width:18.43"/>
	<path d=" M1638.20 1895.41 L1650.58 1895.41 L1662.95 1895.41 L1675.33 1895.41 L1687.58 1895.41 L1699.95 1895.41 L1712.33 1895.41 L1724.70 1895.41 L1737.08 1895.41 L1749.45 1895.41 L1761.83 1895.41 L1774.20 1895.41 L1786.45 1895.41 L1798.83 1895.41 L1811.20 1895.41 L1823.58 1895.41 L1835.95 1895.41 L1848.33 1895.41 L1860.70 1845.42 L1873.08 1823.39 L1885.33 1822.52 L1897.71 1805.45 L1910.08 1793.19 L1922.46 1776.49 L1934.83 1763.25 L1947.21 1749.51 L1959.58 1729.21 L1971.96 1710.15 L1984.21 1688.87 L1996.58 1669.81 L2008.96 1656.32 L2021.33 1640.36 L2033.71 1634.42 L2046.08 1628.85 L2058.46 1625.75 L2070.71 1633.80 L2083.08 1641.60 L2095.46 1651.50 L2107.83 1667.71 L2120.21 1683.18 L2132.58 1698.27 L2144.96 1712.88 L2157.33 1719.44 L2169.59 1727.11 L2181.96 1730.45 L2194.34 1731.94 L2206.71 1732.80 L2219.09 1741.71 L2231.46 1748.52 L2243.84 1757.80 L2256.21 1760.40 L2268.46 1767.33 L2280.84 1775.00 L2293.21 1775.13 L2305.59 1774.38 L2317.96 1769.43 L2330.34 1769.80 L2342.71 1777.48 L2354.96 1780.94 L2367.34 1783.05 L2379.71 1790.72 L2392.09 1798.76 L2404.46 1809.41 L2416.84 1811.88 L2429.21 1808.29 L2441.59 1807.67 L2453.84 1806.56 L2466.21 1804.70 L2478.59 1809.03 L2490.96 1807.30 L2503.34 1810.40 L2515.71 1815.96 L2528.09 1818.93" stroke-linejoin="round" style="fill:none;stroke:#90353B;stroke-width:18.43"/>
	<path d=" M1638.20 1960.76 L1650.58 1948.50 L1662.95 1939.84 L1675.33 1935.39 L1687.58 1943.68 L1699.95 1944.30 L1712.33 1929.57 L1724.70 1923.38 L1737.08 1928.95 L1749.45 1904.94 L1761.83 1899.00 L1774.20 1898.26 L1786.45 1894.30 L1798.83 1870.29 L1811.20 1875.12 L1823.58 1873.14 L1835.95 1827.35 L1848.33 1797.65 L1860.70 1768.81 L1873.08 1738.87 L1885.33 1701.49 L1897.71 1696.42 L1910.08 1689.24 L1922.46 1654.34 L1934.83 1641.84 L1947.21 1629.47 L1959.58 1628.11 L1971.96 1623.77 L1984.21 1614.25 L1996.58 1609.67 L2008.96 1614.86 L2021.33 1614.86 L2033.71 1586.15 L2046.08 1596.55 L2058.46 1621.55 L2070.71 1651.50 L2083.08 1674.51 L2095.46 1685.03 L2107.83 1699.88 L2120.21 1727.23 L2132.58 1742.58 L2144.96 1750.13 L2157.33 1742.33 L2169.59 1733.92 L2181.96 1737.13 L2194.34 1732.06 L2206.71 1738.00 L2219.09 1754.58 L2231.46 1778.96 L2243.84 1810.89 L2256.21 1834.03 L2268.46 1831.68 L2280.84 1838.98 L2293.21 1839.35 L2305.59 1837.74 L2317.96 1835.64 L2330.34 1829.82 L2342.71 1824.26 L2354.96 1822.77 L2367.34 1818.32 L2379.71 1814.48 L2392.09 1814.48 L2404.46 1815.10 L2416.84 1814.60 L2429.21 1810.15 L2441.59 1810.77 L2453.84 1818.81 L2466.21 1826.48 L2478.59 1831.68 L2490.96 1839.85 L2503.34 1842.45 L2515.71 1846.78 L2528.09 1852.47" stroke-linejoin="round" style="fill:none;stroke:#55752F;stroke-width:18.43"/>
	<path d=" M1638.20 2037.73 L1650.58 1987.49 L1662.95 1987.49 L1675.33 1987.49 L1687.58 1987.49 L1699.95 1953.95 L1712.33 1937.24 L1724.70 1937.24 L1737.08 1937.24 L1749.45 1937.24 L1761.83 1937.24 L1774.20 1903.71 L1786.45 1887.00 L1798.83 1870.29 L1811.20 1853.46 L1823.58 1853.46 L1835.95 1836.75 L1848.33 1836.75 L1860.70 1853.46 L1873.08 1820.05 L1885.33 1803.22 L1897.71 1786.51 L1910.08 1769.68 L1922.46 1769.68 L1934.83 1752.97 L1947.21 1752.97 L1959.58 1736.27 L1971.96 1719.44 L1984.21 1719.44 L1996.58 1769.68 L2008.96 1752.97 L2021.33 1752.97 L2033.71 1719.44 L2046.08 1752.97 L2058.46 1752.97 L2070.71 1752.97 L2083.08 1752.97 L2095.46 1752.97 L2107.83 1752.97 L2120.21 1786.51 L2132.58 1803.22 L2144.96 1820.05 L2157.33 1836.75 L2169.59 1836.75 L2181.96 1853.46 L2194.34 1853.46 L2206.71 1836.75 L2219.09 1870.29 L2231.46 1887.00 L2243.84 1903.71 L2256.21 1920.54 L2268.46 1903.71 L2280.84 1920.54 L2293.21 1920.54 L2305.59 1920.54 L2317.96 1937.24 L2330.34 1937.24 L2342.71 1937.24 L2354.96 1953.95 L2367.34 1953.95 L2379.71 1987.49 L2392.09 1987.49 L2404.46 2004.19 L2416.84 2004.19 L2429.21 2004.19 L2441.59 2004.19 L2453.84 2004.19 L2466.21 2004.19 L2478.59 2004.19 L2490.96 2004.19 L2503.34 2004.19 L2515.71 2004.19 L2528.09 2004.19" stroke-linejoin="round" style="fill:none;stroke:#E37E00;stroke-width:18.43"/>
	<path d=" M2797.37 2036.25 L2809.74 2031.67 L2822.12 2028.57 L2834.49 2023.99 L2846.87 2018.43 L2859.24 2012.98 L2871.62 2003.33 L2883.87 1994.42 L2896.24 1983.40 L2908.62 1973.26 L2920.99 1958.65 L2933.37 1942.32 L2945.74 1925.61 L2958.12 1905.81 L2970.49 1887.62 L2982.75 1864.48 L2995.12 1830.32 L3007.50 1813.74 L3019.87 1793.44 L3032.25 1765.10 L3044.62 1743.82 L3057.00 1732.43 L3069.37 1711.76 L3081.62 1686.77 L3094.00 1724.02 L3106.37 1711.27 L3118.75 1697.16 L3131.12 1689.12 L3143.50 1712.26 L3155.87 1719.44 L3168.12 1677.36 L3180.50 1666.84 L3192.87 1687.26 L3205.25 1690.60 L3217.62 1698.52 L3230.00 1713.99 L3242.37 1726.37 L3254.75 1731.94 L3267.00 1729.09 L3279.38 1741.71 L3291.75 1741.59 L3304.13 1791.96 L3316.50 1777.97 L3328.88 1815.96 L3341.25 1828.46 L3353.63 1774.26 L3365.88 1782.55 L3378.25 1793.81 L3390.63 1808.42 L3403.00 1822.89 L3415.38 1809.03 L3427.75 1811.76 L3440.13 1811.39 L3452.38 1815.72 L3464.75 1829.08 L3477.13 1845.67 L3489.50 1860.27 L3501.88 1860.64 L3514.25 1870.66 L3526.63 1896.40 L3539.00 1891.58 L3551.25 1900.61 L3563.63 1903.09 L3576.00 1905.19 L3588.38 1917.44 L3600.75 1919.92 L3613.13 1925.12 L3625.50 1926.85 L3637.88 1926.72 L3650.13 1949.00 L3662.51 1942.81 L3674.88 1959.27 L3687.26 1952.34" stroke-linejoin="round" style="fill:none;stroke:#1A476F;stroke-width:18.43"/>
	<path d=" M2797.37 1931.92 L2809.74 1931.92 L2822.12 1931.92 L2834.49 1931.92 L2846.87 1931.92 L2859.24 1931.92 L2871.62 1931.92 L2883.87 1931.92 L2896.24 1931.92 L2908.62 1931.92 L2920.99 1931.92 L2933.37 1931.92 L2945.74 1931.92 L2958.12 1931.92 L2970.49 1931.92 L2982.75 1931.92 L2995.12 1931.92 L3007.50 1931.92 L3019.87 1931.92 L3032.25 1931.92 L3044.62 1879.82 L3057.00 1865.47 L3069.37 1854.08 L3081.62 1841.46 L3094.00 1831.80 L3106.37 1818.69 L3118.75 1806.44 L3131.12 1800.87 L3143.50 1786.76 L3155.87 1774.88 L3168.12 1765.35 L3180.50 1754.46 L3192.87 1748.15 L3205.25 1735.03 L3217.62 1721.54 L3230.00 1716.22 L3242.37 1705.20 L3254.75 1697.41 L3267.00 1696.42 L3279.38 1696.79 L3291.75 1708.79 L3304.13 1717.95 L3316.50 1732.06 L3328.88 1747.40 L3341.25 1766.09 L3353.63 1773.52 L3365.88 1782.92 L3378.25 1787.62 L3390.63 1800.87 L3403.00 1808.66 L3415.38 1820.30 L3427.75 1820.79 L3440.13 1825.12 L3452.38 1828.46 L3464.75 1833.41 L3477.13 1832.92 L3489.50 1834.28 L3501.88 1836.63 L3514.25 1841.09 L3526.63 1849.01 L3539.00 1853.09 L3551.25 1853.71 L3563.63 1854.95 L3576.00 1858.66 L3588.38 1858.78 L3600.75 1857.30 L3613.13 1856.56 L3625.50 1861.63 L3637.88 1868.19 L3650.13 1880.44 L3662.51 1882.92 L3674.88 1887.62 L3687.26 1904.08" stroke-linejoin="round" style="fill:none;stroke:#90353B;stroke-width:18.43"/>
	<path d=" M2797.37 1987.61 L2809.74 1986.37 L2822.12 1984.64 L2834.49 1980.31 L2846.87 1976.23 L2859.24 1976.84 L2871.62 1972.39 L2883.87 1964.84 L2896.24 1955.56 L2908.62 1932.42 L2920.99 1925.49 L2933.37 1909.40 L2945.74 1903.83 L2958.12 1883.41 L2970.49 1883.04 L2982.75 1879.82 L2995.12 1859.28 L3007.50 1838.98 L3019.87 1825.25 L3032.25 1813.74 L3044.62 1800.74 L3057.00 1795.05 L3069.37 1788.00 L3081.62 1769.31 L3094.00 1763.86 L3106.37 1754.58 L3118.75 1746.29 L3131.12 1730.08 L3143.50 1725.38 L3155.87 1722.53 L3168.12 1722.78 L3180.50 1721.05 L3192.87 1712.26 L3205.25 1711.64 L3217.62 1719.93 L3230.00 1727.98 L3242.37 1734.78 L3254.75 1735.77 L3267.00 1738.37 L3279.38 1748.02 L3291.75 1756.07 L3304.13 1761.14 L3316.50 1753.96 L3328.88 1750.25 L3341.25 1761.39 L3353.63 1767.45 L3365.88 1786.39 L3378.25 1804.46 L3390.63 1821.04 L3403.00 1845.29 L3415.38 1866.08 L3427.75 1875.12 L3440.13 1889.97 L3452.38 1898.26 L3464.75 1900.86 L3477.13 1903.71 L3489.50 1900.36 L3501.88 1897.77 L3514.25 1898.88 L3526.63 1895.54 L3539.00 1893.56 L3551.25 1891.33 L3563.63 1894.18 L3576.00 1898.01 L3588.38 1899.13 L3600.75 1904.08 L3613.13 1910.26 L3625.50 1912.62 L3637.88 1921.53 L3650.13 1929.45 L3662.51 1931.67 L3674.88 1935.02 L3687.26 1933.65" stroke-linejoin="round" style="fill:none;stroke:#55752F;stroke-width:18.43"/>
	<path d=" M2797.37 2054.56 L2809.74 2054.56 L2822.12 2037.73 L2834.49 2037.73 L2846.87 2037.73 L2859.24 2037.73 L2871.62 2037.73 L2883.87 2037.73 L2896.24 2021.02 L2908.62 2021.02 L2920.99 2021.02 L2933.37 2021.02 L2945.74 2004.19 L2958.12 2004.19 L2970.49 1987.49 L2982.75 1987.49 L2995.12 1953.95 L3007.50 1953.95 L3019.87 1953.95 L3032.25 1953.95 L3044.62 1920.54 L3057.00 1920.54 L3069.37 1920.54 L3081.62 1920.54 L3094.00 1920.54 L3106.37 1920.54 L3118.75 1920.54 L3131.12 1903.71 L3143.50 1887.00 L3155.87 1887.00 L3168.12 1903.71 L3180.50 1887.00 L3192.87 1887.00 L3205.25 1887.00 L3217.62 1887.00 L3230.00 1870.29 L3242.37 1870.29 L3254.75 1853.46 L3267.00 1853.46 L3279.38 1853.46 L3291.75 1870.29 L3304.13 1836.75 L3316.50 1853.46 L3328.88 1853.46 L3341.25 1887.00 L3353.63 1887.00 L3365.88 1887.00 L3378.25 1887.00 L3390.63 1920.54 L3403.00 1887.00 L3415.38 1887.00 L3427.75 1887.00 L3440.13 1887.00 L3452.38 1870.29 L3464.75 1853.46 L3477.13 1870.29 L3489.50 1887.00 L3501.88 1887.00 L3514.25 1887.00 L3526.63 1903.71 L3539.00 1903.71 L3551.25 1903.71 L3563.63 1903.71 L3576.00 1920.54 L3588.38 1937.24 L3600.75 1953.95 L3613.13 1953.95 L3625.50 1953.95 L3637.88 1953.95 L3650.13 1987.49 L3662.51 1987.49 L3674.88 1987.49 L3687.26 1987.49" stroke-linejoin="round" style="fill:none;stroke:#E37E00;stroke-width:18.43"/>
	<line x1="416.05" y1="1172.94" x2="416.05" y2="401.58" style="stroke:#000000;stroke-width:4.61"/>
	<line x1="416.05" y1="1122.32" x2="384.00" y2="1122.32" style="stroke:#000000;stroke-width:4.61"/>
	<text x="368.03" y="1150.34" style="font-family:'Helvetica';font-size:79.94px;fill:#000000" text-anchor="end">0</text>
	<line x1="416.05" y1="954.76" x2="384.00" y2="954.76" style="stroke:#000000;stroke-width:4.61"/>
	<text x="368.03" y="982.77" style="font-family:'Helvetica';font-size:79.94px;fill:#000000" text-anchor="end">10</text>
	<line x1="416.05" y1="787.20" x2="384.00" y2="787.20" style="stroke:#000000;stroke-width:4.61"/>
	<text x="368.03" y="815.21" style="font-family:'Helvetica';font-size:79.94px;fill:#000000" text-anchor="end">20</text>
	<line x1="416.05" y1="619.76" x2="384.00" y2="619.76" style="stroke:#000000;stroke-width:4.61"/>
	<text x="368.03" y="647.77" style="font-family:'Helvetica';font-size:79.94px;fill:#000000" text-anchor="end">30</text>
	<line x1="416.05" y1="452.20" x2="384.00" y2="452.20" style="stroke:#000000;stroke-width:4.61"/>
	<text x="368.03" y="480.21" style="font-family:'Helvetica';font-size:79.94px;fill:#000000" text-anchor="end">40</text>
	<line x1="416.05" y1="2105.18" x2="416.05" y2="1333.70" style="stroke:#000000;stroke-width:4.61"/>
	<line x1="416.05" y1="2054.44" x2="384.00" y2="2054.44" style="stroke:#000000;stroke-width:4.61"/>
	<text x="368.03" y="2082.45" style="font-family:'Helvetica';font-size:79.94px;fill:#000000" text-anchor="end">0</text>
	<line x1="416.05" y1="1886.88" x2="384.00" y2="1886.88" style="stroke:#000000;stroke-width:4.61"/>
	<text x="368.03" y="1914.89" style="font-family:'Helvetica';font-size:79.94px;fill:#000000" text-anchor="end">10</text>
	<line x1="416.05" y1="1719.44" x2="384.00" y2="1719.44" style="stroke:#000000;stroke-width:4.61"/>
	<text x="368.03" y="1747.45" style="font-family:'Helvetica';font-size:79.94px;fill:#000000" text-anchor="end">20</text>
	<line x1="416.05" y1="1551.87" x2="384.00" y2="1551.87" style="stroke:#000000;stroke-width:4.61"/>
	<text x="368.03" y="1579.89" style="font-family:'Helvetica';font-size:79.94px;fill:#000000" text-anchor="end">30</text>
	<line x1="416.05" y1="1384.43" x2="384.00" y2="1384.43" style="stroke:#000000;stroke-width:4.61"/>
	<text x="368.03" y="1412.45" style="font-family:'Helvetica';font-size:79.94px;fill:#000000" text-anchor="end">40</text>
	<line x1="416.05" y1="2105.18" x2="1506.16" y2="2105.18" style="stroke:#000000;stroke-width:4.61"/>
	<line x1="466.66" y1="2105.18" x2="466.66" y2="2137.11" style="stroke:#000000;stroke-width:4.61"/>
	<text x="466.66" y="2208.97" style="font-family:'Helvetica';font-size:79.94px;fill:#000000" text-anchor="middle">0</text>
	<line x1="713.91" y1="2105.18" x2="713.91" y2="2137.11" style="stroke:#000000;stroke-width:4.61"/>
	<text x="713.91" y="2208.97" style="font-family:'Helvetica';font-size:79.94px;fill:#000000" text-anchor="middle">20</text>
	<line x1="961.04" y1="2105.18" x2="961.04" y2="2137.11" style="stroke:#000000;stroke-width:4.61"/>
	<text x="961.04" y="2208.97" style="font-family:'Helvetica';font-size:79.94px;fill:#000000" text-anchor="middle">40</text>
	<line x1="1208.30" y1="2105.18" x2="1208.30" y2="2137.11" style="stroke:#000000;stroke-width:4.61"/>
	<text x="1208.30" y="2208.97" style="font-family:'Helvetica';font-size:79.94px;fill:#000000" text-anchor="middle">60</text>
	<line x1="1455.42" y1="2105.18" x2="1455.42" y2="2137.11" style="stroke:#000000;stroke-width:4.61"/>
	<text x="1455.42" y="2208.97" style="font-family:'Helvetica';font-size:79.94px;fill:#000000" text-anchor="middle">80</text>
	<line x1="1575.21" y1="2105.18" x2="2665.33" y2="2105.18" style="stroke:#000000;stroke-width:4.61"/>
	<line x1="1625.95" y1="2105.18" x2="1625.95" y2="2137.11" style="stroke:#000000;stroke-width:4.61"/>
	<text x="1625.95" y="2208.97" style="font-family:'Helvetica';font-size:79.94px;fill:#000000" text-anchor="middle">0</text>
	<line x1="1873.08" y1="2105.18" x2="1873.08" y2="2137.11" style="stroke:#000000;stroke-width:4.61"/>
	<text x="1873.08" y="2208.97" style="font-family:'Helvetica';font-size:79.94px;fill:#000000" text-anchor="middle">20</text>
	<line x1="2120.21" y1="2105.18" x2="2120.21" y2="2137.11" style="stroke:#000000;stroke-width:4.61"/>
	<text x="2120.21" y="2208.97" style="font-family:'Helvetica';font-size:79.94px;fill:#000000" text-anchor="middle">40</text>
	<line x1="2367.46" y1="2105.18" x2="2367.46" y2="2137.11" style="stroke:#000000;stroke-width:4.61"/>
	<text x="2367.46" y="2208.97" style="font-family:'Helvetica';font-size:79.94px;fill:#000000" text-anchor="middle">60</text>
	<line x1="2614.59" y1="2105.18" x2="2614.59" y2="2137.11" style="stroke:#000000;stroke-width:4.61"/>
	<text x="2614.59" y="2208.97" style="font-family:'Helvetica';font-size:79.94px;fill:#000000" text-anchor="middle">80</text>
	<line x1="2734.38" y1="2105.18" x2="3824.49" y2="2105.18" style="stroke:#000000;stroke-width:4.61"/>
	<line x1="2785.12" y1="2105.18" x2="2785.12" y2="2137.11" style="stroke:#000000;stroke-width:4.61"/>
	<text x="2785.12" y="2208.97" style="font-family:'Helvetica';font-size:79.94px;fill:#000000" text-anchor="middle">0</text>
	<line x1="3032.25" y1="2105.18" x2="3032.25" y2="2137.11" style="stroke:#000000;stroke-width:4.61"/>
	<text x="3032.25" y="2208.97" style="font-family:'Helvetica';font-size:79.94px;fill:#000000" text-anchor="middle">20</text>
	<line x1="3279.50" y1="2105.18" x2="3279.50" y2="2137.11" style="stroke:#000000;stroke-width:4.61"/>
	<text x="3279.50" y="2208.97" style="font-family:'Helvetica';font-size:79.94px;fill:#000000" text-anchor="middle">40</text>
	<line x1="3526.63" y1="2105.18" x2="3526.63" y2="2137.11" style="stroke:#000000;stroke-width:4.61"/>
	<text x="3526.63" y="2208.97" style="font-family:'Helvetica';font-size:79.94px;fill:#000000" text-anchor="middle">60</text>
	<line x1="3773.88" y1="2105.18" x2="3773.88" y2="2137.11" style="stroke:#000000;stroke-width:4.61"/>
	<text x="3773.88" y="2208.97" style="font-family:'Helvetica';font-size:79.94px;fill:#000000" text-anchor="middle">80</text>
	<rect x="416.05" y="309.88" width="1090.11" height="91.70" style="fill:#D9E6EB"/>
	<rect x="418.35" y="312.18" width="1085.51" height="87.09" style="fill:none;stroke:#D9E6EB;stroke-width:4.61"/>
	<text x="961.04" y="368.46" style="font-family:'Helvetica';font-size:63.98px;fill:#000000" text-anchor="middle">Cambridgeshire and Peterborough</text>
	<rect x="1575.21" y="309.88" width="1090.11" height="91.70" style="fill:#D9E6EB"/>
	<rect x="1577.52" y="312.18" width="1085.51" height="87.09" style="fill:none;stroke:#D9E6EB;stroke-width:4.61"/>
	<text x="2120.21" y="368.46" style="font-family:'Helvetica';font-size:63.98px;fill:#000000" text-anchor="middle">Hertfordshire and West Essex</text>
	<rect x="2734.38" y="309.88" width="1090.11" height="91.70" style="fill:#D9E6EB"/>
	<rect x="2736.68" y="312.18" width="1085.51" height="87.09" style="fill:none;stroke:#D9E6EB;stroke-width:4.61"/>
	<text x="3279.50" y="368.46" style="font-family:'Helvetica';font-size:63.98px;fill:#000000" text-anchor="middle">Mid and South Essex</text>
	<rect x="416.05" y="1242.12" width="1090.11" height="91.58" style="fill:#D9E6EB"/>
	<rect x="418.35" y="1244.42" width="1085.51" height="86.97" style="fill:none;stroke:#D9E6EB;stroke-width:4.61"/>
	<text x="961.04" y="1300.58" style="font-family:'Helvetica';font-size:63.98px;fill:#000000" text-anchor="middle">Milton Keynes, Bedfordshire and Luton</text>
	<rect x="1575.21" y="1242.12" width="1090.11" height="91.58" style="fill:#D9E6EB"/>
	<rect x="1577.52" y="1244.42" width="1085.51" height="86.97" style="fill:none;stroke:#D9E6EB;stroke-width:4.61"/>
	<text x="2120.21" y="1300.58" style="font-family:'Helvetica';font-size:63.98px;fill:#000000" text-anchor="middle">Norfolk and Waveney</text>
	<rect x="2734.38" y="1242.12" width="1090.11" height="91.58" style="fill:#D9E6EB"/>
	<rect x="2736.68" y="1244.42" width="1085.51" height="86.97" style="fill:none;stroke:#D9E6EB;stroke-width:4.61"/>
	<text x="3279.50" y="1300.58" style="font-family:'Helvetica';font-size:63.98px;fill:#000000" text-anchor="middle">Suffolk and North East Essex</text>
	<rect x="432.38" y="2418.27" width="3195.10" height="326.34" style="fill:#FFFFFF"/>
	<rect x="435.26" y="2421.15" width="3189.34" height="320.58" style="fill:none;stroke:#000000;stroke-width:5.76"/>
	<line x1="475.57" y1="2511.46" x2="850.04" y2="2511.46" style="stroke:#1A476F;stroke-width:23.04"/>
	<line x1="2166.99" y1="2511.46" x2="2541.45" y2="2511.46" style="stroke:#90353B;stroke-width:23.04"/>
	<line x1="475.57" y1="2651.43" x2="850.04" y2="2651.43" style="stroke:#55752F;stroke-width:23.04"/>
	<line x1="2166.99" y1="2651.43" x2="2541.45" y2="2651.43" style="stroke:#E37E00;stroke-width:23.04"/>
	<text x="909.93" y="2546.49" style="font-family:'Helvetica';font-size:99.99px;fill:#000000">Force of infection</text>
	<text x="2601.35" y="2546.49" style="font-family:'Helvetica';font-size:99.99px;fill:#000000">Smoothed A &amp; E rate</text>
	<text x="909.93" y="2686.46" style="font-family:'Helvetica';font-size:99.99px;fill:#000000">GP suspected case rate</text>
	<text x="2601.35" y="2686.46" style="font-family:'Helvetica';font-size:99.99px;fill:#000000">Crude numbers</text>
	<text x="170.79" y="1279.49" style="font-family:'Helvetica';font-size:99.99px;fill:#000000" transform="rotate(-90 170.79,1279.49)" text-anchor="middle">Expected number of cases</text>
	<text x="2029.99" y="2353.56" style="font-family:'Helvetica';font-size:99.99px;fill:#000000" text-anchor="middle"> </text>
	<text x="2029.99" y="215.98" style="font-family:'Helvetica';font-size:139.96px;fill:#1E2D53" text-anchor="middle">East</text>
</svg>
