<?xml version="1.0" encoding="UTF-8" standalone="no"?>
<!-- This is a Stata 16.1 generated SVG file (http://www.stata.com) -->

<svg version="1.1" width="5.50in" height="4.00in" viewBox="0 0 3960 2880" xmlns="http://www.w3.org/2000/svg" xmlns:xlink="http://www.w3.org/1999/xlink">
	<desc>Stata Graph - Graph</desc>
	<rect x="0" y="0" width="3960" height="2880" style="fill:#EAF2F3;stroke:none"/>
	<rect x="0.00" y="0.00" width="3959.88" height="2880.00" style="fill:#EAF2F3"/>
	<rect x="2.88" y="2.88" width="3954.12" height="2874.24" style="fill:none;stroke:#EAF2F3;stroke-width:5.76"/>
	<rect x="427.31" y="407.27" width="1664.07" height="1688.87" style="fill:#FFFFFF"/>
	<rect x="429.76" y="409.72" width="1659.17" height="1683.97" style="fill:none;stroke:#FFFFFF;stroke-width:4.90"/>
	<line x1="427.31" y1="2042.31" x2="2091.38" y2="2042.31" style="stroke:#EAF2F3;stroke-width:7.34"/>
	<line x1="427.31" y1="1749.51" x2="2091.38" y2="1749.51" style="stroke:#EAF2F3;stroke-width:7.34"/>
	<line x1="427.31" y1="1456.71" x2="2091.38" y2="1456.71" style="stroke:#EAF2F3;stroke-width:7.34"/>
	<line x1="427.31" y1="1163.91" x2="2091.38" y2="1163.91" style="stroke:#EAF2F3;stroke-width:7.34"/>
	<line x1="427.31" y1="871.10" x2="2091.38" y2="871.10" style="stroke:#EAF2F3;stroke-width:7.34"/>
	<rect x="2160.43" y="407.27" width="1664.07" height="1688.87" style="fill:#FFFFFF"/>
	<rect x="2162.88" y="409.72" width="1659.17" height="1683.97" style="fill:none;stroke:#FFFFFF;stroke-width:4.90"/>
	<line x1="2160.43" y1="2042.31" x2="3824.49" y2="2042.31" style="stroke:#EAF2F3;stroke-width:7.34"/>
	<line x1="2160.43" y1="1749.51" x2="3824.49" y2="1749.51" style="stroke:#EAF2F3;stroke-width:7.34"/>
	<line x1="2160.43" y1="1456.71" x2="3824.49" y2="1456.71" style="stroke:#EAF2F3;stroke-width:7.34"/>
	<line x1="2160.43" y1="1163.91" x2="3824.49" y2="1163.91" style="stroke:#EAF2F3;stroke-width:7.34"/>
	<line x1="2160.43" y1="871.10" x2="3824.49" y2="871.10" style="stroke:#EAF2F3;stroke-width:7.34"/>
	<path d=" M500.57 1937.99 L520.00 1917.69 L539.43 1902.96 L558.86 1882.92 L578.41 1857.30 L597.84 1827.35 L617.26 1786.51 L636.69 1751.74 L656.12 1697.28 L675.67 1670.06 L695.10 1606.94 L714.53 1542.22 L733.96 1473.78 L753.39 1385.30 L772.94 1325.03 L792.37 1218.23 L811.80 1110.81 L831.23 1047.95 L850.78 997.21 L870.21 862.94 L889.64 782.74 L909.07 798.95 L928.50 696.36 L948.05 617.78 L967.48 752.55 L986.91 716.91 L1006.34 667.40 L1025.76 652.55 L1045.32 755.64 L1064.74 756.14 L1084.17 638.94 L1103.60 630.28 L1123.03 716.29 L1142.58 765.67 L1162.01 777.05 L1181.44 889.30 L1200.87 930.75 L1220.30 911.32 L1239.85 911.82 L1259.28 977.66 L1278.71 1002.53 L1298.14 1162.42 L1317.57 1119.35 L1337.12 1258.58 L1356.55 1239.27 L1375.98 1105.74 L1395.40 1152.02 L1414.96 1183.95 L1434.39 1218.73 L1453.82 1294.96 L1473.24 1245.71 L1492.67 1235.68 L1512.22 1228.88 L1531.65 1246.82 L1551.08 1254.00 L1570.51 1257.59 L1589.94 1285.68 L1609.49 1308.20 L1628.92 1264.27 L1648.35 1318.10 L1667.78 1317.24 L1687.21 1321.07 L1706.76 1308.57 L1726.19 1318.47 L1745.62 1315.50 L1765.05 1296.57 L1784.47 1300.65 L1804.03 1298.18 L1823.46 1305.73 L1842.88 1436.78 L1862.31 1422.80 L1881.74 1501.38 L1901.30 1450.40" stroke-linejoin="round" style="fill:none;stroke:#1A476F;stroke-width:19.58"/>
	<path d=" M500.57 1564.50 L520.00 1564.50 L539.43 1564.50 L558.86 1564.50 L578.41 1564.50 L597.84 1564.50 L617.26 1564.50 L636.69 1564.50 L656.12 1564.50 L675.67 1564.50 L695.10 1564.50 L714.53 1564.50 L733.96 1564.50 L753.39 1564.50 L772.94 1564.50 L792.37 1564.50 L811.80 1564.50 L831.23 1564.50 L850.78 1456.09 L870.21 1456.71 L889.64 1390.50 L909.07 1338.89 L928.50 1306.22 L948.05 1255.73 L967.48 1209.82 L986.91 1172.44 L1006.34 1102.40 L1025.76 1040.77 L1045.32 986.32 L1064.74 919.12 L1084.17 861.82 L1103.60 783.24 L1123.03 720.99 L1142.58 684.36 L1162.01 643.27 L1181.44 600.70 L1200.87 579.29 L1220.30 552.44 L1239.85 570.88 L1259.28 603.30 L1278.71 645.13 L1298.14 705.15 L1317.57 766.53 L1337.12 828.66 L1356.55 917.26 L1375.98 995.48 L1395.40 1061.19 L1414.96 1112.05 L1434.39 1161.06 L1453.82 1203.51 L1473.24 1239.52 L1492.67 1253.75 L1512.22 1265.63 L1531.65 1266.00 L1551.08 1274.05 L1570.51 1277.63 L1589.94 1290.13 L1609.49 1300.03 L1628.92 1309.81 L1648.35 1321.20 L1667.78 1328.75 L1687.21 1327.26 L1706.76 1332.09 L1726.19 1329.86 L1745.62 1326.77 L1765.05 1329.86 L1784.47 1329.98 L1804.03 1338.03 L1823.46 1346.19 L1842.88 1346.44 L1862.31 1345.95 L1881.74 1343.84 L1901.30 1336.79" stroke-linejoin="round" style="fill:none;stroke:#90353B;stroke-width:19.58"/>
	<path d=" M500.57 1921.16 L520.00 1894.67 L539.43 1863.98 L558.86 1840.10 L578.41 1808.17 L597.84 1778.22 L617.26 1747.65 L636.69 1726.49 L656.12 1720.06 L675.67 1671.79 L695.10 1600.63 L714.53 1574.27 L733.96 1536.16 L753.39 1459.68 L772.94 1457.20 L792.37 1445.57 L811.80 1313.89 L831.23 1228.01 L850.78 1144.60 L870.21 1088.54 L889.64 1018.62 L909.07 1000.92 L928.50 977.78 L948.05 893.75 L967.48 852.42 L986.91 821.97 L1006.34 796.73 L1025.76 777.05 L1045.32 748.09 L1064.74 726.31 L1084.17 719.63 L1103.60 714.43 L1123.03 636.71 L1142.58 633.50 L1162.01 664.43 L1181.44 724.58 L1200.87 768.76 L1220.30 770.37 L1239.85 783.36 L1259.28 844.62 L1278.71 886.94 L1298.14 923.95 L1317.57 914.66 L1337.12 915.04 L1356.55 985.33 L1375.98 1007.85 L1395.40 1055.99 L1414.96 1110.32 L1434.39 1164.15 L1453.82 1237.66 L1473.24 1301.27 L1492.67 1325.03 L1512.22 1385.05 L1531.65 1429.85 L1551.08 1460.91 L1570.51 1482.08 L1589.94 1482.57 L1609.49 1481.83 L1628.92 1492.22 L1648.35 1486.41 L1667.78 1472.18 L1687.21 1461.16 L1706.76 1451.88 L1726.19 1449.41 L1745.62 1439.50 L1765.05 1437.65 L1784.47 1458.19 L1804.03 1483.44 L1823.46 1507.82 L1842.88 1563.75 L1862.31 1584.79 L1881.74 1597.17 L1901.30 1612.02" stroke-linejoin="round" style="fill:none;stroke:#55752F;stroke-width:19.58"/>
	<path d=" M500.57 1954.44 L520.00 1954.44 L539.43 1895.91 L558.86 1808.04 L578.41 1749.51 L597.84 1690.97 L617.26 1632.44 L636.69 1603.11 L656.12 1573.90 L675.67 1456.71 L695.10 1339.64 L714.53 1251.77 L733.96 1163.91 L753.39 1105.37 L772.94 1017.50 L792.37 1017.50 L811.80 929.64 L831.23 900.43 L850.78 812.57 L870.21 812.57 L889.64 754.03 L909.07 754.03 L928.50 695.50 L948.05 666.17 L967.48 636.84 L986.91 607.63 L1006.34 519.77 L1025.76 519.77 L1045.32 519.77 L1064.74 519.77 L1084.17 490.44 L1103.60 461.23 L1123.03 519.77 L1142.58 519.77 L1162.01 519.77 L1181.44 490.44 L1200.87 519.77 L1220.30 607.63 L1239.85 666.17 L1259.28 754.03 L1278.71 783.24 L1298.14 812.57 L1317.57 900.43 L1337.12 900.43 L1356.55 958.97 L1375.98 958.97 L1395.40 1046.83 L1414.96 988.30 L1434.39 1046.83 L1453.82 1046.83 L1473.24 1076.04 L1492.67 1046.83 L1512.22 1017.50 L1531.65 1046.83 L1551.08 1076.04 L1570.51 1105.37 L1589.94 1134.70 L1609.49 1134.70 L1628.92 1222.44 L1648.35 1310.31 L1667.78 1310.31 L1687.21 1368.84 L1706.76 1427.50 L1726.19 1486.04 L1745.62 1486.04 L1765.05 1515.24 L1784.47 1544.57 L1804.03 1544.57 L1823.46 1573.90 L1842.88 1603.11 L1862.31 1603.11 L1881.74 1544.57 L1901.30 1573.90" stroke-linejoin="round" style="fill:none;stroke:#E37E00;stroke-width:19.58"/>
	<path d=" M2233.69 2021.02 L2253.12 2016.82 L2272.67 2013.85 L2292.10 2009.76 L2311.53 2004.44 L2330.95 1998.38 L2350.38 1989.96 L2369.94 1982.91 L2389.36 1971.77 L2408.79 1966.20 L2428.22 1953.33 L2447.65 1940.09 L2467.20 1925.98 L2486.63 1907.91 L2506.06 1895.54 L2525.49 1873.76 L2545.04 1851.73 L2564.47 1838.98 L2583.90 1828.59 L2603.33 1801.11 L2622.76 1784.65 L2642.31 1788.00 L2661.74 1766.96 L2681.17 1750.87 L2700.60 1778.47 L2720.03 1771.17 L2739.58 1761.14 L2759.01 1758.05 L2778.43 1779.09 L2797.86 1779.21 L2817.29 1755.20 L2836.84 1753.47 L2856.27 1771.04 L2875.70 1781.19 L2895.13 1783.54 L2914.56 1806.44 L2934.11 1814.97 L2953.54 1811.01 L2972.97 1811.14 L2992.40 1824.50 L3011.83 1829.58 L3031.38 1862.37 L3050.81 1853.59 L3070.24 1882.05 L3089.67 1878.09 L3109.22 1850.74 L3128.65 1860.27 L3148.08 1866.70 L3167.51 1873.88 L3186.93 1889.47 L3206.49 1879.33 L3225.91 1877.35 L3245.34 1875.98 L3264.77 1879.57 L3284.20 1881.06 L3303.75 1881.80 L3323.18 1887.62 L3342.61 1892.20 L3362.04 1883.16 L3381.47 1894.18 L3401.02 1894.05 L3420.45 1894.80 L3439.88 1892.20 L3459.31 1894.30 L3478.74 1893.68 L3498.29 1889.85 L3517.72 1890.59 L3537.15 1890.09 L3556.57 1891.70 L3576.00 1918.43 L3595.56 1915.59 L3614.99 1931.67 L3634.41 1921.28" stroke-linejoin="round" style="fill:none;stroke:#1A476F;stroke-width:19.58"/>
	<path d=" M2233.69 1944.54 L2253.12 1944.54 L2272.67 1944.54 L2292.10 1944.54 L2311.53 1944.54 L2330.95 1944.54 L2350.38 1944.54 L2369.94 1944.54 L2389.36 1944.54 L2408.79 1944.54 L2428.22 1944.54 L2447.65 1944.54 L2467.20 1944.54 L2486.63 1944.54 L2506.06 1944.54 L2525.49 1944.54 L2545.04 1944.54 L2564.47 1944.54 L2583.90 1944.54 L2603.33 1944.54 L2622.76 1944.54 L2642.31 1944.54 L2661.74 1944.54 L2681.17 1944.54 L2700.60 1944.54 L2720.03 1944.54 L2739.58 1890.59 L2759.01 1859.28 L2778.43 1835.02 L2797.86 1817.33 L2817.29 1795.79 L2836.84 1764.24 L2856.27 1728.72 L2875.70 1689.49 L2895.13 1661.40 L2914.56 1638.62 L2934.11 1595.68 L2953.54 1553.73 L2972.97 1524.65 L2992.40 1511.16 L3011.83 1519.94 L3031.38 1527.25 L3050.81 1548.53 L3070.24 1602.49 L3089.67 1659.04 L3109.22 1719.06 L3128.65 1758.29 L3148.08 1794.18 L3167.51 1839.72 L3186.93 1873.76 L3206.49 1897.77 L3225.91 1913.11 L3245.34 1916.95 L3264.77 1927.22 L3284.20 1934.40 L3303.75 1929.69 L3323.18 1923.51 L3342.61 1918.56 L3362.04 1915.83 L3381.47 1913.48 L3401.02 1912.49 L3420.45 1901.97 L3439.88 1902.34 L3459.31 1902.96 L3478.74 1904.57 L3498.29 1902.96 L3517.72 1911.01 L3537.15 1912.86 L3556.57 1934.27 L3576.00 1935.88 L3595.56 1950.73 L3614.99 1959.89 L3634.41 1972.51" stroke-linejoin="round" style="fill:none;stroke:#90353B;stroke-width:19.58"/>
	<path d=" M2233.69 2003.45 L2253.12 1993.80 L2272.67 1981.18 L2292.10 1973.75 L2311.53 1972.76 L2330.95 1971.40 L2350.38 1969.54 L2369.94 1964.35 L2389.36 1967.93 L2408.79 1972.51 L2428.22 1958.78 L2447.65 1956.18 L2467.20 1932.42 L2486.63 1903.46 L2506.06 1903.09 L2525.49 1899.00 L2545.04 1865.09 L2564.47 1849.75 L2583.90 1837.13 L2603.33 1827.72 L2622.76 1826.73 L2642.31 1820.54 L2661.74 1813.98 L2681.17 1815.22 L2700.60 1810.40 L2720.03 1801.24 L2739.58 1784.41 L2759.01 1758.79 L2778.43 1738.99 L2797.86 1735.28 L2817.29 1745.67 L2836.84 1767.82 L2856.27 1793.56 L2875.70 1821.29 L2895.13 1845.67 L2914.56 1862.74 L2934.11 1877.96 L2953.54 1887.49 L2972.97 1892.94 L2992.40 1892.82 L3011.83 1887.12 L3031.38 1879.57 L3050.81 1873.76 L3070.24 1866.95 L3089.67 1866.08 L3109.22 1862.50 L3128.65 1867.57 L3148.08 1875.37 L3167.51 1890.09 L3186.93 1900.36 L3206.49 1912.12 L3225.91 1919.55 L3245.34 1924.62 L3264.77 1926.35 L3284.20 1932.05 L3303.75 1930.81 L3323.18 1932.66 L3342.61 1933.53 L3362.04 1933.53 L3381.47 1933.28 L3401.02 1932.66 L3420.45 1931.06 L3439.88 1930.68 L3459.31 1927.71 L3478.74 1923.63 L3498.29 1921.28 L3517.72 1924.87 L3537.15 1929.08 L3556.57 1934.52 L3576.00 1939.84 L3595.56 1944.67 L3614.99 1946.40 L3634.41 1949.74" stroke-linejoin="round" style="fill:none;stroke:#55752F;stroke-width:19.58"/>
	<path d=" M2233.69 2042.31 L2253.12 2042.31 L2272.67 2042.31 L2292.10 2013.10 L2311.53 1983.77 L2330.95 1983.77 L2350.38 1983.77 L2369.94 1983.77 L2389.36 1954.44 L2408.79 1925.24 L2428.22 1895.91 L2447.65 1895.91 L2467.20 1895.91 L2486.63 1866.70 L2506.06 1866.70 L2525.49 1837.37 L2545.04 1837.37 L2564.47 1837.37 L2583.90 1837.37 L2603.33 1808.04 L2622.76 1749.51 L2642.31 1720.30 L2661.74 1690.97 L2681.17 1690.97 L2700.60 1690.97 L2720.03 1690.97 L2739.58 1661.64 L2759.01 1661.64 L2778.43 1661.64 L2797.86 1661.64 L2817.29 1632.44 L2836.84 1661.64 L2856.27 1690.97 L2875.70 1690.97 L2895.13 1690.97 L2914.56 1661.64 L2934.11 1690.97 L2953.54 1690.97 L2972.97 1720.30 L2992.40 1720.30 L3011.83 1720.30 L3031.38 1749.51 L3050.81 1749.51 L3070.24 1778.84 L3089.67 1778.84 L3109.22 1778.84 L3128.65 1778.84 L3148.08 1808.04 L3167.51 1866.70 L3186.93 1895.91 L3206.49 1925.24 L3225.91 1925.24 L3245.34 1895.91 L3264.77 1895.91 L3284.20 1925.24 L3303.75 1925.24 L3323.18 1925.24 L3342.61 1925.24 L3362.04 1925.24 L3381.47 1925.24 L3401.02 1925.24 L3420.45 1925.24 L3439.88 1925.24 L3459.31 1954.44 L3478.74 1954.44 L3498.29 1983.77 L3517.72 1983.77 L3537.15 1983.77 L3556.57 1983.77 L3576.00 1954.44 L3595.56 1954.44 L3614.99 1954.44 L3634.41 1954.44" stroke-linejoin="round" style="fill:none;stroke:#E37E00;stroke-width:19.58"/>
	<line x1="427.31" y1="2096.14" x2="427.31" y2="407.27" style="stroke:#000000;stroke-width:4.90"/>
	<line x1="427.31" y1="2042.31" x2="393.28" y2="2042.31" style="stroke:#000000;stroke-width:4.90"/>
	<text x="376.32" y="2072.10" style="font-family:'Helvetica';font-size:85.02px;fill:#000000" text-anchor="end">0</text>
	<line x1="427.31" y1="1749.51" x2="393.28" y2="1749.51" style="stroke:#000000;stroke-width:4.90"/>
	<text x="376.32" y="1779.30" style="font-family:'Helvetica';font-size:85.02px;fill:#000000" text-anchor="end">10</text>
	<line x1="427.31" y1="1456.71" x2="393.28" y2="1456.71" style="stroke:#000000;stroke-width:4.90"/>
	<text x="376.32" y="1486.49" style="font-family:'Helvetica';font-size:85.02px;fill:#000000" text-anchor="end">20</text>
	<line x1="427.31" y1="1163.91" x2="393.28" y2="1163.91" style="stroke:#000000;stroke-width:4.90"/>
	<text x="376.32" y="1193.69" style="font-family:'Helvetica';font-size:85.02px;fill:#000000" text-anchor="end">30</text>
	<line x1="427.31" y1="871.10" x2="393.28" y2="871.10" style="stroke:#000000;stroke-width:4.90"/>
	<text x="376.32" y="900.89" style="font-family:'Helvetica';font-size:85.02px;fill:#000000" text-anchor="end">40</text>
	<line x1="427.31" y1="2096.14" x2="2091.38" y2="2096.14" style="stroke:#000000;stroke-width:4.90"/>
	<line x1="481.14" y1="2096.14" x2="481.14" y2="2130.18" style="stroke:#000000;stroke-width:4.90"/>
	<text x="481.14" y="2206.58" style="font-family:'Helvetica';font-size:85.02px;fill:#000000" text-anchor="middle">0</text>
	<line x1="870.21" y1="2096.14" x2="870.21" y2="2130.18" style="stroke:#000000;stroke-width:4.90"/>
	<text x="870.21" y="2206.58" style="font-family:'Helvetica';font-size:85.02px;fill:#000000" text-anchor="middle">20</text>
	<line x1="1259.28" y1="2096.14" x2="1259.28" y2="2130.18" style="stroke:#000000;stroke-width:4.90"/>
	<text x="1259.28" y="2206.58" style="font-family:'Helvetica';font-size:85.02px;fill:#000000" text-anchor="middle">40</text>
	<line x1="1648.35" y1="2096.14" x2="1648.35" y2="2130.18" style="stroke:#000000;stroke-width:4.90"/>
	<text x="1648.35" y="2206.58" style="font-family:'Helvetica';font-size:85.02px;fill:#000000" text-anchor="middle">60</text>
	<line x1="2037.54" y1="2096.14" x2="2037.54" y2="2130.18" style="stroke:#000000;stroke-width:4.90"/>
	<text x="2037.54" y="2206.58" style="font-family:'Helvetica';font-size:85.02px;fill:#000000" text-anchor="middle">80</text>
	<line x1="2160.43" y1="2096.14" x2="3824.49" y2="2096.14" style="stroke:#000000;stroke-width:4.90"/>
	<line x1="2214.38" y1="2096.14" x2="2214.38" y2="2130.18" style="stroke:#000000;stroke-width:4.90"/>
	<text x="2214.38" y="2206.58" style="font-family:'Helvetica';font-size:85.02px;fill:#000000" text-anchor="middle">0</text>
	<line x1="2603.45" y1="2096.14" x2="2603.45" y2="2130.18" style="stroke:#000000;stroke-width:4.90"/>
	<text x="2603.45" y="2206.58" style="font-family:'Helvetica';font-size:85.02px;fill:#000000" text-anchor="middle">20</text>
	<line x1="2992.52" y1="2096.14" x2="2992.52" y2="2130.18" style="stroke:#000000;stroke-width:4.90"/>
	<text x="2992.52" y="2206.58" style="font-family:'Helvetica';font-size:85.02px;fill:#000000" text-anchor="middle">40</text>
	<line x1="3381.59" y1="2096.14" x2="3381.59" y2="2130.18" style="stroke:#000000;stroke-width:4.90"/>
	<text x="3381.59" y="2206.58" style="font-family:'Helvetica';font-size:85.02px;fill:#000000" text-anchor="middle">60</text>
	<line x1="3770.66" y1="2096.14" x2="3770.66" y2="2130.18" style="stroke:#000000;stroke-width:4.90"/>
	<text x="3770.66" y="2206.58" style="font-family:'Helvetica';font-size:85.02px;fill:#000000" text-anchor="middle">80</text>
	<rect x="427.31" y="309.88" width="1664.07" height="97.39" style="fill:#D9E6EB"/>
	<rect x="429.76" y="312.33" width="1659.17" height="92.50" style="fill:none;stroke:#D9E6EB;stroke-width:4.90"/>
	<text x="1259.28" y="372.10" style="font-family:'Helvetica';font-size:67.94px;fill:#000000" text-anchor="middle">Cumbria and North East</text>
	<rect x="2160.43" y="309.88" width="1664.07" height="97.39" style="fill:#D9E6EB"/>
	<rect x="2162.88" y="312.33" width="1659.17" height="92.50" style="fill:none;stroke:#D9E6EB;stroke-width:4.90"/>
	<text x="2992.52" y="372.10" style="font-family:'Helvetica';font-size:67.94px;fill:#000000" text-anchor="middle">Manchester/Cheshire/Merseyside</text>
	<rect x="432.38" y="2418.27" width="3195.10" height="326.34" style="fill:#FFFFFF"/>
	<rect x="435.26" y="2421.15" width="3189.34" height="320.58" style="fill:none;stroke:#000000;stroke-width:5.76"/>
	<line x1="475.57" y1="2511.46" x2="850.04" y2="2511.46" style="stroke:#1A476F;stroke-width:23.04"/>
	<line x1="2166.99" y1="2511.46" x2="2541.45" y2="2511.46" style="stroke:#90353B;stroke-width:23.04"/>
	<line x1="475.57" y1="2651.43" x2="850.04" y2="2651.43" style="stroke:#55752F;stroke-width:23.04"/>
	<line x1="2166.99" y1="2651.43" x2="2541.45" y2="2651.43" style="stroke:#E37E00;stroke-width:23.04"/>
	<text x="909.93" y="2546.49" style="font-family:'Helvetica';font-size:99.99px;fill:#000000">Force of infection</text>
	<text x="2601.35" y="2546.49" style="font-family:'Helvetica';font-size:99.99px;fill:#000000">Smoothed A &amp; E rate</text>
	<text x="909.93" y="2686.46" style="font-family:'Helvetica';font-size:99.99px;fill:#000000">GP suspected case rate</text>
	<text x="2601.35" y="2686.46" style="font-family:'Helvetica';font-size:99.99px;fill:#000000">Crude numbers</text>
	<text x="170.79" y="1279.49" style="font-family:'Helvetica';font-size:99.99px;fill:#000000" transform="rotate(-90 170.79,1279.49)" text-anchor="middle">Expected number of cases</text>
	<text x="2029.99" y="2353.56" style="font-family:'Helvetica';font-size:99.99px;fill:#000000" text-anchor="middle"> </text>
	<text x="2029.99" y="215.98" style="font-family:'Helvetica';font-size:139.96px;fill:#1E2D53" text-anchor="middle">North West</text>
</svg>
