<?xml version="1.0" encoding="UTF-8" standalone="no"?>
<!-- This is a Stata 16.1 generated SVG file (http://www.stata.com) -->

<svg version="1.1" width="5.50in" height="4.00in" viewBox="0 0 3960 2880" xmlns="http://www.w3.org/2000/svg" xmlns:xlink="http://www.w3.org/1999/xlink">
	<desc>Stata Graph - Graph</desc>
	<rect x="0" y="0" width="3960" height="2880" style="fill:#EAF2F3;stroke:none"/>
	<rect x="0.00" y="0.00" width="3959.88" height="2880.00" style="fill:#EAF2F3"/>
	<rect x="2.88" y="2.88" width="3954.12" height="2874.24" style="fill:none;stroke:#EAF2F3;stroke-width:5.76"/>
	<rect x="427.31" y="407.27" width="1664.07" height="1688.87" style="fill:#FFFFFF"/>
	<rect x="429.76" y="409.72" width="1659.17" height="1683.97" style="fill:none;stroke:#FFFFFF;stroke-width:4.90"/>
	<line x1="427.31" y1="2042.31" x2="2091.38" y2="2042.31" style="stroke:#EAF2F3;stroke-width:7.34"/>
	<line x1="427.31" y1="1647.04" x2="2091.38" y2="1647.04" style="stroke:#EAF2F3;stroke-width:7.34"/>
	<line x1="427.31" y1="1251.65" x2="2091.38" y2="1251.65" style="stroke:#EAF2F3;stroke-width:7.34"/>
	<line x1="427.31" y1="856.38" x2="2091.38" y2="856.38" style="stroke:#EAF2F3;stroke-width:7.34"/>
	<line x1="427.31" y1="461.11" x2="2091.38" y2="461.11" style="stroke:#EAF2F3;stroke-width:7.34"/>
	<rect x="2160.43" y="407.27" width="1664.07" height="1688.87" style="fill:#FFFFFF"/>
	<rect x="2162.88" y="409.72" width="1659.17" height="1683.97" style="fill:none;stroke:#FFFFFF;stroke-width:4.90"/>
	<line x1="2160.43" y1="2042.31" x2="3824.49" y2="2042.31" style="stroke:#EAF2F3;stroke-width:7.34"/>
	<line x1="2160.43" y1="1647.04" x2="3824.49" y2="1647.04" style="stroke:#EAF2F3;stroke-width:7.34"/>
	<line x1="2160.43" y1="1251.65" x2="3824.49" y2="1251.65" style="stroke:#EAF2F3;stroke-width:7.34"/>
	<line x1="2160.43" y1="856.38" x2="3824.49" y2="856.38" style="stroke:#EAF2F3;stroke-width:7.34"/>
	<line x1="2160.43" y1="461.11" x2="3824.49" y2="461.11" style="stroke:#EAF2F3;stroke-width:7.34"/>
	<path d=" M500.57 1969.30 L520.00 1955.56 L539.43 1944.92 L558.86 1930.68 L578.41 1912.99 L597.84 1892.44 L617.26 1865.09 L636.69 1840.84 L656.12 1804.58 L675.67 1784.16 L695.10 1742.21 L714.53 1698.89 L733.96 1653.85 L753.39 1597.91 L772.94 1555.83 L792.37 1489.25 L811.80 1425.64 L831.23 1387.03 L850.78 1355.85 L870.21 1278.01 L889.64 1227.27 L909.07 1217.24 L928.50 1168.61 L948.05 1127.77 L967.48 1193.36 L986.91 1150.91 L1006.34 1095.35 L1025.76 1058.10 L1045.32 1070.59 L1064.74 1044.48 L1084.17 995.72 L1103.60 986.19 L1123.03 1040.77 L1142.58 1080.37 L1162.01 1098.81 L1181.44 1161.06 L1200.87 1202.39 L1220.30 1247.19 L1239.85 1269.10 L1259.28 1326.27 L1278.71 1359.31 L1298.14 1483.07 L1317.57 1416.98 L1337.12 1501.13 L1356.55 1532.20 L1375.98 1423.54 L1395.40 1456.46 L1414.96 1479.72 L1434.39 1501.13 L1453.82 1525.02 L1473.24 1492.35 L1492.67 1514.00 L1512.22 1512.02 L1531.65 1521.68 L1551.08 1527.62 L1570.51 1531.21 L1589.94 1529.85 L1609.49 1539.00 L1628.92 1534.42 L1648.35 1565.24 L1667.78 1561.53 L1687.21 1560.54 L1706.76 1549.27 L1726.19 1539.75 L1745.62 1530.09 L1765.05 1544.32 L1784.47 1552.62 L1804.03 1549.65 L1823.46 1556.33 L1842.88 1652.11 L1862.31 1611.40 L1881.74 1655.33 L1901.30 1643.58" stroke-linejoin="round" style="fill:none;stroke:#1A476F;stroke-width:19.58"/>
	<path d=" M500.57 1708.79 L520.00 1708.79 L539.43 1708.79 L558.86 1708.79 L578.41 1708.79 L597.84 1708.79 L617.26 1708.79 L636.69 1708.79 L656.12 1708.79 L675.67 1708.79 L695.10 1708.79 L714.53 1708.79 L733.96 1708.79 L753.39 1708.79 L772.94 1708.79 L792.37 1708.79 L811.80 1708.79 L831.23 1708.79 L850.78 1633.18 L870.21 1633.55 L889.64 1587.39 L909.07 1551.38 L928.50 1528.48 L948.05 1493.34 L967.48 1461.29 L986.91 1435.17 L1006.34 1386.29 L1025.76 1343.22 L1045.32 1305.23 L1064.74 1258.33 L1084.17 1218.36 L1103.60 1163.53 L1123.03 1120.10 L1142.58 1094.48 L1162.01 1065.77 L1181.44 1036.07 L1200.87 1021.22 L1220.30 1002.41 L1239.85 1015.28 L1259.28 1037.92 L1278.71 1067.13 L1298.14 1108.96 L1317.57 1151.90 L1337.12 1195.21 L1356.55 1257.09 L1375.98 1311.67 L1395.40 1357.46 L1414.96 1393.10 L1434.39 1427.25 L1453.82 1456.83 L1473.24 1482.08 L1492.67 1491.85 L1512.22 1500.14 L1531.65 1500.52 L1551.08 1506.08 L1570.51 1508.56 L1589.94 1517.35 L1609.49 1524.28 L1628.92 1531.08 L1648.35 1539.00 L1667.78 1544.32 L1687.21 1543.21 L1706.76 1546.68 L1726.19 1545.07 L1745.62 1542.84 L1765.05 1545.07 L1784.47 1545.19 L1804.03 1550.76 L1823.46 1556.45 L1842.88 1556.70 L1862.31 1556.20 L1881.74 1554.84 L1901.30 1549.89" stroke-linejoin="round" style="fill:none;stroke:#90353B;stroke-width:19.58"/>
	<path d=" M500.57 1957.17 L520.00 1938.48 L539.43 1917.07 L558.86 1900.12 L578.41 1877.72 L597.84 1856.68 L617.26 1835.27 L636.69 1820.30 L656.12 1815.84 L675.67 1781.93 L695.10 1731.94 L714.53 1713.37 L733.96 1686.52 L753.39 1632.81 L772.94 1631.20 L792.37 1622.91 L811.80 1530.34 L831.23 1470.07 L850.78 1411.41 L870.21 1371.94 L889.64 1322.93 L909.07 1310.43 L928.50 1294.22 L948.05 1235.06 L967.48 1206.11 L986.91 1184.70 L1006.34 1166.88 L1025.76 1153.14 L1045.32 1132.72 L1064.74 1117.37 L1084.17 1112.67 L1103.60 1109.08 L1123.03 1054.51 L1142.58 1052.16 L1162.01 1073.94 L1181.44 1116.14 L1200.87 1147.32 L1220.30 1148.44 L1239.85 1157.59 L1259.28 1200.54 L1278.71 1230.36 L1298.14 1256.35 L1317.57 1249.79 L1337.12 1250.04 L1356.55 1299.54 L1375.98 1315.26 L1395.40 1349.16 L1414.96 1387.28 L1434.39 1425.15 L1453.82 1476.88 L1473.24 1521.55 L1492.67 1538.14 L1512.22 1580.46 L1531.65 1611.89 L1551.08 1633.67 L1570.51 1648.53 L1589.94 1648.90 L1609.49 1648.40 L1628.92 1655.70 L1648.35 1651.62 L1667.78 1641.60 L1687.21 1633.80 L1706.76 1627.36 L1726.19 1625.63 L1745.62 1618.70 L1765.05 1617.46 L1784.47 1631.82 L1804.03 1649.52 L1823.46 1666.59 L1842.88 1705.95 L1862.31 1720.80 L1881.74 1729.46 L1901.30 1739.86" stroke-linejoin="round" style="fill:none;stroke:#55752F;stroke-width:19.58"/>
	<path d=" M500.57 1910.51 L520.00 1910.51 L539.43 1910.51 L558.86 1778.84 L578.41 1778.84 L597.84 1778.84 L617.26 1778.84 L636.69 1515.24 L656.12 1515.24 L675.67 1251.77 L695.10 1251.77 L714.53 1119.97 L733.96 1119.97 L753.39 1119.97 L772.94 1119.97 L792.37 1119.97 L811.80 856.50 L831.23 724.70 L850.78 724.70 L870.21 724.70 L889.64 724.70 L909.07 724.70 L928.50 724.70 L948.05 724.70 L967.48 724.70 L986.91 592.90 L1006.34 724.70 L1025.76 724.70 L1045.32 724.70 L1064.74 724.70 L1084.17 724.70 L1103.60 856.50 L1123.03 856.50 L1142.58 724.70 L1162.01 724.70 L1181.44 988.30 L1200.87 856.50 L1220.30 856.50 L1239.85 856.50 L1259.28 856.50 L1278.71 724.70 L1298.14 724.70 L1317.57 724.70 L1337.12 724.70 L1356.55 988.30 L1375.98 1119.97 L1395.40 1119.97 L1414.96 1119.97 L1434.39 1119.97 L1453.82 1119.97 L1473.24 1119.97 L1492.67 988.30 L1512.22 988.30 L1531.65 1119.97 L1551.08 1119.97 L1570.51 1119.97 L1589.94 1119.97 L1609.49 1119.97 L1628.92 1119.97 L1648.35 1119.97 L1667.78 1119.97 L1687.21 1251.77 L1706.76 1251.77 L1726.19 1251.77 L1745.62 1383.57 L1765.05 1647.04 L1784.47 1647.04 L1804.03 1778.84 L1823.46 1910.51 L1842.88 1910.51 L1862.31 1910.51 L1881.74 1910.51 L1901.30 1910.51" stroke-linejoin="round" style="fill:none;stroke:#E37E00;stroke-width:19.58"/>
	<path d=" M2233.69 2024.49 L2253.12 2021.15 L2272.67 2018.55 L2292.10 2015.08 L2311.53 2010.75 L2330.95 2005.80 L2350.38 1999.12 L2369.94 1993.18 L2389.36 1984.39 L2408.79 1979.32 L2428.22 1969.17 L2447.65 1958.53 L2467.20 1947.51 L2486.63 1933.90 L2506.06 1923.63 L2525.49 1907.42 L2545.04 1891.95 L2564.47 1882.54 L2583.90 1874.87 L2603.33 1855.94 L2622.76 1843.56 L2642.31 1841.09 L2661.74 1829.21 L2681.17 1819.31 L2700.60 1835.27 L2720.03 1824.87 L2739.58 1811.39 L2759.01 1802.23 L2778.43 1805.32 L2797.86 1798.89 L2817.29 1787.01 L2836.84 1784.78 L2856.27 1798.02 L2875.70 1807.67 L2895.13 1812.25 L2914.56 1827.35 L2934.11 1837.50 L2953.54 1848.39 L2972.97 1853.71 L2992.40 1867.69 L3011.83 1875.74 L3031.38 1905.93 L3050.81 1889.85 L3070.24 1910.26 L3089.67 1917.94 L3109.22 1891.45 L3128.65 1899.37 L3148.08 1905.07 L3167.51 1910.26 L3186.93 1916.20 L3206.49 1908.16 L3225.91 1913.48 L3245.34 1912.99 L3264.77 1915.34 L3284.20 1916.82 L3303.75 1917.69 L3323.18 1917.32 L3342.61 1919.55 L3362.04 1918.43 L3381.47 1925.98 L3401.02 1924.99 L3420.45 1924.87 L3439.88 1922.02 L3459.31 1919.67 L3478.74 1917.44 L3498.29 1920.78 L3517.72 1922.89 L3537.15 1922.15 L3556.57 1923.75 L3576.00 1947.14 L3595.56 1937.24 L3614.99 1947.89 L3634.41 1945.04" stroke-linejoin="round" style="fill:none;stroke:#1A476F;stroke-width:19.58"/>
	<path d=" M2233.69 1961.00 L2253.12 1961.00 L2272.67 1961.00 L2292.10 1961.00 L2311.53 1961.00 L2330.95 1961.00 L2350.38 1961.00 L2369.94 1961.00 L2389.36 1961.00 L2408.79 1961.00 L2428.22 1961.00 L2447.65 1961.00 L2467.20 1961.00 L2486.63 1961.00 L2506.06 1961.00 L2525.49 1961.00 L2545.04 1961.00 L2564.47 1961.00 L2583.90 1961.00 L2603.33 1961.00 L2622.76 1961.00 L2642.31 1961.00 L2661.74 1961.00 L2681.17 1961.00 L2700.60 1961.00 L2720.03 1961.00 L2739.58 1916.08 L2759.01 1889.97 L2778.43 1869.80 L2797.86 1855.07 L2817.29 1837.13 L2836.84 1810.89 L2856.27 1781.31 L2875.70 1748.64 L2895.13 1725.38 L2914.56 1706.32 L2934.11 1670.55 L2953.54 1635.65 L2972.97 1611.52 L2992.40 1600.26 L3011.83 1607.56 L3031.38 1613.63 L3050.81 1631.32 L3070.24 1676.25 L3089.67 1723.27 L3109.22 1773.27 L3128.65 1805.94 L3148.08 1835.76 L3167.51 1873.63 L3186.93 1901.97 L3206.49 1922.02 L3225.91 1934.77 L3245.34 1937.99 L3264.77 1946.52 L3284.20 1952.59 L3303.75 1948.63 L3323.18 1943.43 L3342.61 1939.35 L3362.04 1937.12 L3381.47 1935.14 L3401.02 1934.27 L3420.45 1925.49 L3439.88 1925.86 L3459.31 1926.35 L3478.74 1927.71 L3498.29 1926.35 L3517.72 1933.04 L3537.15 1934.64 L3556.57 1952.46 L3576.00 1953.70 L3595.56 1966.20 L3614.99 1973.75 L3634.41 1984.27" stroke-linejoin="round" style="fill:none;stroke:#90353B;stroke-width:19.58"/>
	<path d=" M2233.69 2009.76 L2253.12 2001.60 L2272.67 1991.08 L2292.10 1984.89 L2311.53 1984.02 L2330.95 1982.91 L2350.38 1981.30 L2369.94 1976.97 L2389.36 1980.06 L2408.79 1983.77 L2428.22 1972.27 L2447.65 1970.16 L2467.20 1950.11 L2486.63 1925.98 L2506.06 1925.61 L2525.49 1922.15 L2545.04 1893.81 L2564.47 1880.94 L2583.90 1870.42 L2603.33 1862.50 L2622.76 1861.63 L2642.31 1856.43 L2661.74 1850.99 L2681.17 1851.98 L2700.60 1847.89 L2720.03 1840.22 L2739.58 1826.24 L2759.01 1804.70 L2778.43 1788.12 L2797.86 1785.03 L2817.29 1793.69 L2836.84 1812.25 L2856.27 1833.78 L2875.70 1857.05 L2895.13 1877.59 L2914.56 1891.83 L2934.11 1904.57 L2953.54 1912.49 L2972.97 1917.07 L2992.40 1917.07 L3011.83 1912.24 L3031.38 1905.93 L3050.81 1901.11 L3070.24 1895.41 L3089.67 1894.55 L3109.22 1891.58 L3128.65 1895.91 L3148.08 1902.47 L3167.51 1914.84 L3186.93 1923.38 L3206.49 1933.16 L3225.91 1939.35 L3245.34 1943.68 L3264.77 1945.16 L3284.20 1949.87 L3303.75 1948.88 L3323.18 1950.48 L3342.61 1951.23 L3362.04 1951.10 L3381.47 1950.98 L3401.02 1950.36 L3420.45 1949.12 L3439.88 1948.75 L3459.31 1946.28 L3478.74 1942.81 L3498.29 1940.96 L3517.72 1943.93 L3537.15 1947.39 L3556.57 1952.09 L3576.00 1956.42 L3595.56 1960.51 L3614.99 1961.99 L3634.41 1964.72" stroke-linejoin="round" style="fill:none;stroke:#55752F;stroke-width:19.58"/>
	<path d=" M2233.69 2042.31 L2253.12 2042.31 L2272.67 2042.31 L2292.10 2042.31 L2311.53 2042.31 L2330.95 2042.31 L2350.38 2042.31 L2369.94 2042.31 L2389.36 2042.31 L2408.79 2042.31 L2428.22 1910.51 L2447.65 1910.51 L2467.20 1910.51 L2486.63 1910.51 L2506.06 1910.51 L2525.49 1910.51 L2545.04 1910.51 L2564.47 1910.51 L2583.90 1910.51 L2603.33 1910.51 L2622.76 1910.51 L2642.31 1910.51 L2661.74 1910.51 L2681.17 1910.51 L2700.60 1910.51 L2720.03 1910.51 L2739.58 1910.51 L2759.01 1910.51 L2778.43 1910.51 L2797.86 1910.51 L2817.29 1910.51 L2836.84 1910.51 L2856.27 1910.51 L2875.70 1910.51 L2895.13 1910.51 L2914.56 1910.51 L2934.11 1910.51 L2953.54 1910.51 L2972.97 2042.31 L2992.40 2042.31 L3011.83 2042.31 L3031.38 2042.31 L3050.81 2042.31 L3070.24 2042.31 L3089.67 2042.31 L3109.22 2042.31 L3128.65 2042.31 L3148.08 2042.31 L3167.51 2042.31 L3186.93 2042.31 L3206.49 2042.31 L3225.91 2042.31 L3245.34 2042.31 L3264.77 2042.31 L3284.20 2042.31 L3303.75 2042.31 L3323.18 2042.31 L3342.61 2042.31 L3362.04 2042.31 L3381.47 2042.31 L3401.02 2042.31 L3420.45 2042.31 L3439.88 2042.31 L3459.31 2042.31 L3478.74 2042.31 L3498.29 2042.31 L3517.72 2042.31 L3537.15 2042.31 L3556.57 2042.31 L3576.00 2042.31 L3595.56 2042.31 L3614.99 2042.31 L3634.41 2042.31" stroke-linejoin="round" style="fill:none;stroke:#E37E00;stroke-width:19.58"/>
	<line x1="427.31" y1="2096.14" x2="427.31" y2="407.27" style="stroke:#000000;stroke-width:4.90"/>
	<line x1="427.31" y1="2042.31" x2="393.28" y2="2042.31" style="stroke:#000000;stroke-width:4.90"/>
	<text x="376.32" y="2072.10" style="font-family:'Helvetica';font-size:85.02px;fill:#000000" text-anchor="end">0</text>
	<line x1="427.31" y1="1647.04" x2="393.28" y2="1647.04" style="stroke:#000000;stroke-width:4.90"/>
	<text x="376.32" y="1676.83" style="font-family:'Helvetica';font-size:85.02px;fill:#000000" text-anchor="end">3</text>
	<line x1="427.31" y1="1251.65" x2="393.28" y2="1251.65" style="stroke:#000000;stroke-width:4.90"/>
	<text x="376.32" y="1281.43" style="font-family:'Helvetica';font-size:85.02px;fill:#000000" text-anchor="end">6</text>
	<line x1="427.31" y1="856.38" x2="393.28" y2="856.38" style="stroke:#000000;stroke-width:4.90"/>
	<text x="376.32" y="886.16" style="font-family:'Helvetica';font-size:85.02px;fill:#000000" text-anchor="end">9</text>
	<line x1="427.31" y1="461.11" x2="393.28" y2="461.11" style="stroke:#000000;stroke-width:4.90"/>
	<text x="376.32" y="490.89" style="font-family:'Helvetica';font-size:85.02px;fill:#000000" text-anchor="end">12</text>
	<line x1="427.31" y1="2096.14" x2="2091.38" y2="2096.14" style="stroke:#000000;stroke-width:4.90"/>
	<line x1="481.14" y1="2096.14" x2="481.14" y2="2130.18" style="stroke:#000000;stroke-width:4.90"/>
	<text x="481.14" y="2206.58" style="font-family:'Helvetica';font-size:85.02px;fill:#000000" text-anchor="middle">0</text>
	<line x1="870.21" y1="2096.14" x2="870.21" y2="2130.18" style="stroke:#000000;stroke-width:4.90"/>
	<text x="870.21" y="2206.58" style="font-family:'Helvetica';font-size:85.02px;fill:#000000" text-anchor="middle">20</text>
	<line x1="1259.28" y1="2096.14" x2="1259.28" y2="2130.18" style="stroke:#000000;stroke-width:4.90"/>
	<text x="1259.28" y="2206.58" style="font-family:'Helvetica';font-size:85.02px;fill:#000000" text-anchor="middle">40</text>
	<line x1="1648.35" y1="2096.14" x2="1648.35" y2="2130.18" style="stroke:#000000;stroke-width:4.90"/>
	<text x="1648.35" y="2206.58" style="font-family:'Helvetica';font-size:85.02px;fill:#000000" text-anchor="middle">60</text>
	<line x1="2037.54" y1="2096.14" x2="2037.54" y2="2130.18" style="stroke:#000000;stroke-width:4.90"/>
	<text x="2037.54" y="2206.58" style="font-family:'Helvetica';font-size:85.02px;fill:#000000" text-anchor="middle">80</text>
	<line x1="2160.43" y1="2096.14" x2="3824.49" y2="2096.14" style="stroke:#000000;stroke-width:4.90"/>
	<line x1="2214.38" y1="2096.14" x2="2214.38" y2="2130.18" style="stroke:#000000;stroke-width:4.90"/>
	<text x="2214.38" y="2206.58" style="font-family:'Helvetica';font-size:85.02px;fill:#000000" text-anchor="middle">0</text>
	<line x1="2603.45" y1="2096.14" x2="2603.45" y2="2130.18" style="stroke:#000000;stroke-width:4.90"/>
	<text x="2603.45" y="2206.58" style="font-family:'Helvetica';font-size:85.02px;fill:#000000" text-anchor="middle">20</text>
	<line x1="2992.52" y1="2096.14" x2="2992.52" y2="2130.18" style="stroke:#000000;stroke-width:4.90"/>
	<text x="2992.52" y="2206.58" style="font-family:'Helvetica';font-size:85.02px;fill:#000000" text-anchor="middle">40</text>
	<line x1="3381.59" y1="2096.14" x2="3381.59" y2="2130.18" style="stroke:#000000;stroke-width:4.90"/>
	<text x="3381.59" y="2206.58" style="font-family:'Helvetica';font-size:85.02px;fill:#000000" text-anchor="middle">60</text>
	<line x1="3770.66" y1="2096.14" x2="3770.66" y2="2130.18" style="stroke:#000000;stroke-width:4.90"/>
	<text x="3770.66" y="2206.58" style="font-family:'Helvetica';font-size:85.02px;fill:#000000" text-anchor="middle">80</text>
	<rect x="427.31" y="309.88" width="1664.07" height="97.39" style="fill:#D9E6EB"/>
	<rect x="429.76" y="312.33" width="1659.17" height="92.50" style="fill:none;stroke:#D9E6EB;stroke-width:4.90"/>
	<text x="1259.28" y="372.10" style="font-family:'Helvetica';font-size:67.94px;fill:#000000" text-anchor="middle">Cumbria and North East</text>
	<rect x="2160.43" y="309.88" width="1664.07" height="97.39" style="fill:#D9E6EB"/>
	<rect x="2162.88" y="312.33" width="1659.17" height="92.50" style="fill:none;stroke:#D9E6EB;stroke-width:4.90"/>
	<text x="2992.52" y="372.10" style="font-family:'Helvetica';font-size:67.94px;fill:#000000" text-anchor="middle">Manchester/Cheshire/Merseyside</text>
	<rect x="432.38" y="2418.27" width="3195.10" height="326.34" style="fill:#FFFFFF"/>
	<rect x="435.26" y="2421.15" width="3189.34" height="320.58" style="fill:none;stroke:#000000;stroke-width:5.76"/>
	<line x1="475.57" y1="2511.46" x2="850.04" y2="2511.46" style="stroke:#1A476F;stroke-width:23.04"/>
	<line x1="2032.84" y1="2511.46" x2="2407.18" y2="2511.46" style="stroke:#90353B;stroke-width:23.04"/>
	<line x1="475.57" y1="2651.43" x2="850.04" y2="2651.43" style="stroke:#55752F;stroke-width:23.04"/>
	<line x1="2032.84" y1="2651.43" x2="2407.18" y2="2651.43" style="stroke:#E37E00;stroke-width:23.04"/>
	<text x="909.93" y="2546.49" style="font-family:'Helvetica';font-size:99.99px;fill:#000000">Crude</text>
	<text x="2467.20" y="2546.49" style="font-family:'Helvetica';font-size:99.99px;fill:#000000">Force of infection</text>
	<text x="909.93" y="2686.46" style="font-family:'Helvetica';font-size:99.99px;fill:#000000">Smoothed A &amp; E rate</text>
	<text x="2467.20" y="2686.46" style="font-family:'Helvetica';font-size:99.99px;fill:#000000">GP suspected case rate</text>
	<text x="170.79" y="1279.49" style="font-family:'Helvetica';font-size:99.99px;fill:#000000" transform="rotate(-90 170.79,1279.49)" text-anchor="middle">Expected number of cases</text>
	<text x="2029.99" y="2353.56" style="font-family:'Helvetica';font-size:99.99px;fill:#000000" text-anchor="middle"> </text>
	<text x="2029.99" y="215.98" style="font-family:'Helvetica';font-size:139.96px;fill:#1E2D53" text-anchor="middle">North West</text>
</svg>
