<?xml version="1.0" encoding="UTF-8" standalone="no"?>
<!-- This is a Stata 16.1 generated SVG file (http://www.stata.com) -->

<svg version="1.1" width="5.50in" height="4.00in" viewBox="0 0 3960 2880" xmlns="http://www.w3.org/2000/svg" xmlns:xlink="http://www.w3.org/1999/xlink">
	<desc>Stata Graph - Graph</desc>
	<rect x="0" y="0" width="3960" height="2880" style="fill:#EAF2F3;stroke:none"/>
	<rect x="0.00" y="0.00" width="3959.88" height="2880.00" style="fill:#EAF2F3"/>
	<rect x="2.88" y="2.88" width="3954.12" height="2874.24" style="fill:none;stroke:#EAF2F3;stroke-width:5.76"/>
	<rect x="377.69" y="407.27" width="1688.82" height="761.21" style="fill:#FFFFFF"/>
	<rect x="380.13" y="409.72" width="1683.92" height="756.31" style="fill:none;stroke:#FFFFFF;stroke-width:4.90"/>
	<line x1="377.69" y1="1114.65" x2="2066.50" y2="1114.65" style="stroke:#EAF2F3;stroke-width:7.34"/>
	<line x1="377.69" y1="896.84" x2="2066.50" y2="896.84" style="stroke:#EAF2F3;stroke-width:7.34"/>
	<line x1="377.69" y1="678.91" x2="2066.50" y2="678.91" style="stroke:#EAF2F3;stroke-width:7.34"/>
	<line x1="377.69" y1="461.11" x2="2066.50" y2="461.11" style="stroke:#EAF2F3;stroke-width:7.34"/>
	<rect x="2135.68" y="407.27" width="1688.82" height="761.21" style="fill:#FFFFFF"/>
	<rect x="2138.13" y="409.72" width="1683.92" height="756.31" style="fill:none;stroke:#FFFFFF;stroke-width:4.90"/>
	<line x1="2135.68" y1="1114.65" x2="3824.49" y2="1114.65" style="stroke:#EAF2F3;stroke-width:7.34"/>
	<line x1="2135.68" y1="896.84" x2="3824.49" y2="896.84" style="stroke:#EAF2F3;stroke-width:7.34"/>
	<line x1="2135.68" y1="678.91" x2="3824.49" y2="678.91" style="stroke:#EAF2F3;stroke-width:7.34"/>
	<line x1="2135.68" y1="461.11" x2="3824.49" y2="461.11" style="stroke:#EAF2F3;stroke-width:7.34"/>
	<rect x="377.69" y="1334.93" width="1688.82" height="761.21" style="fill:#FFFFFF"/>
	<rect x="380.13" y="1337.38" width="1683.92" height="756.31" style="fill:none;stroke:#FFFFFF;stroke-width:4.90"/>
	<line x1="377.69" y1="2042.31" x2="2066.50" y2="2042.31" style="stroke:#EAF2F3;stroke-width:7.34"/>
	<line x1="377.69" y1="1824.50" x2="2066.50" y2="1824.50" style="stroke:#EAF2F3;stroke-width:7.34"/>
	<line x1="377.69" y1="1606.57" x2="2066.50" y2="1606.57" style="stroke:#EAF2F3;stroke-width:7.34"/>
	<line x1="377.69" y1="1388.77" x2="2066.50" y2="1388.77" style="stroke:#EAF2F3;stroke-width:7.34"/>
	<rect x="2135.68" y="1334.93" width="1688.82" height="761.21" style="fill:#FFFFFF"/>
	<rect x="2138.13" y="1337.38" width="1683.92" height="756.31" style="fill:none;stroke:#FFFFFF;stroke-width:4.90"/>
	<line x1="2135.68" y1="2042.31" x2="3824.49" y2="2042.31" style="stroke:#EAF2F3;stroke-width:7.34"/>
	<line x1="2135.68" y1="1824.50" x2="3824.49" y2="1824.50" style="stroke:#EAF2F3;stroke-width:7.34"/>
	<line x1="2135.68" y1="1606.57" x2="3824.49" y2="1606.57" style="stroke:#EAF2F3;stroke-width:7.34"/>
	<line x1="2135.68" y1="1388.77" x2="3824.49" y2="1388.77" style="stroke:#EAF2F3;stroke-width:7.34"/>
	<path d=" M451.32 1085.07 L470.99 1079.38 L490.79 1074.68 L510.59 1069.23 L530.39 1065.03 L550.07 1057.11 L569.87 1047.33 L589.67 1038.79 L609.35 1027.90 L629.14 1017.88 L648.95 1004.76 L668.62 990.28 L688.42 973.94 L708.22 956.12 L728.02 941.89 L747.70 924.69 L767.50 890.29 L787.30 885.83 L806.97 875.19 L826.77 852.17 L846.57 834.60 L866.37 826.18 L886.05 809.97 L905.85 797.10 L925.65 835.34 L945.33 829.77 L965.13 815.41 L984.93 815.41 L1004.73 823.95 L1024.40 826.43 L1044.20 810.09 L1064.00 812.94 L1083.68 833.61 L1103.48 843.01 L1123.28 857.61 L1143.08 872.09 L1162.76 888.55 L1182.56 897.59 L1202.36 906.25 L1222.03 917.76 L1241.83 919.74 L1261.63 962.19 L1281.43 944.98 L1301.11 965.78 L1320.91 979.76 L1340.71 947.83 L1360.38 956.86 L1380.18 961.69 L1399.98 982.48 L1419.66 979.76 L1439.46 971.72 L1459.26 975.06 L1479.06 976.91 L1498.74 980.01 L1518.54 980.13 L1538.34 985.33 L1558.01 983.97 L1577.81 982.36 L1597.61 986.69 L1617.41 1003.64 L1637.09 1008.72 L1656.89 1018.37 L1676.69 1018.37 L1696.37 1018.62 L1716.16 1028.15 L1735.96 1028.39 L1755.77 1037.68 L1775.44 1036.81 L1795.24 1039.28 L1815.04 1056.73 L1834.72 1050.05 L1854.52 1056.61 L1874.32 1056.49" stroke-linejoin="round" style="fill:none;stroke:#1A476F;stroke-width:19.58"/>
	<path d=" M451.32 976.54 L470.99 976.54 L490.79 976.54 L510.59 976.54 L530.39 976.54 L550.07 976.54 L569.87 976.54 L589.67 976.54 L609.35 976.54 L629.14 976.54 L648.95 976.54 L668.62 976.54 L688.42 976.54 L708.22 976.54 L728.02 976.54 L747.70 976.54 L767.50 976.54 L787.30 976.54 L806.97 976.54 L826.77 976.54 L846.57 976.54 L866.37 976.54 L886.05 976.54 L905.85 976.54 L925.65 976.54 L945.33 976.54 L965.13 930.38 L984.93 910.83 L1004.73 893.87 L1024.40 892.02 L1044.20 877.54 L1064.00 866.40 L1083.68 855.76 L1103.48 846.97 L1123.28 840.41 L1143.08 834.47 L1162.76 832.62 L1182.56 828.04 L1202.36 818.51 L1222.03 809.97 L1241.83 804.77 L1261.63 802.67 L1281.43 796.36 L1301.11 789.18 L1320.91 787.45 L1340.71 786.58 L1360.38 796.48 L1380.18 814.92 L1399.98 827.29 L1419.66 846.60 L1439.46 862.32 L1459.26 876.80 L1479.06 901.05 L1498.74 913.55 L1518.54 915.04 L1538.34 920.11 L1558.01 930.51 L1577.81 938.55 L1597.61 952.53 L1617.41 960.83 L1637.09 970.73 L1656.89 994.36 L1676.69 1047.21 L1696.37 1036.69 L1716.16 966.89 L1735.96 948.82 L1755.77 931.25 L1775.44 928.15 L1795.24 914.42 L1815.04 909.71 L1834.72 912.31 L1854.52 906.74 L1874.32 903.77" stroke-linejoin="round" style="fill:none;stroke:#90353B;stroke-width:19.58"/>
	<path d=" M451.32 1035.94 L470.99 1028.27 L490.79 1021.09 L510.59 1009.96 L530.39 1005.62 L550.07 996.84 L569.87 984.46 L589.67 979.76 L609.35 976.29 L629.14 960.58 L648.95 942.01 L668.62 932.11 L688.42 923.20 L708.22 901.05 L728.02 904.52 L747.70 900.93 L767.50 877.04 L787.30 859.22 L806.97 838.18 L826.77 821.97 L846.57 802.79 L866.37 799.82 L886.05 795.61 L905.85 773.34 L925.65 762.32 L945.33 752.79 L965.13 747.23 L984.93 743.27 L1004.73 731.26 L1024.40 723.96 L1044.20 725.32 L1064.00 725.45 L1083.68 698.59 L1103.48 702.06 L1123.28 717.40 L1143.08 743.02 L1162.76 762.57 L1182.56 767.65 L1202.36 780.76 L1222.03 808.11 L1241.83 826.55 L1261.63 838.68 L1281.43 836.33 L1301.11 832.12 L1320.91 837.07 L1340.71 830.14 L1360.38 823.58 L1380.18 834.72 L1399.98 859.10 L1419.66 898.08 L1439.46 931.00 L1459.26 934.09 L1479.06 942.51 L1498.74 944.24 L1518.54 941.40 L1538.34 938.92 L1558.01 933.60 L1577.81 925.68 L1597.61 922.96 L1617.41 919.99 L1637.09 919.99 L1656.89 917.14 L1676.69 915.04 L1696.37 912.56 L1716.16 909.71 L1735.96 905.88 L1755.77 907.86 L1775.44 910.83 L1795.24 919.49 L1815.04 935.70 L1834.72 942.76 L1854.52 947.83 L1874.32 956.86" stroke-linejoin="round" style="fill:none;stroke:#55752F;stroke-width:19.58"/>
	<path d=" M451.32 1114.65 L470.99 1114.65 L490.79 1114.65 L510.59 1114.65 L530.39 1114.65 L550.07 1114.65 L569.87 1114.65 L589.67 1114.65 L609.35 1114.65 L629.14 1114.65 L648.95 1114.65 L668.62 1114.65 L688.42 1114.65 L708.22 1114.65 L728.02 1114.65 L747.70 1114.65 L767.50 1114.65 L787.30 1114.65 L806.97 1005.75 L826.77 1005.75 L846.57 1005.75 L866.37 1005.75 L886.05 1005.75 L905.85 1005.75 L925.65 1005.75 L945.33 1005.75 L965.13 1005.75 L984.93 1005.75 L1004.73 1005.75 L1024.40 896.84 L1044.20 896.84 L1064.00 896.84 L1083.68 896.84 L1103.48 896.84 L1123.28 896.84 L1143.08 896.84 L1162.76 896.84 L1182.56 896.84 L1202.36 896.84 L1222.03 896.84 L1241.83 896.84 L1261.63 896.84 L1281.43 896.84 L1301.11 896.84 L1320.91 896.84 L1340.71 896.84 L1360.38 1005.75 L1380.18 1005.75 L1399.98 1005.75 L1419.66 1005.75 L1439.46 1005.75 L1459.26 1005.75 L1479.06 1005.75 L1498.74 1005.75 L1518.54 1005.75 L1538.34 1005.75 L1558.01 1005.75 L1577.81 1114.65 L1597.61 1114.65 L1617.41 1114.65 L1637.09 1114.65 L1656.89 1005.75 L1676.69 1005.75 L1696.37 1005.75 L1716.16 1005.75 L1735.96 1005.75 L1755.77 1005.75 L1775.44 1005.75 L1795.24 1005.75 L1815.04 1005.75 L1834.72 1005.75 L1854.52 1005.75 L1874.32 1005.75" stroke-linejoin="round" style="fill:none;stroke:#E37E00;stroke-width:19.58"/>
	<path d=" M2209.18 1085.07 L2228.99 1079.26 L2248.78 1074.68 L2268.59 1069.11 L2288.26 1065.03 L2308.06 1056.98 L2327.86 1047.33 L2347.54 1038.67 L2367.34 1027.90 L2387.14 1017.88 L2406.94 1004.76 L2426.61 990.15 L2446.41 973.82 L2466.21 956.12 L2485.89 941.77 L2505.69 924.57 L2525.49 890.16 L2545.17 885.71 L2564.97 875.06 L2584.77 852.05 L2604.57 834.35 L2624.24 825.93 L2644.04 809.72 L2663.84 796.97 L2683.52 835.09 L2703.32 829.65 L2723.12 815.17 L2742.92 815.29 L2762.59 823.83 L2782.39 826.18 L2802.20 809.97 L2821.87 812.82 L2841.67 833.48 L2861.47 842.89 L2881.27 857.37 L2900.95 871.97 L2920.75 888.43 L2940.55 897.34 L2960.22 906.13 L2980.02 917.63 L2999.82 919.61 L3019.62 962.06 L3039.30 944.86 L3059.10 965.65 L3078.90 979.64 L3098.58 947.71 L3118.38 956.74 L3138.18 961.57 L3157.98 982.48 L3177.65 979.64 L3197.45 971.59 L3217.25 974.93 L3236.93 976.91 L3256.73 979.88 L3276.53 980.01 L3296.20 985.20 L3316.01 983.97 L3335.80 982.23 L3355.61 986.57 L3375.28 1003.64 L3395.08 1008.59 L3414.88 1018.25 L3434.56 1018.25 L3454.36 1018.62 L3474.16 1028.15 L3493.96 1028.39 L3513.63 1037.68 L3533.43 1036.81 L3553.23 1039.16 L3572.91 1056.61 L3592.71 1050.05 L3612.51 1056.61 L3632.31 1056.36" stroke-linejoin="round" style="fill:none;stroke:#1A476F;stroke-width:19.58"/>
	<path d=" M2209.18 976.42 L2228.99 976.42 L2248.78 976.42 L2268.59 976.42 L2288.26 976.42 L2308.06 976.42 L2327.86 976.42 L2347.54 976.42 L2367.34 976.42 L2387.14 976.42 L2406.94 976.42 L2426.61 976.42 L2446.41 976.42 L2466.21 976.42 L2485.89 976.42 L2505.69 976.42 L2525.49 976.42 L2545.17 976.42 L2564.97 976.42 L2584.77 976.42 L2604.57 976.42 L2624.24 930.75 L2644.04 915.16 L2663.84 903.53 L2683.52 892.51 L2703.32 882.61 L2723.12 869.74 L2742.92 855.88 L2762.59 849.69 L2782.39 844.37 L2802.20 847.10 L2821.87 843.26 L2841.67 835.34 L2861.47 830.64 L2881.27 830.51 L2900.95 833.98 L2920.75 843.63 L2940.55 843.26 L2960.22 856.75 L2980.02 874.07 L2999.82 900.68 L3019.62 922.96 L3039.30 940.41 L3059.10 942.26 L3078.90 944.37 L3098.58 931.25 L3118.38 922.21 L3138.18 915.16 L3157.98 904.15 L3177.65 904.64 L3197.45 910.33 L3217.25 912.93 L3236.93 910.58 L3256.73 916.03 L3276.53 915.53 L3296.20 921.47 L3316.01 913.18 L3335.80 913.06 L3355.61 919.99 L3375.28 938.80 L3395.08 948.08 L3414.88 959.46 L3434.56 992.13 L3454.36 1092.62 L3474.16 1033.72 L3493.96 990.28 L3513.63 959.22 L3533.43 947.95 L3553.23 941.40 L3572.91 937.44 L3592.71 937.31 L3612.51 974.81 L3632.31 971.34" stroke-linejoin="round" style="fill:none;stroke:#90353B;stroke-width:19.58"/>
	<path d=" M2209.18 1034.21 L2228.99 1024.81 L2248.78 1018.74 L2268.59 1017.75 L2288.26 1011.44 L2308.06 1014.04 L2327.86 1003.89 L2347.54 997.83 L2367.34 1002.65 L2387.14 974.07 L2406.94 967.38 L2426.61 963.05 L2446.41 957.73 L2466.21 940.78 L2485.89 943.13 L2505.69 940.90 L2525.49 910.70 L2545.17 883.85 L2564.97 857.00 L2584.77 839.17 L2604.57 818.63 L2624.24 813.68 L2644.04 807.49 L2663.84 781.88 L2683.52 771.61 L2703.32 761.83 L2723.12 752.30 L2742.92 743.51 L2762.59 738.19 L2782.39 732.75 L2802.20 731.63 L2821.87 725.32 L2841.67 703.42 L2861.47 703.42 L2881.27 716.29 L2900.95 731.39 L2920.75 742.65 L2940.55 742.65 L2960.22 748.22 L2980.02 766.66 L2999.82 781.75 L3019.62 791.53 L3039.30 786.95 L3059.10 785.84 L3078.90 808.61 L3098.58 819.13 L3118.38 837.32 L3138.18 860.58 L3157.98 880.14 L3177.65 904.39 L3197.45 925.43 L3217.25 927.78 L3236.93 940.16 L3256.73 952.16 L3276.53 958.84 L3296.20 964.29 L3316.01 963.80 L3335.80 961.82 L3355.61 964.41 L3375.28 965.16 L3395.08 961.57 L3414.88 960.08 L3434.56 960.58 L3454.36 962.43 L3474.16 961.07 L3493.96 961.82 L3513.63 965.53 L3533.43 971.10 L3553.23 975.55 L3572.91 981.74 L3592.71 982.73 L3612.51 982.23 L3632.31 981.86" stroke-linejoin="round" style="fill:none;stroke:#55752F;stroke-width:19.58"/>
	<path d=" M2209.18 1114.65 L2228.99 1114.65 L2248.78 1114.65 L2268.59 1114.65 L2288.26 1114.65 L2308.06 1114.65 L2327.86 1114.65 L2347.54 1114.65 L2367.34 1114.65 L2387.14 1114.65 L2406.94 1114.65 L2426.61 1114.65 L2446.41 1114.65 L2466.21 1114.65 L2485.89 1114.65 L2505.69 1114.65 L2525.49 1114.65 L2545.17 1114.65 L2564.97 1114.65 L2584.77 1114.65 L2604.57 1114.65 L2624.24 1114.65 L2644.04 1114.65 L2663.84 1114.65 L2683.52 1114.65 L2703.32 1114.65 L2723.12 1114.65 L2742.92 1114.65 L2762.59 1114.65 L2782.39 1114.65 L2802.20 1114.65 L2821.87 1114.65 L2841.67 1114.65 L2861.47 1114.65 L2881.27 1114.65 L2900.95 1114.65 L2920.75 1114.65 L2940.55 1114.65 L2960.22 1114.65 L2980.02 1114.65 L2999.82 1114.65 L3019.62 1114.65 L3039.30 1114.65 L3059.10 1114.65 L3078.90 1114.65 L3098.58 1114.65 L3118.38 1114.65 L3138.18 1114.65 L3157.98 1114.65 L3177.65 1114.65 L3197.45 1114.65 L3217.25 1114.65 L3236.93 1114.65 L3256.73 1114.65 L3276.53 1114.65 L3296.20 1114.65 L3316.01 1114.65 L3335.80 1114.65 L3355.61 1114.65 L3375.28 1114.65 L3395.08 1114.65 L3414.88 1114.65 L3434.56 1114.65 L3454.36 1114.65 L3474.16 1114.65 L3493.96 1114.65 L3513.63 1114.65 L3533.43 1114.65 L3553.23 1114.65 L3572.91 1114.65 L3592.71 1005.75 L3612.51 1005.75 L3632.31 1005.75" stroke-linejoin="round" style="fill:none;stroke:#E37E00;stroke-width:19.58"/>
	<path d=" M451.32 2017.19 L470.99 2012.24 L490.79 2008.28 L510.59 2003.58 L530.39 2000.11 L550.07 1993.30 L569.87 1985.01 L589.67 1977.59 L609.35 1968.43 L629.14 1959.89 L648.95 1948.75 L668.62 1936.25 L688.42 1922.39 L708.22 1907.29 L728.02 1895.17 L747.70 1880.56 L767.50 1851.11 L787.30 1847.40 L806.97 1838.36 L826.77 1818.69 L846.57 1803.71 L866.37 1796.53 L886.05 1782.67 L905.85 1771.78 L925.65 1804.33 L945.33 1799.63 L965.13 1787.38 L984.93 1787.38 L1004.73 1794.68 L1024.40 1796.66 L1044.20 1782.92 L1064.00 1785.27 L1083.68 1802.85 L1103.48 1810.89 L1123.28 1823.27 L1143.08 1835.64 L1162.76 1849.63 L1182.56 1857.30 L1202.36 1864.72 L1222.03 1874.62 L1241.83 1876.23 L1261.63 1912.37 L1281.43 1897.77 L1301.11 1915.46 L1320.91 1927.34 L1340.71 1900.24 L1360.38 1907.91 L1380.18 1912.00 L1399.98 1929.69 L1419.66 1927.34 L1439.46 1920.54 L1459.26 1923.38 L1479.06 1924.99 L1498.74 1927.59 L1518.54 1927.71 L1538.34 1932.17 L1558.01 1931.06 L1577.81 1929.57 L1597.61 1933.28 L1617.41 1947.76 L1637.09 1952.09 L1656.89 1960.26 L1676.69 1960.26 L1696.37 1960.51 L1716.16 1968.68 L1735.96 1968.80 L1755.77 1976.84 L1775.44 1975.98 L1795.24 1978.08 L1815.04 1992.93 L1834.72 1987.36 L1854.52 1992.93 L1874.32 1992.68" stroke-linejoin="round" style="fill:none;stroke:#1A476F;stroke-width:19.58"/>
	<path d=" M451.32 1924.62 L470.99 1924.62 L490.79 1924.62 L510.59 1924.62 L530.39 1924.62 L550.07 1924.62 L569.87 1924.62 L589.67 1924.62 L609.35 1924.62 L629.14 1924.62 L648.95 1924.62 L668.62 1924.62 L688.42 1924.62 L708.22 1924.62 L728.02 1924.62 L747.70 1924.62 L767.50 1924.62 L787.30 1924.62 L806.97 1924.62 L826.77 1924.62 L846.57 1924.62 L866.37 1879.57 L886.05 1879.20 L905.85 1865.09 L925.65 1864.23 L945.33 1852.35 L965.13 1836.75 L984.93 1821.90 L1004.73 1812.87 L1024.40 1800.50 L1044.20 1787.25 L1064.00 1774.38 L1083.68 1763.37 L1103.48 1755.45 L1123.28 1755.70 L1143.08 1756.44 L1162.76 1753.22 L1182.56 1756.07 L1202.36 1758.91 L1222.03 1764.61 L1241.83 1774.88 L1261.63 1780.69 L1281.43 1786.88 L1301.11 1800.74 L1320.91 1816.71 L1340.71 1828.22 L1360.38 1839.23 L1380.18 1849.01 L1399.98 1856.80 L1419.66 1863.24 L1439.46 1867.45 L1459.26 1868.31 L1479.06 1875.86 L1498.74 1879.33 L1518.54 1884.77 L1538.34 1892.82 L1558.01 1906.80 L1577.81 1918.06 L1597.61 1938.48 L1617.41 1954.20 L1637.09 1846.41 L1656.89 1875.49 L1676.69 1894.42 L1696.37 1909.03 L1716.16 1920.17 L1735.96 2035.75 L1755.77 1866.70 L1775.44 1878.34 L1795.24 1909.89 L1815.04 1906.68 L1834.72 1905.19 L1854.52 1904.32 L1874.32 1903.46" stroke-linejoin="round" style="fill:none;stroke:#90353B;stroke-width:19.58"/>
	<path d=" M451.32 1971.89 L470.99 1960.51 L490.79 1958.16 L510.59 1955.68 L530.39 1955.31 L550.07 1948.88 L569.87 1936.87 L589.67 1924.25 L609.35 1929.94 L629.14 1909.03 L648.95 1902.59 L668.62 1906.80 L688.42 1904.45 L708.22 1895.54 L728.02 1898.14 L747.70 1897.02 L767.50 1871.65 L787.30 1851.73 L806.97 1830.07 L826.77 1815.47 L846.57 1793.69 L866.37 1788.61 L886.05 1782.06 L905.85 1764.24 L925.65 1755.94 L945.33 1746.79 L965.13 1739.98 L984.93 1732.06 L1004.73 1720.30 L1024.40 1714.73 L1044.20 1710.77 L1064.00 1709.16 L1083.68 1690.23 L1103.48 1689.86 L1123.28 1700.63 L1143.08 1719.06 L1162.76 1731.94 L1182.56 1735.28 L1202.36 1741.46 L1222.03 1758.91 L1241.83 1771.17 L1261.63 1777.97 L1281.43 1771.41 L1301.11 1764.48 L1320.91 1769.31 L1340.71 1765.60 L1360.38 1769.06 L1380.18 1784.28 L1399.98 1807.92 L1419.66 1838.98 L1439.46 1866.70 L1459.26 1873.63 L1479.06 1882.79 L1498.74 1889.97 L1518.54 1892.94 L1538.34 1890.71 L1558.01 1886.88 L1577.81 1883.29 L1597.61 1878.34 L1617.41 1879.45 L1637.09 1877.22 L1656.89 1877.59 L1676.69 1879.57 L1696.37 1881.43 L1716.16 1881.55 L1735.96 1889.47 L1755.77 1893.06 L1775.44 1895.54 L1795.24 1897.27 L1815.04 1914.97 L1834.72 1922.02 L1854.52 1927.10 L1874.32 1931.55" stroke-linejoin="round" style="fill:none;stroke:#55752F;stroke-width:19.58"/>
	<path d=" M451.32 2042.31 L470.99 2042.31 L490.79 2042.31 L510.59 2042.31 L530.39 2042.31 L550.07 2042.31 L569.87 2042.31 L589.67 2042.31 L609.35 2042.31 L629.14 2042.31 L648.95 2042.31 L668.62 2042.31 L688.42 2042.31 L708.22 2042.31 L728.02 2042.31 L747.70 2042.31 L767.50 2042.31 L787.30 2042.31 L806.97 2042.31 L826.77 2042.31 L846.57 2042.31 L866.37 1933.41 L886.05 1933.41 L905.85 1933.41 L925.65 1933.41 L945.33 1933.41 L965.13 1933.41 L984.93 1933.41 L1004.73 1933.41 L1024.40 1933.41 L1044.20 1933.41 L1064.00 1933.41 L1083.68 1933.41 L1103.48 1933.41 L1123.28 1933.41 L1143.08 1933.41 L1162.76 1933.41 L1182.56 1933.41 L1202.36 1933.41 L1222.03 1933.41 L1241.83 1933.41 L1261.63 1933.41 L1281.43 1933.41 L1301.11 1933.41 L1320.91 1933.41 L1340.71 1933.41 L1360.38 1933.41 L1380.18 1933.41 L1399.98 1933.41 L1419.66 2042.31 L1439.46 2042.31 L1459.26 2042.31 L1479.06 2042.31 L1498.74 2042.31 L1518.54 2042.31 L1538.34 2042.31 L1558.01 2042.31 L1577.81 2042.31 L1597.61 2042.31 L1617.41 2042.31 L1637.09 2042.31 L1656.89 2042.31 L1676.69 2042.31 L1696.37 2042.31 L1716.16 2042.31 L1735.96 2042.31 L1755.77 2042.31 L1775.44 2042.31 L1795.24 2042.31 L1815.04 2042.31 L1834.72 2042.31 L1854.52 2042.31 L1874.32 2042.31" stroke-linejoin="round" style="fill:none;stroke:#E37E00;stroke-width:19.58"/>
	<path d=" M2209.18 2024.24 L2228.99 2020.65 L2248.78 2017.81 L2268.59 2014.47 L2288.26 2011.99 L2308.06 2007.04 L2327.86 2001.10 L2347.54 1995.78 L2367.34 1989.22 L2387.14 1983.03 L2406.94 1974.99 L2426.61 1966.08 L2446.41 1956.05 L2466.21 1945.29 L2485.89 1936.50 L2505.69 1925.98 L2525.49 1904.94 L2545.17 1902.22 L2564.97 1895.66 L2584.77 1881.55 L2604.57 1870.79 L2624.24 1865.59 L2644.04 1855.69 L2663.84 1847.89 L2683.52 1871.16 L2703.32 1867.82 L2723.12 1859.03 L2742.92 1859.03 L2762.59 1864.23 L2782.39 1865.71 L2802.20 1855.81 L2821.87 1857.55 L2841.67 1870.17 L2861.47 1875.98 L2881.27 1884.90 L2900.95 1893.68 L2920.75 1903.83 L2940.55 1909.27 L2960.22 1914.72 L2980.02 1921.77 L2999.82 1922.89 L3019.62 1948.88 L3039.30 1938.36 L3059.10 1951.10 L3078.90 1959.64 L3098.58 1940.21 L3118.38 1945.66 L3138.18 1948.63 L3157.98 1961.38 L3177.65 1959.64 L3197.45 1954.82 L3217.25 1956.80 L3236.93 1958.03 L3256.73 1959.77 L3276.53 1959.89 L3296.20 1963.11 L3316.01 1962.24 L3335.80 1961.25 L3355.61 1963.97 L3375.28 1974.37 L3395.08 1977.46 L3414.88 1983.28 L3434.56 1983.28 L3454.36 1983.53 L3474.16 1989.34 L3493.96 1989.47 L3513.63 1995.16 L3533.43 1994.66 L3553.23 1996.15 L3572.91 2006.79 L3592.71 2002.83 L3612.51 2006.79 L3632.31 2006.67" stroke-linejoin="round" style="fill:none;stroke:#1A476F;stroke-width:19.58"/>
	<path d=" M2209.18 1957.79 L2228.99 1957.79 L2248.78 1957.79 L2268.59 1957.79 L2288.26 1957.79 L2308.06 1957.79 L2327.86 1957.79 L2347.54 1957.79 L2367.34 1957.79 L2387.14 1957.79 L2406.94 1957.79 L2426.61 1957.79 L2446.41 1957.79 L2466.21 1957.79 L2485.89 1957.79 L2505.69 1957.79 L2525.49 1957.79 L2545.17 1957.79 L2564.97 1957.79 L2584.77 1957.79 L2604.57 1957.79 L2624.24 1916.20 L2644.04 1915.46 L2663.84 1899.25 L2683.52 1885.64 L2703.32 1868.68 L2723.12 1853.34 L2742.92 1836.14 L2762.59 1823.27 L2782.39 1803.84 L2802.20 1786.63 L2821.87 1770.92 L2841.67 1764.85 L2861.47 1754.09 L2881.27 1745.30 L2900.95 1739.61 L2920.75 1740.72 L2940.55 1736.89 L2960.22 1740.97 L2980.02 1749.01 L2999.82 1764.48 L3019.62 1779.46 L3039.30 1796.04 L3059.10 1811.88 L3078.90 1832.55 L3098.58 1850.62 L3118.38 1862.00 L3138.18 1871.53 L3157.98 1884.90 L3177.65 1894.05 L3197.45 1902.72 L3217.25 1916.45 L3236.93 1923.88 L3256.73 1935.14 L3276.53 1943.80 L3296.20 1951.85 L3316.01 1963.36 L3335.80 1967.32 L3355.61 1962.24 L3375.28 1958.65 L3395.08 1953.83 L3414.88 1946.77 L3434.56 1932.42 L3454.36 1924.87 L3474.16 1922.15 L3493.96 1921.03 L3513.63 1917.81 L3533.43 1914.10 L3553.23 1912.49 L3572.91 1924.87 L3592.71 1925.36 L3612.51 1926.35 L3632.31 1928.70" stroke-linejoin="round" style="fill:none;stroke:#90353B;stroke-width:19.58"/>
	<path d=" M2209.18 1964.72 L2228.99 1961.62 L2248.78 1957.17 L2268.59 1962.98 L2288.26 1968.55 L2308.06 1961.25 L2327.86 1958.28 L2347.54 1956.42 L2367.34 1957.91 L2387.14 1958.28 L2406.94 1947.14 L2426.61 1934.89 L2446.41 1935.88 L2466.21 1918.06 L2485.89 1916.45 L2505.69 1914.60 L2525.49 1894.05 L2545.17 1878.34 L2564.97 1868.06 L2584.77 1858.04 L2604.57 1847.77 L2624.24 1846.41 L2644.04 1842.82 L2663.84 1830.94 L2683.52 1826.11 L2703.32 1818.93 L2723.12 1812.38 L2742.92 1806.81 L2762.59 1805.57 L2782.39 1805.20 L2802.20 1801.98 L2821.87 1803.22 L2841.67 1787.38 L2861.47 1795.05 L2881.27 1806.31 L2900.95 1821.41 L2920.75 1833.29 L2940.55 1838.86 L2960.22 1847.40 L2980.02 1863.73 L2999.82 1872.89 L3019.62 1879.08 L3039.30 1876.60 L3059.10 1872.52 L3078.90 1875.12 L3098.58 1867.45 L3118.38 1868.56 L3138.18 1875.98 L3157.98 1887.49 L3177.65 1903.95 L3197.45 1918.43 L3217.25 1919.42 L3236.93 1928.58 L3256.73 1932.91 L3276.53 1934.64 L3296.20 1938.48 L3316.01 1938.23 L3335.80 1935.51 L3355.61 1930.56 L3375.28 1930.19 L3395.08 1928.95 L3414.88 1928.83 L3434.56 1926.35 L3454.36 1923.63 L3474.16 1920.04 L3493.96 1919.79 L3513.63 1921.90 L3533.43 1924.13 L3553.23 1925.12 L3572.91 1935.51 L3592.71 1938.85 L3612.51 1941.33 L3632.31 1945.04" stroke-linejoin="round" style="fill:none;stroke:#55752F;stroke-width:19.58"/>
	<path d=" M2209.18 2042.31 L2228.99 2042.31 L2248.78 2042.31 L2268.59 2042.31 L2288.26 2042.31 L2308.06 2042.31 L2327.86 2042.31 L2347.54 2042.31 L2367.34 2042.31 L2387.14 2042.31 L2406.94 2042.31 L2426.61 2042.31 L2446.41 2042.31 L2466.21 2042.31 L2485.89 2042.31 L2505.69 2042.31 L2525.49 2042.31 L2545.17 2042.31 L2564.97 2042.31 L2584.77 2042.31 L2604.57 2042.31 L2624.24 2042.31 L2644.04 2042.31 L2663.84 2042.31 L2683.52 2042.31 L2703.32 2042.31 L2723.12 2042.31 L2742.92 2042.31 L2762.59 2042.31 L2782.39 2042.31 L2802.20 2042.31 L2821.87 2042.31 L2841.67 2042.31 L2861.47 1933.41 L2881.27 1933.41 L2900.95 1933.41 L2920.75 1933.41 L2940.55 1933.41 L2960.22 1933.41 L2980.02 1933.41 L2999.82 1933.41 L3019.62 1933.41 L3039.30 1933.41 L3059.10 1933.41 L3078.90 1933.41 L3098.58 1933.41 L3118.38 1933.41 L3138.18 1933.41 L3157.98 1933.41 L3177.65 1933.41 L3197.45 1933.41 L3217.25 1933.41 L3236.93 1933.41 L3256.73 1933.41 L3276.53 1933.41 L3296.20 1933.41 L3316.01 1933.41 L3335.80 1933.41 L3355.61 1933.41 L3375.28 1933.41 L3395.08 1933.41 L3414.88 2042.31 L3434.56 2042.31 L3454.36 2042.31 L3474.16 2042.31 L3493.96 2042.31 L3513.63 2042.31 L3533.43 2042.31 L3553.23 2042.31 L3572.91 2042.31 L3592.71 2042.31 L3612.51 2042.31 L3632.31 2042.31" stroke-linejoin="round" style="fill:none;stroke:#E37E00;stroke-width:19.58"/>
	<line x1="377.69" y1="1168.48" x2="377.69" y2="407.27" style="stroke:#000000;stroke-width:4.90"/>
	<line x1="377.69" y1="1114.65" x2="343.78" y2="1114.65" style="stroke:#000000;stroke-width:4.90"/>
	<text x="326.70" y="1144.44" style="font-family:'Helvetica';font-size:85.02px;fill:#000000" text-anchor="end">0</text>
	<line x1="377.69" y1="896.84" x2="343.78" y2="896.84" style="stroke:#000000;stroke-width:4.90"/>
	<text x="326.70" y="926.63" style="font-family:'Helvetica';font-size:85.02px;fill:#000000" text-anchor="end">2</text>
	<line x1="377.69" y1="678.91" x2="343.78" y2="678.91" style="stroke:#000000;stroke-width:4.90"/>
	<text x="326.70" y="708.70" style="font-family:'Helvetica';font-size:85.02px;fill:#000000" text-anchor="end">4</text>
	<line x1="377.69" y1="461.11" x2="343.78" y2="461.11" style="stroke:#000000;stroke-width:4.90"/>
	<text x="326.70" y="490.89" style="font-family:'Helvetica';font-size:85.02px;fill:#000000" text-anchor="end">6</text>
	<line x1="377.69" y1="2096.14" x2="377.69" y2="1334.93" style="stroke:#000000;stroke-width:4.90"/>
	<line x1="377.69" y1="2042.31" x2="343.78" y2="2042.31" style="stroke:#000000;stroke-width:4.90"/>
	<text x="326.70" y="2072.10" style="font-family:'Helvetica';font-size:85.02px;fill:#000000" text-anchor="end">0</text>
	<line x1="377.69" y1="1824.50" x2="343.78" y2="1824.50" style="stroke:#000000;stroke-width:4.90"/>
	<text x="326.70" y="1854.29" style="font-family:'Helvetica';font-size:85.02px;fill:#000000" text-anchor="end">2</text>
	<line x1="377.69" y1="1606.57" x2="343.78" y2="1606.57" style="stroke:#000000;stroke-width:4.90"/>
	<text x="326.70" y="1636.36" style="font-family:'Helvetica';font-size:85.02px;fill:#000000" text-anchor="end">4</text>
	<line x1="377.69" y1="1388.77" x2="343.78" y2="1388.77" style="stroke:#000000;stroke-width:4.90"/>
	<text x="326.70" y="1418.55" style="font-family:'Helvetica';font-size:85.02px;fill:#000000" text-anchor="end">6</text>
	<line x1="377.69" y1="2096.14" x2="2066.50" y2="2096.14" style="stroke:#000000;stroke-width:4.90"/>
	<line x1="431.52" y1="2096.14" x2="431.52" y2="2130.18" style="stroke:#000000;stroke-width:4.90"/>
	<text x="431.52" y="2206.58" style="font-family:'Helvetica';font-size:85.02px;fill:#000000" text-anchor="middle">0</text>
	<line x1="826.90" y1="2096.14" x2="826.90" y2="2130.18" style="stroke:#000000;stroke-width:4.90"/>
	<text x="826.90" y="2206.58" style="font-family:'Helvetica';font-size:85.02px;fill:#000000" text-anchor="middle">20</text>
	<line x1="1222.15" y1="2096.14" x2="1222.15" y2="2130.18" style="stroke:#000000;stroke-width:4.90"/>
	<text x="1222.15" y="2206.58" style="font-family:'Helvetica';font-size:85.02px;fill:#000000" text-anchor="middle">40</text>
	<line x1="1617.41" y1="2096.14" x2="1617.41" y2="2130.18" style="stroke:#000000;stroke-width:4.90"/>
	<text x="1617.41" y="2206.58" style="font-family:'Helvetica';font-size:85.02px;fill:#000000" text-anchor="middle">60</text>
	<line x1="2012.67" y1="2096.14" x2="2012.67" y2="2130.18" style="stroke:#000000;stroke-width:4.90"/>
	<text x="2012.67" y="2206.58" style="font-family:'Helvetica';font-size:85.02px;fill:#000000" text-anchor="middle">80</text>
	<line x1="2135.68" y1="2096.14" x2="3824.49" y2="2096.14" style="stroke:#000000;stroke-width:4.90"/>
	<line x1="2189.51" y1="2096.14" x2="2189.51" y2="2130.18" style="stroke:#000000;stroke-width:4.90"/>
	<text x="2189.51" y="2206.58" style="font-family:'Helvetica';font-size:85.02px;fill:#000000" text-anchor="middle">0</text>
	<line x1="2584.77" y1="2096.14" x2="2584.77" y2="2130.18" style="stroke:#000000;stroke-width:4.90"/>
	<text x="2584.77" y="2206.58" style="font-family:'Helvetica';font-size:85.02px;fill:#000000" text-anchor="middle">20</text>
	<line x1="2980.15" y1="2096.14" x2="2980.15" y2="2130.18" style="stroke:#000000;stroke-width:4.90"/>
	<text x="2980.15" y="2206.58" style="font-family:'Helvetica';font-size:85.02px;fill:#000000" text-anchor="middle">40</text>
	<line x1="3375.41" y1="2096.14" x2="3375.41" y2="2130.18" style="stroke:#000000;stroke-width:4.90"/>
	<text x="3375.41" y="2206.58" style="font-family:'Helvetica';font-size:85.02px;fill:#000000" text-anchor="middle">60</text>
	<line x1="3770.66" y1="2096.14" x2="3770.66" y2="2130.18" style="stroke:#000000;stroke-width:4.90"/>
	<text x="3770.66" y="2206.58" style="font-family:'Helvetica';font-size:85.02px;fill:#000000" text-anchor="middle">80</text>
	<rect x="377.69" y="309.88" width="1688.82" height="97.39" style="fill:#D9E6EB"/>
	<rect x="380.13" y="312.33" width="1683.92" height="92.50" style="fill:none;stroke:#D9E6EB;stroke-width:4.90"/>
	<text x="1222.15" y="372.10" style="font-family:'Helvetica';font-size:67.94px;fill:#000000" text-anchor="middle">Bath, Swindon and Wiltshire</text>
	<rect x="2135.68" y="309.88" width="1688.82" height="97.39" style="fill:#D9E6EB"/>
	<rect x="2138.13" y="312.33" width="1683.92" height="92.50" style="fill:none;stroke:#D9E6EB;stroke-width:4.90"/>
	<text x="2980.15" y="372.10" style="font-family:'Helvetica';font-size:67.94px;fill:#000000" text-anchor="middle">Devon/Cornwall</text>
	<rect x="377.69" y="1237.54" width="1688.82" height="97.39" style="fill:#D9E6EB"/>
	<rect x="380.13" y="1239.99" width="1683.92" height="92.50" style="fill:none;stroke:#D9E6EB;stroke-width:4.90"/>
	<text x="1222.15" y="1299.76" style="font-family:'Helvetica';font-size:67.94px;fill:#000000" text-anchor="middle">Dorset</text>
	<rect x="2135.68" y="1237.54" width="1688.82" height="97.39" style="fill:#D9E6EB"/>
	<rect x="2138.13" y="1239.99" width="1683.92" height="92.50" style="fill:none;stroke:#D9E6EB;stroke-width:4.90"/>
	<text x="2980.15" y="1299.76" style="font-family:'Helvetica';font-size:67.94px;fill:#000000" text-anchor="middle">Gloucestershire</text>
	<rect x="432.38" y="2418.27" width="3195.10" height="326.34" style="fill:#FFFFFF"/>
	<rect x="435.26" y="2421.15" width="3189.34" height="320.58" style="fill:none;stroke:#000000;stroke-width:5.76"/>
	<line x1="475.57" y1="2511.46" x2="850.04" y2="2511.46" style="stroke:#1A476F;stroke-width:23.04"/>
	<line x1="2166.99" y1="2511.46" x2="2541.45" y2="2511.46" style="stroke:#90353B;stroke-width:23.04"/>
	<line x1="475.57" y1="2651.43" x2="850.04" y2="2651.43" style="stroke:#55752F;stroke-width:23.04"/>
	<line x1="2166.99" y1="2651.43" x2="2541.45" y2="2651.43" style="stroke:#E37E00;stroke-width:23.04"/>
	<text x="909.93" y="2546.49" style="font-family:'Helvetica';font-size:99.99px;fill:#000000">Force of infection</text>
	<text x="2601.35" y="2546.49" style="font-family:'Helvetica';font-size:99.99px;fill:#000000">Smoothed A &amp; E rate</text>
	<text x="909.93" y="2686.46" style="font-family:'Helvetica';font-size:99.99px;fill:#000000">GP suspected case rate</text>
	<text x="2601.35" y="2686.46" style="font-family:'Helvetica';font-size:99.99px;fill:#000000">Crude numbers</text>
	<text x="170.79" y="1279.49" style="font-family:'Helvetica';font-size:99.99px;fill:#000000" transform="rotate(-90 170.79,1279.49)" text-anchor="middle">Expected number of cases</text>
	<text x="2029.99" y="2353.56" style="font-family:'Helvetica';font-size:99.99px;fill:#000000" text-anchor="middle"> </text>
	<text x="2029.99" y="215.98" style="font-family:'Helvetica';font-size:139.96px;fill:#1E2D53" text-anchor="middle">South West</text>
</svg>
