<?xml version="1.0" encoding="UTF-8" standalone="no"?>
<!-- This is a Stata 16.1 generated SVG file (http://www.stata.com) -->

<svg version="1.1" width="5.50in" height="4.00in" viewBox="0 0 3960 2880" xmlns="http://www.w3.org/2000/svg" xmlns:xlink="http://www.w3.org/1999/xlink">
	<desc>Stata Graph - Graph</desc>
	<rect x="0" y="0" width="3960" height="2880" style="fill:#EAF2F3;stroke:none"/>
	<rect x="0.00" y="0.00" width="3959.88" height="2880.00" style="fill:#EAF2F3"/>
	<rect x="2.88" y="2.88" width="3954.12" height="2874.24" style="fill:none;stroke:#EAF2F3;stroke-width:5.76"/>
	<rect x="461.22" y="424.48" width="3363.28" height="1644.69" style="fill:#FFFFFF"/>
	<rect x="464.10" y="427.36" width="3357.52" height="1638.93" style="fill:none;stroke:#FFFFFF;stroke-width:5.76"/>
	<line x1="461.22" y1="2005.80" x2="3824.49" y2="2005.80" style="stroke:#EAF2F3;stroke-width:8.64"/>
	<line x1="461.22" y1="1800.62" x2="3824.49" y2="1800.62" style="stroke:#EAF2F3;stroke-width:8.64"/>
	<line x1="461.22" y1="1595.56" x2="3824.49" y2="1595.56" style="stroke:#EAF2F3;stroke-width:8.64"/>
	<line x1="461.22" y1="1390.37" x2="3824.49" y2="1390.37" style="stroke:#EAF2F3;stroke-width:8.64"/>
	<line x1="461.22" y1="1185.31" x2="3824.49" y2="1185.31" style="stroke:#EAF2F3;stroke-width:8.64"/>
	<line x1="461.22" y1="980.13" x2="3824.49" y2="980.13" style="stroke:#EAF2F3;stroke-width:8.64"/>
	<line x1="461.22" y1="774.95" x2="3824.49" y2="774.95" style="stroke:#EAF2F3;stroke-width:8.64"/>
	<path d=" M564.92 1882.05 L605.38 1854.95 L645.85 1841.71 L686.32 1821.41 L726.78 1797.15 L767.25 1774.63 L807.72 1733.05 L848.18 1702.98 L888.65 1664.24 L928.99 1625.01 L969.46 1582.19 L1009.92 1535.91 L1050.39 1489.13 L1090.86 1447.55 L1131.32 1404.36 L1171.79 1353.74 L1212.26 1275.41 L1252.72 1274.66 L1293.19 1227.64 L1333.65 1179.25 L1374.12 1150.17 L1414.59 1132.22 L1455.05 1088.66 L1495.52 1015.03 L1535.86 1052.28 L1576.33 1013.92 L1616.79 970.48 L1657.26 938.18 L1697.73 941.15 L1738.19 965.16 L1778.66 942.76 L1819.13 972.58 L1859.59 1035.32 L1900.06 1090.40 L1940.52 1144.23 L1980.99 1198.68 L2021.46 1258.82 L2061.92 1335.18 L2102.39 1371.32 L2142.73 1425.15 L2183.20 1448.42 L2223.66 1513.63 L2264.13 1510.17 L2304.60 1558.56 L2345.06 1597.04 L2385.53 1563.38 L2425.99 1584.05 L2466.46 1607.93 L2506.93 1631.94 L2547.39 1638.62 L2587.86 1641.35 L2628.33 1660.90 L2668.79 1674.02 L2709.14 1684.79 L2749.60 1694.56 L2790.07 1704.34 L2830.53 1714.61 L2871.00 1716.22 L2911.47 1734.53 L2951.93 1765.97 L2992.40 1758.29 L3032.86 1772.28 L3073.33 1771.04 L3113.80 1767.95 L3154.26 1785.15 L3194.73 1788.24 L3235.20 1800.00 L3275.66 1802.10 L3316.01 1803.59 L3356.47 1819.43 L3396.94 1813.24 L3437.40 1832.79 L3477.87 1832.79" stroke-linejoin="round" style="fill:none;stroke:#1A476F;stroke-width:23.04"/>
	<path d=" M564.92 1825.99 L605.38 1825.99 L645.85 1825.99 L686.32 1825.99 L726.78 1825.99 L767.25 1825.99 L807.72 1825.99 L848.18 1825.99 L888.65 1825.99 L928.99 1825.99 L969.46 1825.99 L1009.92 1775.99 L1050.39 1775.99 L1090.86 1753.96 L1131.32 1753.59 L1171.79 1735.77 L1212.26 1722.78 L1252.72 1704.83 L1293.19 1698.15 L1333.65 1686.02 L1374.12 1679.83 L1414.59 1664.12 L1455.05 1656.57 L1495.52 1646.55 L1535.86 1638.87 L1576.33 1631.57 L1616.79 1623.40 L1657.26 1616.10 L1697.73 1610.29 L1738.19 1601.99 L1778.66 1598.28 L1819.13 1598.40 L1859.59 1599.15 L1900.06 1602.37 L1940.52 1608.31 L1980.99 1614.12 L2021.46 1625.38 L2061.92 1638.25 L2102.39 1644.32 L2142.73 1654.59 L2183.20 1665.48 L2223.66 1673.40 L2264.13 1685.03 L2304.60 1694.19 L2345.06 1704.09 L2385.53 1718.32 L2425.99 1731.19 L2466.46 1739.11 L2506.93 1747.03 L2547.39 1753.96 L2587.86 1761.14 L2628.33 1762.13 L2668.79 1766.09 L2709.14 1766.83 L2749.60 1768.57 L2790.07 1771.41 L2830.53 1771.17 L2871.00 1769.06 L2911.47 1767.33 L2951.93 1764.11 L2992.40 1764.73 L3032.86 1760.52 L3073.33 1763.62 L3113.80 1770.18 L3154.26 1779.58 L3194.73 1794.43 L3235.20 1795.79 L3275.66 1797.52 L3316.01 1808.17 L3356.47 1789.23 L3396.94 1784.04 L3437.40 1778.34 L3477.87 1772.53" stroke-linejoin="round" style="fill:none;stroke:#90353B;stroke-width:23.04"/>
	<path d=" M564.92 1894.55 L605.38 1876.73 L645.85 1870.91 L686.32 1865.71 L726.78 1857.30 L767.25 1845.79 L807.72 1834.16 L848.18 1822.77 L888.65 1821.41 L928.99 1794.55 L969.46 1766.34 L1009.92 1751.74 L1050.39 1736.89 L1090.86 1713.99 L1131.32 1715.48 L1171.79 1711.89 L1212.26 1669.81 L1252.72 1640.98 L1293.19 1615.36 L1333.65 1593.45 L1374.12 1572.91 L1414.59 1569.45 L1455.05 1565.12 L1495.52 1549.03 L1535.86 1539.25 L1576.33 1530.71 L1616.79 1518.21 L1657.26 1507.20 L1697.73 1499.28 L1738.19 1495.07 L1778.66 1492.60 L1819.13 1495.69 L1859.59 1499.65 L1900.06 1508.81 L1940.52 1521.18 L1980.99 1534.42 L2021.46 1546.80 L2061.92 1558.68 L2102.39 1570.31 L2142.73 1583.31 L2183.20 1595.19 L2223.66 1609.67 L2264.13 1618.33 L2304.60 1630.95 L2345.06 1663.38 L2385.53 1692.71 L2425.99 1730.82 L2466.46 1773.02 L2506.93 1812.87 L2547.39 1840.96 L2587.86 1860.39 L2628.33 1870.29 L2668.79 1883.29 L2709.14 1892.32 L2749.60 1900.61 L2790.07 1906.18 L2830.53 1907.79 L2871.00 1906.92 L2911.47 1909.03 L2951.93 1907.79 L2992.40 1906.06 L3032.86 1903.83 L3073.33 1900.24 L3113.80 1896.78 L3154.26 1890.09 L3194.73 1884.90 L3235.20 1883.29 L3275.66 1880.44 L3316.01 1879.82 L3356.47 1884.52 L3396.94 1883.66 L3437.40 1882.92 L3477.87 1886.50" stroke-linejoin="round" style="fill:none;stroke:#55752F;stroke-width:23.04"/>
	<path d=" M564.92 1780.20 L605.38 1759.66 L645.85 1739.11 L686.32 1698.15 L726.78 1636.64 L767.25 1554.60 L807.72 1369.96 L848.18 1349.41 L888.65 1205.86 L928.99 1144.35 L969.46 1082.72 L1009.92 1000.67 L1050.39 836.58 L1090.86 795.61 L1131.32 733.98 L1171.79 713.56 L1212.26 651.94 L1252.72 610.97 L1293.19 610.97 L1333.65 549.47 L1374.12 528.92 L1414.59 528.92 L1455.05 487.84 L1495.52 508.38 L1535.86 508.38 L1576.33 528.92 L1616.79 508.38 L1657.26 569.89 L1697.73 610.97 L1738.19 590.43 L1778.66 610.97 L1819.13 651.94 L1859.59 713.56 L1900.06 775.07 L1940.52 959.71 L1980.99 980.13 L2021.46 1103.27 L2061.92 1144.35 L2102.39 1205.86 L2142.73 1287.91 L2183.20 1410.92 L2223.66 1452.00 L2264.13 1513.51 L2304.60 1534.05 L2345.06 1595.56 L2385.53 1616.10 L2425.99 1616.10 L2466.46 1677.61 L2506.93 1698.15 L2547.39 1698.15 L2587.86 1739.11 L2628.33 1759.66 L2668.79 1759.66 L2709.14 1780.20 L2749.60 1800.74 L2790.07 1800.74 L2830.53 1821.16 L2871.00 1862.25 L2911.47 1862.25 L2951.93 1862.25 L2992.40 1821.16 L3032.86 1841.71 L3073.33 1841.71 L3113.80 1841.71 L3154.26 1862.25 L3194.73 1862.25 L3235.20 1862.25 L3275.66 1862.25 L3316.01 1903.21 L3356.47 1903.21 L3396.94 1903.21 L3437.40 1903.21 L3477.87 1903.21" stroke-linejoin="round" style="fill:none;stroke:#E37E00;stroke-width:23.04"/>
	<line x1="461.22" y1="2069.16" x2="461.22" y2="424.48" style="stroke:#000000;stroke-width:5.76"/>
	<line x1="461.22" y1="2005.80" x2="421.12" y2="2005.80" style="stroke:#000000;stroke-width:5.76"/>
	<text x="401.20" y="2040.83" style="font-family:'Helvetica';font-size:99.99px;fill:#000000" text-anchor="end">0</text>
	<line x1="461.22" y1="1800.62" x2="421.12" y2="1800.62" style="stroke:#000000;stroke-width:5.76"/>
	<text x="401.20" y="1835.65" style="font-family:'Helvetica';font-size:99.99px;fill:#000000" text-anchor="end">10</text>
	<line x1="461.22" y1="1595.56" x2="421.12" y2="1595.56" style="stroke:#000000;stroke-width:5.76"/>
	<text x="401.20" y="1630.59" style="font-family:'Helvetica';font-size:99.99px;fill:#000000" text-anchor="end">20</text>
	<line x1="461.22" y1="1390.37" x2="421.12" y2="1390.37" style="stroke:#000000;stroke-width:5.76"/>
	<text x="401.20" y="1425.40" style="font-family:'Helvetica';font-size:99.99px;fill:#000000" text-anchor="end">30</text>
	<line x1="461.22" y1="1185.31" x2="421.12" y2="1185.31" style="stroke:#000000;stroke-width:5.76"/>
	<text x="401.20" y="1220.34" style="font-family:'Helvetica';font-size:99.99px;fill:#000000" text-anchor="end">40</text>
	<line x1="461.22" y1="980.13" x2="421.12" y2="980.13" style="stroke:#000000;stroke-width:5.76"/>
	<text x="401.20" y="1015.16" style="font-family:'Helvetica';font-size:99.99px;fill:#000000" text-anchor="end">50</text>
	<line x1="461.22" y1="774.95" x2="421.12" y2="774.95" style="stroke:#000000;stroke-width:5.76"/>
	<text x="401.20" y="809.98" style="font-family:'Helvetica';font-size:99.99px;fill:#000000" text-anchor="end">60</text>
	<line x1="461.22" y1="2069.16" x2="3824.49" y2="2069.16" style="stroke:#000000;stroke-width:5.76"/>
	<line x1="524.58" y1="2069.16" x2="524.58" y2="2109.14" style="stroke:#000000;stroke-width:5.76"/>
	<text x="524.58" y="2199.12" style="font-family:'Helvetica';font-size:99.99px;fill:#000000" text-anchor="middle">0</text>
	<line x1="1333.65" y1="2069.16" x2="1333.65" y2="2109.14" style="stroke:#000000;stroke-width:5.76"/>
	<text x="1333.65" y="2199.12" style="font-family:'Helvetica';font-size:99.99px;fill:#000000" text-anchor="middle">20</text>
	<line x1="2142.86" y1="2069.16" x2="2142.86" y2="2109.14" style="stroke:#000000;stroke-width:5.76"/>
	<text x="2142.86" y="2199.12" style="font-family:'Helvetica';font-size:99.99px;fill:#000000" text-anchor="middle">40</text>
	<line x1="2952.06" y1="2069.16" x2="2952.06" y2="2109.14" style="stroke:#000000;stroke-width:5.76"/>
	<text x="2952.06" y="2199.12" style="font-family:'Helvetica';font-size:99.99px;fill:#000000" text-anchor="middle">60</text>
	<line x1="3761.13" y1="2069.16" x2="3761.13" y2="2109.14" style="stroke:#000000;stroke-width:5.76"/>
	<text x="3761.13" y="2199.12" style="font-family:'Helvetica';font-size:99.99px;fill:#000000" text-anchor="middle">80</text>
	<rect x="461.22" y="309.88" width="3363.28" height="114.60" style="fill:#D9E6EB"/>
	<rect x="464.10" y="312.76" width="3357.52" height="108.84" style="fill:none;stroke:#D9E6EB;stroke-width:5.76"/>
	<text x="2142.86" y="383.10" style="font-family:'Helvetica';font-size:79.94px;fill:#000000" text-anchor="middle">London</text>
	<rect x="432.38" y="2418.27" width="3195.10" height="326.34" style="fill:#FFFFFF"/>
	<rect x="435.26" y="2421.15" width="3189.34" height="320.58" style="fill:none;stroke:#000000;stroke-width:5.76"/>
	<line x1="475.57" y1="2511.46" x2="850.04" y2="2511.46" style="stroke:#1A476F;stroke-width:23.04"/>
	<line x1="2166.99" y1="2511.46" x2="2541.45" y2="2511.46" style="stroke:#90353B;stroke-width:23.04"/>
	<line x1="475.57" y1="2651.43" x2="850.04" y2="2651.43" style="stroke:#55752F;stroke-width:23.04"/>
	<line x1="2166.99" y1="2651.43" x2="2541.45" y2="2651.43" style="stroke:#E37E00;stroke-width:23.04"/>
	<text x="909.93" y="2546.49" style="font-family:'Helvetica';font-size:99.99px;fill:#000000">Force of infection</text>
	<text x="2601.35" y="2546.49" style="font-family:'Helvetica';font-size:99.99px;fill:#000000">Smoothed A &amp; E rate</text>
	<text x="909.93" y="2686.46" style="font-family:'Helvetica';font-size:99.99px;fill:#000000">GP suspected case rate</text>
	<text x="2601.35" y="2686.46" style="font-family:'Helvetica';font-size:99.99px;fill:#000000">Crude numbers</text>
	<text x="170.79" y="1279.49" style="font-family:'Helvetica';font-size:99.99px;fill:#000000" transform="rotate(-90 170.79,1279.49)" text-anchor="middle">Expected number of cases</text>
	<text x="2029.99" y="2353.56" style="font-family:'Helvetica';font-size:99.99px;fill:#000000" text-anchor="middle"> </text>
	<text x="2029.99" y="215.98" style="font-family:'Helvetica';font-size:139.96px;fill:#1E2D53" text-anchor="middle">London</text>
</svg>
