<?xml version="1.0" encoding="UTF-8" standalone="no"?>
<!-- This is a Stata 16.1 generated SVG file (http://www.stata.com) -->

<svg version="1.1" width="5.50in" height="4.00in" viewBox="0 0 3960 2880" xmlns="http://www.w3.org/2000/svg" xmlns:xlink="http://www.w3.org/1999/xlink">
	<desc>Stata Graph - Graph</desc>
	<rect x="0" y="0" width="3960" height="2880" style="fill:#EAF2F3;stroke:none"/>
	<rect x="0.00" y="0.00" width="3959.88" height="2880.00" style="fill:#EAF2F3"/>
	<rect x="2.88" y="2.88" width="3954.12" height="2874.24" style="fill:none;stroke:#EAF2F3;stroke-width:5.76"/>
	<rect x="369.39" y="401.58" width="1105.58" height="771.36" style="fill:#FFFFFF"/>
	<rect x="371.70" y="403.89" width="1100.97" height="766.75" style="fill:none;stroke:#FFFFFF;stroke-width:4.61"/>
	<line x1="369.39" y1="1122.32" x2="1474.98" y2="1122.32" style="stroke:#EAF2F3;stroke-width:6.91"/>
	<line x1="369.39" y1="954.76" x2="1474.98" y2="954.76" style="stroke:#EAF2F3;stroke-width:6.91"/>
	<line x1="369.39" y1="787.20" x2="1474.98" y2="787.20" style="stroke:#EAF2F3;stroke-width:6.91"/>
	<line x1="369.39" y1="619.76" x2="1474.98" y2="619.76" style="stroke:#EAF2F3;stroke-width:6.91"/>
	<rect x="1544.15" y="401.58" width="1105.58" height="771.36" style="fill:#FFFFFF"/>
	<rect x="1546.46" y="403.89" width="1100.97" height="766.75" style="fill:none;stroke:#FFFFFF;stroke-width:4.61"/>
	<line x1="1544.15" y1="1122.32" x2="2649.74" y2="1122.32" style="stroke:#EAF2F3;stroke-width:6.91"/>
	<line x1="1544.15" y1="954.76" x2="2649.74" y2="954.76" style="stroke:#EAF2F3;stroke-width:6.91"/>
	<line x1="1544.15" y1="787.20" x2="2649.74" y2="787.20" style="stroke:#EAF2F3;stroke-width:6.91"/>
	<line x1="1544.15" y1="619.76" x2="2649.74" y2="619.76" style="stroke:#EAF2F3;stroke-width:6.91"/>
	<rect x="2718.91" y="401.58" width="1105.58" height="771.36" style="fill:#FFFFFF"/>
	<rect x="2721.22" y="403.89" width="1100.97" height="766.75" style="fill:none;stroke:#FFFFFF;stroke-width:4.61"/>
	<line x1="2718.91" y1="1122.32" x2="3824.49" y2="1122.32" style="stroke:#EAF2F3;stroke-width:6.91"/>
	<line x1="2718.91" y1="954.76" x2="3824.49" y2="954.76" style="stroke:#EAF2F3;stroke-width:6.91"/>
	<line x1="2718.91" y1="787.20" x2="3824.49" y2="787.20" style="stroke:#EAF2F3;stroke-width:6.91"/>
	<line x1="2718.91" y1="619.76" x2="3824.49" y2="619.76" style="stroke:#EAF2F3;stroke-width:6.91"/>
	<rect x="369.39" y="1333.70" width="1105.58" height="771.48" style="fill:#FFFFFF"/>
	<rect x="371.70" y="1336.00" width="1100.97" height="766.87" style="fill:none;stroke:#FFFFFF;stroke-width:4.61"/>
	<line x1="369.39" y1="2054.44" x2="1474.98" y2="2054.44" style="stroke:#EAF2F3;stroke-width:6.91"/>
	<line x1="369.39" y1="1886.88" x2="1474.98" y2="1886.88" style="stroke:#EAF2F3;stroke-width:6.91"/>
	<line x1="369.39" y1="1719.44" x2="1474.98" y2="1719.44" style="stroke:#EAF2F3;stroke-width:6.91"/>
	<line x1="369.39" y1="1551.87" x2="1474.98" y2="1551.87" style="stroke:#EAF2F3;stroke-width:6.91"/>
	<rect x="1544.15" y="1333.70" width="1105.58" height="771.48" style="fill:#FFFFFF"/>
	<rect x="1546.46" y="1336.00" width="1100.97" height="766.87" style="fill:none;stroke:#FFFFFF;stroke-width:4.61"/>
	<line x1="1544.15" y1="2054.44" x2="2649.74" y2="2054.44" style="stroke:#EAF2F3;stroke-width:6.91"/>
	<line x1="1544.15" y1="1886.88" x2="2649.74" y2="1886.88" style="stroke:#EAF2F3;stroke-width:6.91"/>
	<line x1="1544.15" y1="1719.44" x2="2649.74" y2="1719.44" style="stroke:#EAF2F3;stroke-width:6.91"/>
	<line x1="1544.15" y1="1551.87" x2="2649.74" y2="1551.87" style="stroke:#EAF2F3;stroke-width:6.91"/>
	<rect x="2718.91" y="1333.70" width="1105.58" height="771.48" style="fill:#FFFFFF"/>
	<rect x="2721.22" y="1336.00" width="1100.97" height="766.87" style="fill:none;stroke:#FFFFFF;stroke-width:4.61"/>
	<line x1="2718.91" y1="2054.44" x2="3824.49" y2="2054.44" style="stroke:#EAF2F3;stroke-width:6.91"/>
	<line x1="2718.91" y1="1886.88" x2="3824.49" y2="1886.88" style="stroke:#EAF2F3;stroke-width:6.91"/>
	<line x1="2718.91" y1="1719.44" x2="3824.49" y2="1719.44" style="stroke:#EAF2F3;stroke-width:6.91"/>
	<line x1="2718.91" y1="1551.87" x2="3824.49" y2="1551.87" style="stroke:#EAF2F3;stroke-width:6.91"/>
	<path d=" M432.51 1105.49 L445.13 1101.41 L457.63 1098.44 L470.13 1094.11 L482.75 1089.03 L495.25 1083.96 L507.87 1075.42 L520.37 1067.38 L532.99 1057.48 L545.49 1048.07 L558.11 1035.08 L570.61 1020.60 L583.11 1006.00 L595.73 989.04 L608.23 972.46 L620.85 953.03 L633.35 926.55 L645.98 913.67 L658.47 898.21 L671.10 876.55 L683.60 858.73 L696.09 844.37 L708.72 833.23 L721.22 818.26 L733.84 842.15 L746.34 825.07 L758.96 804.77 L771.46 787.94 L783.96 785.71 L796.58 781.38 L809.08 756.63 L821.70 744.50 L834.20 760.22 L846.82 764.43 L859.32 773.96 L871.94 779.03 L884.44 795.98 L896.94 825.31 L909.56 829.89 L922.06 846.48 L934.68 853.16 L947.18 905.14 L959.80 875.93 L972.30 905.88 L984.93 934.59 L997.42 877.54 L1009.92 886.33 L1022.55 897.22 L1035.05 908.85 L1047.67 909.96 L1060.17 898.33 L1072.79 913.55 L1085.29 914.42 L1097.91 917.76 L1110.41 929.52 L1122.91 942.76 L1135.53 946.84 L1148.03 945.11 L1160.65 960.83 L1173.15 981.37 L1185.77 976.79 L1198.27 983.72 L1210.89 984.71 L1223.39 981.74 L1235.89 990.65 L1248.51 1001.29 L1261.01 1008.59 L1273.63 1010.70 L1286.13 1011.69 L1298.76 1034.95 L1311.26 1021.59 L1323.75 1034.21 L1336.38 1034.21" stroke-linejoin="round" style="fill:none;stroke:#1A476F;stroke-width:18.43"/>
	<path d=" M432.51 1010.82 L445.13 1010.82 L457.63 1010.82 L470.13 1010.82 L482.75 1010.82 L495.25 1010.82 L507.87 1010.82 L520.37 1010.82 L532.99 1010.82 L545.49 1010.82 L558.11 1010.82 L570.61 1010.82 L583.11 1010.82 L595.73 1010.82 L608.23 1010.82 L620.85 1010.82 L633.35 1010.82 L645.98 975.68 L658.47 975.55 L671.10 953.03 L683.60 943.50 L696.09 930.01 L708.72 919.61 L721.22 908.11 L733.84 897.96 L746.34 887.93 L758.96 883.11 L771.46 873.33 L783.96 867.64 L796.58 859.35 L809.08 848.95 L821.70 842.02 L834.20 833.85 L846.82 824.20 L859.32 818.51 L871.94 817.64 L884.44 817.27 L896.94 823.58 L909.56 824.70 L922.06 826.92 L934.68 835.71 L947.18 843.63 L959.80 847.22 L972.30 851.92 L984.93 858.85 L997.42 873.45 L1009.92 886.33 L1022.55 894.86 L1035.05 905.63 L1047.67 918.62 L1060.17 929.02 L1072.79 933.97 L1085.29 937.68 L1097.91 939.66 L1110.41 942.88 L1122.91 944.98 L1135.53 945.36 L1148.03 944.86 L1160.65 942.63 L1173.15 939.42 L1185.77 935.83 L1198.27 930.88 L1210.89 925.18 L1223.39 920.85 L1235.89 917.88 L1248.51 919.12 L1261.01 921.72 L1273.63 926.55 L1286.13 929.27 L1298.76 939.54 L1311.26 941.77 L1323.75 948.70 L1336.38 949.07" stroke-linejoin="round" style="fill:none;stroke:#90353B;stroke-width:18.43"/>
	<path d=" M432.51 1030.13 L445.13 1025.67 L457.63 1024.56 L470.13 1023.20 L482.75 1021.59 L495.25 1021.46 L507.87 1010.82 L520.37 1003.64 L532.99 1005.01 L545.49 988.17 L558.11 992.01 L570.61 989.91 L583.11 987.56 L595.73 984.59 L608.23 987.56 L620.85 987.43 L633.35 958.23 L645.98 936.94 L658.47 921.60 L671.10 907.12 L683.60 884.47 L696.09 876.92 L708.72 869.99 L721.22 845.24 L733.84 833.36 L746.34 825.93 L758.96 819.25 L771.46 814.80 L783.96 813.43 L796.58 812.20 L809.08 815.29 L821.70 817.89 L834.20 807.62 L846.82 806.75 L859.32 814.18 L871.94 825.69 L884.44 833.73 L896.94 834.72 L909.56 836.20 L922.06 845.86 L934.68 854.77 L947.18 864.05 L959.80 862.56 L972.30 865.41 L984.93 888.55 L997.42 901.67 L1009.92 923.08 L1022.55 945.85 L1035.05 956.99 L1047.67 969.24 L1060.17 977.90 L1072.79 970.85 L1085.29 974.69 L1097.91 979.39 L1110.41 980.38 L1122.91 980.50 L1135.53 977.66 L1148.03 974.56 L1160.65 970.23 L1173.15 969.24 L1185.77 965.90 L1198.27 958.97 L1210.89 956.12 L1223.39 954.64 L1235.89 952.53 L1248.51 954.64 L1261.01 958.60 L1273.63 960.33 L1286.13 968.62 L1298.76 980.87 L1311.26 985.70 L1323.75 989.78 L1336.38 996.22" stroke-linejoin="round" style="fill:none;stroke:#55752F;stroke-width:18.43"/>
	<path d=" M432.51 1122.32 L445.13 1122.32 L457.63 1122.32 L470.13 1122.32 L482.75 1122.32 L495.25 1122.32 L507.87 1122.32 L520.37 1122.32 L532.99 1122.32 L545.49 1122.32 L558.11 1122.32 L570.61 1122.32 L583.11 1122.32 L595.73 1122.32 L608.23 1122.32 L620.85 1122.32 L633.35 1122.32 L645.98 1122.32 L658.47 1038.54 L671.10 1038.54 L683.60 1038.54 L696.09 1038.54 L708.72 1038.54 L721.22 1038.54 L733.84 1038.54 L746.34 1038.54 L758.96 1038.54 L771.46 1038.54 L783.96 954.88 L796.58 954.88 L809.08 954.88 L821.70 954.88 L834.20 954.88 L846.82 954.88 L859.32 954.88 L871.94 954.88 L884.44 954.88 L896.94 954.88 L909.56 954.88 L922.06 954.88 L934.68 954.88 L947.18 954.88 L959.80 954.88 L972.30 954.88 L984.93 954.88 L997.42 954.88 L1009.92 1038.54 L1022.55 1038.54 L1035.05 1038.54 L1047.67 1038.54 L1060.17 1038.54 L1072.79 1038.54 L1085.29 1038.54 L1097.91 1038.54 L1110.41 1038.54 L1122.91 1038.54 L1135.53 1122.32 L1148.03 1122.32 L1160.65 1122.32 L1173.15 1122.32 L1185.77 1122.32 L1198.27 1038.54 L1210.89 1038.54 L1223.39 1038.54 L1235.89 1038.54 L1248.51 1038.54 L1261.01 1038.54 L1273.63 1038.54 L1286.13 1038.54 L1298.76 1038.54 L1311.26 1038.54 L1323.75 1038.54 L1336.38 1038.54" stroke-linejoin="round" style="fill:none;stroke:#E37E00;stroke-width:18.43"/>
	<path d=" M1607.27 1108.22 L1619.89 1104.75 L1632.39 1102.28 L1644.88 1098.69 L1657.51 1094.36 L1670.01 1090.15 L1682.63 1083.09 L1695.13 1076.16 L1707.75 1067.87 L1720.25 1060.08 L1732.87 1049.19 L1745.37 1037.06 L1757.87 1024.81 L1770.49 1010.57 L1782.99 996.59 L1795.61 980.25 L1808.11 958.10 L1820.73 947.34 L1833.23 934.34 L1845.86 916.27 L1858.35 901.30 L1870.85 889.30 L1883.47 879.89 L1895.97 867.27 L1908.60 887.32 L1921.10 873.08 L1933.72 856.01 L1946.22 841.90 L1958.84 840.04 L1971.34 836.33 L1983.84 815.66 L1996.46 805.51 L2008.96 818.63 L2021.58 822.22 L2034.08 830.14 L2046.70 834.47 L2059.20 848.58 L2071.82 873.21 L2084.32 877.04 L2096.82 891.03 L2109.44 896.60 L2121.94 940.16 L2134.56 915.65 L2147.06 940.78 L2159.68 964.91 L2172.18 917.02 L2184.68 924.44 L2197.30 933.48 L2209.80 943.25 L2222.43 944.24 L2234.93 934.47 L2247.55 947.21 L2260.05 947.95 L2272.67 950.80 L2285.17 960.70 L2297.67 971.84 L2310.29 975.18 L2322.79 973.82 L2335.41 986.94 L2347.91 1004.14 L2360.53 1000.18 L2373.03 1006.12 L2385.65 1006.99 L2398.15 1004.39 L2410.65 1011.94 L2423.27 1020.85 L2435.77 1026.91 L2448.39 1028.64 L2460.89 1029.51 L2473.51 1049.06 L2486.01 1037.92 L2498.64 1048.44 L2511.14 1048.44" stroke-linejoin="round" style="fill:none;stroke:#1A476F;stroke-width:18.43"/>
	<path d=" M1607.27 1028.77 L1619.89 1028.77 L1632.39 1028.77 L1644.88 1028.77 L1657.51 1028.77 L1670.01 1028.77 L1682.63 1028.77 L1695.13 1028.77 L1707.75 1028.77 L1720.25 1028.77 L1732.87 1028.77 L1745.37 1028.77 L1757.87 1028.77 L1770.49 1028.77 L1782.99 1028.77 L1795.61 1028.77 L1808.11 998.07 L1820.73 976.29 L1833.23 967.38 L1845.86 958.47 L1858.35 942.76 L1870.85 938.55 L1883.47 928.65 L1895.97 918.62 L1908.60 913.43 L1921.10 904.39 L1933.72 894.74 L1946.22 892.14 L1958.84 873.33 L1971.34 858.60 L1983.84 841.77 L1996.46 823.71 L2008.96 802.30 L2021.58 782.74 L2034.08 762.20 L2046.70 758.49 L2059.20 759.60 L2071.82 764.06 L2084.32 776.93 L2096.82 795.86 L2109.44 820.74 L2121.94 843.75 L2134.56 861.95 L2147.06 879.39 L2159.68 899.32 L2172.18 917.88 L2184.68 935.08 L2197.30 949.44 L2209.80 964.79 L2222.43 977.28 L2234.93 986.07 L2247.55 994.73 L2260.05 998.20 L2272.67 1001.54 L2285.17 1001.29 L2297.67 1000.18 L2310.29 998.69 L2322.79 997.21 L2335.41 995.85 L2347.91 994.98 L2360.53 992.88 L2373.03 995.85 L2385.65 996.96 L2398.15 996.84 L2410.65 997.46 L2423.27 994.98 L2435.77 995.10 L2448.39 996.09 L2460.89 992.01 L2473.51 989.41 L2486.01 984.71 L2498.64 983.60 L2511.14 983.35" stroke-linejoin="round" style="fill:none;stroke:#90353B;stroke-width:18.43"/>
	<path d=" M1607.27 1036.93 L1619.89 1030.75 L1632.39 1022.33 L1644.88 1017.01 L1657.51 1014.78 L1670.01 1011.32 L1682.63 1010.82 L1695.13 1006.12 L1707.75 1000.18 L1720.25 992.75 L1732.87 981.62 L1745.37 974.07 L1757.87 967.51 L1770.49 963.55 L1782.99 967.63 L1795.61 970.35 L1808.11 953.65 L1820.73 945.23 L1833.23 933.23 L1845.86 925.18 L1858.35 912.93 L1870.85 910.70 L1883.47 906.74 L1895.97 891.15 L1908.60 882.98 L1921.10 875.81 L1933.72 870.11 L1946.22 866.90 L1958.84 862.32 L1971.34 859.35 L1983.84 862.19 L1996.46 862.69 L2008.96 843.38 L2021.58 850.68 L2034.08 865.04 L2046.70 883.36 L2059.20 897.71 L2071.82 903.65 L2084.32 913.92 L2096.82 932.98 L2109.44 943.25 L2121.94 948.33 L2134.56 945.11 L2147.06 940.90 L2159.68 942.63 L2172.18 935.70 L2184.68 935.46 L2197.30 943.50 L2209.80 954.76 L2222.43 970.97 L2234.93 984.34 L2247.55 983.47 L2260.05 988.42 L2272.67 983.10 L2285.17 978.03 L2297.67 974.44 L2310.29 970.85 L2322.79 965.28 L2335.41 959.96 L2347.91 962.68 L2360.53 967.88 L2373.03 970.35 L2385.65 972.46 L2398.15 973.20 L2410.65 973.57 L2423.27 977.28 L2435.77 980.13 L2448.39 983.10 L2460.89 986.44 L2473.51 995.97 L2486.01 999.06 L2498.64 1000.67 L2511.14 1005.13" stroke-linejoin="round" style="fill:none;stroke:#55752F;stroke-width:18.43"/>
	<path d=" M1607.27 1122.32 L1619.89 1122.32 L1632.39 1122.32 L1644.88 1122.32 L1657.51 1122.32 L1670.01 1122.32 L1682.63 1122.32 L1695.13 1122.32 L1707.75 1122.32 L1720.25 1122.32 L1732.87 1122.32 L1745.37 1122.32 L1757.87 1122.32 L1770.49 1122.32 L1782.99 1122.32 L1795.61 1122.32 L1808.11 1122.32 L1820.73 1122.32 L1833.23 1122.32 L1845.86 1122.32 L1858.35 1122.32 L1870.85 1122.32 L1883.47 1122.32 L1895.97 1122.32 L1908.60 1122.32 L1921.10 1122.32 L1933.72 1122.32 L1946.22 1122.32 L1958.84 1122.32 L1971.34 1122.32 L1983.84 1122.32 L1996.46 1122.32 L2008.96 1122.32 L2021.58 1122.32 L2034.08 1122.32 L2046.70 1122.32 L2059.20 1122.32 L2071.82 1122.32 L2084.32 1038.54 L2096.82 1038.54 L2109.44 1038.54 L2121.94 1038.54 L2134.56 1038.54 L2147.06 1038.54 L2159.68 1038.54 L2172.18 1038.54 L2184.68 1038.54 L2197.30 1038.54 L2209.80 1038.54 L2222.43 1038.54 L2234.93 1038.54 L2247.55 1038.54 L2260.05 1038.54 L2272.67 1038.54 L2285.17 1038.54 L2297.67 1038.54 L2310.29 1038.54 L2322.79 1038.54 L2335.41 1038.54 L2347.91 1038.54 L2360.53 1038.54 L2373.03 1038.54 L2385.65 1038.54 L2398.15 1038.54 L2410.65 1038.54 L2423.27 1038.54 L2435.77 1122.32 L2448.39 1122.32 L2460.89 1038.54 L2473.51 1038.54 L2486.01 1038.54 L2498.64 1038.54 L2511.14 1038.54" stroke-linejoin="round" style="fill:none;stroke:#E37E00;stroke-width:18.43"/>
	<path d=" M2782.02 1101.04 L2794.65 1095.84 L2807.14 1092.00 L2819.77 1086.56 L2832.27 1080.12 L2844.76 1073.69 L2857.39 1062.92 L2869.89 1052.65 L2882.51 1040.03 L2895.01 1028.27 L2907.63 1011.69 L2920.13 993.37 L2932.75 974.81 L2945.25 953.40 L2957.75 932.36 L2970.37 907.61 L2982.87 874.07 L2995.49 857.86 L3007.99 838.18 L3020.61 810.71 L3033.11 788.19 L3045.74 770.00 L3058.23 755.89 L3070.73 736.83 L3083.36 767.15 L3095.85 745.49 L3108.48 719.88 L3120.97 698.34 L3133.60 695.62 L3146.10 690.05 L3158.59 658.74 L3171.22 643.40 L3183.72 663.20 L3196.34 668.64 L3208.84 680.65 L3221.46 687.21 L3233.96 708.61 L3246.58 745.74 L3259.08 751.56 L3271.58 772.72 L3284.20 781.01 L3296.70 847.10 L3309.32 809.97 L3321.82 847.84 L3334.44 884.35 L3346.94 812.07 L3359.57 823.21 L3372.06 836.95 L3384.56 851.67 L3397.18 853.04 L3409.68 838.43 L3422.31 857.61 L3434.80 858.85 L3447.43 862.94 L3459.93 877.91 L3472.55 894.74 L3485.05 899.81 L3497.55 897.71 L3510.17 917.63 L3522.67 943.62 L3535.29 937.81 L3547.79 946.72 L3560.41 947.83 L3572.91 944.12 L3585.53 955.50 L3598.03 968.87 L3610.53 978.03 L3623.15 980.75 L3635.65 981.99 L3648.27 1011.56 L3660.77 994.61 L3673.39 1010.57 L3685.89 1010.70" stroke-linejoin="round" style="fill:none;stroke:#1A476F;stroke-width:18.43"/>
	<path d=" M2782.02 980.87 L2794.65 980.87 L2807.14 980.87 L2819.77 980.87 L2832.27 980.87 L2844.76 980.87 L2857.39 980.87 L2869.89 980.87 L2882.51 980.87 L2895.01 980.87 L2907.63 980.87 L2920.13 980.87 L2932.75 980.87 L2945.25 980.87 L2957.75 980.87 L2970.37 980.87 L2982.87 944.12 L2995.49 923.45 L3007.99 906.87 L3020.61 895.11 L3033.11 879.89 L3045.74 863.80 L3058.23 842.52 L3070.73 828.04 L3083.36 811.95 L3095.85 788.44 L3108.48 761.83 L3120.97 735.22 L3133.60 703.79 L3146.10 677.92 L3158.59 645.87 L3171.22 613.32 L3183.72 578.30 L3196.34 549.47 L3208.84 533.01 L3221.46 520.01 L3233.96 517.41 L3246.58 520.88 L3259.08 529.67 L3271.58 559.37 L3284.20 600.08 L3296.70 636.09 L3309.32 679.16 L3321.82 715.05 L3334.44 760.72 L3346.94 806.50 L3359.57 847.10 L3372.06 880.39 L3384.56 905.63 L3397.18 928.53 L3409.68 948.45 L3422.31 958.10 L3434.80 964.66 L3447.43 965.65 L3459.93 961.07 L3472.55 956.25 L3485.05 950.18 L3497.55 942.39 L3510.17 935.08 L3522.67 927.04 L3535.29 921.10 L3547.79 915.28 L3560.41 910.95 L3572.91 909.10 L3585.53 909.59 L3598.03 907.61 L3610.53 908.23 L3623.15 908.35 L3635.65 911.32 L3648.27 914.66 L3660.77 916.27 L3673.39 915.65 L3685.89 918.62" stroke-linejoin="round" style="fill:none;stroke:#90353B;stroke-width:18.43"/>
	<path d=" M2782.02 1029.76 L2794.65 1030.13 L2807.14 1028.52 L2819.77 1033.22 L2832.27 1034.21 L2844.76 1036.93 L2857.39 1028.27 L2869.89 1022.83 L2882.51 1023.82 L2895.01 1019.73 L2907.63 1007.85 L2920.13 985.58 L2932.75 973.20 L2945.25 953.28 L2957.75 950.80 L2970.37 945.60 L2982.87 916.03 L2995.49 891.40 L3007.99 875.68 L3020.61 857.49 L3033.11 837.44 L3045.74 830.64 L3058.23 823.09 L3070.73 800.69 L3083.36 790.04 L3095.85 778.91 L3108.48 765.29 L3120.97 744.01 L3133.60 731.14 L3146.10 723.84 L3158.59 724.70 L3171.22 725.94 L3183.72 717.15 L3196.34 719.88 L3208.84 730.89 L3221.46 745.00 L3233.96 755.89 L3246.58 755.27 L3259.08 757.87 L3271.58 768.14 L3284.20 775.19 L3296.70 778.54 L3309.32 771.85 L3321.82 768.02 L3334.44 779.28 L3346.94 787.20 L3359.57 805.51 L3372.06 834.22 L3384.56 862.44 L3397.18 893.26 L3409.68 918.13 L3422.31 927.78 L3434.80 939.66 L3447.43 950.18 L3459.93 951.54 L3472.55 951.91 L3485.05 948.45 L3497.55 946.22 L3510.17 946.10 L3522.67 942.39 L3535.29 935.58 L3547.79 931.12 L3560.41 930.75 L3572.91 931.00 L3585.53 927.54 L3598.03 922.71 L3610.53 922.83 L3623.15 929.14 L3635.65 933.60 L3648.27 944.37 L3660.77 949.32 L3673.39 954.02 L3685.89 958.35" stroke-linejoin="round" style="fill:none;stroke:#55752F;stroke-width:18.43"/>
	<path d=" M2782.02 1122.32 L2794.65 1122.32 L2807.14 1038.54 L2819.77 1038.54 L2832.27 871.10 L2844.76 871.10 L2857.39 871.10 L2869.89 871.10 L2882.51 871.10 L2895.01 787.32 L2907.63 787.32 L2920.13 787.32 L2932.75 703.54 L2945.25 619.76 L2957.75 619.76 L2970.37 619.76 L2982.87 619.76 L2995.49 619.76 L3007.99 619.76 L3020.61 536.10 L3033.11 536.10 L3045.74 536.10 L3058.23 536.10 L3070.73 536.10 L3083.36 452.32 L3095.85 452.32 L3108.48 452.32 L3120.97 452.32 L3133.60 452.32 L3146.10 452.32 L3158.59 536.10 L3171.22 536.10 L3183.72 619.76 L3196.34 619.76 L3208.84 536.10 L3221.46 536.10 L3233.96 536.10 L3246.58 619.76 L3259.08 619.76 L3271.58 619.76 L3284.20 703.54 L3296.70 787.32 L3309.32 787.32 L3321.82 787.32 L3334.44 787.32 L3346.94 787.32 L3359.57 787.32 L3372.06 871.10 L3384.56 871.10 L3397.18 871.10 L3409.68 871.10 L3422.31 871.10 L3434.80 954.88 L3447.43 954.88 L3459.93 954.88 L3472.55 954.88 L3485.05 954.88 L3497.55 954.88 L3510.17 954.88 L3522.67 954.88 L3535.29 1038.54 L3547.79 1038.54 L3560.41 1122.32 L3572.91 1038.54 L3585.53 1038.54 L3598.03 1038.54 L3610.53 1038.54 L3623.15 1038.54 L3635.65 1038.54 L3648.27 1038.54 L3660.77 1038.54 L3673.39 1038.54 L3685.89 1038.54" stroke-linejoin="round" style="fill:none;stroke:#E37E00;stroke-width:18.43"/>
	<path d=" M432.51 2035.63 L445.13 2031.05 L457.63 2027.71 L470.13 2023.00 L482.75 2017.19 L495.25 2011.50 L507.87 2002.09 L520.37 1992.93 L532.99 1981.79 L545.49 1971.40 L558.11 1956.80 L570.61 1940.71 L583.11 1924.25 L595.73 1905.31 L608.23 1886.63 L620.85 1864.85 L633.35 1835.27 L645.98 1820.91 L658.47 1803.59 L671.10 1779.33 L683.60 1759.41 L696.09 1743.32 L708.72 1730.95 L721.22 1713.99 L733.84 1740.85 L746.34 1721.79 L758.96 1699.02 L771.46 1680.08 L783.96 1677.61 L796.58 1672.78 L809.08 1645.06 L821.70 1631.45 L834.20 1649.02 L846.82 1653.72 L859.32 1664.49 L871.94 1670.18 L884.44 1689.12 L896.94 1721.91 L909.56 1727.11 L922.06 1745.67 L934.68 1753.10 L947.18 1811.39 L959.80 1778.59 L972.30 1812.13 L984.93 1844.30 L997.42 1780.45 L1009.92 1790.35 L1022.55 1802.48 L1035.05 1815.47 L1047.67 1816.71 L1060.17 1803.71 L1072.79 1820.79 L1085.29 1821.78 L1097.91 1825.49 L1110.41 1838.73 L1122.91 1853.46 L1135.53 1857.92 L1148.03 1856.18 L1160.65 1873.76 L1173.15 1896.65 L1185.77 1891.45 L1198.27 1899.37 L1210.89 1900.49 L1223.39 1897.02 L1235.89 1907.17 L1248.51 1918.93 L1261.01 1927.10 L1273.63 1929.45 L1286.13 1930.56 L1298.76 1956.67 L1311.26 1941.70 L1323.75 1955.81 L1336.38 1955.93" stroke-linejoin="round" style="fill:none;stroke:#1A476F;stroke-width:18.43"/>
	<path d=" M432.51 1929.57 L445.13 1929.57 L457.63 1929.57 L470.13 1929.57 L482.75 1929.57 L495.25 1929.57 L507.87 1929.57 L520.37 1929.57 L532.99 1929.57 L545.49 1929.57 L558.11 1929.57 L570.61 1929.57 L583.11 1929.57 L595.73 1929.57 L608.23 1929.57 L620.85 1929.57 L633.35 1892.57 L645.98 1873.51 L658.47 1862.37 L671.10 1861.26 L683.60 1844.18 L696.09 1826.36 L708.72 1810.52 L721.22 1799.75 L733.84 1785.64 L746.34 1769.93 L758.96 1748.77 L771.46 1731.69 L783.96 1713.74 L796.58 1701.74 L809.08 1681.57 L821.70 1665.23 L834.20 1649.76 L846.82 1635.65 L859.32 1627.49 L871.94 1627.49 L884.44 1624.64 L896.94 1632.56 L909.56 1646.17 L922.06 1663.75 L934.68 1690.48 L947.18 1720.80 L959.80 1745.55 L972.30 1769.06 L984.93 1792.70 L997.42 1813.12 L1009.92 1833.78 L1022.55 1848.51 L1035.05 1857.17 L1047.67 1868.81 L1060.17 1878.95 L1072.79 1884.90 L1085.29 1890.59 L1097.91 1891.58 L1110.41 1891.21 L1122.91 1890.09 L1135.53 1885.89 L1148.03 1883.04 L1160.65 1878.95 L1173.15 1879.08 L1185.77 1876.60 L1198.27 1874.75 L1210.89 1871.41 L1223.39 1871.03 L1235.89 1868.06 L1248.51 1869.18 L1261.01 1864.60 L1273.63 1864.48 L1286.13 1869.18 L1298.76 1875.61 L1311.26 1878.34 L1323.75 1880.44 L1336.38 1879.57" stroke-linejoin="round" style="fill:none;stroke:#90353B;stroke-width:18.43"/>
	<path d=" M432.51 1949.87 L445.13 1951.47 L457.63 1954.32 L470.13 1962.37 L482.75 1959.27 L495.25 1959.39 L507.87 1949.99 L520.37 1946.90 L532.99 1944.67 L545.49 1939.22 L558.11 1917.81 L570.61 1902.72 L583.11 1886.63 L595.73 1871.78 L608.23 1868.06 L620.85 1861.51 L633.35 1838.24 L645.98 1819.55 L658.47 1805.69 L671.10 1788.86 L683.60 1773.64 L696.09 1769.31 L708.72 1763.62 L721.22 1743.69 L733.84 1735.15 L746.34 1727.73 L758.96 1718.94 L771.46 1708.05 L783.96 1702.11 L796.58 1701.24 L809.08 1702.23 L821.70 1704.96 L834.20 1692.33 L846.82 1699.51 L859.32 1714.61 L871.94 1732.55 L884.44 1745.67 L896.94 1750.00 L909.56 1758.05 L922.06 1775.25 L934.68 1783.29 L947.18 1785.89 L959.80 1781.19 L972.30 1776.98 L984.93 1781.81 L997.42 1777.48 L1009.92 1783.29 L1022.55 1799.26 L1035.05 1817.20 L1047.67 1838.61 L1060.17 1856.68 L1072.79 1858.78 L1085.29 1873.63 L1097.91 1883.16 L1110.41 1885.27 L1122.91 1885.51 L1135.53 1884.03 L1148.03 1881.43 L1160.65 1883.91 L1173.15 1884.77 L1185.77 1883.41 L1198.27 1884.03 L1210.89 1882.92 L1223.39 1881.93 L1235.89 1878.46 L1248.51 1877.35 L1261.01 1877.47 L1273.63 1875.49 L1286.13 1872.52 L1298.76 1880.56 L1311.26 1881.80 L1323.75 1882.92 L1336.38 1881.18" stroke-linejoin="round" style="fill:none;stroke:#55752F;stroke-width:18.43"/>
	<path d=" M432.51 2054.56 L445.13 2054.56 L457.63 2054.56 L470.13 2054.56 L482.75 2054.56 L495.25 1970.78 L507.87 1803.22 L520.37 1803.22 L532.99 1803.22 L545.49 1803.22 L558.11 1803.22 L570.61 1635.78 L583.11 1635.78 L595.73 1635.78 L608.23 1635.78 L620.85 1635.78 L633.35 1635.78 L645.98 1635.78 L658.47 1552.00 L671.10 1552.00 L683.60 1552.00 L696.09 1468.22 L708.72 1468.22 L721.22 1468.22 L733.84 1468.22 L746.34 1384.43 L758.96 1384.43 L771.46 1384.43 L783.96 1384.43 L796.58 1384.43 L809.08 1384.43 L821.70 1384.43 L834.20 1384.43 L846.82 1468.22 L859.32 1635.78 L871.94 1635.78 L884.44 1635.78 L896.94 1635.78 L909.56 1635.78 L922.06 1803.22 L934.68 1803.22 L947.18 1803.22 L959.80 1803.22 L972.30 1803.22 L984.93 1803.22 L997.42 1803.22 L1009.92 1887.00 L1022.55 1803.22 L1035.05 1719.44 L1047.67 1803.22 L1060.17 1803.22 L1072.79 1803.22 L1085.29 1803.22 L1097.91 1887.00 L1110.41 1887.00 L1122.91 1887.00 L1135.53 1887.00 L1148.03 1887.00 L1160.65 1887.00 L1173.15 1887.00 L1185.77 1803.22 L1198.27 1803.22 L1210.89 1719.44 L1223.39 1719.44 L1235.89 1719.44 L1248.51 1719.44 L1261.01 1719.44 L1273.63 1719.44 L1286.13 1719.44 L1298.76 1719.44 L1311.26 1719.44 L1323.75 1719.44 L1336.38 1719.44" stroke-linejoin="round" style="fill:none;stroke:#E37E00;stroke-width:18.43"/>
	<path d=" M1607.27 2038.10 L1619.89 2034.14 L1632.39 2031.17 L1644.88 2027.09 L1657.51 2022.14 L1670.01 2017.19 L1682.63 2008.90 L1695.13 2000.98 L1707.75 1991.32 L1720.25 1982.29 L1732.87 1969.54 L1745.37 1955.56 L1757.87 1941.33 L1770.49 1924.87 L1782.99 1908.66 L1795.61 1889.72 L1808.11 1863.86 L1820.73 1851.48 L1833.23 1836.38 L1845.86 1815.35 L1858.35 1798.02 L1870.85 1784.04 L1883.47 1773.15 L1895.97 1758.54 L1908.60 1781.81 L1921.10 1765.23 L1933.72 1745.55 L1946.22 1728.97 L1958.84 1726.86 L1971.34 1722.65 L1983.84 1698.65 L1996.46 1686.77 L2008.96 1701.99 L2021.58 1706.19 L2034.08 1715.48 L2046.70 1720.43 L2059.20 1736.89 L2071.82 1765.35 L2084.32 1769.80 L2096.82 1786.02 L2109.44 1792.45 L2121.94 1843.19 L2134.56 1814.73 L2147.06 1843.81 L2159.68 1871.78 L2172.18 1816.34 L2184.68 1824.87 L2197.30 1835.39 L2209.80 1846.66 L2222.43 1847.77 L2234.93 1836.51 L2247.55 1851.36 L2260.05 1852.22 L2272.67 1855.44 L2285.17 1866.95 L2297.67 1879.82 L2310.29 1883.66 L2322.79 1882.05 L2335.41 1897.39 L2347.91 1917.32 L2360.53 1912.86 L2373.03 1919.67 L2385.65 1920.54 L2398.15 1917.69 L2410.65 1926.35 L2423.27 1936.62 L2435.77 1943.80 L2448.39 1945.78 L2460.89 1946.77 L2473.51 1969.42 L2486.01 1956.55 L2498.64 1968.68 L2511.14 1968.80" stroke-linejoin="round" style="fill:none;stroke:#1A476F;stroke-width:18.43"/>
	<path d=" M1607.27 1945.91 L1619.89 1945.91 L1632.39 1945.91 L1644.88 1945.91 L1657.51 1945.91 L1670.01 1945.91 L1682.63 1945.91 L1695.13 1945.91 L1707.75 1945.91 L1720.25 1945.91 L1732.87 1945.91 L1745.37 1945.91 L1757.87 1945.91 L1770.49 1945.91 L1782.99 1945.91 L1795.61 1945.91 L1808.11 1945.91 L1820.73 1945.91 L1833.23 1911.87 L1845.86 1896.78 L1858.35 1896.28 L1870.85 1884.65 L1883.47 1876.23 L1895.97 1864.72 L1908.60 1855.81 L1921.10 1846.41 L1933.72 1832.55 L1946.22 1819.55 L1958.84 1805.07 L1971.34 1792.08 L1983.84 1782.80 L1996.46 1771.91 L2008.96 1767.82 L2021.58 1764.11 L2034.08 1762.01 L2046.70 1767.45 L2059.20 1772.77 L2071.82 1779.58 L2084.32 1790.59 L2096.82 1801.11 L2109.44 1811.51 L2121.94 1821.41 L2134.56 1825.86 L2147.06 1831.06 L2159.68 1833.41 L2172.18 1834.40 L2184.68 1835.02 L2197.30 1841.09 L2209.80 1845.67 L2222.43 1851.98 L2234.93 1853.83 L2247.55 1858.54 L2260.05 1863.73 L2272.67 1863.86 L2285.17 1863.36 L2297.67 1860.02 L2310.29 1860.27 L2322.79 1865.47 L2335.41 1867.82 L2347.91 1869.30 L2360.53 1874.50 L2373.03 1879.94 L2385.65 1887.25 L2398.15 1888.98 L2410.65 1886.50 L2423.27 1886.13 L2435.77 1885.39 L2448.39 1884.15 L2460.89 1887.00 L2473.51 1885.89 L2486.01 1887.99 L2498.64 1891.83 L2511.14 1893.81" stroke-linejoin="round" style="fill:none;stroke:#90353B;stroke-width:18.43"/>
	<path d=" M1607.27 1990.09 L1619.89 1981.67 L1632.39 1975.73 L1644.88 1972.76 L1657.51 1978.33 L1670.01 1978.82 L1682.63 1968.68 L1695.13 1964.35 L1707.75 1968.31 L1720.25 1951.85 L1732.87 1947.64 L1745.37 1947.14 L1757.87 1944.42 L1770.49 1927.96 L1782.99 1931.18 L1795.61 1929.94 L1808.11 1898.51 L1820.73 1878.09 L1833.23 1858.29 L1845.86 1837.62 L1858.35 1812.00 L1870.85 1808.54 L1883.47 1803.59 L1895.97 1779.58 L1908.60 1771.04 L1921.10 1762.50 L1933.72 1761.51 L1946.22 1758.67 L1958.84 1752.11 L1971.34 1748.89 L1983.84 1752.48 L1996.46 1752.48 L2008.96 1732.80 L2021.58 1739.98 L2034.08 1757.06 L2046.70 1777.60 L2059.20 1793.44 L2071.82 1800.74 L2084.32 1810.89 L2096.82 1829.58 L2109.44 1840.22 L2121.94 1845.42 L2134.56 1840.10 L2147.06 1834.28 L2159.68 1836.38 L2172.18 1833.04 L2184.68 1837.13 L2197.30 1848.51 L2209.80 1865.22 L2222.43 1887.12 L2234.93 1903.09 L2247.55 1901.48 L2260.05 1906.43 L2272.67 1906.68 L2285.17 1905.56 L2297.67 1904.08 L2310.29 1900.12 L2322.79 1896.40 L2335.41 1895.29 L2347.91 1892.20 L2360.53 1889.60 L2373.03 1889.60 L2385.65 1889.97 L2398.15 1889.60 L2410.65 1886.63 L2423.27 1887.12 L2435.77 1892.57 L2448.39 1897.89 L2460.89 1901.35 L2473.51 1907.05 L2486.01 1908.78 L2498.64 1911.87 L2511.14 1915.71" stroke-linejoin="round" style="fill:none;stroke:#55752F;stroke-width:18.43"/>
	<path d=" M1607.27 2054.56 L1619.89 2054.56 L1632.39 2054.56 L1644.88 2054.56 L1657.51 2054.56 L1670.01 2054.56 L1682.63 2054.56 L1695.13 2054.56 L1707.75 2054.56 L1720.25 2054.56 L1732.87 2054.56 L1745.37 2054.56 L1757.87 1970.78 L1770.49 1970.78 L1782.99 1970.78 L1795.61 1970.78 L1808.11 1970.78 L1820.73 1970.78 L1833.23 1970.78 L1845.86 1970.78 L1858.35 1970.78 L1870.85 1970.78 L1883.47 1970.78 L1895.97 1970.78 L1908.60 1970.78 L1921.10 1887.00 L1933.72 1887.00 L1946.22 1887.00 L1958.84 1887.00 L1971.34 1887.00 L1983.84 1887.00 L1996.46 1887.00 L2008.96 1887.00 L2021.58 1887.00 L2034.08 1887.00 L2046.70 1887.00 L2059.20 1887.00 L2071.82 1887.00 L2084.32 1887.00 L2096.82 1887.00 L2109.44 1970.78 L2121.94 1970.78 L2134.56 1970.78 L2147.06 1970.78 L2159.68 1970.78 L2172.18 1970.78 L2184.68 1970.78 L2197.30 1970.78 L2209.80 1970.78 L2222.43 1970.78 L2234.93 1970.78 L2247.55 1970.78 L2260.05 1970.78 L2272.67 2054.56 L2285.17 2054.56 L2297.67 2054.56 L2310.29 1970.78 L2322.79 1970.78 L2335.41 1970.78 L2347.91 1970.78 L2360.53 1970.78 L2373.03 1970.78 L2385.65 1970.78 L2398.15 1970.78 L2410.65 1970.78 L2423.27 1970.78 L2435.77 1970.78 L2448.39 1970.78 L2460.89 1970.78 L2473.51 1970.78 L2486.01 1970.78 L2498.64 1970.78 L2511.14 1970.78" stroke-linejoin="round" style="fill:none;stroke:#E37E00;stroke-width:18.43"/>
	<path d=" M2782.02 2040.21 L2794.65 2036.74 L2807.14 2034.14 L2819.77 2030.55 L2832.27 2026.10 L2844.76 2021.77 L2857.39 2014.59 L2869.89 2007.66 L2882.51 1999.24 L2895.01 1991.32 L2907.63 1980.19 L2920.13 1967.93 L2932.75 1955.43 L2945.25 1940.96 L2957.75 1926.85 L2970.37 1910.26 L2982.87 1887.74 L2995.49 1876.85 L3007.99 1863.61 L3020.61 1845.17 L3033.11 1830.07 L3045.74 1817.82 L3058.23 1808.29 L3070.73 1795.54 L3083.36 1815.84 L3095.85 1801.36 L3108.48 1784.04 L3120.97 1769.68 L3133.60 1767.82 L3146.10 1764.11 L3158.59 1743.07 L3171.22 1732.68 L3183.72 1746.04 L3196.34 1749.63 L3208.84 1757.80 L3221.46 1762.13 L3233.96 1776.49 L3246.58 1801.49 L3259.08 1805.45 L3271.58 1819.55 L3284.20 1825.25 L3296.70 1869.55 L3309.32 1844.68 L3321.82 1870.17 L3334.44 1894.55 L3346.94 1846.04 L3359.57 1853.46 L3372.06 1862.74 L3384.56 1872.64 L3397.18 1873.63 L3409.68 1863.73 L3422.31 1876.73 L3434.80 1877.47 L3447.43 1880.19 L3459.93 1890.34 L3472.55 1901.60 L3485.05 1905.07 L3497.55 1903.58 L3510.17 1916.95 L3522.67 1934.40 L3535.29 1930.56 L3547.79 1936.50 L3560.41 1937.37 L3572.91 1934.77 L3585.53 1942.44 L3598.03 1951.35 L3610.53 1957.54 L3623.15 1959.39 L3635.65 1960.26 L3648.27 1980.06 L3660.77 1968.68 L3673.39 1979.44 L3685.89 1979.44" stroke-linejoin="round" style="fill:none;stroke:#1A476F;stroke-width:18.43"/>
	<path d=" M2782.02 1959.52 L2794.65 1959.52 L2807.14 1959.52 L2819.77 1959.52 L2832.27 1959.52 L2844.76 1959.52 L2857.39 1959.52 L2869.89 1959.52 L2882.51 1959.52 L2895.01 1959.52 L2907.63 1959.52 L2920.13 1959.52 L2932.75 1959.52 L2945.25 1959.52 L2957.75 1959.52 L2970.37 1959.52 L2982.87 1959.52 L2995.49 1959.52 L3007.99 1959.52 L3020.61 1959.52 L3033.11 1919.05 L3045.74 1907.91 L3058.23 1899.13 L3070.73 1889.23 L3083.36 1881.80 L3095.85 1871.65 L3108.48 1862.12 L3120.97 1857.92 L3133.60 1846.78 L3146.10 1837.62 L3158.59 1830.32 L3171.22 1821.78 L3183.72 1816.95 L3196.34 1806.81 L3208.84 1796.29 L3221.46 1792.20 L3233.96 1783.54 L3246.58 1777.60 L3259.08 1776.86 L3271.58 1777.11 L3284.20 1786.39 L3296.70 1793.56 L3309.32 1804.46 L3321.82 1816.34 L3334.44 1830.81 L3346.94 1836.63 L3359.57 1843.93 L3372.06 1847.65 L3384.56 1857.79 L3397.18 1863.86 L3409.68 1872.89 L3422.31 1873.26 L3434.80 1876.60 L3447.43 1879.20 L3459.93 1883.04 L3472.55 1882.67 L3485.05 1883.66 L3497.55 1885.51 L3510.17 1889.10 L3522.67 1895.17 L3535.29 1898.38 L3547.79 1898.88 L3560.41 1899.75 L3572.91 1902.72 L3585.53 1902.72 L3598.03 1901.60 L3610.53 1900.98 L3623.15 1904.94 L3635.65 1910.02 L3648.27 1919.55 L3660.77 1921.40 L3673.39 1924.99 L3685.89 1937.86" stroke-linejoin="round" style="fill:none;stroke:#90353B;stroke-width:18.43"/>
	<path d=" M2782.02 2002.34 L2794.65 2001.35 L2807.14 1999.99 L2819.77 1996.64 L2832.27 1993.30 L2844.76 1993.92 L2857.39 1990.46 L2869.89 1984.52 L2882.51 1977.22 L2895.01 1959.15 L2907.63 1953.83 L2920.13 1941.20 L2932.75 1936.87 L2945.25 1920.91 L2957.75 1920.54 L2970.37 1918.06 L2982.87 1902.10 L2995.49 1886.26 L3007.99 1875.49 L3020.61 1866.46 L3033.11 1856.43 L3045.74 1851.85 L3058.23 1846.41 L3070.73 1831.80 L3083.36 1827.60 L3095.85 1820.30 L3108.48 1813.86 L3120.97 1801.24 L3133.60 1797.52 L3146.10 1795.30 L3158.59 1795.54 L3171.22 1794.18 L3183.72 1787.25 L3196.34 1786.76 L3208.84 1793.19 L3221.46 1799.63 L3233.96 1804.83 L3246.58 1805.57 L3259.08 1807.67 L3271.58 1815.22 L3284.20 1821.53 L3296.70 1825.49 L3309.32 1819.80 L3321.82 1816.95 L3334.44 1825.62 L3346.94 1830.44 L3359.57 1845.17 L3372.06 1859.28 L3384.56 1872.27 L3397.18 1891.08 L3409.68 1907.42 L3422.31 1914.35 L3434.80 1926.11 L3447.43 1932.54 L3459.93 1934.52 L3472.55 1936.75 L3485.05 1934.15 L3497.55 1932.17 L3510.17 1932.91 L3522.67 1930.44 L3535.29 1928.83 L3547.79 1927.10 L3560.41 1929.32 L3572.91 1932.29 L3585.53 1933.28 L3598.03 1937.12 L3610.53 1941.95 L3623.15 1943.80 L3635.65 1950.73 L3648.27 1956.80 L3660.77 1958.65 L3673.39 1961.25 L3685.89 1960.14" stroke-linejoin="round" style="fill:none;stroke:#55752F;stroke-width:18.43"/>
	<path d=" M2782.02 2054.56 L2794.65 2054.56 L2807.14 2054.56 L2819.77 2054.56 L2832.27 2054.56 L2844.76 2054.56 L2857.39 2054.56 L2869.89 2054.56 L2882.51 2054.56 L2895.01 2054.56 L2907.63 2054.56 L2920.13 2054.56 L2932.75 2054.56 L2945.25 2054.56 L2957.75 2054.56 L2970.37 2054.56 L2982.87 2054.56 L2995.49 2054.56 L3007.99 2054.56 L3020.61 2054.56 L3033.11 2054.56 L3045.74 2054.56 L3058.23 2054.56 L3070.73 1970.78 L3083.36 1970.78 L3095.85 1970.78 L3108.48 1970.78 L3120.97 1970.78 L3133.60 1970.78 L3146.10 1970.78 L3158.59 1970.78 L3171.22 1970.78 L3183.72 1970.78 L3196.34 1970.78 L3208.84 1970.78 L3221.46 1970.78 L3233.96 1970.78 L3246.58 1970.78 L3259.08 1970.78 L3271.58 1970.78 L3284.20 1970.78 L3296.70 1970.78 L3309.32 1970.78 L3321.82 1970.78 L3334.44 1970.78 L3346.94 1970.78 L3359.57 1970.78 L3372.06 1970.78 L3384.56 1970.78 L3397.18 1970.78 L3409.68 1970.78 L3422.31 2054.56 L3434.80 2054.56 L3447.43 2054.56 L3459.93 2054.56 L3472.55 2054.56 L3485.05 2054.56 L3497.55 2054.56 L3510.17 2054.56 L3522.67 2054.56 L3535.29 2054.56 L3547.79 2054.56 L3560.41 2054.56 L3572.91 2054.56 L3585.53 2054.56 L3598.03 2054.56 L3610.53 2054.56 L3623.15 2054.56 L3635.65 2054.56 L3648.27 2054.56 L3660.77 2054.56 L3673.39 2054.56 L3685.89 2054.56" stroke-linejoin="round" style="fill:none;stroke:#E37E00;stroke-width:18.43"/>
	<line x1="369.39" y1="1172.94" x2="369.39" y2="401.58" style="stroke:#000000;stroke-width:4.61"/>
	<line x1="369.39" y1="1122.32" x2="337.34" y2="1122.32" style="stroke:#000000;stroke-width:4.61"/>
	<text x="321.38" y="1150.34" style="font-family:'Helvetica';font-size:79.94px;fill:#000000" text-anchor="end">0</text>
	<line x1="369.39" y1="954.76" x2="337.34" y2="954.76" style="stroke:#000000;stroke-width:4.61"/>
	<text x="321.38" y="982.77" style="font-family:'Helvetica';font-size:79.94px;fill:#000000" text-anchor="end">2</text>
	<line x1="369.39" y1="787.20" x2="337.34" y2="787.20" style="stroke:#000000;stroke-width:4.61"/>
	<text x="321.38" y="815.21" style="font-family:'Helvetica';font-size:79.94px;fill:#000000" text-anchor="end">4</text>
	<line x1="369.39" y1="619.76" x2="337.34" y2="619.76" style="stroke:#000000;stroke-width:4.61"/>
	<text x="321.38" y="647.77" style="font-family:'Helvetica';font-size:79.94px;fill:#000000" text-anchor="end">6</text>
	<line x1="369.39" y1="2105.18" x2="369.39" y2="1333.70" style="stroke:#000000;stroke-width:4.61"/>
	<line x1="369.39" y1="2054.44" x2="337.34" y2="2054.44" style="stroke:#000000;stroke-width:4.61"/>
	<text x="321.38" y="2082.45" style="font-family:'Helvetica';font-size:79.94px;fill:#000000" text-anchor="end">0</text>
	<line x1="369.39" y1="1886.88" x2="337.34" y2="1886.88" style="stroke:#000000;stroke-width:4.61"/>
	<text x="321.38" y="1914.89" style="font-family:'Helvetica';font-size:79.94px;fill:#000000" text-anchor="end">2</text>
	<line x1="369.39" y1="1719.44" x2="337.34" y2="1719.44" style="stroke:#000000;stroke-width:4.61"/>
	<text x="321.38" y="1747.45" style="font-family:'Helvetica';font-size:79.94px;fill:#000000" text-anchor="end">4</text>
	<line x1="369.39" y1="1551.87" x2="337.34" y2="1551.87" style="stroke:#000000;stroke-width:4.61"/>
	<text x="321.38" y="1579.89" style="font-family:'Helvetica';font-size:79.94px;fill:#000000" text-anchor="end">6</text>
	<line x1="369.39" y1="2105.18" x2="1474.98" y2="2105.18" style="stroke:#000000;stroke-width:4.61"/>
	<line x1="420.01" y1="2105.18" x2="420.01" y2="2137.11" style="stroke:#000000;stroke-width:4.61"/>
	<text x="420.01" y="2208.97" style="font-family:'Helvetica';font-size:79.94px;fill:#000000" text-anchor="middle">0</text>
	<line x1="671.10" y1="2105.18" x2="671.10" y2="2137.11" style="stroke:#000000;stroke-width:4.61"/>
	<text x="671.10" y="2208.97" style="font-family:'Helvetica';font-size:79.94px;fill:#000000" text-anchor="middle">20</text>
	<line x1="922.18" y1="2105.18" x2="922.18" y2="2137.11" style="stroke:#000000;stroke-width:4.61"/>
	<text x="922.18" y="2208.97" style="font-family:'Helvetica';font-size:79.94px;fill:#000000" text-anchor="middle">40</text>
	<line x1="1173.27" y1="2105.18" x2="1173.27" y2="2137.11" style="stroke:#000000;stroke-width:4.61"/>
	<text x="1173.27" y="2208.97" style="font-family:'Helvetica';font-size:79.94px;fill:#000000" text-anchor="middle">60</text>
	<line x1="1424.36" y1="2105.18" x2="1424.36" y2="2137.11" style="stroke:#000000;stroke-width:4.61"/>
	<text x="1424.36" y="2208.97" style="font-family:'Helvetica';font-size:79.94px;fill:#000000" text-anchor="middle">80</text>
	<line x1="1544.15" y1="2105.18" x2="2649.74" y2="2105.18" style="stroke:#000000;stroke-width:4.61"/>
	<line x1="1594.77" y1="2105.18" x2="1594.77" y2="2137.11" style="stroke:#000000;stroke-width:4.61"/>
	<text x="1594.77" y="2208.97" style="font-family:'Helvetica';font-size:79.94px;fill:#000000" text-anchor="middle">0</text>
	<line x1="1845.86" y1="2105.18" x2="1845.86" y2="2137.11" style="stroke:#000000;stroke-width:4.61"/>
	<text x="1845.86" y="2208.97" style="font-family:'Helvetica';font-size:79.94px;fill:#000000" text-anchor="middle">20</text>
	<line x1="2096.94" y1="2105.18" x2="2096.94" y2="2137.11" style="stroke:#000000;stroke-width:4.61"/>
	<text x="2096.94" y="2208.97" style="font-family:'Helvetica';font-size:79.94px;fill:#000000" text-anchor="middle">40</text>
	<line x1="2348.03" y1="2105.18" x2="2348.03" y2="2137.11" style="stroke:#000000;stroke-width:4.61"/>
	<text x="2348.03" y="2208.97" style="font-family:'Helvetica';font-size:79.94px;fill:#000000" text-anchor="middle">60</text>
	<line x1="2599.12" y1="2105.18" x2="2599.12" y2="2137.11" style="stroke:#000000;stroke-width:4.61"/>
	<text x="2599.12" y="2208.97" style="font-family:'Helvetica';font-size:79.94px;fill:#000000" text-anchor="middle">80</text>
	<line x1="2718.91" y1="2105.18" x2="3824.49" y2="2105.18" style="stroke:#000000;stroke-width:4.61"/>
	<line x1="2769.53" y1="2105.18" x2="2769.53" y2="2137.11" style="stroke:#000000;stroke-width:4.61"/>
	<text x="2769.53" y="2208.97" style="font-family:'Helvetica';font-size:79.94px;fill:#000000" text-anchor="middle">0</text>
	<line x1="3020.61" y1="2105.18" x2="3020.61" y2="2137.11" style="stroke:#000000;stroke-width:4.61"/>
	<text x="3020.61" y="2208.97" style="font-family:'Helvetica';font-size:79.94px;fill:#000000" text-anchor="middle">20</text>
	<line x1="3271.70" y1="2105.18" x2="3271.70" y2="2137.11" style="stroke:#000000;stroke-width:4.61"/>
	<text x="3271.70" y="2208.97" style="font-family:'Helvetica';font-size:79.94px;fill:#000000" text-anchor="middle">40</text>
	<line x1="3522.79" y1="2105.18" x2="3522.79" y2="2137.11" style="stroke:#000000;stroke-width:4.61"/>
	<text x="3522.79" y="2208.97" style="font-family:'Helvetica';font-size:79.94px;fill:#000000" text-anchor="middle">60</text>
	<line x1="3773.88" y1="2105.18" x2="3773.88" y2="2137.11" style="stroke:#000000;stroke-width:4.61"/>
	<text x="3773.88" y="2208.97" style="font-family:'Helvetica';font-size:79.94px;fill:#000000" text-anchor="middle">80</text>
	<rect x="369.39" y="309.88" width="1105.58" height="91.70" style="fill:#D9E6EB"/>
	<rect x="371.70" y="312.18" width="1100.97" height="87.09" style="fill:none;stroke:#D9E6EB;stroke-width:4.61"/>
	<text x="922.18" y="368.46" style="font-family:'Helvetica';font-size:63.98px;fill:#000000" text-anchor="middle">Cambridgeshire and Peterborough</text>
	<rect x="1544.15" y="309.88" width="1105.58" height="91.70" style="fill:#D9E6EB"/>
	<rect x="1546.46" y="312.18" width="1100.97" height="87.09" style="fill:none;stroke:#D9E6EB;stroke-width:4.61"/>
	<text x="2096.94" y="368.46" style="font-family:'Helvetica';font-size:63.98px;fill:#000000" text-anchor="middle">Hertfordshire and West Essex</text>
	<rect x="2718.91" y="309.88" width="1105.58" height="91.70" style="fill:#D9E6EB"/>
	<rect x="2721.22" y="312.18" width="1100.97" height="87.09" style="fill:none;stroke:#D9E6EB;stroke-width:4.61"/>
	<text x="3271.70" y="368.46" style="font-family:'Helvetica';font-size:63.98px;fill:#000000" text-anchor="middle">Mid and South Essex</text>
	<rect x="369.39" y="1242.12" width="1105.58" height="91.58" style="fill:#D9E6EB"/>
	<rect x="371.70" y="1244.42" width="1100.97" height="86.97" style="fill:none;stroke:#D9E6EB;stroke-width:4.61"/>
	<text x="922.18" y="1300.58" style="font-family:'Helvetica';font-size:63.98px;fill:#000000" text-anchor="middle">Milton Keynes, Bedfordshire and Luton</text>
	<rect x="1544.15" y="1242.12" width="1105.58" height="91.58" style="fill:#D9E6EB"/>
	<rect x="1546.46" y="1244.42" width="1100.97" height="86.97" style="fill:none;stroke:#D9E6EB;stroke-width:4.61"/>
	<text x="2096.94" y="1300.58" style="font-family:'Helvetica';font-size:63.98px;fill:#000000" text-anchor="middle">Norfolk and Waveney</text>
	<rect x="2718.91" y="1242.12" width="1105.58" height="91.58" style="fill:#D9E6EB"/>
	<rect x="2721.22" y="1244.42" width="1100.97" height="86.97" style="fill:none;stroke:#D9E6EB;stroke-width:4.61"/>
	<text x="3271.70" y="1300.58" style="font-family:'Helvetica';font-size:63.98px;fill:#000000" text-anchor="middle">Suffolk and North East Essex</text>
	<rect x="432.38" y="2418.27" width="3195.10" height="326.34" style="fill:#FFFFFF"/>
	<rect x="435.26" y="2421.15" width="3189.34" height="320.58" style="fill:none;stroke:#000000;stroke-width:5.76"/>
	<line x1="475.57" y1="2511.46" x2="850.04" y2="2511.46" style="stroke:#1A476F;stroke-width:23.04"/>
	<line x1="2166.99" y1="2511.46" x2="2541.45" y2="2511.46" style="stroke:#90353B;stroke-width:23.04"/>
	<line x1="475.57" y1="2651.43" x2="850.04" y2="2651.43" style="stroke:#55752F;stroke-width:23.04"/>
	<line x1="2166.99" y1="2651.43" x2="2541.45" y2="2651.43" style="stroke:#E37E00;stroke-width:23.04"/>
	<text x="909.93" y="2546.49" style="font-family:'Helvetica';font-size:99.99px;fill:#000000">Force of infection</text>
	<text x="2601.35" y="2546.49" style="font-family:'Helvetica';font-size:99.99px;fill:#000000">Smoothed A &amp; E rate</text>
	<text x="909.93" y="2686.46" style="font-family:'Helvetica';font-size:99.99px;fill:#000000">GP suspected case rate</text>
	<text x="2601.35" y="2686.46" style="font-family:'Helvetica';font-size:99.99px;fill:#000000">Crude numbers</text>
	<text x="170.79" y="1279.49" style="font-family:'Helvetica';font-size:99.99px;fill:#000000" transform="rotate(-90 170.79,1279.49)" text-anchor="middle">Expected number of cases</text>
	<text x="2029.99" y="2353.56" style="font-family:'Helvetica';font-size:99.99px;fill:#000000" text-anchor="middle"> </text>
	<text x="2029.99" y="215.98" style="font-family:'Helvetica';font-size:139.96px;fill:#1E2D53" text-anchor="middle">East</text>
</svg>
